<?xml version="1.0" standalone="no"?>
<!DOCTYPE svg PUBLIC "-//W3C//DTD SVG 1.1//EN" "http://www.w3.org/Graphics/SVG/1.1/DTD/svg11.dtd" >
<svg xmlns="http://www.w3.org/2000/svg" xmlns:xlink="http://www.w3.org/1999/xlink" version="1.1">
<metadata>
Created by FontForge 20190801 at Thu Mar 31 16:20:09 2016
 By www-data
(C) 2015 Wizards of the Coast LLC
</metadata>
<defs>
<font id="modesto" horiz-adv-x="574" >
  <font-face 
    font-family="modesto"
    font-weight="700"
    font-stretch="normal"
    units-per-em="1000"
    panose-1="0 0 0 0 0 0 0 0 0 0"
    ascent="808"
    descent="-192"
    x-height="460"
    cap-height="700"
    bbox="-61 -193 1264 880"
    underline-thickness="20"
    underline-position="-153"
    unicode-range="U+0009-FB02"
  />
<missing-glyph horiz-adv-x="1000" 
 />
    <glyph glyph-name=".notdef" horiz-adv-x="1000" 
 />
    <glyph glyph-name=".null" horiz-adv-x="0" 
 />
    <glyph glyph-name="nonmarkingreturn" horiz-adv-x="333" 
 />
    <glyph glyph-name="NUL" horiz-adv-x="0" 
 />
    <glyph glyph-name="NUL" horiz-adv-x="0" 
 />
    <glyph glyph-name="HT" unicode="&#x9;" horiz-adv-x="1000" 
 />
    <glyph glyph-name="LF" unicode="&#xa;" horiz-adv-x="1000" 
 />
    <glyph glyph-name="CR" unicode="&#xd;" horiz-adv-x="1000" 
 />
    <glyph glyph-name="DLE" horiz-adv-x="1000" 
 />
    <glyph glyph-name="DC1" horiz-adv-x="1000" 
 />
    <glyph glyph-name="DC2" horiz-adv-x="1000" 
 />
    <glyph glyph-name="DC3" horiz-adv-x="1000" 
 />
    <glyph glyph-name="DC4" horiz-adv-x="1000" 
 />
    <glyph glyph-name="RS" horiz-adv-x="1000" 
 />
    <glyph glyph-name="US" horiz-adv-x="1000" 
 />
    <glyph glyph-name="space" unicode=" " horiz-adv-x="220" 
 />
    <glyph glyph-name="exclam" unicode="!" horiz-adv-x="353" 
d="M293 700v-27l-32 -18l-53 -384l-34 -29l-34 29l-48 383l-32 19v27h233zM255 68q0 -35 -22.5 -54.5t-55.5 -19.5t-56.5 19.5t-23.5 54.5q0 33 23.5 54.5t56.5 21.5q32 0 55 -21.5t23 -54.5z" />
    <glyph glyph-name="quotedbl" unicode="&#x22;" horiz-adv-x="433" 
d="M235 708h118l-22 -232h-74zM80 708h119l-22 -232h-75z" />
    <glyph glyph-name="numbersign" unicode="#" horiz-adv-x="578" 
d="M469 484h81l-25 -89h-81l-24 -98h82l-23 -87h-82l-44 -170h-106l44 170h-79l-44 -170h-101l42 170h-81l25 87h80l24 98h-85l25 89h84l47 175h100l-46 -175h80l46 175h106zM315 297l24 98h-80l-24 -98h80z" />
    <glyph glyph-name="dollar" unicode="$" horiz-adv-x="555" 
d="M490 214q0 -69 -40 -113.5t-113 -58.5v-93h-86v87q-83 0 -164 24l-22 161h32l24 -50q39 -27 139 -27q46 0 69.5 17.5t23.5 42.5t-13 41t-49 36l-106 57q-101 54 -101 160q0 69 47.5 109.5t119.5 51.5v90h86v-90q54 -1 110 -19l16 -140l-31 1l-17 38q-43 17 -112 17
q-43 0 -63.5 -14.5t-20.5 -34.5t12 -35t51 -35l82 -43q126 -66 126 -180z" />
    <glyph glyph-name="percent" unicode="%" horiz-adv-x="894" 
d="M866 189q0 -91 -48.5 -145.5t-130.5 -54.5q-81 0 -130 55t-49 145q0 88 51 139t128 51t128 -51t51 -139zM602 711h123l-410 -719h-122zM385 519q0 -91 -48.5 -145t-129.5 -54t-130 54.5t-49 144.5q0 88 51 139.5t128 51.5t127.5 -51.5t50.5 -139.5zM748 187q0 97 -62 97
q-60 0 -60 -96q0 -105 60 -105q62 0 62 104zM268 518q0 49 -17 73.5t-45 24.5q-60 0 -60 -97q0 -105 60 -105q62 0 62 104z" />
    <glyph glyph-name="ampersand" unicode="&#x26;" horiz-adv-x="720" 
d="M679 324q0 -39 -28 -76l-20 4q0 32 -26 32q-25 0 -41 -20t-35 -82l83 -136l62 -19v-27h-189l-41 58q-41 -43 -81.5 -59t-105.5 -16q-97 0 -159 56.5t-62 158.5q0 50 13 88t39.5 66.5t55.5 48t72 40.5q-27 54 -28 97q-1 88 59.5 133t153.5 45q82 0 142 -28l16 -154h-29
l-21 45q-38 20 -95 18q-28 -1 -46 -7t-24.5 -17t-8.5 -18.5t-2 -18.5q0 -29 41 -97l89 -147q41 119 136 119q39 0 59.5 -25.5t20.5 -61.5zM383 159l-108 183q-24 -13 -39 -23t-31 -25.5t-23.5 -37t-7.5 -48.5q0 -56 28 -84t73 -28q67 0 108 63z" />
    <glyph glyph-name="quotesingle" unicode="'" horiz-adv-x="279" 
d="M80 708h119l-22 -232h-75z" />
    <glyph glyph-name="parenleft" unicode="(" horiz-adv-x="378" 
d="M341 -120v-47q-114 39 -200 163t-86 293q0 91 26 172.5t68 138t91.5 93.5t100.5 50v-47q-61 -38 -97 -152t-36 -255q0 -142 34.5 -254.5t98.5 -154.5z" />
    <glyph glyph-name="parenright" unicode=")" horiz-adv-x="378" 
d="M324 289q0 -169 -86 -293t-200 -163v47q64 42 98.5 154.5t34.5 254.5q0 141 -36 255t-97 152v47q51 -13 100.5 -50t91.5 -93.5t68 -138t26 -172.5z" />
    <glyph glyph-name="asterisk" unicode="*" horiz-adv-x="366" 
d="M285 711l21 -86l-78 -5v-2l58 -55l-69 -50l-33 74h-2l-32 -74l-70 49l56 57v3l-76 8l23 81l68 -39l2 1l-11 77h85l-16 -77l1 -1z" />
    <glyph glyph-name="plus" unicode="+" horiz-adv-x="494" 
d="M439 371v-95h-144v-144h-96v144h-144v95h144v144h96v-144h144z" />
    <glyph glyph-name="comma" unicode="," horiz-adv-x="268" 
d="M210 54q0 -47 -36.5 -93t-86.5 -67l-27 45q20 8 39 26t25 34q-30 0 -48 17.5t-18 47.5q0 31 22 53t52 22q38 0 58 -24.5t20 -60.5z" />
    <glyph glyph-name="hyphen" unicode="-" horiz-adv-x="420" 
d="M309 319l41 -55l-41 -54h-194l-45 55l45 54h194z" />
    <glyph glyph-name="period" unicode="." horiz-adv-x="267" 
d="M209 65q0 -33 -21.5 -52t-52.5 -19q-32 0 -54.5 18.5t-22.5 52.5q0 32 23 53t54 21t52.5 -21t21.5 -53z" />
    <glyph glyph-name="slash" unicode="/" horiz-adv-x="390" 
d="M251 743h119l-232 -841h-118z" />
    <glyph glyph-name="zero" unicode="0" horiz-adv-x="681" 
d="M641 358q0 -171 -79 -271t-222 -100t-221.5 100.5t-78.5 270.5q0 162 85 260t215 98t215.5 -98t85.5 -260zM499 355q0 117 -44 180t-116 63t-113.5 -63.5t-41.5 -176.5q0 -121 40 -188t115 -67q77 0 118.5 66t41.5 186z" />
    <glyph glyph-name="one" unicode="1" horiz-adv-x="421" 
d="M353 28v-28h-225v28l42 19l-1 458h-139v72q129 27 173 123h116q-9 -24 -9 -69v-584z" />
    <glyph glyph-name="two" unicode="2" horiz-adv-x="600" 
d="M541 171h33l-36 -171h-520q12 125 80.5 211.5t181.5 151.5q81 47 111.5 76t30.5 66q0 89 -132 89q-105 0 -163 -28l-26 -46h-34l29 162q110 31 213 31q126 0 192.5 -52.5t66.5 -144.5q0 -145 -158 -231q-105 -57 -148 -93.5t-57 -71.5h309z" />
    <glyph glyph-name="three" unicode="3" horiz-adv-x="593" 
d="M563 204q0 -93 -73.5 -155t-214.5 -62q-56 0 -124.5 14.5t-94.5 26.5l-28 173h36l26 -59q73 -39 184 -39q146 0 146 105q0 56 -36 81t-114 25h-35v110h27q65 0 100 24.5t35 66.5q0 44 -31.5 63t-104.5 19q-91 0 -155 -33l-25 -49l-34 1l26 163q104 37 219 37
q123 0 185.5 -45.5t62.5 -129.5q0 -61 -24.5 -97.5t-72.5 -64.5v-2q53 -16 86.5 -61.5t33.5 -111.5z" />
    <glyph glyph-name="four" unicode="4" horiz-adv-x="647" 
d="M609 246l1 -109h-89v-90l44 -19v-28h-224v28l43 18v91h-315l-39 75l318 488h179q-6 -57 -6 -71v-383h88zM184 245h200v312h-1l-199 -310v-2z" />
    <glyph glyph-name="five" unicode="5" horiz-adv-x="600" 
d="M567 220q0 -107 -75 -168.5t-230 -61.5q-94 0 -198 26l-32 165h33l26 -48q53 -35 178 -35q156 0 156 125q0 58 -40 89t-119 31q-96 0 -158 -50l-74 35l67 372h406l23 -157h-31l-22 41h-267l-28 -148q60 19 125 19q113 0 186.5 -61.5t73.5 -173.5z" />
    <glyph glyph-name="six" unicode="6" horiz-adv-x="647" 
d="M627 230q0 -104 -72.5 -172t-208.5 -68q-148 0 -227 92.5t-79 257.5q0 182 87 278t235 96q103 0 187 -32l17 -155h-29l-23 50q-56 26 -152 26q-152 0 -177 -194q82 45 175 45q125 0 196 -61.5t71 -162.5zM487 224q0 110 -146 110q-87 0 -160 -49q7 -79 49 -130.5
t115 -51.5q68 0 105 31t37 90z" />
    <glyph glyph-name="seven" unicode="7" horiz-adv-x="588" 
d="M557 700l19 -41q-117 -111 -189 -283t-71 -330l42 -18v-28h-193q0 155 56 320t146 263l-1 2h-300l-22 -41l-30 1l29 155h514z" />
    <glyph glyph-name="eight" unicode="8" horiz-adv-x="661" 
d="M631 198q0 -96 -76 -152t-223 -56q-152 0 -227 55t-75 151q0 65 37 109t97 66v2q-46 21 -71 60.5t-25 90.5q0 88 70.5 140t192.5 52t192 -51.5t70 -142.5q0 -49 -25 -89t-71 -61v-2q134 -53 134 -172zM450 507q0 44 -33.5 71t-85.5 27t-86.5 -26.5t-34.5 -71.5
q0 -42 33.5 -67t87.5 -25q53 0 86 25t33 67zM487 206q0 45 -43.5 73.5t-111.5 28.5q-72 0 -115.5 -29t-43.5 -76q0 -46 43.5 -73.5t115.5 -27.5q73 0 114 27t41 77z" />
    <glyph glyph-name="nine" unicode="9" horiz-adv-x="657" 
d="M617 363q0 -183 -87.5 -278t-243.5 -95q-65 0 -185 28l-23 158h32l24 -50q69 -25 138 -25q92 0 140 44.5t61 148.5q-82 -45 -175 -45q-125 0 -196.5 62t-71.5 163q0 103 73 171.5t209 68.5q148 0 226.5 -92.5t78.5 -258.5zM477 419q-7 79 -49 130.5t-115 51.5
q-68 0 -105 -31t-37 -91q0 -109 146 -109q87 0 160 49z" />
    <glyph glyph-name="colon" unicode=":" horiz-adv-x="267" 
d="M209 359q0 -33 -21.5 -52.5t-52.5 -19.5q-32 0 -54.5 19t-22.5 53q0 32 23 52.5t54 20.5t52.5 -20.5t21.5 -52.5zM209 65q0 -33 -21.5 -52t-52.5 -19q-32 0 -54.5 18.5t-22.5 52.5q0 32 23 53t54 21t52.5 -21t21.5 -53z" />
    <glyph glyph-name="semicolon" unicode=";" horiz-adv-x="268" 
d="M209 359q0 -33 -21.5 -52.5t-52.5 -19.5q-32 0 -54.5 19t-22.5 53q0 32 23 52.5t54 20.5t52.5 -20.5t21.5 -52.5zM210 54q0 -47 -36.5 -93t-86.5 -67l-27 45q20 8 39 26t25 34q-30 0 -48 17.5t-18 47.5q0 31 22 53t52 22q38 0 58 -24.5t20 -60.5z" />
    <glyph glyph-name="less" unicode="&#x3c;" horiz-adv-x="457" 
d="M402 245v-107l-347 153v65l347 154v-107l-199 -79z" />
    <glyph glyph-name="equal" unicode="=" horiz-adv-x="457" 
d="M402 451v-91h-347v91h347zM402 287v-91h-347v91h347z" />
    <glyph glyph-name="greater" unicode="&#x3e;" horiz-adv-x="457" 
d="M402 356v-65l-347 -153v107l199 79l-199 79v107z" />
    <glyph glyph-name="question" unicode="?" horiz-adv-x="523" 
d="M463 559q0 -58 -31 -96.5t-99 -88.5q-37 -27 -52.5 -48.5t-16.5 -51.5l-41 -31l-35 31q0 60 14 86.5t64 71.5q61 55 61 108q0 64 -97 64q-48 0 -108 -21l-23 -48h-29l16 153q107 28 186 28q90 0 140.5 -39t50.5 -118zM301 68q0 -35 -22 -54.5t-55 -19.5t-56.5 19.5
t-23.5 54.5q0 33 23.5 54.5t56.5 21.5q32 0 54.5 -21.5t22.5 -54.5z" />
    <glyph glyph-name="at" unicode="@" horiz-adv-x="988" 
d="M928 343q0 -111 -53.5 -178t-159.5 -67q-61 0 -90 11.5t-50 36.5q-41 -44 -109 -44q-62 0 -97 29t-35 82q0 56 45 90t117 59l49 17v12q0 54 -63 54q-38 0 -70 -17l-19 -36h-28l12 115q81 24 142 24q73 0 111.5 -35.5t38.5 -98.5v-185q0 -41 52 -41q50 0 78.5 44t28.5 126
q0 132 -85.5 210.5t-234.5 78.5q-148 0 -242.5 -90.5t-94.5 -222.5q0 -145 92.5 -228.5t244.5 -83.5q88 0 170 39l39 -88q-102 -44 -209 -44q-202 0 -325 111t-123 294q0 169 129 286t319 117t305 -104t115 -273zM545 239v58l-36 -15q-56 -24 -56 -63q0 -33 43 -33
q21 0 35 15t14 38z" />
    <glyph glyph-name="A" unicode="A" horiz-adv-x="706" 
d="M699 28v-28h-236v28l37 19l-21 69l-135 -25l-134 25l-18 -69l36 -19v-28h-219v28l40 19l207 608l-35 18v27h212l226 -653zM346 208l96 23l-101 313h-2l-93 -313z" />
    <glyph glyph-name="B" unicode="B" horiz-adv-x="646" 
d="M613 212q0 -103 -78 -161.5t-240 -58.5q-137 0 -262 8v28l42 18v608l-42 19v27q128 7 256 7q145 0 218.5 -43t73.5 -146q0 -39 -22.5 -78.5t-61.5 -60.5v-2q116 -48 116 -165zM432 508q0 83 -133 83q-8 0 -80 -3v-157q24 -1 93 -1q59 0 89.5 22.5t30.5 55.5zM466 211
q0 50 -44.5 75t-115.5 25q-15 0 -87 -3v-197q44 -2 79 -2q80 0 124 26t44 76z" />
    <glyph glyph-name="C" unicode="C" horiz-adv-x="628" 
d="M565 200h30l-18 -181q-109 -34 -193 -34q-160 0 -255.5 95.5t-95.5 269.5q0 165 101.5 265.5t252.5 100.5q110 0 181 -26l19 -166h-31l-21 45q-58 26 -144 26q-96 0 -152 -61t-56 -183q0 -121 59.5 -183.5t153.5 -62.5q93 0 147 40z" />
    <glyph glyph-name="D" unicode="D" horiz-adv-x="709" 
d="M676 358q0 -167 -90.5 -266.5t-288.5 -99.5q-144 0 -264 8v28l42 18v609l-42 18v27q156 7 272 7q193 0 282 -88t89 -261zM528 359q0 111 -61 171t-170 60q-17 0 -42.5 -1t-32.5 -1v-477q38 -2 75 -2q111 0 171 67t60 183z" />
    <glyph glyph-name="E" unicode="E" horiz-adv-x="588" 
d="M529 166h30l-19 -166h-507v28l42 19v608l-41 18v27h501l20 -158l-30 -1l-19 42h-284v-138h250l13 37h26v-193h-26l-13 39h-250v-210h291z" />
    <glyph glyph-name="F" unicode="F" horiz-adv-x="582" 
d="M535 700l20 -158l-29 -1l-19 42h-285v-147h248l13 37h28v-193h-28l-13 39h-248v-273l50 -18v-28h-239v28l42 19v608l-41 18v27h501z" />
    <glyph glyph-name="G" unicode="G" horiz-adv-x="699" 
d="M680 363v-27l-43 -18v-223l6 -27v-9q-148 -74 -266 -74q-155 0 -249.5 94t-94.5 274q0 114 52 198.5t131 124.5t171 40q98 0 181 -26l19 -166h-32l-21 45q-54 26 -151 26q-96 0 -148 -64.5t-52 -177.5q0 -117 56 -182.5t148 -65.5q68 0 110 23v190l-42 18v27h225z" />
    <glyph glyph-name="H" unicode="H" horiz-adv-x="724" 
d="M692 28v-28h-232v28l42 18v273l-147 -31l-133 31v-273l43 -18v-28h-232v28l42 18v609l-42 18v27h232v-27l-43 -18v-219l133 -31l147 31v219l-42 18v27h232v-27l-43 -18v-609z" />
    <glyph glyph-name="I" unicode="I" horiz-adv-x="297" 
d="M265 27v-27h-232v27l42 19v609l-42 18v27h232v-27l-43 -18v-609z" />
    <glyph glyph-name="J" unicode="J" horiz-adv-x="535" 
d="M504 700v-27l-43 -18v-493l13 -41v-12q-52 -60 -118 -92t-132 -32q-102 0 -180 41l-12 158h31l19 -54q59 -32 132 -32q47 0 73.5 25.5t26.5 66.5v465l-42 18v27h232z" />
    <glyph glyph-name="K" unicode="K" horiz-adv-x="681" 
d="M662 28v-28h-195q-40 64 -83 154q-32 67 -65 154l-97 -110v-152l43 -18v-28h-232v28l42 18v609l-42 18v27h232v-27l-43 -18v-272h2l214 272l-45 18v27h252v-27l-44 -18l-173 -222q62 -178 186 -387z" />
    <glyph glyph-name="L" unicode="L" horiz-adv-x="588" 
d="M535 170h33l-28 -170h-507v28l42 18v609l-42 18v27h232v-27l-43 -18v-537h286z" />
    <glyph glyph-name="M" unicode="M" horiz-adv-x="816" 
d="M785 28v-28h-227v28l42 18v408h-2l-163 -287h-60l-155 285h-1v-406l43 -18v-28h-229v28l42 18v609l-42 18v27h196l184 -340h2l189 340h181v-27l-43 -18v-609z" />
    <glyph glyph-name="N" unicode="N" horiz-adv-x="721" 
d="M687 700v-27l-43 -18v-655h-101l-333 468h-3v-422l43 -18v-28h-217v28l42 18v609l-42 18v27h176l301 -420h2v375l-42 18v27h217z" />
    <glyph glyph-name="O" unicode="O" horiz-adv-x="776" 
d="M743 350q0 -167 -100 -267t-256 -100q-151 0 -252.5 98t-101.5 269q0 172 102 269t252 97q153 0 254.5 -97.5t101.5 -268.5zM590 349q0 118 -58 181.5t-145 63.5q-85 0 -142.5 -64t-57.5 -180q0 -114 57.5 -180t142.5 -66q86 0 144.5 65t58.5 180z" />
    <glyph glyph-name="P" unicode="P" horiz-adv-x="626" 
d="M600 484q0 -106 -83.5 -168.5t-228.5 -62.5q-3 0 -66 3v-210l45 -18v-28h-234v28l42 18v609l-42 18v27q187 8 253 8q165 0 239.5 -49.5t74.5 -174.5zM452 484q0 107 -156 107q-20 0 -74 -3v-215q42 -2 70 -2q160 0 160 113z" />
    <glyph glyph-name="Q" unicode="Q" horiz-adv-x="776" 
d="M743 350q0 -117 -51.5 -203.5t-140.5 -128.5q19 -19 45.5 -33.5t44.5 -16.5l30 35l22 -9l-56 -137q-67 8 -103.5 26t-74.5 61q26 31 50 58q-60 -19 -122 -19q-151 0 -252.5 98t-101.5 269q0 172 102 269t252 97q153 0 254.5 -97.5t101.5 -268.5zM590 349q0 118 -58 181.5
t-145 63.5q-85 0 -142.5 -64t-57.5 -180q0 -114 57.5 -180t142.5 -66q86 0 144.5 65t58.5 180z" />
    <glyph glyph-name="R" unicode="R" horiz-adv-x="642" 
d="M629 28v-28h-194q-70 133 -109 262q-5 0 -15.5 -0.5t-15.5 -0.5q-49 0 -73 1v-216l43 -18v-28h-232v28l42 18v609l-42 18v27q189 8 256 8q158 0 238 -49t80 -165q0 -76 -41 -129t-105 -76q59 -154 117 -243zM462 489q0 54 -35.5 78t-125.5 24q-1 0 -79 -3v-208
q42 -2 87 -2q77 0 115 29.5t38 81.5z" />
    <glyph glyph-name="S" unicode="S" horiz-adv-x="577" 
d="M551 200q0 -102 -73.5 -159.5t-204.5 -57.5q-89 0 -221 32l-25 181h33l25 -54q73 -41 172 -42q144 -1 144 91q0 53 -84 86l-113 44q-155 60 -155 199q0 96 71 146t177 50t198 -29l17 -158h-29l-20 46q-42 26 -156 26q-60 0 -85 -20.5t-25 -50.5q0 -24 17.5 -41t58.5 -33
l120 -46q158 -61 158 -210z" />
    <glyph glyph-name="T" unicode="T" horiz-adv-x="678" 
d="M642 700l20 -158h-30l-18 41h-203v-536l43 -19v-28h-229v28l41 19v536h-200l-19 -41h-31l20 158h606z" />
    <glyph glyph-name="U" unicode="U" horiz-adv-x="711" 
d="M681 700v-27l-43 -18v-509l13 -31v-10q-153 -120 -292 -120q-84 0 -155 29t-142 91v10l12 30v510l-42 18v27h231v-27l-43 -18v-451q0 -44 37 -70t105 -26q62 0 100 28t38 66v453l-42 18v27h223z" />
    <glyph glyph-name="V" unicode="V" horiz-adv-x="706" 
d="M698 700v-27l-38 -18l-222 -655h-164l-229 655l-37 18v27h239v-27l-44 -18l162 -499h2l149 499l-40 18v27h222z" />
    <glyph glyph-name="W" unicode="W" horiz-adv-x="889" 
d="M881 700v-27l-41 -18l-154 -655h-119l-119 303h-2l-116 -303h-131l-153 655l-38 18v27h224v-27l-40 -18l95 -440h2l127 347h61l130 -339h2l87 432l-40 18v27h225z" />
    <glyph glyph-name="X" unicode="X" horiz-adv-x="687" 
d="M659 28v-28h-260v28l43 18q-4 -2 -108 189h-2l-101 -188l40 -19v-28h-242v28l48 18l182 305l-186 304l-45 18v27h257v-27l-39 -17l111 -194h2l104 193l-43 18v27h239v-27l-46 -18l-184 -310l183 -298z" />
    <glyph glyph-name="Y" unicode="Y" horiz-adv-x="672" 
d="M663 700v-27l-44 -18l-211 -367v-242l43 -18v-28h-232v28l43 18v242l-210 367l-42 18v27h244v-27l-33 -18l121 -232h2l124 232l-34 18v27h229z" />
    <glyph glyph-name="Z" unicode="Z" horiz-adv-x="633" 
d="M574 171h33l-32 -171h-523l-24 43l350 539h-284l-28 -50h-32l29 168h506l28 -50l-350 -532h302z" />
    <glyph glyph-name="bracketleft" unicode="[" horiz-adv-x="357" 
d="M327 -121v-45q-55 3 -119 3q-72 0 -118 -3v909q44 -4 125 -4q46 0 110 4v-45q-38 -10 -86 -8v-802q47 0 88 -9z" />
    <glyph glyph-name="backslash" unicode="\" horiz-adv-x="390" 
d="M139 743l231 -841h-118l-232 841h119z" />
    <glyph glyph-name="bracketright" unicode="]" horiz-adv-x="357" 
d="M267 743v-909q-44 4 -125 4q-46 0 -110 -4v45q42 10 86 9v802q-47 0 -88 9v44q56 -3 119 -3q72 0 118 3z" />
    <glyph glyph-name="asciicircum" unicode="^" horiz-adv-x="471" 
d="M284 700l152 -337h-123l-81 192l-77 -192h-120l150 337h99z" />
    <glyph glyph-name="underscore" unicode="_" horiz-adv-x="910" 
d="M914 -86v-43h-918v43h918z" />
    <glyph glyph-name="grave" unicode="`" 
d="M266 648l86 -109h-108l-119 109h141z" />
    <glyph glyph-name="a" unicode="a" horiz-adv-x="528" 
d="M513 28v-28l-161 -2q-7 22 -8 39h-2q-54 -54 -136 -54t-130 31t-48 93q0 130 195 176l107 25q-1 31 -22.5 44.5t-72.5 13.5q-67 0 -110 -18l-17 -36h-31l22 149q76 16 154 16q106 0 160.5 -43.5t54.5 -144.5v-243zM330 179v34l-86 -22q-79 -20 -79 -65q0 -38 58 -38
q57 0 82 27t25 64z" />
    <glyph glyph-name="b" unicode="b" horiz-adv-x="583" 
d="M551 234q0 -121 -70 -186t-175 -65q-156 0 -250 63v10l9 37v567l-41 13v26l182 17v-273h2q48 34 117 34q96 0 161 -65.5t65 -177.5zM409 234q0 66 -31 98t-81 32q-57 0 -91 -36v-213q38 -24 96 -24q48 0 77.5 37t29.5 106z" />
    <glyph glyph-name="c" unicode="c" horiz-adv-x="503" 
d="M451 137l34 -105q-37 -25 -75.5 -37.5t-104.5 -12.5q-124 0 -198.5 61.5t-74.5 181.5t76.5 186t190.5 66q89 0 142 -20l23 -140h-32l-19 35q-37 13 -101 13q-61 0 -99.5 -36.5t-38.5 -102.5q0 -64 38 -98t106 -34q79 0 133 43z" />
    <glyph glyph-name="d" unicode="d" horiz-adv-x="585" 
d="M563 28v-28l-160 -3q-8 25 -11 42h-2q-51 -56 -133 -56q-91 0 -158 68.5t-67 177.5q0 111 72 179.5t172 68.5q57 0 101 -21h2v203l-40 14v27l182 16v-669zM379 140v191q-39 31 -96 31q-49 0 -79 -34t-30 -99q0 -66 30 -98.5t79 -32.5q60 0 96 42z" />
    <glyph glyph-name="e" unicode="e" horiz-adv-x="529" 
d="M501 245l-315 -104q16 -25 45 -37t84 -12q65 0 127 39l37 -99q-27 -18 -74.5 -33.5t-103.5 -15.5q-123 0 -196 60.5t-73 180.5q0 113 70.5 183t173.5 70q61 0 105 -19t68 -53.5t36 -72.5t16 -87zM167 238l188 63q-8 65 -75 65q-47 0 -79.5 -36.5t-33.5 -91.5z" />
    <glyph glyph-name="f" unicode="f" horiz-adv-x="369" 
d="M356 704l18 -141h-27l-17 37q-17 8 -41 8q-63 0 -63 -59v-89h90v-80h-90v-331l48 -21v-28h-236v28l47 21v331h-51v80h51v80q0 90 50 133t128 43q59 0 93 -12z" />
    <glyph glyph-name="g" unicode="g" horiz-adv-x="584" 
d="M532 423v-10l-9 -27v-396q0 -182 -228 -182q-129 0 -209 35l33 103q26 -12 39.5 -17.5t43 -11.5t65.5 -6q65 0 90 16t25 47v53q-40 -29 -99 -29q-112 0 -181 57.5t-69 173.5q0 112 70.5 180t180.5 68q81 0 131 -11.5t117 -42.5zM383 141v202q-40 21 -97 21
q-48 0 -79.5 -34t-31.5 -101q0 -65 30 -97t80 -32q62 0 98 41z" />
    <glyph glyph-name="h" unicode="h" horiz-adv-x="590" 
d="M574 28v-28h-183l-1 268q0 43 -16.5 63t-54.5 20q-56 0 -113 -57v-248l43 -18v-28h-227v28l43 18v613l-41 14v27l182 16v-301h4q62 62 144 62q80 0 128.5 -49.5t48.5 -122.5v-259z" />
    <glyph glyph-name="i" unicode="i" horiz-adv-x="271" 
d="M216 647q0 -30 -24 -50t-58 -20t-58 20t-24 50q0 29 24 49t58 20t58 -20t24 -49zM249 28v-28h-227v28l43 18v372l-41 14v28l182 17v-431z" />
    <glyph glyph-name="j" unicode="j" horiz-adv-x="333" 
d="M278 647q0 -30 -24 -50t-58 -20t-58.5 20t-24.5 50q0 29 24.5 49t58.5 20t58 -20t24 -49zM268 477v-503q0 -79 -39 -122.5t-116 -43.5q-57 0 -103 16l13 103q27 -15 60 -15q20 0 32 13.5t12 37.5v455l-41 14v28z" />
    <glyph glyph-name="k" unicode="k" horiz-adv-x="570" 
d="M563 28v-28h-191q-49 79 -93 192l-73 -75v-71l43 -18v-28h-227v28l43 18v613l-41 14v27l182 17v-450h2l119 146l-39 19v28h252v-28l-50 -19l-108 -126q48 -124 126 -241z" />
    <glyph glyph-name="l" unicode="l" horiz-adv-x="271" 
d="M249 28v-28h-227v28l43 18v613l-41 14v28l182 15v-670z" />
    <glyph glyph-name="m" unicode="m" horiz-adv-x="911" 
d="M893 28v-28h-183l-1 263q0 46 -16 67t-55 21q-53 0 -108 -53v-252l43 -18v-28h-227v28l43 18v224q0 81 -70 81q-56 0 -113 -59v-246l43 -18v-28h-227v28l43 18v372l-41 14v28l171 17v-70h4q72 70 154 70q103 0 149 -78q84 78 170 78q83 0 130.5 -49.5t47.5 -127.5v-254z
" />
    <glyph glyph-name="n" unicode="n" horiz-adv-x="591" 
d="M574 28v-28h-184v266q0 45 -16.5 65t-54.5 20q-62 0 -113 -59v-246l43 -18v-28h-227v28l43 18v372l-41 14v28l171 17v-70h4q77 70 146 70q86 0 136 -47.5t50 -132.5v-251z" />
    <glyph glyph-name="o" unicode="o" horiz-adv-x="570" 
d="M538 228q0 -109 -71.5 -177t-180.5 -68q-110 0 -182 69t-72 176q0 114 73 181.5t181 67.5q110 0 181 -68.5t71 -180.5zM397 228q0 65 -31 100t-80 35q-51 0 -82 -35t-31 -100q0 -62 31.5 -96.5t81.5 -34.5q49 0 80 34.5t31 96.5z" />
    <glyph glyph-name="p" unicode="p" horiz-adv-x="590" 
d="M558 227q0 -110 -73 -177t-165 -67q-68 0 -112 28h-2v-157l43 -18v-28h-227v28l43 18v564l-41 14v28l175 17v-50h2q54 50 135 50q96 0 159 -68t63 -182zM417 227q0 69 -31.5 103t-85.5 34q-56 0 -94 -47v-181q34 -41 96 -41q48 0 81.5 34t33.5 98z" />
    <glyph glyph-name="q" unicode="q" horiz-adv-x="585" 
d="M565 -164v-28h-185v203h-2q-43 -28 -112 -28q-102 0 -168 65t-66 179q0 111 72 180.5t176 69.5q61 0 107.5 -7.5t72 -16.5t71.5 -30v-10l-9 -28v-531zM380 137v209q-36 17 -90 17q-50 0 -83.5 -35.5t-33.5 -100.5q0 -62 31.5 -97t79.5 -35q59 0 96 42z" />
    <glyph glyph-name="r" unicode="r" horiz-adv-x="430" 
d="M428 460l-35 -122q-35 19 -76 19q-33 0 -63 -19t-48 -50v-241l43 -19v-28h-227v28l43 19v371l-41 14v27l173 18v-74h2q58 74 134 74q53 0 95 -17z" />
    <glyph glyph-name="s" unicode="s" horiz-adv-x="500" 
d="M462 135q0 -152 -238 -152q-98 0 -190 36l34 106q81 -43 145 -43q110 0 110 45q0 18 -10 26.5t-40 15.5l-85 21q-62 15 -98.5 47.5t-36.5 95.5q0 71 61.5 107.5t150.5 36.5q65 0 161 -18l21 -143h-32l-18 39q-47 20 -120 20q-85 0 -85 -34q0 -13 9.5 -21t38.5 -15l85 -21
q137 -33 137 -149z" />
    <glyph glyph-name="t" unicode="t" horiz-adv-x="374" 
d="M328 115l22 -98q-47 -25 -119 -25q-160 0 -160 147v240h-52v81h53v116l140 75l-1 -191h123v-81h-123v-227q0 -32 12 -43.5t36 -11.5q39 0 69 18z" />
    <glyph glyph-name="u" unicode="u" horiz-adv-x="591" 
d="M569 28v-28l-162 -3q-3 9 -12 56h-5q-24 -22 -40 -34t-45 -22.5t-64 -10.5q-85 0 -133 44.5t-48 138.5v249l-41 14v28l182 17v-297q0 -39 18.5 -56.5t58.5 -17.5q52 0 106 58v255l-41 13v28l181 17v-430z" />
    <glyph glyph-name="v" unicode="v" horiz-adv-x="554" 
d="M543 460v-28l-38 -19l-153 -413h-148l-156 413l-40 19v28h232v-28l-44 -19l89 -279h2l83 279l-39 19v28h212z" />
    <glyph glyph-name="w" unicode="w" horiz-adv-x="835" 
d="M827 460v-28l-40 -19l-154 -413h-144l-71 190h-2l-66 -190h-146l-155 413l-41 19v28h221v-28l-38 -19l91 -281h1l68 221l-21 60l-43 19v28h223v-28l-39 -19l90 -281h3l87 281l-38 19v28h214z" />
    <glyph glyph-name="x" unicode="x" horiz-adv-x="565" 
d="M545 28v-28h-243v28l40 18l-66 100h-2l-59 -100l35 -18v-28h-230v28l47 18l128 183l-130 184l-45 19v28h236v-28l-36 -19l68 -108h2l63 108l-33 19v28h225v-28l-47 -19l-131 -188l129 -179z" />
    <glyph glyph-name="y" unicode="y" horiz-adv-x="554" 
d="M546 460v-28l-40 -19l-171 -468q-25 -69 -64 -103t-103 -34q-62 0 -101 16l16 102q32 -15 65 -15q22 0 34.5 16t26.5 51l-162 435l-39 19v28h227v-28l-37 -19l86 -280h2l83 280l-39 19v28h216z" />
    <glyph glyph-name="z" unicode="z" horiz-adv-x="513" 
d="M459 158l31 1l-32 -159h-407l-26 49l242 300h-192l-21 -40h-31l34 151h397l28 -50l-240 -297v-1h195z" />
    <glyph glyph-name="braceleft" unicode="{" horiz-adv-x="378" 
d="M348 -117v-49q-120 0 -173 36.5t-53 122.5v205q0 28 -18.5 46t-53.5 22v46q72 4 72 68v207q0 88 53.5 123t172.5 35v-51q-45 0 -61 -16.5t-16 -53.5v-228q0 -81 -69 -107q69 -26 69 -107v-226q0 -37 17.5 -55t59.5 -18z" />
    <glyph glyph-name="bar" unicode="|" horiz-adv-x="311" 
d="M219 808v-1000h-127v1000h127z" />
    <glyph glyph-name="braceright" unicode="}" horiz-adv-x="378" 
d="M329 312v-46q-35 -4 -53.5 -22t-18.5 -46v-205q0 -86 -53 -122.5t-173 -36.5v49q42 0 59.5 18t17.5 55v226q0 81 69 107q-69 26 -69 107v228q0 37 -16 53.5t-61 16.5v51q119 0 172.5 -35t53.5 -123v-207q0 -64 72 -68z" />
    <glyph glyph-name="asciitilde" unicode="~" horiz-adv-x="471" 
d="M339 451h79q0 -59 -27 -102.5t-82 -43.5q-46 0 -126 36q-15 7 -26 7q-25 0 -25 -42h-79q0 63 31 104t79 41q45 0 127 -38q11 -4 23 -4q26 0 26 42z" />
    <glyph glyph-name="DEL" horiz-adv-x="1000" 
 />
    <glyph glyph-name="uni00A0" unicode="&#xa0;" horiz-adv-x="220" 
 />
    <glyph glyph-name="exclamdown" unicode="&#xa1;" horiz-adv-x="353" 
d="M257 440q0 -33 -23.5 -54.5t-56.5 -21.5q-32 0 -55 21.5t-23 54.5q0 35 22.5 54.5t55.5 19.5t56.5 -19.5t23.5 -54.5zM293 -165v-27h-233v27l32 18l53 384l34 29l34 -29l48 -383z" />
    <glyph glyph-name="cent" unicode="&#xa2;" horiz-adv-x="550" 
d="M475 260l39 -104q-63 -43 -149 -49v-154h-87v155q-102 12 -162 73t-60 168t62.5 171.5t159.5 77.5v148h87v-146q54 -3 100 -20l25 -150h-32l-19 40q-40 19 -103 19q-61 0 -99.5 -36.5t-38.5 -102.5q0 -64 38 -98t106 -34q80 0 133 42z" />
    <glyph glyph-name="sterling" unicode="&#xa3;" horiz-adv-x="594" 
d="M524 173h33l-48 -178q-80 14 -220 14q-114 0 -249 -13v91l18 2q37 4 76 49t39 114q0 44 -6 68h-99v79h79q-24 65 -24 128q0 91 62 138.5t162 47.5q92 0 170 -19l17 -149h-30l-20 46q-60 14 -111 14q-48 0 -77 -24t-29 -67q0 -62 23 -115h155v-79h-136q2 -16 2 -36
q0 -85 -67 -154v-2q57 8 118 8q87 0 134 -9z" />
    <glyph glyph-name="yen" unicode="&#xa5;" horiz-adv-x="626" 
d="M607 700v-27l-44 -18l-162 -333l148 1v-70h-165v-65l164 1v-70h-164v-73l43 -18v-28h-232v28l43 18v73h-164v70l164 -1v65h-164v70l147 -1l-159 333l-43 18v27h245v-27l-33 -18l87 -232h2l92 232l-34 18v27h229z" />
    <glyph glyph-name="brokenbar" unicode="&#xa6;" horiz-adv-x="311" 
d="M219 808v-413h-127v413h127zM219 220v-411h-127v411h127z" />
    <glyph glyph-name="section" unicode="&#xa7;" horiz-adv-x="519" 
d="M435 341q0 -59 -67 -106q66 -50 66 -122q0 -62 -53 -96t-145 -34q-83 0 -129 13l-17 133l31 -1l18 -44q29 -9 80 -9q87 0 87 43q0 19 -9.5 31t-42.5 29l-83 44q-43 23 -63.5 49t-20.5 70q0 58 67 110q-34 24 -50.5 51t-16.5 67q0 59 51 96.5t141 37.5q77 0 133 -12
l16 -133h-27l-18 37q-29 12 -87 12q-80 0 -80 -41q0 -18 11.5 -30t44.5 -30l81 -44q41 -22 61.5 -48.5t20.5 -72.5zM312 331q0 22 -20 33l-54 31q-29 -18 -29 -42q0 -21 24 -34l51 -29q28 17 28 41z" />
    <glyph glyph-name="dieresis" unicode="&#xa8;" 
d="M474 601q0 -26 -22 -44t-52 -18t-51.5 17.5t-21.5 44.5t21.5 43.5t51.5 16.5t52 -16.5t22 -43.5zM247 601q0 -26 -22 -44t-52 -18t-52 18t-22 44q0 27 22 43.5t52 16.5t52 -16.5t22 -43.5z" />
    <glyph glyph-name="copyright" unicode="&#xa9;" horiz-adv-x="902" 
d="M812 350q0 -151 -105 -256t-256 -105t-256 105t-105 256t105 255.5t256 104.5t256 -104.5t105 -255.5zM785 350q0 137 -98.5 235.5t-235.5 98.5t-236 -98.5t-99 -235.5t99 -236t236 -99t235.5 99t98.5 236zM574 268h23l-12 -117q-68 -17 -123 -17q-89 0 -148 58.5
t-59 160.5q0 103 62 160.5t145 57.5q56 0 116 -10l11 -116h-22l-17 33q-31 16 -63 16q-56 0 -93 -35.5t-37 -106.5q0 -70 38.5 -103.5t93.5 -33.5q43 0 67 14z" />
    <glyph glyph-name="ordfeminine" unicode="&#xaa;" horiz-adv-x="360" 
d="M334 441v-18l-99 -1q-3 10 -5 23h-2q-32 -32 -79 -32q-51 0 -80 20t-29 58q0 42 27.5 64.5t91.5 37.5l65 15q0 35 -58 35q-40 0 -64 -13l-12 -23h-22l14 91q55 12 104 12q63 0 91.5 -25.5t28.5 -87.5v-142zM330 361v-63h-292v63h292zM224 531v21l-52 -14
q-27 -7 -37.5 -16t-10.5 -24q0 -21 35 -21q34 0 49.5 16t15.5 38z" />
    <glyph glyph-name="guillemotleft" unicode="&#xab;" horiz-adv-x="525" 
d="M377 423h93l-88 -167l87 -166h-92q-45 90 -111 162v12q73 77 111 159zM166 423h93l-88 -167l87 -166h-92q-45 90 -111 162v12q73 77 111 159z" />
    <glyph glyph-name="logicalnot" unicode="&#xac;" horiz-adv-x="616" 
d="M533 491v-244h-79v168h-371v76h450z" />
    <glyph glyph-name="registered" unicode="&#xae;" horiz-adv-x="621" 
d="M531 490q0 -96 -63 -160t-162 -64q-97 0 -156.5 61.5t-59.5 162.5q0 98 64.5 160.5t155.5 62.5q93 0 157 -62.5t64 -160.5zM511 490q0 84 -59.5 144.5t-141.5 60.5t-139 -59.5t-57 -145.5q0 -91 53.5 -147.5t137.5 -56.5q86 0 146 61t60 143zM412 378v-11h-74
q-18 49 -22 102h-22v-83l19 -8v-11h-90v11l18 8v220l-19 7v10q42 3 82 3q43 0 69.5 -20t26.5 -57q0 -41 -37 -64q4 -28 30 -101zM344 548q0 38 -39 38h-11v-77h11q39 0 39 39z" />
    <glyph glyph-name="macron" unicode="&#xaf;" 
d="M409 614v-71h-243v71h243z" />
    <glyph glyph-name="degree" unicode="&#xb0;" horiz-adv-x="284" 
d="M257 598q0 -46 -33.5 -78.5t-80.5 -32.5t-81 32.5t-34 78.5t34 79t81 33t80.5 -33t33.5 -79zM200 599q0 23 -17 39.5t-40 16.5q-25 0 -41 -16.5t-16 -39.5q0 -24 16.5 -41t40.5 -17q23 0 40 17.5t17 40.5z" />
    <glyph glyph-name="plusminus" unicode="&#xb1;" horiz-adv-x="595" 
d="M512 466v-92h-165v-173h-100v173h-164v92h164v172h100v-172h165zM512 158v-92h-429v92h429z" />
    <glyph glyph-name="twosuperior" unicode="&#xb2;" horiz-adv-x="401" 
d="M330 456h25l-15 -109l-310 1q2 66 44 114.5t105 76.5q64 28 64 57q0 33 -65 33q-43 0 -89 -14l-15 -29h-22l14 104q78 19 133 19q75 0 115 -29t40 -81q0 -73 -91 -112q-73 -32 -92 -63h144z" />
    <glyph glyph-name="threesuperior" unicode="&#xb3;" horiz-adv-x="401" 
d="M359 454q0 -50 -44.5 -80t-124.5 -30q-29 0 -125 12l-19 110h22l13 -29q43 -16 87 -16q83 0 83 42q0 34 -63 34h-22v69h20q51 0 51 32q0 34 -66 34q-37 0 -78 -9l-15 -25h-23l19 93q75 15 121 15q149 0 149 -88q0 -53 -54 -80q69 -24 69 -84z" />
    <glyph glyph-name="acute" unicode="&#xb4;" 
d="M307 648h141l-119 -109h-108z" />
    <glyph glyph-name="mu" unicode="&#xb5;" horiz-adv-x="591" 
d="M569 28v-28l-162 -3q-3 9 -12 56h-5q-24 -22 -40 -34t-45 -22.5t-64 -10.5q-36 0 -63 7v-29q0 -75 32 -107v-2l-148 -21l-2 2v582l-41 14v28l182 17v-297q0 -39 18.5 -56.5t58.5 -17.5q52 0 106 58v255l-41 13v28l181 17v-430z" />
    <glyph glyph-name="paragraph" unicode="&#xb6;" horiz-adv-x="626" 
d="M570 699v-20l-74 -19v-815h-48l-1 811h-41v-811h-127v19l75 24l1 286q-126 5 -206.5 70.5t-80.5 190.5q0 85 42.5 147t104 89.5t131.5 27.5h224z" />
    <glyph glyph-name="periodcentered" unicode="&#xb7;" horiz-adv-x="352" 
d="M252 341q0 -33 -21.5 -52t-53.5 -19t-54.5 18.5t-22.5 52.5q0 32 23 53t54 21t53 -21t22 -53z" />
    <glyph glyph-name="cedilla" unicode="&#xb8;" 
d="M415 -111q0 -72 -122 -72q-30 0 -87 10l19 43q31 -7 49 -7q54 0 54 21q0 20 -37 20q-23 0 -47 -5l-23 22l35 83h57l-24 -56q20 2 38 2q35 0 61.5 -16.5t26.5 -44.5z" />
    <glyph glyph-name="onesuperior" unicode="&#xb9;" horiz-adv-x="401" 
d="M301 373v-18h-173v18l33 16v207h-71v46q81 10 101 58h75q-1 -7 -1 -35v-275z" />
    <glyph glyph-name="ordmasculine" unicode="&#xba;" horiz-adv-x="360" 
d="M332 560q0 -70 -42 -108.5t-111 -38.5q-67 0 -109 38.5t-42 108.5q0 69 43.5 109.5t107.5 40.5q66 0 109.5 -40.5t43.5 -109.5zM328 361v-63h-292v63h292zM247 560q0 39 -18.5 60.5t-49.5 21.5q-30 0 -48.5 -21.5t-18.5 -60.5t18.5 -60.5t48.5 -21.5q31 0 49.5 21.5
t18.5 60.5z" />
    <glyph glyph-name="guillemotright" unicode="&#xbb;" horiz-adv-x="525" 
d="M470 264v-12q-66 -72 -111 -162h-92l87 166l-88 167h93q38 -82 111 -159zM259 264v-12q-66 -72 -111 -162h-92l87 166l-88 167h93q38 -82 111 -159z" />
    <glyph glyph-name="onequarter" unicode="&#xbc;" horiz-adv-x="803" 
d="M755 145v-71h-65v-39l36 -17v-18h-172v18l33 16v40h-170l-23 51l152 220l149 1q-5 -22 -5 -43v-158h65zM507 700h128l-402 -700h-126zM255 373v-18h-172v18l33 16v207h-72v46q81 10 101 58h76q-2 -14 -2 -35v-275zM504 145h83v115h-5z" />
    <glyph glyph-name="onehalf" unicode="&#xbd;" horiz-adv-x="803" 
d="M735 108h25l-15 -108h-310q2 66 44 114.5t105 76.5q64 28 64 57q0 33 -65 33q-42 0 -88 -14l-15 -28h-23l14 103q78 19 133 19q75 0 115 -29t40 -81q0 -73 -91 -112q-73 -32 -92 -63h144zM499 700h128l-400 -700h-127zM255 373v-18h-172v18l33 16v207h-72v46
q81 10 101 58h76q-2 -14 -2 -35v-275z" />
    <glyph glyph-name="threequarters" unicode="&#xbe;" horiz-adv-x="803" 
d="M781 145v-71h-65v-39l36 -17v-18h-172v18l33 16v40h-170l-23 51l152 220l149 1q-5 -22 -5 -43v-158h65zM553 707h128l-409 -714h-126zM348 454q0 -50 -44.5 -80t-124.5 -30q-28 0 -124 12l-19 110h22l14 -29q43 -16 85 -16q83 0 83 42q0 34 -63 34h-22v69h20q51 0 51 32
q0 34 -66 34q-36 0 -77 -9l-15 -25h-24l20 93q75 15 120 15q149 0 149 -88q0 -53 -54 -80q69 -24 69 -84zM530 145h83v115h-5z" />
    <glyph glyph-name="questiondown" unicode="&#xbf;" horiz-adv-x="523" 
d="M380 455q0 -33 -23.5 -54.5t-56.5 -21.5q-32 0 -54.5 21.5t-22.5 54.5q0 35 22 54.5t55 19.5t56.5 -19.5t23.5 -54.5zM425 -12l28 1l-16 -154q-107 -28 -186 -28q-90 0 -140.5 39t-50.5 118q0 58 31 97t99 89q37 27 52.5 48t16.5 51l41 31l36 -30q0 -59 -14.5 -86.5
t-64.5 -72.5q-61 -55 -61 -108q0 -64 97 -64q49 0 109 21z" />
    <glyph glyph-name="Agrave" unicode="&#xc0;" horiz-adv-x="706" 
d="M300 849l86 -109h-108l-119 109h141zM699 28v-28h-236v28l37 19l-21 69l-135 -25l-134 25l-18 -69l36 -19v-28h-219v28l40 19l207 608l-35 18v27h212l226 -653zM346 208l96 23l-101 313h-2l-93 -313z" />
    <glyph glyph-name="Aacute" unicode="&#xc1;" horiz-adv-x="706" 
d="M378 849h141l-119 -109h-108zM699 28v-28h-236v28l37 19l-21 69l-135 -25l-134 25l-18 -69l36 -19v-28h-219v28l40 19l207 608l-35 18v27h212l226 -653zM346 208l96 23l-101 313h-2l-93 -313z" />
    <glyph glyph-name="Acircumflex" unicode="&#xc2;" horiz-adv-x="706" 
d="M384 849l109 -109h-123l-40 49l-39 -49h-103l104 109h92zM699 28v-28h-236v28l37 19l-21 69l-135 -25l-134 25l-18 -69l36 -19v-28h-219v28l40 19l207 608l-35 18v27h212l226 -653zM346 208l96 23l-101 313h-2l-93 -313z" />
    <glyph glyph-name="Atilde" unicode="&#xc3;" horiz-adv-x="706" 
d="M440 854h73q-14 -114 -102 -114q-27 0 -70 17q-30 13 -49 13q-11 0 -16.5 -6.5t-10.5 -23.5h-69q3 53 30 83.5t73 30.5q32 0 68 -16q28 -14 43 -14q25 0 30 30zM699 28v-28h-236v28l37 19l-21 69l-135 -25l-134 25l-18 -69l36 -19v-28h-219v28l40 19l207 608l-35 18v27
h212l226 -653zM346 208l96 23l-101 313h-2l-93 -313z" />
    <glyph glyph-name="Adieresis" unicode="&#xc4;" horiz-adv-x="706" 
d="M539 802q0 -26 -22 -44t-52 -18t-51.5 17.5t-21.5 44.5t21.5 43.5t51.5 16.5t52 -16.5t22 -43.5zM312 802q0 -26 -22 -44t-52 -18t-52 18t-22 44q0 27 22 43.5t52 16.5t52 -16.5t22 -43.5zM699 28v-28h-236v28l37 19l-21 69l-135 -25l-134 25l-18 -69l36 -19v-28h-219v28
l40 19l207 608l-35 18v27h212l226 -653zM346 208l96 23l-101 313h-2l-93 -313z" />
    <glyph glyph-name="Aring" unicode="&#xc5;" horiz-adv-x="706" 
d="M448 802q0 -34 -28.5 -56t-67.5 -22t-68 22t-29 56t29 56t68 22t67.5 -22t28.5 -56zM699 28v-28h-236v28l37 19l-21 69l-135 -25l-134 25l-18 -69l36 -19v-28h-219v28l40 19l207 608l-35 18v27h212l226 -653zM391 801q0 12 -12 21t-28 9t-27 -9t-11 -21t11 -21t27 -9
t28 9t12 21zM346 208l96 23l-101 313h-2l-93 -313z" />
    <glyph glyph-name="AE" unicode="&#xc6;" horiz-adv-x="966" 
d="M906 166h31l-18 -166h-508v28l43 19v66l-103 -30l-120 32l-31 -69l41 -18v-28h-232v28l39 18l309 609l-46 18v27l602 1l20 -159h-31l-19 41h-283v-138h248l13 37h29v-193h-28l-14 39h-248v-210h289zM365 209l89 23v344h-2l-168 -348z" />
    <glyph glyph-name="Ccedilla" unicode="&#xc7;" horiz-adv-x="628" 
d="M563 200h32l-18 -181q-109 -34 -193 -34h-14l-16 -39q20 2 38 2q35 0 61.5 -16.5t26.5 -44.5q0 -72 -122 -72q-30 0 -87 10l19 43q32 -7 49 -7q54 0 54 21q0 20 -37 20q-23 0 -47 -5l-23 22l29 71q-131 20 -206.5 113t-75.5 247q0 165 101.5 265.5t252.5 100.5
q110 0 181 -26l19 -166h-31l-21 45q-58 26 -144 26q-96 0 -152 -61t-56 -183q0 -121 59.5 -183.5t153.5 -62.5q92 0 146 40z" />
    <glyph glyph-name="Egrave" unicode="&#xc8;" horiz-adv-x="588" 
d="M296 849l86 -109h-108l-119 109h141zM532 166h27l-19 -166h-507v28l42 19v608l-41 18v27h501l20 -158l-27 -1l-19 42h-287v-138h250l13 37h26v-193h-26l-13 39h-250v-210h294z" />
    <glyph glyph-name="Eacute" unicode="&#xc9;" horiz-adv-x="588" 
d="M339 849h141l-119 -109h-108zM528 170h31l-19 -170h-507v28l42 19v608l-41 18v27h501l20 -158l-30 -1l-21 42h-282v-138h247l13 42h29v-198h-29l-13 39h-247v-210h288z" />
    <glyph glyph-name="Ecircumflex" unicode="&#xca;" horiz-adv-x="588" 
d="M347 849l109 -109h-123l-40 49l-39 -49h-103l104 109h92zM532 166h27l-19 -166h-507v28l42 19v608l-41 18v27h501l20 -158l-27 -1l-19 42h-287v-138h250l13 37h26v-193h-26l-13 39h-250v-210h294z" />
    <glyph glyph-name="Edieresis" unicode="&#xcb;" horiz-adv-x="588" 
d="M484 801q0 -26 -22 -44t-52 -18t-51.5 17.5t-21.5 44.5t21.5 43.5t51.5 16.5t52 -16.5t22 -43.5zM257 801q0 -26 -22 -44t-52 -18t-52 18t-22 44q0 27 22 43.5t52 16.5t52 -16.5t22 -43.5zM532 166h27l-19 -166h-507v28l42 19v608l-41 18v27h501l20 -158l-27 -1l-19 42
h-287v-138h250l13 37h26v-193h-26l-13 39h-250v-210h294z" />
    <glyph glyph-name="Igrave" unicode="&#xcc;" horiz-adv-x="297" 
d="M132 849l86 -109h-108l-119 109h141zM265 27v-27h-232v27l42 19v609l-42 18v27h232v-27l-43 -18v-609z" />
    <glyph glyph-name="Iacute" unicode="&#xcd;" horiz-adv-x="297" 
d="M175 849h141l-119 -109h-108zM265 27v-27h-232v27l42 19v609l-42 18v27h232v-27l-43 -18v-609z" />
    <glyph glyph-name="Icircumflex" unicode="&#xce;" horiz-adv-x="297" 
d="M194 849l109 -109h-123l-40 49l-39 -49h-103l104 109h92zM265 27v-27h-232v27l42 19v609l-42 18v27h232v-27l-43 -18v-609z" />
    <glyph glyph-name="Idieresis" unicode="&#xcf;" horiz-adv-x="297" 
d="M336 802q0 -26 -22 -44t-52 -18t-51.5 17.5t-21.5 44.5t21.5 43.5t51.5 16.5t52 -16.5t22 -43.5zM109 802q0 -26 -22 -44t-52 -18t-52 18t-22 44q0 27 22 43.5t52 16.5t52 -16.5t22 -43.5zM265 27v-27h-232v27l42 19v609l-42 18v27h232v-27l-43 -18v-609z" />
    <glyph glyph-name="Eth" unicode="&#xd0;" horiz-adv-x="709" 
d="M676 358q0 -167 -90.5 -266.5t-288.5 -99.5q-144 0 -264 8v28l42 18v270h-69v69h69v270l-42 18v27q156 7 272 7q193 0 282 -88t89 -261zM528 359q0 111 -61 171t-170 60q-17 0 -42.5 -1t-32.5 -1v-203h149v-69h-149v-205q38 -2 75 -2q111 0 171 67t60 183z" />
    <glyph glyph-name="Ntilde" unicode="&#xd1;" horiz-adv-x="721" 
d="M458 854h73q-14 -114 -102 -114q-28 0 -70 17q-30 13 -49 13q-11 0 -16.5 -6.5t-10.5 -23.5h-69q3 53 30 83.5t73 30.5q32 0 68 -16q28 -14 43 -14q25 0 30 30zM687 700v-27l-43 -18v-655h-101l-333 468h-3v-422l43 -18v-28h-217v28l42 18v609l-42 18v27h176l301 -420h2
v375l-42 18v27h217z" />
    <glyph glyph-name="Ograve" unicode="&#xd2;" horiz-adv-x="776" 
d="M350 849l86 -109h-108l-119 109h141zM743 350q0 -167 -100 -267t-256 -100q-151 0 -252.5 98t-101.5 269q0 172 102 269t252 97q153 0 254.5 -97.5t101.5 -268.5zM590 349q0 118 -58 181.5t-145 63.5q-85 0 -142.5 -64t-57.5 -180q0 -114 57.5 -180t142.5 -66
q86 0 144.5 65t58.5 180z" />
    <glyph glyph-name="Oacute" unicode="&#xd3;" horiz-adv-x="776" 
d="M414 849h141l-119 -109h-108zM743 350q0 -167 -100 -267t-256 -100q-151 0 -252.5 98t-101.5 269q0 172 102 269t252 97q153 0 254.5 -97.5t101.5 -268.5zM590 349q0 118 -58 181.5t-145 63.5q-85 0 -142.5 -64t-57.5 -180q0 -114 57.5 -180t142.5 -66q86 0 144.5 65
t58.5 180z" />
    <glyph glyph-name="Ocircumflex" unicode="&#xd4;" horiz-adv-x="776" 
d="M427 849l109 -109h-123l-40 49l-39 -49h-103l104 109h92zM743 350q0 -167 -100 -267t-256 -100q-151 0 -252.5 98t-101.5 269q0 172 102 269t252 97q153 0 254.5 -97.5t101.5 -268.5zM590 349q0 118 -58 181.5t-145 63.5q-85 0 -142.5 -64t-57.5 -180q0 -114 57.5 -180
t142.5 -66q86 0 144.5 65t58.5 180z" />
    <glyph glyph-name="Otilde" unicode="&#xd5;" horiz-adv-x="776" 
d="M483 854h73q-14 -114 -102 -114q-27 0 -70 17q-30 13 -49 13q-11 0 -16.5 -6.5t-10.5 -23.5h-69q3 53 30 83.5t73 30.5q32 0 68 -16q28 -14 43 -14q25 0 30 30zM743 350q0 -167 -100 -267t-256 -100q-151 0 -252.5 98t-101.5 269q0 172 102 269t252 97q153 0 254.5 -97.5
t101.5 -268.5zM590 349q0 118 -58 181.5t-145 63.5q-85 0 -142.5 -64t-57.5 -180q0 -114 57.5 -180t142.5 -66q86 0 144.5 65t58.5 180z" />
    <glyph glyph-name="Odieresis" unicode="&#xd6;" horiz-adv-x="776" 
d="M573 802q0 -26 -22 -44t-52 -18t-51.5 17.5t-21.5 44.5t21.5 43.5t51.5 16.5t52 -16.5t22 -43.5zM346 802q0 -26 -22 -44t-52 -18t-52 18t-22 44q0 27 22 43.5t52 16.5t52 -16.5t22 -43.5zM743 350q0 -167 -100 -267t-256 -100q-151 0 -252.5 98t-101.5 269
q0 172 102 269t252 97q153 0 254.5 -97.5t101.5 -268.5zM590 349q0 118 -58 181.5t-145 63.5q-85 0 -142.5 -64t-57.5 -180q0 -114 57.5 -180t142.5 -66q86 0 144.5 65t58.5 180z" />
    <glyph glyph-name="multiply" unicode="&#xd7;" horiz-adv-x="438" 
d="M287 324l101 -102l-68 -68l-101 102l-102 -102l-67 67l101 102l-101 102l68 68l101 -102l102 102l67 -67z" />
    <glyph glyph-name="Oslash" unicode="&#xd8;" horiz-adv-x="776" 
d="M743 350q0 -167 -100 -267t-256 -100q-105 0 -186 48l-56 -83l-56 35l59 87q-115 99 -115 280q0 172 102 269t252 97q90 0 167 -37l48 72l58 -38l-47 -71q130 -102 130 -292zM590 349q0 111 -55 179l-261 -388q46 -36 113 -36q86 0 144.5 65t58.5 180zM228 190l254 380
q-43 25 -95 25q-85 0 -142.5 -64.5t-57.5 -180.5q0 -95 41 -160z" />
    <glyph glyph-name="Ugrave" unicode="&#xd9;" horiz-adv-x="711" 
d="M330 849l86 -109h-108l-119 109h141zM681 700v-27l-43 -18v-509l13 -31v-10q-153 -120 -292 -120q-84 0 -155 29t-142 91v10l12 30v510l-42 18v27h231v-27l-43 -18v-451q0 -44 37 -70t105 -26q62 0 100 28t38 66v453l-42 18v27h223z" />
    <glyph glyph-name="Uacute" unicode="&#xda;" horiz-adv-x="711" 
d="M387 849h141l-119 -109h-108zM681 700v-27l-43 -18v-509l13 -31v-10q-153 -120 -292 -120q-84 0 -155 29t-142 91v10l12 30v510l-42 18v27h231v-27l-43 -18v-451q0 -44 37 -70t105 -26q62 0 100 28t38 66v453l-42 18v27h223z" />
    <glyph glyph-name="Ucircumflex" unicode="&#xdb;" horiz-adv-x="711" 
d="M415 849l109 -109h-123l-40 49l-39 -49h-103l104 109h92zM681 700v-27l-43 -18v-509l13 -31v-10q-153 -120 -292 -120q-84 0 -155 29t-142 91v10l12 30v510l-42 18v27h231v-27l-43 -18v-451q0 -44 37 -70t105 -26q62 0 100 28t38 66v453l-42 18v27h223z" />
    <glyph glyph-name="Udieresis" unicode="&#xdc;" horiz-adv-x="711" 
d="M553 802q0 -26 -22 -44t-52 -18t-51.5 17.5t-21.5 44.5t21.5 43.5t51.5 16.5t52 -16.5t22 -43.5zM326 802q0 -26 -22 -44t-52 -18t-52 18t-22 44q0 27 22 43.5t52 16.5t52 -16.5t22 -43.5zM681 700v-27l-43 -18v-509l13 -31v-10q-153 -120 -292 -120q-84 0 -155 29
t-142 91v10l12 30v510l-42 18v27h231v-27l-43 -18v-451q0 -44 37 -70t105 -26q62 0 100 28t38 66v453l-42 18v27h223z" />
    <glyph glyph-name="Yacute" unicode="&#xdd;" horiz-adv-x="672" 
d="M375 849h141l-119 -109h-108zM663 700v-27l-44 -18l-211 -367v-242l43 -18v-28h-232v28l43 18v242l-210 367l-42 18v27h244v-27l-33 -18l121 -232h2l124 232l-34 18v27h229z" />
    <glyph glyph-name="Thorn" unicode="&#xde;" horiz-adv-x="604" 
d="M577 347q0 -106 -79 -166.5t-221 -60.5q-17 0 -55 2v-76l43 -18v-28h-232v28l42 18v609l-42 18v27h232v-27l-43 -18v-81q38 2 53 2q151 0 226.5 -52.5t75.5 -176.5zM432 347q0 55 -39.5 83t-107.5 28q-29 0 -63 -4v-216q40 -2 59 -2q76 0 113.5 30t37.5 81z" />
    <glyph glyph-name="germandbls" unicode="&#xdf;" horiz-adv-x="593" 
d="M557 159q0 -170 -186 -170q-58 0 -110 28l32 99h3q24 -21 65 -21q56 0 56 63q0 26 -15.5 51t-37.5 45.5t-44.5 40.5t-38 44.5t-15.5 50.5q0 31 43.5 81t43.5 83q0 52 -51 52q-35 0 -56 -18.5t-21 -52.5v-535h-190v28l49 19v328h-58v85h58v63q0 88 58 140.5t158 52.5
q89 0 139 -39t50 -111q0 -32 -13.5 -60t-29 -43.5t-29 -32t-13.5 -27.5q0 -14 24 -36t52.5 -45.5t52.5 -67t24 -95.5z" />
    <glyph glyph-name="agrave" unicode="&#xe0;" horiz-adv-x="528" 
d="M243 648l86 -109h-108l-119 109h141zM513 28v-28l-161 -2q-7 22 -8 39h-2q-54 -54 -136 -54t-130 31t-48 93q0 130 195 176l107 25q-1 31 -22.5 44.5t-72.5 13.5q-67 0 -110 -18l-17 -36h-31l22 149q76 16 154 16q106 0 160.5 -43.5t54.5 -144.5v-243zM330 179v34
l-86 -22q-79 -20 -79 -65q0 -38 58 -38q57 0 82 27t25 64z" />
    <glyph glyph-name="aacute" unicode="&#xe1;" horiz-adv-x="528" 
d="M303 648h141l-119 -109h-108zM513 28v-28l-161 -2q-7 22 -8 39h-2q-54 -54 -136 -54t-130 31t-48 93q0 130 195 176l107 25q-1 31 -22.5 44.5t-72.5 13.5q-67 0 -110 -18l-17 -36h-31l22 149q76 16 154 16q106 0 160.5 -43.5t54.5 -144.5v-243zM330 179v34l-86 -22
q-79 -20 -79 -65q0 -38 58 -38q57 0 82 27t25 64z" />
    <glyph glyph-name="acircumflex" unicode="&#xe2;" horiz-adv-x="528" 
d="M319 648l109 -109h-123l-40 49l-39 -49h-103l104 109h92zM513 28v-28l-161 -2q-7 22 -8 39h-2q-54 -54 -136 -54t-130 31t-48 93q0 130 195 176l107 25q-1 31 -22.5 44.5t-72.5 13.5q-67 0 -110 -18l-17 -36h-31l22 149q76 16 154 16q106 0 160.5 -43.5t54.5 -144.5v-243
zM330 179v34l-86 -22q-79 -20 -79 -65q0 -38 58 -38q57 0 82 27t25 64z" />
    <glyph glyph-name="atilde" unicode="&#xe3;" horiz-adv-x="528" 
d="M365 653h73q-14 -114 -102 -114q-28 0 -70 17q-30 13 -49 13q-11 0 -16.5 -6.5t-10.5 -23.5h-69q3 53 30 83.5t73 30.5q32 0 68 -16q28 -14 43 -14q25 0 30 30zM513 28v-28l-161 -2q-7 22 -8 39h-2q-54 -54 -136 -54t-130 31t-48 93q0 130 195 176l107 25
q-1 31 -22.5 44.5t-72.5 13.5q-67 0 -110 -18l-17 -36h-31l22 149q76 16 154 16q106 0 160.5 -43.5t54.5 -144.5v-243zM330 179v34l-86 -22q-79 -20 -79 -65q0 -38 58 -38q57 0 82 27t25 64z" />
    <glyph glyph-name="adieresis" unicode="&#xe4;" horiz-adv-x="528" 
d="M456 601q0 -26 -22 -44t-52 -18t-51.5 17.5t-21.5 44.5t21.5 43.5t51.5 16.5t52 -16.5t22 -43.5zM229 601q0 -26 -22 -44t-52 -18t-52 18t-22 44q0 27 22 43.5t52 16.5t52 -16.5t22 -43.5zM513 28v-28l-161 -2q-7 22 -8 39h-2q-54 -54 -136 -54t-130 31t-48 93
q0 130 195 176l107 25q-1 31 -22.5 44.5t-72.5 13.5q-67 0 -110 -18l-17 -36h-31l22 149q76 16 154 16q106 0 160.5 -43.5t54.5 -144.5v-243zM330 179v34l-86 -22q-79 -20 -79 -65q0 -38 58 -38q57 0 82 27t25 64z" />
    <glyph glyph-name="aring" unicode="&#xe5;" horiz-adv-x="528" 
d="M371 610q0 -34 -28.5 -56t-67.5 -22t-68 22t-29 56t29 56t68 22t67.5 -22t28.5 -56zM513 28v-28l-161 -2q-7 22 -8 39h-2q-54 -54 -136 -54t-130 31t-48 93q0 130 195 176l107 25q-1 31 -22.5 44.5t-72.5 13.5q-67 0 -110 -18l-17 -36h-31l22 149q76 16 154 16
q106 0 160.5 -43.5t54.5 -144.5v-243zM314 609q0 12 -12 21t-28 9t-27 -9t-11 -21t11 -21t27 -9t28 9t12 21zM330 179v34l-86 -22q-79 -20 -79 -65q0 -38 58 -38q57 0 82 27t25 64z" />
    <glyph glyph-name="ae" unicode="&#xe6;" horiz-adv-x="823" 
d="M795 244l-316 -103q28 -49 129 -49q67 0 130 39l37 -101q-25 -15 -80.5 -31t-100.5 -16q-141 0 -207 77q-77 -77 -179 -77q-180 0 -180 130q0 124 195 170l107 25q-2 31 -23 44.5t-74 13.5q-64 0 -100 -20l-20 -42h-35l21 157q80 16 147 16q124 0 173 -51q69 51 151 51
q209 0 225 -233zM460 238l190 63q-9 65 -78 65q-47 0 -78.5 -37t-33.5 -91zM330 178v35l-86 -22q-45 -12 -62 -27.5t-17 -40.5q0 -35 58 -35q56 0 81.5 27.5t25.5 62.5z" />
    <glyph glyph-name="ccedilla" unicode="&#xe7;" horiz-adv-x="503" 
d="M451 137l34 -105q-37 -25 -75.5 -37.5t-104.5 -12.5h-2l-13 -33q20 2 38 2q35 0 61.5 -16.5t26.5 -44.5q0 -72 -122 -72q-30 0 -87 10l19 43q32 -7 49 -7q54 0 54 21q0 20 -37 20q-23 0 -47 -5l-23 22l26 64q-100 13 -158 73t-58 166q0 120 76.5 186t190.5 66
q89 0 142 -20l25 -146h-29l-21 40q-39 14 -104 14q-61 0 -99.5 -36.5t-38.5 -102.5q0 -64 38 -98t106 -34q79 0 133 43z" />
    <glyph glyph-name="egrave" unicode="&#xe8;" horiz-adv-x="529" 
d="M243 648l86 -109h-108l-119 109h141zM501 245l-315 -104q16 -25 45 -37t84 -12q65 0 127 39l37 -99q-27 -18 -74.5 -33.5t-103.5 -15.5q-123 0 -196 60.5t-73 180.5q0 113 70.5 183t173.5 70q61 0 105 -19t68 -53.5t36 -72.5t16 -87zM167 238l188 63q-8 65 -75 65
q-47 0 -79.5 -36.5t-33.5 -91.5z" />
    <glyph glyph-name="eacute" unicode="&#xe9;" horiz-adv-x="529" 
d="M307 648h141l-119 -109h-108zM501 245l-315 -104q16 -25 45 -37t84 -12q65 0 127 39l37 -99q-27 -18 -74.5 -33.5t-103.5 -15.5q-123 0 -196 60.5t-73 180.5q0 113 70.5 183t173.5 70q61 0 105 -19t68 -53.5t36 -72.5t16 -87zM167 238l188 63q-8 65 -75 65
q-47 0 -79.5 -36.5t-33.5 -91.5z" />
    <glyph glyph-name="ecircumflex" unicode="&#xea;" horiz-adv-x="529" 
d="M330 648l109 -109h-123l-40 49l-39 -49h-103l104 109h92zM501 245l-315 -104q16 -25 45 -37t84 -12q65 0 127 39l37 -99q-27 -18 -74.5 -33.5t-103.5 -15.5q-123 0 -196 60.5t-73 180.5q0 113 70.5 183t173.5 70q61 0 105 -19t68 -53.5t36 -72.5t16 -87zM167 238l188 63
q-8 65 -75 65q-47 0 -79.5 -36.5t-33.5 -91.5z" />
    <glyph glyph-name="edieresis" unicode="&#xeb;" horiz-adv-x="529" 
d="M466 601q0 -26 -22 -44t-52 -18t-51.5 17.5t-21.5 44.5t21.5 43.5t51.5 16.5t52 -16.5t22 -43.5zM239 601q0 -26 -22 -44t-52 -18t-52 18t-22 44q0 27 22 43.5t52 16.5t52 -16.5t22 -43.5zM501 245l-315 -104q16 -25 45 -37t84 -12q65 0 127 39l37 -99
q-27 -18 -74.5 -33.5t-103.5 -15.5q-123 0 -196 60.5t-73 180.5q0 113 70.5 183t173.5 70q61 0 105 -19t68 -53.5t36 -72.5t16 -87zM167 238l188 63q-8 65 -75 65q-47 0 -79.5 -36.5t-33.5 -91.5z" />
    <glyph glyph-name="igrave" unicode="&#xec;" horiz-adv-x="271" 
d="M80 648l86 -109h-108l-119 109h141zM249 28v-28h-227v28l43 18v372l-41 14v28l182 17v-431z" />
    <glyph glyph-name="iacute" unicode="&#xed;" horiz-adv-x="271" 
d="M175 648h141l-119 -109h-108zM249 28v-28h-227v28l43 18v372l-41 14v28l182 17v-431z" />
    <glyph glyph-name="icircumflex" unicode="&#xee;" horiz-adv-x="271" 
d="M179 648l109 -109h-123l-40 49l-39 -49h-103l104 109h92zM249 28v-28h-227v28l43 18v372l-41 14v28l182 17v-431z" />
    <glyph glyph-name="idieresis" unicode="&#xef;" horiz-adv-x="271" 
d="M323 601q0 -26 -22 -44t-52 -18t-51.5 17.5t-21.5 44.5t21.5 43.5t51.5 16.5t52 -16.5t22 -43.5zM96 601q0 -26 -22 -44t-52 -18t-52 18t-22 44q0 27 22 43.5t52 16.5t52 -16.5t22 -43.5zM249 28v-28h-227v28l43 18v372l-41 14v28l182 17v-431z" />
    <glyph glyph-name="eth" unicode="&#xf0;" horiz-adv-x="585" 
d="M566 609v-70h-45v-492l42 -19v-28l-160 -3q-8 25 -11 42h-2q-51 -56 -133 -56q-95 0 -160 63t-65 183q0 111 72 179.5t172 68.5q57 0 101 -21h2v83h-132v70h132v50l-40 14v27l182 16v-107h45zM379 140v191q-39 31 -96 31q-49 0 -79 -34t-30 -99q0 -66 30 -98.5t79 -32.5
q60 0 96 42z" />
    <glyph glyph-name="ntilde" unicode="&#xf1;" horiz-adv-x="591" 
d="M392 653h73q-14 -114 -102 -114q-28 0 -70 17q-30 13 -49 13q-11 0 -16.5 -6.5t-10.5 -23.5h-69q3 53 30 83.5t73 30.5q32 0 68 -16q28 -14 43 -14q25 0 30 30zM574 28v-28h-184v266q0 45 -16.5 65t-54.5 20q-62 0 -113 -59v-246l43 -18v-28h-227v28l43 18v372l-41 14v28
l171 17v-70h4q77 70 146 70q86 0 136 -47.5t50 -132.5v-251z" />
    <glyph glyph-name="ograve" unicode="&#xf2;" horiz-adv-x="572" 
d="M267 648l86 -109h-108l-119 109h141zM539 228q0 -109 -71.5 -177t-180.5 -68q-110 0 -182 69t-72 176q0 114 73 181.5t181 67.5q110 0 181 -68.5t71 -180.5zM398 228q0 65 -31 100t-80 35q-51 0 -82 -35t-31 -100q0 -62 31.5 -96.5t81.5 -34.5q49 0 80 34.5t31 96.5z" />
    <glyph glyph-name="oacute" unicode="&#xf3;" horiz-adv-x="572" 
d="M320 648h141l-119 -109h-108zM539 228q0 -109 -71.5 -177t-180.5 -68q-110 0 -182 69t-72 176q0 114 73 181.5t181 67.5q110 0 181 -68.5t71 -180.5zM398 228q0 65 -31 100t-80 35q-51 0 -82 -35t-31 -100q0 -62 31.5 -96.5t81.5 -34.5q49 0 80 34.5t31 96.5z" />
    <glyph glyph-name="ocircumflex" unicode="&#xf4;" horiz-adv-x="572" 
d="M331 648l109 -109h-123l-40 49l-39 -49h-103l104 109h92zM539 228q0 -109 -71.5 -177t-180.5 -68q-110 0 -182 69t-72 176q0 114 73 181.5t181 67.5q110 0 181 -68.5t71 -180.5zM398 228q0 65 -31 100t-80 35q-51 0 -82 -35t-31 -100q0 -62 31.5 -96.5t81.5 -34.5
q49 0 80 34.5t31 96.5z" />
    <glyph glyph-name="otilde" unicode="&#xf5;" horiz-adv-x="572" 
d="M373 653h73q-14 -114 -102 -114q-28 0 -70 17q-30 13 -49 13q-11 0 -16.5 -6.5t-10.5 -23.5h-69q3 53 30 83.5t73 30.5q32 0 68 -16q28 -14 43 -14q25 0 30 30zM539 228q0 -109 -71.5 -177t-180.5 -68q-110 0 -182 69t-72 176q0 114 73 181.5t181 67.5q110 0 181 -68.5
t71 -180.5zM398 228q0 65 -31 100t-80 35q-51 0 -82 -35t-31 -100q0 -62 31.5 -96.5t81.5 -34.5q49 0 80 34.5t31 96.5z" />
    <glyph glyph-name="odieresis" unicode="&#xf6;" horiz-adv-x="572" 
d="M475 601q0 -26 -22 -44t-52 -18t-51.5 17.5t-21.5 44.5t21.5 43.5t51.5 16.5t52 -16.5t22 -43.5zM248 601q0 -26 -22 -44t-52 -18t-52 18t-22 44q0 27 22 43.5t52 16.5t52 -16.5t22 -43.5zM539 228q0 -109 -71.5 -177t-180.5 -68q-110 0 -182 69t-72 176q0 114 73 181.5
t181 67.5q110 0 181 -68.5t71 -180.5zM398 228q0 65 -31 100t-80 35q-51 0 -82 -35t-31 -100q0 -62 31.5 -96.5t81.5 -34.5q49 0 80 34.5t31 96.5z" />
    <glyph glyph-name="divide" unicode="&#xf7;" horiz-adv-x="457" 
d="M294 468q0 -26 -19 -45t-45 -19t-45 19t-19 45t19 45.5t45 19.5t45 -19.5t19 -45.5zM402 375v-102h-347v102h347zM294 181q0 -26 -19 -45.5t-45 -19.5t-45 19.5t-19 45.5t19 45t45 19t45 -19t19 -45z" />
    <glyph glyph-name="oslash" unicode="&#xf8;" horiz-adv-x="570" 
d="M538 228q0 -107 -70.5 -176t-182.5 -69q-52 0 -102 18l-46 -75l-47 28l45 73q-48 30 -75.5 84.5t-27.5 116.5q0 114 73 181.5t180 67.5q74 0 116 -23l42 68l47 -29l-43 -68q42 -30 66.5 -82.5t24.5 -114.5zM397 228q0 58 -20 84l-130 -210q23 -5 40 -5q50 0 80 35t30 96z
M201 133l136 218q-18 12 -52 12q-50 0 -81 -35t-31 -100q0 -60 28 -95z" />
    <glyph glyph-name="ugrave" unicode="&#xf9;" horiz-adv-x="591" 
d="M261 648l86 -109h-108l-119 109h141zM569 28v-28l-162 -3q-3 9 -12 56h-5q-24 -22 -40 -34t-45 -22.5t-64 -10.5q-85 0 -133 44.5t-48 138.5v249l-41 14v28l182 17v-297q0 -39 18.5 -56.5t58.5 -17.5q52 0 106 58v255l-41 13v28l181 17v-430z" />
    <glyph glyph-name="uacute" unicode="&#xfa;" horiz-adv-x="591" 
d="M318 648h141l-119 -109h-108zM569 28v-28l-162 -3q-3 9 -12 56h-5q-24 -22 -40 -34t-45 -22.5t-64 -10.5q-85 0 -133 44.5t-48 138.5v249l-41 14v28l182 17v-297q0 -39 18.5 -56.5t58.5 -17.5q52 0 106 58v255l-41 13v28l181 17v-430z" />
    <glyph glyph-name="ucircumflex" unicode="&#xfb;" horiz-adv-x="591" 
d="M335 648l109 -109h-123l-40 49l-39 -49h-103l104 109h92zM569 28v-28l-162 -3q-3 9 -12 56h-5q-24 -22 -40 -34t-45 -22.5t-64 -10.5q-85 0 -133 44.5t-48 138.5v249l-41 14v28l182 17v-297q0 -39 18.5 -56.5t58.5 -17.5q52 0 106 58v255l-41 13v28l181 17v-430z" />
    <glyph glyph-name="udieresis" unicode="&#xfc;" horiz-adv-x="591" 
d="M468 601q0 -26 -22 -44t-52 -18t-51.5 17.5t-21.5 44.5t21.5 43.5t51.5 16.5t52 -16.5t22 -43.5zM241 601q0 -26 -22 -44t-52 -18t-52 18t-22 44q0 27 22 43.5t52 16.5t52 -16.5t22 -43.5zM569 28v-28l-162 -3q-3 9 -12 56h-5q-24 -22 -40 -34t-45 -22.5t-64 -10.5
q-85 0 -133 44.5t-48 138.5v249l-41 14v28l182 17v-297q0 -39 18.5 -56.5t58.5 -17.5q52 0 106 58v255l-41 13v28l181 17v-430z" />
    <glyph glyph-name="yacute" unicode="&#xfd;" horiz-adv-x="554" 
d="M307 648h141l-119 -109h-108zM546 460v-28l-40 -19l-171 -468q-25 -69 -64 -103t-103 -34q-62 0 -101 16l16 102q32 -15 65 -15q22 0 34.5 16t26.5 51l-162 435l-39 19v28h227v-28l-37 -19l86 -280h2l83 280l-39 19v28h216z" />
    <glyph glyph-name="thorn" unicode="&#xfe;" horiz-adv-x="591" 
d="M558 227q0 -112 -69 -178t-169 -66q-68 0 -112 28h-2v-157l43 -18v-28h-227v28l43 18v804l-41 14v28l182 17v-282h2q45 42 128 42q99 0 160.5 -64t61.5 -186zM417 227q0 69 -31.5 103t-85.5 34q-56 0 -94 -47v-181q34 -41 96 -41q48 0 81.5 34t33.5 98z" />
    <glyph glyph-name="ydieresis" unicode="&#xff;" horiz-adv-x="554" 
d="M466 601q0 -26 -22 -44t-52 -18t-51.5 17.5t-21.5 44.5t21.5 43.5t51.5 16.5t52 -16.5t22 -43.5zM239 601q0 -26 -22 -44t-52 -18t-52 18t-22 44q0 27 22 43.5t52 16.5t52 -16.5t22 -43.5zM546 460v-28l-40 -19l-171 -468q-25 -69 -64 -103t-103 -34q-62 0 -101 16
l16 102q32 -15 65 -15q22 0 34.5 16t26.5 51l-162 435l-39 19v28h227v-28l-37 -19l86 -280h2l83 280l-39 19v28h216z" />
    <glyph glyph-name="dotlessi" unicode="&#x131;" horiz-adv-x="271" 
d="M249 28v-28h-227v28l43 18v372l-41 14v28l182 17v-431z" />
    <glyph glyph-name="Lslash" unicode="&#x141;" horiz-adv-x="611" 
d="M562 170l29 -1l-28 -169h-507v28l42 18v208l-87 -43v99l87 43v302l-42 18v27h232v-27l-43 -18v-230l118 58v-99l-118 -58v-208h288z" />
    <glyph glyph-name="lslash" unicode="&#x142;" horiz-adv-x="290" 
d="M280 489v-100l-64 -32v-311l43 -18v-28h-227v28l43 18v242l-65 -32v100l65 32v269l-41 14v28l182 17v-259z" />
    <glyph glyph-name="OE" unicode="&#x152;" horiz-adv-x="1016" 
d="M954 166h32l-20 -166h-466q-51 -17 -115 -17q-149 0 -250.5 99t-101.5 269t101 267.5t251 97.5q56 0 112 -16h464l20 -158h-31l-21 41h-279v-138h243l14 37h30v-193h-30l-13 39h-244v-210h287zM504 144v412q-47 38 -117 38q-83 0 -141.5 -63.5t-58.5 -179.5
q0 -114 57 -181t141 -67q63 0 119 41z" />
    <glyph glyph-name="oe" unicode="&#x153;" horiz-adv-x="891" 
d="M863 244l-316 -103q28 -49 128 -49q68 0 129 39l41 -98q-25 -18 -74 -34t-107 -16q-138 0 -201 65q-76 -65 -177 -65q-105 0 -179.5 66.5t-74.5 178.5t71 180.5t181 68.5q120 0 182 -68q68 68 177 68q204 0 220 -233zM529 238l188 63q-6 65 -77 65q-47 0 -78 -36t-33 -92
zM397 228q0 65 -30.5 100t-82.5 35q-50 0 -80.5 -35t-30.5 -100q0 -63 31.5 -97t82.5 -34q50 0 80 35.5t30 95.5z" />
    <glyph glyph-name="Scaron" unicode="&#x160;" horiz-adv-x="573" 
d="M343 849h103l-104 -109h-92l-109 109h123l40 -49zM551 200q0 -102 -73.5 -159.5t-204.5 -57.5q-102 0 -221 29l-25 183h33l25 -54q71 -40 172 -41q144 -1 144 91q0 53 -84 86l-113 44q-155 60 -155 199q0 96 71 146t177 50t198 -29l17 -158h-29l-20 46q-42 26 -156 26
q-60 0 -85 -20.5t-25 -50.5q0 -24 17.5 -41t58.5 -33l120 -46q158 -61 158 -210z" />
    <glyph glyph-name="scaron" unicode="&#x161;" horiz-adv-x="502" 
d="M307 648h103l-104 -109h-92l-109 109h123l40 -49zM462 135q0 -152 -238 -152q-98 0 -190 36l34 106q81 -43 145 -43q110 0 110 45q0 18 -10 26.5t-40 15.5l-85 21q-62 15 -98.5 47.5t-36.5 95.5q0 71 61.5 107.5t150.5 36.5q65 0 161 -18l21 -143h-30l-18 39
q-42 20 -122 20q-85 0 -85 -34q0 -13 9.5 -21t38.5 -15l85 -21q137 -33 137 -149z" />
    <glyph glyph-name="Ydieresis" unicode="&#x178;" horiz-adv-x="672" 
d="M520 813q0 -26 -22 -44t-52 -18t-51.5 17.5t-21.5 44.5t21.5 43.5t51.5 16.5t52 -16.5t22 -43.5zM293 813q0 -26 -22 -44t-52 -18t-52 18t-22 44q0 27 22 43.5t52 16.5t52 -16.5t22 -43.5zM663 700v-27l-44 -18l-211 -367v-242l43 -18v-28h-232v28l43 18v242l-210 367
l-42 18v27h255v-27l-44 -18l121 -232h2l124 232l-34 18v27h229z" />
    <glyph glyph-name="Zcaron" unicode="&#x17d;" horiz-adv-x="633" 
d="M365 849h103l-104 -109h-92l-109 109h123l40 -49zM576 171h31l-32 -171h-523l-24 43l350 539h-284l-28 -50h-32l29 168h506l28 -50l-350 -532h303z" />
    <glyph glyph-name="zcaron" unicode="&#x17e;" horiz-adv-x="515" 
d="M311 648h103l-104 -109h-92l-109 109h123l40 -49zM462 158l28 1l-32 -159h-407l-26 49l242 300h-195l-21 -40h-28l34 151h397l28 -50l-240 -297v-1h198z" />
    <glyph glyph-name="florin" unicode="&#x192;" horiz-adv-x="549" 
d="M490 726l16 -146h-26l-16 35q-15 8 -52 8q-55 0 -61 -71l-10 -139h93l1 -78h-100l-21 -254q-16 -190 -179 -190q-59 0 -96 10l-16 146h27l15 -35q15 -8 51 -8q32 0 45.5 18.5t16.5 55.5l21 257h-79l-1 78h86l10 138q6 86 53 135.5t126 49.5q53 0 96 -10z" />
    <glyph glyph-name="circumflex" unicode="&#x2c6;" 
d="M330 648l109 -109h-123l-40 49l-39 -49h-103l104 109h92z" />
    <glyph glyph-name="caron" unicode="&#x2c7;" 
d="M336 648h103l-104 -109h-92l-109 109h123l40 -49z" />
    <glyph glyph-name="breve" unicode="&#x2d8;" 
d="M378 676l44 -33q-37 -104 -137 -104q-102 0 -134 104l39 33q34 -59 95 -59q58 0 93 59z" />
    <glyph glyph-name="dotaccent" unicode="&#x2d9;" 
d="M361 601q0 -26 -21.5 -44t-51.5 -18t-52 17t-22 45q0 27 22 43.5t52 16.5t51.5 -17t21.5 -43z" />
    <glyph glyph-name="ring" unicode="&#x2da;" 
d="M383 610q0 -34 -28.5 -56t-67.5 -22t-68 22t-29 56t29 56t68 22t67.5 -22t28.5 -56zM326 609q0 12 -12 21t-28 9t-27 -9t-11 -21t11 -21t27 -9t28 9t12 21z" />
    <glyph glyph-name="ogonek" unicode="&#x2db;" 
d="M359 -71l17 -54q-40 -20 -94 -20q-128 0 -128 63q0 33 30.5 57t78.5 34h76q-45 -24 -59 -38t-14 -31q0 -24 41 -24q26 0 52 13z" />
    <glyph glyph-name="tilde" unicode="&#x2dc;" 
d="M372 653h73q-14 -114 -102 -114q-27 0 -70 17q-30 13 -49 13q-11 0 -16.5 -6.5t-10.5 -23.5h-69q3 53 30 83.5t73 30.5q32 0 68 -16q28 -14 43 -14q25 0 30 30z" />
    <glyph glyph-name="hungarumlaut" unicode="&#x2dd;" 
d="M397 648h141l-117 -109h-108zM207 648h141l-117 -109h-109z" />
    <glyph glyph-name="pi" unicode="&#x3c0;" horiz-adv-x="606" 
d="M523 85v-85h-83q-84 0 -84 104v304h-118v-408h-99v408h-56v84h440v-84h-66v-299q0 -24 14 -24h52z" />
    <glyph glyph-name="endash" unicode="&#x2013;" horiz-adv-x="606" 
d="M455 319l41 -55l-41 -54h-300l-45 55l45 54h300z" />
    <glyph glyph-name="emdash" unicode="&#x2014;" horiz-adv-x="857" 
d="M706 319l41 -55l-41 -54h-551l-45 55l45 54h551z" />
    <glyph glyph-name="quoteleft" unicode="&#x2018;" horiz-adv-x="288" 
d="M220 538q0 -31 -22 -52.5t-52 -21.5q-38 0 -58 24t-20 60q0 47 36.5 93t86.5 67l27 -45q-20 -8 -39 -25.5t-25 -33.5q30 0 48 -18t18 -48z" />
    <glyph glyph-name="quoteright" unicode="&#x2019;" horiz-adv-x="288" 
d="M220 624q0 -47 -36.5 -93t-86.5 -67l-27 45q20 8 39 26t25 34q-30 0 -48 17.5t-18 47.5q0 31 22 52.5t52 21.5q38 0 58 -24t20 -60z" />
    <glyph glyph-name="quotesinglbase" unicode="&#x201a;" horiz-adv-x="288" 
d="M220 44q0 -47 -36.5 -93t-86.5 -67l-27 45q20 8 39 26t25 34q-30 0 -48 17.5t-18 47.5q0 31 22 53t52 22q38 0 58 -24.5t20 -60.5z" />
    <glyph glyph-name="quotedblleft" unicode="&#x201c;" horiz-adv-x="482" 
d="M414 538q0 -31 -22 -52.5t-52 -21.5q-38 0 -58 24t-20 60q0 47 36.5 93t86.5 67l27 -45q-20 -8 -39 -25.5t-25 -33.5q30 0 48 -18t18 -48zM220 538q0 -31 -22 -52.5t-52 -21.5q-38 0 -58 24t-20 60q0 47 36.5 93t86.5 67l27 -45q-20 -8 -39 -25.5t-25 -33.5q30 0 48 -18
t18 -48z" />
    <glyph glyph-name="quotedblright" unicode="&#x201d;" horiz-adv-x="482" 
d="M414 624q0 -47 -36.5 -93t-86.5 -67l-26 45q20 8 38.5 26t24.5 34q-30 0 -48 17.5t-18 47.5q0 31 22 52.5t52 21.5q38 0 58 -24t20 -60zM220 624q0 -47 -36.5 -93t-86.5 -67l-27 45q20 8 39 26t25 34q-30 0 -48 17.5t-18 47.5q0 31 22 52.5t52 21.5q38 0 58 -24t20 -60z
" />
    <glyph glyph-name="quotedblbase" unicode="&#x201e;" horiz-adv-x="482" 
d="M414 44q0 -47 -36.5 -93t-86.5 -67l-26 45q20 8 38.5 26t24.5 34q-30 0 -48 17.5t-18 47.5q0 31 22 53t52 22q38 0 58 -24.5t20 -60.5zM220 44q0 -47 -36.5 -93t-86.5 -67l-27 45q20 8 39 26t25 34q-30 0 -48 17.5t-18 47.5q0 31 22 53t52 22q38 0 58 -24.5t20 -60.5z
" />
    <glyph glyph-name="dagger" unicode="&#x2020;" horiz-adv-x="519" 
d="M469 584v-174h-28l-17 31l-120 27l35 -144l-59 -485h-42l-58 485l37 143l-122 -25l-17 -31h-28v174h27l18 -32l123 -24l-26 126l-31 18v27h198v-27l-32 -18l-24 -126l121 23l18 32h27z" />
    <glyph glyph-name="daggerdbl" unicode="&#x2021;" horiz-adv-x="519" 
d="M469 241v-174h-27l-18 31l-115 20l17 -122l32 -18v-27h-198v27l31 18l21 121l-117 -20l-17 -31h-28v174h27l18 -32l116 -18l-31 141l31 130l-116 -19l-17 -31h-28v174h27l18 -32l117 -18l-20 120l-31 18v27h198v-27l-32 -18l-18 -120l115 17l18 32h27v-174h-28l-17 31
l-114 21l29 -131l-30 -141l115 19l18 32h27z" />
    <glyph glyph-name="bullet" unicode="&#x2022;" horiz-adv-x="426" 
d="M334 340q0 -50 -35.5 -85.5t-85.5 -35.5t-85.5 35.5t-35.5 85.5t35.5 86t85.5 36t85.5 -36t35.5 -86z" />
    <glyph glyph-name="ellipsis" unicode="&#x2026;" horiz-adv-x="692" 
d="M634 65q0 -33 -21.5 -52t-52.5 -19q-32 0 -54.5 18.5t-22.5 52.5q0 32 23 53t54 21t52.5 -21t21.5 -53zM422 65q0 -33 -21.5 -52t-53.5 -19t-54.5 18.5t-22.5 52.5q0 32 23 53t54 21t53 -21t22 -53zM209 65q0 -33 -21.5 -52t-52.5 -19q-32 0 -54.5 18.5t-22.5 52.5
q0 32 23 53t54 21t52.5 -21t21.5 -53z" />
    <glyph glyph-name="perthousand" unicode="&#x2030;" horiz-adv-x="1292" 
d="M1264 189q0 -91 -48 -145.5t-130 -54.5t-131 55t-49 145q0 87 51 138.5t129 51.5q77 0 127.5 -51t50.5 -139zM866 189q0 -91 -48.5 -145.5t-130.5 -54.5q-81 0 -130 55t-49 145q0 88 51 139t128 51t128 -51t51 -139zM602 711h123l-410 -719h-122zM385 519
q0 -91 -48.5 -145t-129.5 -54t-130 54.5t-49 144.5q0 88 51 139.5t128 51.5t127.5 -51.5t50.5 -139.5zM1146 187q0 97 -61 97q-28 0 -44.5 -24t-16.5 -72q0 -105 61 -105t61 104zM748 187q0 97 -62 97q-60 0 -60 -96q0 -105 60 -105q62 0 62 104zM268 518q0 49 -17 73.5
t-45 24.5q-60 0 -60 -97q0 -105 60 -105q62 0 62 104z" />
    <glyph glyph-name="guilsinglleft" unicode="&#x2039;" horiz-adv-x="316" 
d="M166 423h93l-88 -167l87 -166h-92q-45 90 -111 162v12q73 77 111 159z" />
    <glyph glyph-name="guilsinglright" unicode="&#x203a;" horiz-adv-x="314" 
d="M259 264v-12q-66 -72 -111 -162h-92l87 166l-88 167h93q38 -82 111 -159z" />
    <glyph glyph-name="fraction" unicode="&#x2044;" horiz-adv-x="566" 
d="M426 711h130l-418 -719h-128z" />
    <glyph glyph-name="Euro" unicode="&#x20ac;" horiz-adv-x="656" 
d="M599 200h30l-18 -181q-3 -1 -20 -6.5t-23 -7t-21.5 -6t-26 -6t-26.5 -4t-32 -3.5t-34 -1q-131 0 -217.5 66t-113.5 190h-80l23 87h46v22q0 19 1 29h-69l26 86h56q31 117 120.5 184t210.5 67q99 0 170 -26l20 -166h-31l-21 45q-58 26 -134 26q-143 0 -184 -130h233
l-29 -86h-218q0 -4 -0.5 -13.5t-0.5 -14.5q0 -4 0.5 -12t0.5 -11h242l-25 -87h-203q22 -68 71.5 -102t117.5 -34q82 0 136 40z" />
    <glyph glyph-name="trademark" unicode="&#x2122;" horiz-adv-x="635" 
d="M543 471v-11h-89v11l15 7v115l-36 -69h-26l-38 69v-115l18 -7v-11h-90v11l17 7v206l-17 6v10h76l49 -95h1l46 95h74v-10l-18 -6v-206zM273 700l8 -60h-11l-7 18h-50v-180l17 -7v-11h-91v11l18 7v180h-48l-7 -18h-13l10 60h174z" />
    <glyph glyph-name="Omega" unicode="&#x2126;" horiz-adv-x="781" 
d="M698 344q0 -87 -44 -158.5t-83 -98.5h114l-12 -87h-225v98q6 2 16.5 7t36.5 25t45.5 45.5t36 70.5t16.5 98q0 106 -56.5 169t-151.5 63t-152 -63t-57 -169q0 -53 15.5 -98.5t37.5 -71.5t44 -44t37 -25l16 -7v-98h-224l-13 87h114q-39 27 -82.5 98.5t-43.5 158.5
q0 141 82 229.5t225 88.5t225.5 -88t82.5 -230z" />
    <glyph glyph-name="partialdiff" unicode="&#x2202;" horiz-adv-x="603" 
d="M520 237q0 -116 -59 -181.5t-156 -65.5q-107 0 -164.5 54.5t-57.5 165.5q0 95 59.5 152.5t143.5 57.5q43 0 88 -16q-38 64 -93 102.5t-130 64.5l45 74q106 -28 180.5 -93t109 -145t34.5 -170zM419 225q0 51 -11 80q-41 29 -113 29q-45 0 -78 -33.5t-33 -90.5
q0 -60 32 -95.5t89 -35.5q51 0 82.5 42t31.5 104z" />
    <glyph glyph-name="Delta" unicode="&#x2206;" horiz-adv-x="708" 
d="M354 646l271 -646h-542zM191 91h287l-147 354z" />
    <glyph glyph-name="product" unicode="&#x220f;" horiz-adv-x="812" 
d="M729 76v-76h-251v76h71v528h-287v-528h69v-76h-248v76h70v528h-70v77h646v-77h-70v-528h70z" />
    <glyph glyph-name="summation" unicode="&#x2211;" horiz-adv-x="714" 
d="M246 105h385l-28 -105h-506l-14 98l218 241l-217 243l12 99h508l25 -105h-382l203 -237z" />
    <glyph glyph-name="minus" unicode="&#x2212;" horiz-adv-x="469" 
d="M414 371v-95h-359v95h359z" />
    <glyph glyph-name="radical" unicode="&#x221a;" horiz-adv-x="606" 
d="M436 716h87l-256 -716h-57l-79 305h-48v56h121l45 -204z" />
    <glyph glyph-name="infinity" unicode="&#x221e;" horiz-adv-x="766" 
d="M683 379q0 -58 -35 -93t-92 -35q-88 0 -173 78q-89 -78 -172 -78q-57 0 -92.5 34.5t-35.5 90.5q0 54 36.5 89.5t95.5 35.5q46 0 85 -20.5t83 -58.5q88 79 165 79q60 0 97.5 -33t37.5 -89zM599 374q0 22 -14.5 37.5t-39.5 15.5q-49 0 -101 -52q55 -49 96 -49q27 0 43 13.5
t16 34.5zM321 375q-41 38 -63 46q-16 6 -34 6q-26 0 -41.5 -17.5t-15.5 -35.5q0 -21 17 -34.5t40 -13.5q19 0 38 8.5t29.5 16.5t29.5 24z" />
    <glyph glyph-name="integral" unicode="&#x222b;" horiz-adv-x="410" 
d="M346 691l-18 -81h-1q-18 15 -34 15q-43 0 -43 -59v-606q0 -54 -33 -90t-83 -36q-35 0 -70 13l17 81h2q14 -14 32 -14q44 0 44 56v605q0 60 34 94.5t82 34.5q32 0 71 -13z" />
    <glyph glyph-name="approxequal" unicode="&#x2248;" horiz-adv-x="634" 
d="M483 538l68 -48q-27 -48 -64.5 -73t-75.5 -25t-97.5 23t-87.5 23q-24 0 -39.5 -15t-30.5 -43l-73 49q69 96 150 96q35 0 96.5 -21.5t79.5 -21.5q24 0 40.5 14.5t33.5 41.5zM483 373l68 -47q-27 -48 -64.5 -73t-75.5 -25t-97.5 22.5t-87.5 22.5q-40 0 -70 -57l-73 49
q69 96 150 96q35 0 96.5 -21t79.5 -21q25 0 41.5 14t32.5 40z" />
    <glyph glyph-name="notequal" unicode="&#x2260;" horiz-adv-x="639" 
d="M556 290v-92h-272l-88 -140l-78 45l59 95h-94v92h152l42 68h-194v93h251l89 142l78 -45l-60 -97h115v-93h-172l-43 -68h215z" />
    <glyph glyph-name="lessequal" unicode="&#x2264;" horiz-adv-x="549" 
d="M466 318v-105l-382 172v85l382 170v-105l-244 -107zM466 155v-89h-383v89h383z" />
    <glyph glyph-name="greaterequal" unicode="&#x2265;" horiz-adv-x="549" 
d="M466 470v-85l-383 -172v105l245 110l-245 107v105zM466 155v-89h-383v89h383z" />
    <glyph glyph-name="lozenge" unicode="&#x25ca;" horiz-adv-x="567" 
d="M308 681l176 -336l-176 -344h-49l-176 344l176 336h49zM283 149l98 194l-98 190l-97 -190z" />
    <glyph glyph-name="fi" unicode="&#xfb01;" horiz-adv-x="583" 
d="M562 28v-28h-227v28l43 18v334h-144v-334l43 -18v-28h-227v28l43 18v334h-58l-1 80h59v59q0 96 51 146.5t150 50.5q36 0 80 -12l19 -143l-30 -1l-16 40q-12 6 -38 6q-75 0 -75 -78v-68h103l182 17v-431z" />
    <glyph glyph-name="fl" unicode="&#xfb02;" horiz-adv-x="582" 
d="M561 28v-28h-227v28l43 18v541q-27 21 -83 21q-61 0 -61 -59v-89h101v-80h-101v-334l43 -18v-28h-227v28l43 18v334h-58v80h58v80q0 90 50 133t128 43q61 0 97 -13l151 13v-670z" />
    </font>
</defs>
</svg>
