<?xml version="1.0" standalone="no"?>
<!DOCTYPE svg PUBLIC "-//W3C//DTD SVG 1.1//EN" "http://www.w3.org/Graphics/SVG/1.1/DTD/svg11.dtd" >
<svg xmlns="http://www.w3.org/2000/svg" xmlns:xlink="http://www.w3.org/1999/xlink" version="1.1">
<metadata>
Created by FontForge 20170910 at Mon Nov  6 13:35:56 2017
 By Jimmy Wärting
Copyright 2017 The Spectral Project Authors (http://github.com/productiontype/spectral)
</metadata>
<defs>
<font id="SpectralSC-SemiBold" horiz-adv-x="500" >
  <font-face 
    font-family="Spectral SC SemiBold"
    font-weight="600"
    font-stretch="normal"
    units-per-em="1000"
    panose-1="2 2 7 2 6 0 0 0 0 0"
    ascent="800"
    descent="-200"
    x-height="560"
    cap-height="660"
    bbox="-208 -250 1370 1057"
    underline-thickness="50"
    underline-position="-145"
    unicode-range="U+0020-FB06"
  />
<missing-glyph 
d="M55 0v750h390v-750h-390zM250 406l150 312h-300zM85 62l150 313l-150 313v-626zM415 62v626l-150 -313zM100 32h300l-150 312z" />
    <glyph glyph-name=".notdef" 
d="M55 0v750h390v-750h-390zM250 406l150 312h-300zM85 62l150 313l-150 313v-626zM415 62v626l-150 -313zM100 32h300l-150 312z" />
    <glyph glyph-name="uni0000" horiz-adv-x="0" 
 />
    <glyph glyph-name="uni0000" horiz-adv-x="0" 
 />
    <glyph glyph-name="CR" horiz-adv-x="250" 
 />
    <glyph glyph-name="uni0020" unicode=" " horiz-adv-x="250" 
 />
    <glyph glyph-name="uni2007" unicode="&#x2007;" 
 />
    <glyph glyph-name="uni2008" unicode="&#x2008;" horiz-adv-x="250" 
 />
    <glyph glyph-name="uni2009" unicode="&#x2009;" horiz-adv-x="125" 
 />
    <glyph glyph-name="uni200A" unicode="&#x200a;" horiz-adv-x="25" 
 />
    <glyph glyph-name="uni200B" unicode="&#x200b;" horiz-adv-x="0" 
 />
    <glyph glyph-name="uni0041" unicode="A" horiz-adv-x="764" 
d="M25 0v16l62 34l259 615h70l256 -613l68 -36v-16h-288v16l87 35l-71 174h-240l-70 -174l83 -35v-16h-216zM251 280h194l-97 239z" />
    <glyph glyph-name="uni0042" unicode="B" horiz-adv-x="686" 
d="M52 0v16l84 41v546l-84 41v16h293q69 0 124 -16.5t86.5 -49t31.5 -82.5q0 -51 -36.5 -93.5t-104.5 -60.5q93 -13 146.5 -56t53.5 -110q0 -55 -36 -98.5t-99 -68.5t-143 -25h-316zM306 605h-45v-239h51q68 0 106.5 31t38.5 86q0 122 -151 122zM343 315h-82v-260h89
q75 0 118.5 36.5t43.5 94.5q0 66 -44 97.5t-125 31.5z" />
    <glyph glyph-name="uni0043" unicode="C" horiz-adv-x="717" 
d="M399 -10q-104 0 -180.5 42t-118.5 115.5t-42 166.5q0 73 29 137.5t79 113.5t114 77t135 28q51 0 86.5 -6.5t63 -17t55.5 -24.5l9 -182h-18l-80 140q-31 21 -56 30.5t-58 9.5q-65 0 -117 -36t-82 -101t-30 -150q0 -91 29 -156t78.5 -100t110.5 -35q45 0 77.5 12t60.5 29
l77 123h17l-13 -165q-42 -23 -95.5 -37t-130.5 -14z" />
    <glyph glyph-name="uni0044" unicode="D" horiz-adv-x="791" 
d="M52 0v16l84 41v546l-84 41v16h322q115 0 195.5 -39t123 -107t42.5 -154q0 -78 -27.5 -144t-77 -114t-117 -75t-146.5 -27h-315zM340 605h-79v-550h94q79 0 134.5 33.5t85 95t29.5 145.5q0 126 -67.5 201t-196.5 75z" />
    <glyph glyph-name="uni0045" unicode="E" horiz-adv-x="669" 
d="M52 0v16l84 41v546l-84 41v16h523v-173h-16l-69 118h-229v-237h161l54 85h16v-223h-16l-54 83h-161v-258h254l72 140h16v-195h-551z" />
    <glyph glyph-name="uni0046" unicode="F" horiz-adv-x="624" 
d="M52 0v16l84 41v546l-84 41v16h513v-173h-16l-66 118h-222v-239h151l54 85h16v-219h-16l-54 83h-151v-258l98 -41v-16h-307z" />
    <glyph glyph-name="uni0047" unicode="G" horiz-adv-x="761" 
d="M398 -10q-72 0 -134 24t-108 68t-72 103t-26 129q0 77 29.5 142t80.5 113t117.5 74.5t140.5 26.5q53 0 90.5 -6t67 -17t58.5 -25l8 -171h-17l-82 130q-34 22 -61 31t-62 9q-68 0 -123 -35t-87 -97t-32 -143q0 -94 32.5 -161t87 -103t121.5 -36q23 0 48 2.5t50 9.5v178
l-89 44v16h287v-16l-73 -46v-160q-30 -26 -73 -44.5t-89.5 -29t-89.5 -10.5z" />
    <glyph glyph-name="uni0048" unicode="H" horiz-adv-x="825" 
d="M52 0v16l84 41v546l-84 41v16h288v-16l-79 -41v-235h303v235l-79 41v16h287v-16l-82 -41v-546l82 -41v-16h-287v16l79 41v256h-303v-256l79 -41v-16h-288z" />
    <glyph glyph-name="uni0049" unicode="I" horiz-adv-x="404" 
d="M56 0v16l83 41v546l-83 41v16h292v-16l-83 -41v-546l83 -41v-16h-292z" />
    <glyph glyph-name="uni004A" unicode="J" horiz-adv-x="415" 
d="M53 -173q-13 0 -22.5 6.5t-9.5 21.5q0 7 2.5 20.5t9.5 46.5h7q16 -4 25 -6.5t21 -2.5q20 0 34.5 9t22 38.5t7.5 89.5v553l-83 41v16h292v-16l-83 -41v-360q0 -76 -14 -141t-37 -115t-50 -80q-39 -43 -65 -61.5t-57 -18.5z" />
    <glyph glyph-name="uni004B" unicode="K" horiz-adv-x="752" 
d="M52 0v16l84 41v546l-84 41v16h293v-16l-84 -41v-546l84 -41v-16h-293zM262 335l276 274l-74 35v16h226v-16l-66 -27l-244 -237l293 -336l67 -28v-16h-190z" />
    <glyph glyph-name="uni004C" unicode="L" horiz-adv-x="642" 
d="M52 0v16l84 41v546l-84 41v16h303v-16l-94 -41v-548h230l76 180h16v-235h-531z" />
    <glyph glyph-name="uni004D" unicode="M" horiz-adv-x="980" 
d="M49 0v16l83 41l21 546l-87 41v16h222l213 -494l212 494h213v-16l-85 -34l17 -553l73 -41v-16h-273v16l78 40l-10 482l-232 -543h-52l-232 538l-13 -477l85 -40v-16h-233z" />
    <glyph glyph-name="uni004E" unicode="N" horiz-adv-x="809" 
d="M49 0v16l83 41v545l-82 42v16h172l386 -456v401l-108 39v16h260v-16l-82 -40v-609h-52l-424 498v-437l109 -40v-16h-262z" />
    <glyph glyph-name="uni004F" unicode="O" horiz-adv-x="796" 
d="M398 -10q-73 0 -135 25.5t-108 71t-71.5 107.5t-25.5 136t25.5 136t71.5 107.5t108 71t135 25.5q74 0 136 -25.5t108 -71t71.5 -107.5t25.5 -136t-25.5 -136t-71.5 -107.5t-108 -71t-136 -25.5zM416 41q56 0 98.5 32t66.5 90t24 137q0 97 -29.5 169t-80 111.5
t-112.5 39.5q-55 0 -98.5 -31.5t-68.5 -89.5t-25 -137q0 -97 30 -169t81.5 -112t113.5 -40z" />
    <glyph glyph-name="uni0050" unicode="P" horiz-adv-x="665" 
d="M52 0v16l84 41v546l-84 41v16h311q118 0 189.5 -42.5t71.5 -135.5q0 -56 -37.5 -98.5t-102 -66.5t-145.5 -24h-78v-236l98 -41v-16h-307zM261 605v-261h64q79 0 124 36.5t45 92.5q0 70 -45.5 101t-130.5 31h-57z" />
    <glyph glyph-name="uni0051" unicode="Q" horiz-adv-x="796" 
d="M684 -153q-43 0 -90 11.5t-104 43t-132 90.5q-88 9 -155.5 55t-106 119t-38.5 164q0 74 25.5 136t71.5 107.5t108 71t135 25.5q74 0 136 -25.5t108 -71t71.5 -107.5t25.5 -136q0 -79 -29.5 -144.5t-82 -112t-121.5 -67.5q55 -46 97.5 -72.5t76.5 -37.5t65 -11q22 0 38 3
t27 7v-21q-22 -11 -54 -19t-72 -8zM416 41q56 0 98.5 32t66.5 90t24 137q0 97 -29.5 169t-80 111.5t-112.5 39.5q-55 0 -98.5 -31.5t-68.5 -89.5t-25 -137q0 -97 30 -169t81.5 -112t113.5 -40z" />
    <glyph glyph-name="uni0052" unicode="R" horiz-adv-x="700" 
d="M52 0v16l84 41v546l-84 41v16h308q105 0 165.5 -43.5t60.5 -119.5q0 -56 -37.5 -97.5t-98.5 -64.5l187 -281l70 -38v-16h-187l-189 305h-70v-247l75 -42v-16h-284zM312 605h-51v-249h57q62 0 100.5 35t38.5 91q0 58 -38 90.5t-107 32.5z" />
    <glyph glyph-name="uni0053" unicode="S" horiz-adv-x="555" 
d="M268 -10q-64 0 -111.5 12.5t-94.5 36.5l-10 167h18l61 -115q62 -51 130 -51q56 0 90 27.5t34 78.5q0 38 -17.5 61.5t-53.5 43t-94 45.5q-70 34 -108 73.5t-38 106.5q0 38 19 73t50.5 62t71 43t81.5 16q50 0 93.5 -11.5t83.5 -32.5l10 -160h-17l-61 110q-29 22 -54 33
t-57 11q-42 0 -69.5 -28t-27.5 -71q0 -45 30 -72.5t100 -60.5q61 -28 100 -55t58 -61t19 -84q0 -48 -20.5 -84.5t-55 -62t-76.5 -38.5t-84 -13z" />
    <glyph glyph-name="uni0054" unicode="T" horiz-adv-x="690" 
d="M178 0v16l104 41v548h-151l-75 -157h-16v212h610v-212h-16l-75 157h-151v-548l103 -41v-16h-333z" />
    <glyph glyph-name="uni0055" unicode="U" horiz-adv-x="826" 
d="M416 -10q-82 0 -145 28t-99 90t-36 164v331l-84 41v16h293v-16l-83 -41v-325q0 -82 26 -130.5t69.5 -69t97.5 -20.5q44 0 81.5 18.5t60.5 59t23 107.5v362l-96 39v16h249v-16l-83 -40v-332q0 -102 -35 -164t-97 -90t-142 -28z" />
    <glyph glyph-name="uni0056" unicode="V" horiz-adv-x="754" 
d="M356 -5l-260 612l-70 37v16h286v-16l-84 -39l183 -431h5l182 433l-83 37v16h213v-16l-57 -31l-266 -618h-49z" />
    <glyph glyph-name="uni0057" unicode="W" horiz-adv-x="1017" 
d="M278 -5l-189 611l-76 38v16h290v-16l-84 -38l119 -404h4l174 463h50l175 -463h5l119 404l-85 38v16h224v-16l-67 -35l-192 -614h-49l-180 463h-6l-184 -463h-48z" />
    <glyph glyph-name="uni0058" unicode="X" horiz-adv-x="764" 
d="M30 0v16l77 39l209 263l-208 290l-65 36v16h297v-16l-79 -38v-5l145 -197l157 197v4l-77 39v16h224v-16l-64 -35l-204 -253l221 -300l71 -40v-16h-302v16l72 37v4l-154 213l-166 -212l-1 -4l81 -38v-16h-234z" />
    <glyph glyph-name="uni0059" unicode="Y" horiz-adv-x="739" 
d="M221 0v16l90 41v251l-220 300l-65 36v16h282v-16l-75 -36v-4l176 -239l159 237v4l-76 38v16h221v-16l-64 -33l-212 -302v-252l89 -41v-16h-305z" />
    <glyph glyph-name="uni005A" unicode="Z" horiz-adv-x="678" 
d="M86 0v29l341 576h-243l-70 -140h-16v195h483v-29l-342 -576h265l72 150h16v-205h-506z" />
    <glyph glyph-name="uni00C0" unicode="&#xc0;" horiz-adv-x="764" 
d="M25 0v16l62 34l259 615h70l256 -613l68 -36v-16h-288v16l87 35l-71 174h-240l-70 -174l83 -35v-16h-216zM251 280h194l-97 239zM373 710l-129 85q-23 16 -30 33t-7 34h99l84 -152h-17z" />
    <glyph glyph-name="uni00C1" unicode="&#xc1;" horiz-adv-x="764" 
d="M25 0v16l62 34l259 615h70l256 -613l68 -36v-16h-288v16l87 35l-71 174h-240l-70 -174l83 -35v-16h-216zM251 280h194l-97 239zM373 710l85 152h98q0 -17 -7 -34t-30 -33l-128 -85h-18z" />
    <glyph glyph-name="uni00C2" unicode="&#xc2;" horiz-adv-x="764" 
d="M25 0v16l62 34l259 615h70l256 -613l68 -36v-16h-288v16l87 35l-71 174h-240l-70 -174l83 -35v-16h-216zM251 280h194l-97 239zM228 710l134 152h40l134 -152h-17l-137 68l-137 -68h-17z" />
    <glyph glyph-name="uni00C3" unicode="&#xc3;" horiz-adv-x="764" 
d="M25 0v16l62 34l259 615h70l256 -613l68 -36v-16h-288v16l87 35l-71 174h-240l-70 -174l83 -35v-16h-216zM251 280h194l-97 239zM222 724q16 50 31.5 76t32 35.5t37.5 9.5q28 0 51.5 -13.5t45.5 -26.5t44 -13q18 0 32 10t27 43h19q-16 -51 -31.5 -77t-32 -35t-37.5 -9
q-28 0 -51.5 13t-45.5 26t-44 13q-18 0 -32 -9.5t-27 -42.5h-19z" />
    <glyph glyph-name="uni00C4" unicode="&#xc4;" horiz-adv-x="764" 
d="M25 0v16l62 34l259 615h70l256 -613l68 -36v-16h-288v16l87 35l-71 174h-240l-70 -174l83 -35v-16h-216zM251 280h194l-97 239zM286 731q-24 0 -39.5 16t-15.5 39q0 22 15.5 38t39.5 16q23 0 38.5 -16t15.5 -38q0 -23 -15.5 -39t-38.5 -16zM478 731q-24 0 -39 16t-15 39
q0 22 15 38t39 16t39 -16t15 -38q0 -23 -15 -39t-39 -16z" />
    <glyph glyph-name="uni0100" unicode="&#x100;" horiz-adv-x="764" 
d="M25 0v16l62 34l259 615h70l256 -613l68 -36v-16h-288v16l87 35l-71 174h-240l-70 -174l83 -35v-16h-216zM251 280h194l-97 239zM242 760v55h280v-55h-280z" />
    <glyph glyph-name="uni0102" unicode="&#x102;" horiz-adv-x="764" 
d="M25 0v16l62 34l259 615h70l256 -613l68 -36v-16h-288v16l87 35l-71 174h-240l-70 -174l83 -35v-16h-216zM251 280h194l-97 239zM382 710q-69 0 -103 39.5t-51 112.5h17q25 -50 56 -64.5t81 -14.5t80.5 14.5t56.5 64.5h17q-18 -73 -53.5 -112.5t-100.5 -39.5z" />
    <glyph glyph-name="uni00C5" unicode="&#xc5;" horiz-adv-x="764" 
d="M25 0v16l62 34l259 615h70l256 -613l68 -36v-16h-288v16l87 35l-71 174h-240l-70 -174l83 -35v-16h-216zM251 280h194l-97 239zM382 710q-39 0 -63.5 23.5t-24.5 60.5q0 36 24.5 60t63.5 24t63.5 -24t24.5 -60t-24 -60t-64 -24zM387 734q31 0 31 53q0 67 -40 67
q-31 0 -31 -53q0 -67 40 -67z" />
    <glyph glyph-name="uni01FA" unicode="&#x1fa;" horiz-adv-x="764" 
d="M25 0v16l62 34l259 615h70l256 -613l68 -36v-16h-288v16l87 35l-71 174h-240l-70 -174l83 -35v-16h-216zM251 280h194l-97 239zM382 710q-39 0 -63.5 23.5t-24.5 60.5q0 36 24.5 60t63.5 24t63.5 -24t24.5 -60t-24 -60t-64 -24zM387 734q31 0 31 53q0 67 -40 67
q-31 0 -31 -53q0 -67 40 -67zM373 905l85 152h98q0 -17 -7 -34t-30 -33l-128 -85h-18z" />
    <glyph glyph-name="uni1EA0" unicode="&#x1ea0;" horiz-adv-x="764" 
d="M25 0v16l62 34l259 615h70l256 -613l68 -36v-16h-288v16l87 35l-71 174h-240l-70 -174l83 -35v-16h-216zM251 280h194l-97 239zM363 -220q-28 0 -48 20t-20 48t20 48t48 20t48 -20t20 -48t-20 -48t-48 -20z" />
    <glyph glyph-name="uni0104" unicode="&#x104;" horiz-adv-x="764" 
d="M588 -128q0 -63 60 -63q12 0 25 3.5t24 10.5h3v-15q-13 -22 -35 -35t-52 -13q-45 0 -72.5 24t-27.5 65q0 36 23.5 72.5t62.5 78.5h-147v16l87 35l-71 174h-240l-70 -174l83 -35v-16h-216v16l62 34l259 615h70l256 -612l68 -37v-16h-109q-43 -70 -43 -128zM251 280h194
l-97 239z" />
    <glyph glyph-name="uni0200" unicode="&#x200;" horiz-adv-x="764" 
d="M25 0v16l62 34l259 615h70l256 -613l68 -36v-16h-288v16l87 35l-71 174h-240l-70 -174l83 -35v-16h-216zM251 280h194l-97 239zM308 710l-108 89q-18 14 -17.5 31t5.5 32h74l63 -152h-17zM436 710l-95 89q-17 16 -17 32t5 31h74l51 -152h-18z" />
    <glyph glyph-name="uni0202" unicode="&#x202;" horiz-adv-x="764" 
d="M25 0v16l62 34l259 615h70l256 -613l68 -36v-16h-288v16l87 35l-71 174h-240l-70 -174l83 -35v-16h-216zM251 280h194l-97 239zM228 710q18 73 53.5 112.5t100.5 39.5q69 0 103 -39.5t51 -112.5h-17q-25 50 -56 64.5t-81 14.5t-80.5 -14.5t-56.5 -64.5h-17z" />
    <glyph glyph-name="uni1EAE" unicode="&#x1eae;" horiz-adv-x="764" 
d="M25 0v16l62 34l259 615h70l256 -613l68 -36v-16h-288v16l87 35l-71 174h-240l-70 -174l83 -35v-16h-216zM251 280h194l-97 239zM382 710q-69 0 -103 39.5t-51 112.5h17q25 -50 56 -64.5t81 -14.5t80.5 14.5t56.5 64.5h17q-18 -73 -53.5 -112.5t-100.5 -39.5zM348 822
l85 152h98q0 -17 -7 -34t-30 -33l-128 -85h-18z" />
    <glyph glyph-name="uni1EB6" unicode="&#x1eb6;" horiz-adv-x="764" 
d="M25 0v16l62 34l259 615h70l256 -613l68 -36v-16h-288v16l87 35l-71 174h-240l-70 -174l83 -35v-16h-216zM251 280h194l-97 239zM382 710q-69 0 -103 39.5t-51 112.5h17q25 -50 56 -64.5t81 -14.5t80.5 14.5t56.5 64.5h17q-18 -73 -53.5 -112.5t-100.5 -39.5zM363 -220
q-28 0 -48 20t-20 48t20 48t48 20t48 -20t20 -48t-20 -48t-48 -20z" />
    <glyph glyph-name="uni1EB0" unicode="&#x1eb0;" horiz-adv-x="764" 
d="M25 0v16l62 34l259 615h70l256 -613l68 -36v-16h-288v16l87 35l-71 174h-240l-70 -174l83 -35v-16h-216zM251 280h194l-97 239zM382 710q-69 0 -103 39.5t-51 112.5h17q25 -50 56 -64.5t81 -14.5t80.5 14.5t56.5 64.5h17q-18 -73 -53.5 -112.5t-100.5 -39.5zM398 822
l-129 85q-23 16 -30 33t-7 34h99l84 -152h-17z" />
    <glyph glyph-name="uni1EB2" unicode="&#x1eb2;" horiz-adv-x="764" 
d="M25 0v16l62 34l259 615h70l256 -613l68 -36v-16h-288v16l87 35l-71 174h-240l-70 -174l83 -35v-16h-216zM251 280h194l-97 239zM382 710q-69 0 -103 39.5t-51 112.5h17q25 -50 56 -64.5t81 -14.5t80.5 14.5t56.5 64.5h17q-18 -73 -53.5 -112.5t-100.5 -39.5zM331 833v1
q32 12 48.5 23t16.5 32q0 16 -16.5 27t-58.5 18l13 64q68 -6 95 -30.5t27 -50.5q0 -40 -29.5 -62t-87.5 -30z" />
    <glyph glyph-name="uni1EB4" unicode="&#x1eb4;" horiz-adv-x="764" 
d="M25 0v16l62 34l259 615h70l256 -613l68 -36v-16h-288v16l87 35l-71 174h-240l-70 -174l83 -35v-16h-216zM251 280h194l-97 239zM222 883q19 58 34.5 86t31.5 37t36 9t38.5 -9.5t35.5 -22.5t33 -22.5t32 -9.5q18 0 31 12.5t29 51.5h19q-19 -58 -34.5 -86t-31.5 -37t-36 -9
t-38.5 9.5t-35.5 22.5t-33 22.5t-32 9.5q-18 0 -31 -12.5t-29 -51.5h-19zM382 710q-69 0 -103 39.5t-51 112.5h17q25 -50 56 -64.5t81 -14.5t80.5 14.5t56.5 64.5h17q-18 -73 -53.5 -112.5t-100.5 -39.5z" />
    <glyph glyph-name="uni1EA4" unicode="&#x1ea4;" horiz-adv-x="764" 
d="M25 0v16l62 34l259 615h70l256 -613l68 -36v-16h-288v16l87 35l-71 174h-240l-70 -174l83 -35v-16h-216zM251 280h194l-97 239zM494 805l41 143h91q0 -27 -30 -56l-87 -87h-15zM228 710l134 152h40l134 -152h-17l-137 68l-137 -68h-17z" />
    <glyph glyph-name="uni1EAC" unicode="&#x1eac;" horiz-adv-x="764" 
d="M25 0v16l62 34l259 615h70l256 -613l68 -36v-16h-288v16l87 35l-71 174h-240l-70 -174l83 -35v-16h-216zM251 280h194l-97 239zM228 710l134 152h40l134 -152h-17l-137 68l-137 -68h-17zM363 -220q-28 0 -48 20t-20 48t20 48t48 20t48 -20t20 -48t-20 -48t-48 -20z" />
    <glyph glyph-name="uni1EA6" unicode="&#x1ea6;" horiz-adv-x="764" 
d="M25 0v16l62 34l259 615h70l256 -613l68 -36v-16h-288v16l87 35l-71 174h-240l-70 -174l83 -35v-16h-216zM251 280h194l-97 239zM255 805l-87 87q-16 15 -23 28t-7 28h91l41 -143h-15zM228 710l134 152h40l134 -152h-17l-137 68l-137 -68h-17z" />
    <glyph glyph-name="uni1EA8" unicode="&#x1ea8;" horiz-adv-x="764" 
d="M25 0v16l62 34l259 615h70l256 -613l68 -36v-16h-288v16l87 35l-71 174h-240l-70 -174l83 -35v-16h-216zM251 280h194l-97 239zM228 710l134 152h40l134 -152h-17l-137 68l-137 -68h-17zM324 886v1q32 12 48.5 23t16.5 32q0 16 -16.5 27t-58.5 18l13 64q68 -6 95 -30.5
t27 -50.5q0 -40 -29.5 -62t-87.5 -30z" />
    <glyph glyph-name="uni1EAA" unicode="&#x1eaa;" horiz-adv-x="764" 
d="M25 0v16l62 34l259 615h70l256 -613l68 -36v-16h-288v16l87 35l-71 174h-240l-70 -174l83 -35v-16h-216zM251 280h194l-97 239zM228 710l134 152h40l134 -152h-17l-137 68l-137 -68h-17zM222 889q19 58 34.5 86t31.5 37t36 9t38.5 -9.5t35.5 -22.5t33 -22.5t32 -9.5
q18 0 31 12.5t29 51.5h19q-19 -58 -34.5 -86t-31.5 -37t-36 -9t-38.5 9.5t-35.5 22.5t-33 22.5t-32 9.5q-18 0 -31 -12.5t-29 -51.5h-19z" />
    <glyph glyph-name="uni1EA2" unicode="&#x1ea2;" horiz-adv-x="764" 
d="M25 0v16l62 34l259 615h70l256 -613l68 -36v-16h-288v16l87 35l-71 174h-240l-70 -174l83 -35v-16h-216zM251 280h194l-97 239zM334 710v1q32 12 48.5 23t16.5 32q0 16 -16.5 27t-58.5 18l13 64q68 -6 95 -30.5t27 -50.5q0 -40 -29.5 -62t-87.5 -30z" />
    <glyph glyph-name="uni00C6" unicode="&#xc6;" horiz-adv-x="1010" 
d="M464 660h451v-173h-16l-69 118h-228v-237h160l54 85h16v-223h-16l-54 83h-160v-258h253l72 140h16v-195h-550v16l83 41v175h-208l-110 -181l79 -35v-16h-215v16l64 34zM302 287h174v285z" />
    <glyph glyph-name="uni01FC" unicode="&#x1fc;" horiz-adv-x="1010" 
d="M464 660h451v-173h-16l-69 118h-228v-237h160l54 85h16v-223h-16l-54 83h-160v-258h253l72 140h16v-195h-550v16l83 41v175h-208l-110 -181l79 -35v-16h-215v16l64 34zM302 287h174v285zM542 710l85 152h98q0 -17 -7 -34t-30 -33l-128 -85h-18z" />
    <glyph glyph-name="uni0106" unicode="&#x106;" horiz-adv-x="717" 
d="M399 -10q-104 0 -180.5 42t-118.5 115.5t-42 166.5q0 73 29 137.5t79 113.5t114 77t135 28q51 0 86.5 -6.5t63 -17t55.5 -24.5l9 -182h-18l-80 140q-31 21 -56 30.5t-58 9.5q-65 0 -117 -36t-82 -101t-30 -150q0 -91 29 -156t78.5 -100t110.5 -35q45 0 77.5 12t60.5 29
l77 123h17l-13 -165q-42 -23 -95.5 -37t-130.5 -14zM382 710l85 152h98q0 -17 -7 -34t-30 -33l-128 -85h-18z" />
    <glyph glyph-name="uni0108" unicode="&#x108;" horiz-adv-x="717" 
d="M399 -10q-104 0 -180.5 42t-118.5 115.5t-42 166.5q0 73 29 137.5t79 113.5t114 77t135 28q51 0 86.5 -6.5t63 -17t55.5 -24.5l9 -182h-18l-80 140q-31 21 -56 30.5t-58 9.5q-65 0 -117 -36t-82 -101t-30 -150q0 -91 29 -156t78.5 -100t110.5 -35q45 0 77.5 12t60.5 29
l77 123h17l-13 -165q-42 -23 -95.5 -37t-130.5 -14zM236 710l134 152h40l134 -152h-17l-137 68l-137 -68h-17z" />
    <glyph glyph-name="uni010C" unicode="&#x10c;" horiz-adv-x="717" 
d="M399 -10q-104 0 -180.5 42t-118.5 115.5t-42 166.5q0 73 29 137.5t79 113.5t114 77t135 28q51 0 86.5 -6.5t63 -17t55.5 -24.5l9 -182h-18l-80 140q-31 21 -56 30.5t-58 9.5q-65 0 -117 -36t-82 -101t-30 -150q0 -91 29 -156t78.5 -100t110.5 -35q45 0 77.5 12t60.5 29
l77 123h17l-13 -165q-42 -23 -95.5 -37t-130.5 -14zM370 710l-134 152h17l137 -68l137 68h17l-134 -152h-40z" />
    <glyph glyph-name="uni010A" unicode="&#x10a;" horiz-adv-x="717" 
d="M399 -10q-104 0 -180.5 42t-118.5 115.5t-42 166.5q0 73 29 137.5t79 113.5t114 77t135 28q51 0 86.5 -6.5t63 -17t55.5 -24.5l9 -182h-18l-80 140q-31 21 -56 30.5t-58 9.5q-65 0 -117 -36t-82 -101t-30 -150q0 -91 29 -156t78.5 -100t110.5 -35q45 0 77.5 12t60.5 29
l77 123h17l-13 -165q-42 -23 -95.5 -37t-130.5 -14zM390 723q-28 0 -48 19.5t-20 48.5t20 48t48 19t48 -19t20 -48t-20 -48.5t-48 -19.5z" />
    <glyph glyph-name="uni00C7" unicode="&#xc7;" horiz-adv-x="717" 
d="M378 -209q28 0 41.5 10.5t13.5 27.5q0 22 -20.5 36.5t-78.5 31.5l43 94q-98 4 -169.5 47.5t-110.5 114.5t-39 161q0 73 29 137.5t79 113.5t114 77t135 28q51 0 86.5 -6.5t63 -17t55.5 -24.5l9 -182h-18l-80 140q-31 21 -56 30.5t-58 9.5q-65 0 -117 -36t-82 -101
t-30 -150q0 -91 29 -156t78.5 -100t110.5 -35q45 0 77.5 12t60.5 29l77 123h17l-13 -165q-40 -22 -90.5 -36t-121.5 -15l-17 -37q57 -18 80 -41t23 -63q0 -38 -27 -63.5t-74 -25.5q-55 0 -82 26v16h3q23 -11 59 -11z" />
    <glyph glyph-name="uni1E08" unicode="&#x1e08;" horiz-adv-x="717" 
d="M382 710l84 152h99q0 -17 -7 -34t-30 -33l-129 -85h-17zM398 -240q-55 0 -82 26v16h3q23 -11 59 -11q28 0 41.5 10.5t13.5 27.5q0 22 -20.5 36.5t-78.5 31.5l43 94q-98 4 -169.5 47.5t-110.5 114.5t-39 161q0 73 29 137.5t79 113.5t114 77t135 28q51 0 86.5 -6.5t63 -17
t55.5 -24.5l9 -182h-18l-80 140q-31 21 -56 30.5t-58 9.5q-65 0 -117 -36t-82 -101t-30 -150q0 -91 29 -156t78.5 -100t110.5 -35q45 0 77.5 12t60.5 29l77 123h17l-13 -165q-40 -22 -90.5 -36t-121.5 -15l-17 -37q57 -18 80 -41t23 -63q0 -38 -27 -63.5t-74 -25.5z" />
    <glyph glyph-name="uni010E" unicode="&#x10e;" horiz-adv-x="791" 
d="M52 0v16l84 41v546l-84 41v16h322q115 0 195.5 -39t123 -107t42.5 -154q0 -78 -27.5 -144t-77 -114t-117 -75t-146.5 -27h-315zM340 605h-79v-550h94q79 0 134.5 33.5t85 95t29.5 145.5q0 126 -67.5 201t-196.5 75zM370 710l-134 152h17l137 -68l137 68h17l-134 -152h-40
z" />
    <glyph glyph-name="uni0110" unicode="&#x110;" horiz-adv-x="791" 
d="M52 0v16l84 41v259h-84v52h84v235l-84 41v16h322q115 0 195.5 -39t123 -107t42.5 -154q0 -78 -27.5 -144t-77 -114t-117 -75t-146.5 -27h-315zM422 316h-161v-261h94q79 0 134.5 33.5t85 95t29.5 145.5q0 126 -67.5 201t-196.5 75h-79v-237h161v-52z" />
    <glyph glyph-name="uni1E0C" unicode="&#x1e0c;" horiz-adv-x="791" 
d="M52 0v16l84 41v546l-84 41v16h322q115 0 195.5 -39t123 -107t42.5 -154q0 -78 -27.5 -144t-77 -114t-117 -75t-146.5 -27h-315zM340 605h-79v-550h94q79 0 134.5 33.5t85 95t29.5 145.5q0 126 -67.5 201t-196.5 75zM397 -220q-28 0 -48 20t-20 48t20 48t48 20t48 -20
t20 -48t-20 -48t-48 -20z" />
    <glyph glyph-name="uni1E0E" unicode="&#x1e0e;" horiz-adv-x="791" 
d="M52 0v16l84 41v546l-84 41v16h322q115 0 195.5 -39t123 -107t42.5 -154q0 -78 -27.5 -144t-77 -114t-117 -75t-146.5 -27h-315zM340 605h-79v-550h94q79 0 134.5 33.5t85 95t29.5 145.5q0 126 -67.5 201t-196.5 75zM257 -177v56h280v-56h-280z" />
    <glyph glyph-name="uni00C8" unicode="&#xc8;" horiz-adv-x="669" 
d="M52 0v16l84 41v546l-84 41v16h523v-173h-16l-69 118h-229v-237h161l54 85h16v-223h-16l-54 83h-161v-258h254l72 140h16v-195h-551zM337 710l-129 85q-23 16 -30 33t-7 34h99l84 -152h-17z" />
    <glyph glyph-name="uni00C9" unicode="&#xc9;" horiz-adv-x="669" 
d="M52 0v16l84 41v546l-84 41v16h523v-173h-16l-69 118h-229v-237h161l54 85h16v-223h-16l-54 83h-161v-258h254l72 140h16v-195h-551zM337 710l85 152h98q0 -17 -7 -34t-30 -33l-128 -85h-18z" />
    <glyph glyph-name="uni00CA" unicode="&#xca;" horiz-adv-x="669" 
d="M52 0v16l84 41v546l-84 41v16h523v-173h-16l-69 118h-229v-237h161l54 85h16v-223h-16l-54 83h-161v-258h254l72 140h16v-195h-551zM192 710l134 152h40l134 -152h-17l-137 68l-137 -68h-17z" />
    <glyph glyph-name="uni011A" unicode="&#x11a;" horiz-adv-x="669" 
d="M52 0v16l84 41v546l-84 41v16h523v-173h-16l-69 118h-229v-237h161l54 85h16v-223h-16l-54 83h-161v-258h254l72 140h16v-195h-551zM326 710l-134 152h17l137 -68l137 68h17l-134 -152h-40z" />
    <glyph glyph-name="uni1EBC" unicode="&#x1ebc;" horiz-adv-x="669" 
d="M52 0v16l84 41v546l-84 41v16h523v-173h-16l-69 118h-229v-237h161l54 85h16v-223h-16l-54 83h-161v-258h254l72 140h16v-195h-551zM186 724q16 50 31.5 76t32 35.5t37.5 9.5q28 0 51.5 -13.5t45.5 -26.5t44 -13q18 0 32 10t27 43h19q-16 -51 -31.5 -77t-32 -35t-37.5 -9
q-28 0 -51.5 13t-45.5 26t-44 13q-18 0 -32 -9.5t-27 -42.5h-19z" />
    <glyph glyph-name="uni00CB" unicode="&#xcb;" horiz-adv-x="669" 
d="M52 0v16l84 41v546l-84 41v16h523v-173h-16l-69 118h-229v-237h161l54 85h16v-223h-16l-54 83h-161v-258h254l72 140h16v-195h-551zM250 731q-24 0 -39.5 16t-15.5 39q0 22 15.5 38t39.5 16q23 0 38.5 -16t15.5 -38q0 -23 -15.5 -39t-38.5 -16zM442 731q-24 0 -39 16
t-15 39q0 22 15 38t39 16t39 -16t15 -38q0 -23 -15 -39t-39 -16z" />
    <glyph glyph-name="uni0112" unicode="&#x112;" horiz-adv-x="669" 
d="M52 0v16l84 41v546l-84 41v16h523v-173h-16l-69 118h-229v-237h161l54 85h16v-223h-16l-54 83h-161v-258h254l72 140h16v-195h-551zM206 760v55h280v-55h-280z" />
    <glyph glyph-name="uni0114" unicode="&#x114;" horiz-adv-x="669" 
d="M52 0v16l84 41v546l-84 41v16h523v-173h-16l-69 118h-229v-237h161l54 85h16v-223h-16l-54 83h-161v-258h254l72 140h16v-195h-551zM346 710q-69 0 -103 39.5t-51 112.5h17q25 -50 56 -64.5t81 -14.5t80.5 14.5t56.5 64.5h17q-18 -73 -53.5 -112.5t-100.5 -39.5z" />
    <glyph glyph-name="uni0116" unicode="&#x116;" horiz-adv-x="669" 
d="M52 0v16l84 41v546l-84 41v16h523v-173h-16l-69 118h-229v-237h161l54 85h16v-223h-16l-54 83h-161v-258h254l72 140h16v-195h-551zM346 723q-28 0 -48 19.5t-20 48.5t20 48t48 19t48 -19t20 -48t-20 -48.5t-48 -19.5z" />
    <glyph glyph-name="uni0118" unicode="&#x118;" horiz-adv-x="669" 
d="M52 0v16l84 41v546l-84 41v16h523v-173h-16l-69 118h-229v-237h161l54 85h16v-223h-16l-54 83h-161v-258h254l72 140h16v-195h-71q-43 -70 -43 -128q0 -63 61 -63q11 0 24 3.5t24 10.5h3v-15q-13 -22 -35 -35t-52 -13q-45 0 -72.5 24t-27.5 65q0 36 24 72.5t62 78.5h-448
z" />
    <glyph glyph-name="uni1EB8" unicode="&#x1eb8;" horiz-adv-x="669" 
d="M52 0v16l84 41v546l-84 41v16h523v-173h-16l-69 118h-229v-237h161l54 85h16v-223h-16l-54 83h-161v-258h254l72 140h16v-195h-551zM356 -220q-28 0 -48 20t-20 48t20 48t48 20t48 -20t20 -48t-20 -48t-48 -20z" />
    <glyph glyph-name="uni0204" unicode="&#x204;" horiz-adv-x="669" 
d="M52 0v16l84 41v546l-84 41v16h523v-173h-16l-69 118h-229v-237h161l54 85h16v-223h-16l-54 83h-161v-258h254l72 140h16v-195h-551zM273 710l-108 89q-18 14 -17.5 31t5.5 32h74l63 -152h-17zM401 710l-95 89q-17 16 -17 32t5 31h74l51 -152h-18z" />
    <glyph glyph-name="uni0206" unicode="&#x206;" horiz-adv-x="669" 
d="M52 0v16l84 41v546l-84 41v16h523v-173h-16l-69 118h-229v-237h161l54 85h16v-223h-16l-54 83h-161v-258h254l72 140h16v-195h-551zM192 710q18 73 53.5 112.5t100.5 39.5q69 0 103 -39.5t51 -112.5h-17q-25 50 -56 64.5t-81 14.5t-80.5 -14.5t-56.5 -64.5h-17z" />
    <glyph glyph-name="uni1EBE" unicode="&#x1ebe;" horiz-adv-x="669" 
d="M52 0v16l84 41v546l-84 41v16h523v-173h-16l-69 118h-229v-237h161l54 85h16v-223h-16l-54 83h-161v-258h254l72 140h16v-195h-551zM458 805l41 143h91q0 -27 -30 -56l-87 -87h-15zM192 710l134 152h40l134 -152h-17l-137 68l-137 -68h-17z" />
    <glyph glyph-name="uni1EC6" unicode="&#x1ec6;" horiz-adv-x="669" 
d="M52 0v16l84 41v546l-84 41v16h523v-173h-16l-69 118h-229v-237h161l54 85h16v-223h-16l-54 83h-161v-258h254l72 140h16v-195h-551zM192 710l134 152h40l134 -152h-17l-137 68l-137 -68h-17zM356 -220q-28 0 -48 20t-20 48t20 48t48 20t48 -20t20 -48t-20 -48t-48 -20z
" />
    <glyph glyph-name="uni1EC0" unicode="&#x1ec0;" horiz-adv-x="669" 
d="M52 0v16l84 41v546l-84 41v16h523v-173h-16l-69 118h-229v-237h161l54 85h16v-223h-16l-54 83h-161v-258h254l72 140h16v-195h-551zM219 805l-87 87q-16 15 -23 28t-7 28h91l41 -143h-15zM192 710l134 152h40l134 -152h-17l-137 68l-137 -68h-17z" />
    <glyph glyph-name="uni1EC2" unicode="&#x1ec2;" horiz-adv-x="669" 
d="M52 0v16l84 41v546l-84 41v16h523v-173h-16l-69 118h-229v-237h161l54 85h16v-223h-16l-54 83h-161v-258h254l72 140h16v-195h-551zM192 710l134 152h40l134 -152h-17l-137 68l-137 -68h-17zM288 886v1q32 12 48.5 23t16.5 32q0 16 -16.5 27t-58.5 18l13 64
q68 -6 95 -30.5t27 -50.5q0 -40 -29.5 -62t-87.5 -30z" />
    <glyph glyph-name="uni1EC4" unicode="&#x1ec4;" horiz-adv-x="669" 
d="M52 0v16l84 41v546l-84 41v16h523v-173h-16l-69 118h-229v-237h161l54 85h16v-223h-16l-54 83h-161v-258h254l72 140h16v-195h-551zM192 710l134 152h40l134 -152h-17l-137 68l-137 -68h-17zM186 889q19 58 34.5 86t31.5 37t36 9t38.5 -9.5t35.5 -22.5t33 -22.5t32 -9.5
q18 0 31 12.5t29 51.5h19q-19 -58 -34.5 -86t-31.5 -37t-36 -9t-38.5 9.5t-35.5 22.5t-33 22.5t-32 9.5q-18 0 -31 -12.5t-29 -51.5h-19z" />
    <glyph glyph-name="uni1EBA" unicode="&#x1eba;" horiz-adv-x="669" 
d="M52 0v16l84 41v546l-84 41v16h523v-173h-16l-69 118h-229v-237h161l54 85h16v-223h-16l-54 83h-161v-258h254l72 140h16v-195h-551zM298 710v1q32 12 48.5 23t16.5 32q0 16 -16.5 27t-58.5 18l13 64q68 -6 95 -30.5t27 -50.5q0 -40 -29.5 -62t-87.5 -30z" />
    <glyph glyph-name="uni1E14" unicode="&#x1e14;" horiz-adv-x="669" 
d="M52 0v16l84 41v546l-84 41v16h523v-173h-16l-69 118h-229v-237h161l54 85h16v-223h-16l-54 83h-161v-258h254l72 140h16v-195h-551zM206 760v55h280v-55h-280zM338 862l-129 85q-23 16 -30 33t-7 34h99l84 -152h-17z" />
    <glyph glyph-name="uni1E16" unicode="&#x1e16;" horiz-adv-x="669" 
d="M52 0v16l84 41v546l-84 41v16h523v-173h-16l-69 118h-229v-237h161l54 85h16v-223h-16l-54 83h-161v-258h254l72 140h16v-195h-551zM206 760v55h280v-55h-280zM336 862l85 152h98q0 -17 -7 -34t-30 -33l-128 -85h-18z" />
    <glyph glyph-name="uni1E1C" unicode="&#x1e1c;" horiz-adv-x="669" 
d="M346 710q-69 0 -103 39.5t-51 112.5h17q25 -50 56 -64.5t81 -14.5t80.5 14.5t56.5 64.5h17q-18 -73 -53.5 -112.5t-100.5 -39.5zM52 0v16l84 41v546l-84 41v16h523v-173h-16l-69 118h-229v-237h161l54 85h16v-223h-16l-54 83h-161v-258h254l72 140h16v-195h-228l-22 -47
q57 -18 80 -41t23 -63q0 -38 -27 -63.5t-74 -25.5q-55 0 -82 26v16h3q23 -11 60 -11q28 0 41 10.5t13 27.5q0 22 -20 36.5t-79 31.5l47 103h-286z" />
    <glyph glyph-name="uni011C" unicode="&#x11c;" horiz-adv-x="761" 
d="M398 -10q-72 0 -134 24t-108 68t-72 103t-26 129q0 77 29.5 142t80.5 113t117.5 74.5t140.5 26.5q53 0 90.5 -6t67 -17t58.5 -25l8 -171h-17l-82 130q-34 22 -61 31t-62 9q-68 0 -123 -35t-87 -97t-32 -143q0 -94 32.5 -161t87 -103t121.5 -36q23 0 48 2.5t50 9.5v178
l-89 44v16h287v-16l-73 -46v-160q-30 -26 -73 -44.5t-89.5 -29t-89.5 -10.5zM248 710l134 152h40l134 -152h-17l-137 68l-137 -68h-17z" />
    <glyph glyph-name="uni011E" unicode="&#x11e;" horiz-adv-x="761" 
d="M398 -10q-72 0 -134 24t-108 68t-72 103t-26 129q0 77 29.5 142t80.5 113t117.5 74.5t140.5 26.5q53 0 90.5 -6t67 -17t58.5 -25l8 -171h-17l-82 130q-34 22 -61 31t-62 9q-68 0 -123 -35t-87 -97t-32 -143q0 -94 32.5 -161t87 -103t121.5 -36q23 0 48 2.5t50 9.5v178
l-89 44v16h287v-16l-73 -46v-160q-30 -26 -73 -44.5t-89.5 -29t-89.5 -10.5zM402 710q-69 0 -103 39.5t-51 112.5h17q25 -50 56 -64.5t81 -14.5t80.5 14.5t56.5 64.5h17q-18 -73 -53.5 -112.5t-100.5 -39.5z" />
    <glyph glyph-name="uni0120" unicode="&#x120;" horiz-adv-x="761" 
d="M398 -10q-72 0 -134 24t-108 68t-72 103t-26 129q0 77 29.5 142t80.5 113t117.5 74.5t140.5 26.5q53 0 90.5 -6t67 -17t58.5 -25l8 -171h-17l-82 130q-34 22 -61 31t-62 9q-68 0 -123 -35t-87 -97t-32 -143q0 -94 32.5 -161t87 -103t121.5 -36q23 0 48 2.5t50 9.5v178
l-89 44v16h287v-16l-73 -46v-160q-30 -26 -73 -44.5t-89.5 -29t-89.5 -10.5zM402 723q-28 0 -48 19.5t-20 48.5t20 48t48 19t48 -19t20 -48t-20 -48.5t-48 -19.5z" />
    <glyph glyph-name="uni0122" unicode="&#x122;" horiz-adv-x="761" 
d="M398 -10q-72 0 -134 24t-108 68t-72 103t-26 129q0 77 29.5 142t80.5 113t117.5 74.5t140.5 26.5q53 0 90.5 -6t67 -17t58.5 -25l8 -171h-17l-82 130q-34 22 -61 31t-62 9q-68 0 -123 -35t-87 -97t-32 -143q0 -94 32.5 -161t87 -103t121.5 -36q23 0 48 2.5t50 9.5v178
l-89 44v16h287v-16l-73 -46v-160q-30 -26 -73 -44.5t-89.5 -29t-89.5 -10.5zM426 710q-52 0 -78.5 21t-26.5 58q0 41 31 62t80 21q8 0 17 -1t17 -2v-17q-7 2 -14.5 2.5t-12.5 0.5q-25 0 -39 -9t-14 -27q0 -23 19.5 -31t60.5 -8v-49q0 -9 -8.5 -15t-31.5 -6z" />
    <glyph glyph-name="uni01E6" unicode="&#x1e6;" horiz-adv-x="761" 
d="M398 -10q-72 0 -134 24t-108 68t-72 103t-26 129q0 77 29.5 142t80.5 113t117.5 74.5t140.5 26.5q53 0 90.5 -6t67 -17t58.5 -25l8 -171h-17l-82 130q-34 22 -61 31t-62 9q-68 0 -123 -35t-87 -97t-32 -143q0 -94 32.5 -161t87 -103t121.5 -36q23 0 48 2.5t50 9.5v178
l-89 44v16h287v-16l-73 -46v-160q-30 -26 -73 -44.5t-89.5 -29t-89.5 -10.5zM382 710l-134 152h17l137 -68l137 68h17l-134 -152h-40z" />
    <glyph glyph-name="uni1E20" unicode="&#x1e20;" horiz-adv-x="761" 
d="M398 -10q-72 0 -134 24t-108 68t-72 103t-26 129q0 77 29.5 142t80.5 113t117.5 74.5t140.5 26.5q53 0 90.5 -6t67 -17t58.5 -25l8 -171h-17l-82 130q-34 22 -61 31t-62 9q-68 0 -123 -35t-87 -97t-32 -143q0 -94 32.5 -161t87 -103t121.5 -36q23 0 48 2.5t50 9.5v178
l-89 44v16h287v-16l-73 -46v-160q-30 -26 -73 -44.5t-89.5 -29t-89.5 -10.5zM262 760v55h280v-55h-280z" />
    <glyph glyph-name="uni0124" unicode="&#x124;" horiz-adv-x="825" 
d="M52 0v16l84 41v546l-84 41v16h288v-16l-79 -41v-235h303v235l-79 41v16h287v-16l-82 -41v-546l82 -41v-16h-287v16l79 41v256h-303v-256l79 -41v-16h-288zM258 710l134 152h40l134 -152h-17l-137 68l-137 -68h-17z" />
    <glyph glyph-name="uni0126" unicode="&#x126;" horiz-adv-x="825" 
d="M52 0v16l84 41v413h-84v51h84v82l-84 41v16h288v-16l-79 -41v-82h303v82l-79 41v16h287v-16l-82 -41v-82h82v-51h-82v-413l82 -41v-16h-287v16l79 41v256h-303v-256l79 -41v-16h-288zM261 368h303v102h-303v-102z" />
    <glyph glyph-name="uni1E24" unicode="&#x1e24;" horiz-adv-x="825" 
d="M52 0v16l84 41v546l-84 41v16h288v-16l-79 -41v-235h303v235l-79 41v16h287v-16l-82 -41v-546l82 -41v-16h-287v16l79 41v256h-303v-256l79 -41v-16h-288zM412 -220q-28 0 -48 20t-20 48t20 48t48 20t48 -20t20 -48t-20 -48t-48 -20z" />
    <glyph glyph-name="uni1E2A" unicode="&#x1e2a;" horiz-adv-x="825" 
d="M52 0v16l84 41v546l-84 41v16h288v-16l-79 -41v-235h303v235l-79 41v16h287v-16l-82 -41v-546l82 -41v-16h-287v16l79 41v256h-303v-256l79 -41v-16h-288zM412 -240q-69 0 -102 41.5t-52 125.5h17q19 -42 39.5 -62t44 -26t53.5 -6t53.5 6t43.5 26t40 62h17
q-20 -84 -54.5 -125.5t-99.5 -41.5z" />
    <glyph glyph-name="uni00CC" unicode="&#xcc;" horiz-adv-x="404" 
d="M56 0v16l83 41v546l-83 41v16h292v-16l-83 -41v-546l83 -41v-16h-292zM193 710l-129 85q-23 16 -30 33t-7 34h99l84 -152h-17z" />
    <glyph glyph-name="uni00CD" unicode="&#xcd;" horiz-adv-x="404" 
d="M56 0v16l83 41v546l-83 41v16h292v-16l-83 -41v-546l83 -41v-16h-292zM193 710l85 152h98q0 -17 -7 -34t-30 -33l-128 -85h-18z" />
    <glyph glyph-name="uni00CE" unicode="&#xce;" horiz-adv-x="404" 
d="M56 0v16l83 41v546l-83 41v16h292v-16l-83 -41v-546l83 -41v-16h-292zM48 710l134 152h40l134 -152h-17l-137 68l-137 -68h-17z" />
    <glyph glyph-name="uni0128" unicode="&#x128;" horiz-adv-x="404" 
d="M56 0v16l83 41v546l-83 41v16h292v-16l-83 -41v-546l83 -41v-16h-292zM42 724q16 50 31.5 76t32 35.5t37.5 9.5q28 0 51.5 -13.5t45.5 -26.5t44 -13q18 0 32 10t27 43h19q-16 -51 -31.5 -77t-32 -35t-37.5 -9q-28 0 -51.5 13t-45.5 26t-44 13q-18 0 -32 -9.5t-27 -42.5
h-19z" />
    <glyph glyph-name="uni00CF" unicode="&#xcf;" horiz-adv-x="404" 
d="M56 0v16l83 41v546l-83 41v16h292v-16l-83 -41v-546l83 -41v-16h-292zM106 731q-24 0 -39.5 16t-15.5 39q0 22 15.5 38t39.5 16q23 0 38.5 -16t15.5 -38q0 -23 -15.5 -39t-38.5 -16zM298 731q-24 0 -39 16t-15 39q0 22 15 38t39 16t39 -16t15 -38q0 -23 -15 -39t-39 -16z
" />
    <glyph glyph-name="uni012A" unicode="&#x12a;" horiz-adv-x="404" 
d="M56 0v16l83 41v546l-83 41v16h292v-16l-83 -41v-546l83 -41v-16h-292zM62 760v55h280v-55h-280z" />
    <glyph glyph-name="uni012C" unicode="&#x12c;" horiz-adv-x="404" 
d="M56 0v16l83 41v546l-83 41v16h292v-16l-83 -41v-546l83 -41v-16h-292zM202 710q-69 0 -103 39.5t-51 112.5h17q25 -50 56 -64.5t81 -14.5t80.5 14.5t56.5 64.5h17q-18 -73 -53.5 -112.5t-100.5 -39.5z" />
    <glyph glyph-name="uni0130" unicode="&#x130;" horiz-adv-x="404" 
d="M56 0v16l83 41v546l-83 41v16h292v-16l-83 -41v-546l83 -41v-16h-292zM202 723q-28 0 -48 19.5t-20 48.5t20 48t48 19t48 -19t20 -48t-20 -48.5t-48 -19.5z" />
    <glyph glyph-name="uni012E" unicode="&#x12e;" horiz-adv-x="404" 
d="M56 0v16l83 41v546l-83 41v16h292v-16l-83 -41v-546l83 -41v-16h-122q-43 -70 -43 -128q0 -63 61 -63q11 0 24 3.5t25 10.5h3v-15q-27 -48 -88 -48q-44 0 -72 24t-28 65q0 36 24 72.5t63 78.5h-139z" />
    <glyph glyph-name="uni1ECA" unicode="&#x1eca;" horiz-adv-x="404" 
d="M56 0v16l83 41v546l-83 41v16h292v-16l-83 -41v-546l83 -41v-16h-292zM202 -220q-28 0 -48 20t-20 48t20 48t48 20t48 -20t20 -48t-20 -48t-48 -20z" />
    <glyph glyph-name="uni0208" unicode="&#x208;" horiz-adv-x="404" 
d="M56 0v16l83 41v546l-83 41v16h292v-16l-83 -41v-546l83 -41v-16h-292zM128 710l-108 89q-18 14 -17.5 31t5.5 32h74l63 -152h-17zM256 710l-95 89q-17 16 -17 32t5 31h74l51 -152h-18z" />
    <glyph glyph-name="uni020A" unicode="&#x20a;" horiz-adv-x="404" 
d="M56 0v16l83 41v546l-83 41v16h292v-16l-83 -41v-546l83 -41v-16h-292zM48 710q18 73 53.5 112.5t100.5 39.5q69 0 103 -39.5t51 -112.5h-17q-25 50 -56 64.5t-81 14.5t-80.5 -14.5t-56.5 -64.5h-17z" />
    <glyph glyph-name="uni1EC8" unicode="&#x1ec8;" horiz-adv-x="404" 
d="M56 0v16l83 41v546l-83 41v16h292v-16l-83 -41v-546l83 -41v-16h-292zM154 710v1q32 12 48.5 23t16.5 32q0 16 -16.5 27t-58.5 18l13 64q68 -6 95 -30.5t27 -50.5q0 -40 -29.5 -62t-87.5 -30z" />
    <glyph glyph-name="uni1E2E" unicode="&#x1e2e;" horiz-adv-x="404" 
d="M56 0v16l83 41v546l-83 41v16h292v-16l-83 -41v-546l83 -41v-16h-292zM106 732q-24 0 -39.5 15.5t-15.5 38.5t15.5 38.5t39.5 15.5q23 0 38.5 -15.5t15.5 -38.5t-15.5 -38.5t-38.5 -15.5zM298 732q-24 0 -39 15.5t-15 38.5t15 38.5t39 15.5t39 -15.5t15 -38.5t-15 -38.5
t-39 -15.5zM192 879l85 152h98q0 -17 -7 -34t-30 -33l-128 -85h-18z" />
    <glyph glyph-name="uni0132" unicode="&#x132;" horiz-adv-x="818" 
d="M56 0v16l83 41v546l-83 41v16h292v-16l-83 -41v-546l83 -41v-16h-292zM457 -173q-13 0 -22.5 6.5t-9.5 21.5q0 7 2.5 20.5t9.5 46.5h7q16 -4 25 -6.5t21 -2.5q20 0 34.5 9t22 38.5t7.5 89.5v553l-83 41v16h292v-16l-83 -41v-360q0 -76 -14 -141t-37 -115t-50 -80
q-39 -43 -65 -61.5t-57 -18.5z" />
    <glyph glyph-name="Jacute" horiz-adv-x="415" 
d="M53 -173q-13 0 -22.5 6.5t-9.5 21.5q0 7 2.5 20.5t9.5 46.5h7q16 -4 25 -6.5t21 -2.5q20 0 34.5 9t22 38.5t7.5 89.5v553l-83 41v16h292v-16l-83 -41v-360q0 -76 -14 -141t-37 -115t-50 -80q-39 -43 -65 -61.5t-57 -18.5zM204 710l85 152h98q0 -17 -7 -34t-30 -33
l-128 -85h-18z" />
    <glyph glyph-name="uni0134" unicode="&#x134;" horiz-adv-x="415" 
d="M53 -173q-13 0 -22.5 6.5t-9.5 21.5q0 7 2.5 20.5t9.5 46.5h7q16 -4 25 -6.5t21 -2.5q20 0 34.5 9t22 38.5t7.5 89.5v553l-83 41v16h292v-16l-83 -41v-360q0 -76 -14 -141t-37 -115t-50 -80q-39 -43 -65 -61.5t-57 -18.5zM59 710l134 152h40l134 -152h-17l-137 68
l-137 -68h-17z" />
    <glyph glyph-name="uni0136" unicode="&#x136;" horiz-adv-x="752" 
d="M52 0v16l84 41v546l-84 41v16h293v-16l-84 -41v-546l84 -41v-16h-293zM262 335l276 274l-74 35v16h226v-16l-66 -27l-244 -237l293 -336l67 -28v-16h-190zM372 -239q-8 0 -17.5 0.5t-16.5 2.5v18q7 -2 14.5 -3t12.5 -1q25 0 39 9t14 27q0 23 -19.5 31t-61.5 8v49
q0 9 8.5 15t32.5 6q52 0 78.5 -20.5t26.5 -58.5q0 -40 -31 -61.5t-80 -21.5z" />
    <glyph glyph-name="uni0139" unicode="&#x139;" horiz-adv-x="642" 
d="M52 0v16l84 41v546l-84 41v16h303v-16l-94 -41v-548h230l76 180h16v-235h-531zM190 710l85 152h98q0 -17 -7 -34t-30 -33l-128 -85h-18z" />
    <glyph glyph-name="uni013D" unicode="&#x13d;" horiz-adv-x="642" 
d="M52 0v16l84 41v546l-84 41v16h303v-16l-94 -41v-548h230l76 180h16v-235h-531zM429 473l18 187h89q3 -14 2.5 -29.5t-13.5 -35.5l-79 -122h-17z" />
    <glyph glyph-name="uni013B" unicode="&#x13b;" horiz-adv-x="642" 
d="M52 0v16l84 41v546l-84 41v16h303v-16l-94 -41v-548h230l76 180h16v-235h-531zM320 -239q-8 0 -17.5 0.5t-16.5 2.5v18q7 -2 14.5 -3t12.5 -1q25 0 39 9t14 27q0 23 -19.5 31t-61.5 8v49q0 9 8.5 15t32.5 6q52 0 78.5 -20.5t26.5 -58.5q0 -40 -31 -61.5t-80 -21.5z" />
    <glyph glyph-name="uni0141" unicode="&#x141;" horiz-adv-x="642" 
d="M52 0v16l84 41v175l-83 -58v62l83 59v308l-84 41v16h303v-16l-94 -41v-238l145 99v-63l-145 -99v-247h230l76 180h16v-235h-531z" />
    <glyph glyph-name="uni013F" unicode="&#x13f;" horiz-adv-x="642" 
d="M52 0v16l84 41v546l-84 41v16h303v-16l-94 -41v-548h230l76 180h16v-235h-531zM508 282q-28 0 -48 19.5t-20 48.5t20 48t48 19t48 -19t20 -48t-20 -48.5t-48 -19.5z" />
    <glyph glyph-name="uni1E36" unicode="&#x1e36;" horiz-adv-x="642" 
d="M52 0v16l84 41v546l-84 41v16h303v-16l-94 -41v-548h230l76 180h16v-235h-531zM357 -220q-28 0 -48 20t-20 48t20 48t48 20t48 -20t20 -48t-20 -48t-48 -20z" />
    <glyph glyph-name="uni1E3A" unicode="&#x1e3a;" horiz-adv-x="642" 
d="M52 0v16l84 41v546l-84 41v16h303v-16l-94 -41v-548h230l76 180h16v-235h-531zM217 -177v56h280v-56h-280z" />
    <glyph glyph-name="uni1E42" unicode="&#x1e42;" horiz-adv-x="980" 
d="M49 0v16l83 41l21 546l-87 41v16h222l213 -494l212 494h213v-16l-85 -34l17 -553l73 -41v-16h-273v16l78 40l-10 482l-232 -543h-52l-232 538l-13 -477l85 -40v-16h-233zM468 -220q-28 0 -48 20t-20 48t20 48t48 20t48 -20t20 -48t-20 -48t-48 -20z" />
    <glyph glyph-name="uni0143" unicode="&#x143;" horiz-adv-x="809" 
d="M49 0v16l83 41v545l-82 42v16h172l386 -456v401l-108 39v16h260v-16l-82 -40v-609h-52l-424 498v-437l109 -40v-16h-262zM403 710l85 152h98q0 -17 -7 -34t-30 -33l-128 -85h-18z" />
    <glyph glyph-name="uni0147" unicode="&#x147;" horiz-adv-x="809" 
d="M49 0v16l83 41v545l-82 42v16h172l386 -456v401l-108 39v16h260v-16l-82 -40v-609h-52l-424 498v-437l109 -40v-16h-262zM392 710l-134 152h17l137 -68l137 68h17l-134 -152h-40z" />
    <glyph glyph-name="uni00D1" unicode="&#xd1;" horiz-adv-x="809" 
d="M49 0v16l83 41v545l-82 42v16h172l386 -456v401l-108 39v16h260v-16l-82 -40v-609h-52l-424 498v-437l109 -40v-16h-262zM252 724q16 50 31.5 76t32 35.5t37.5 9.5q28 0 51.5 -13.5t45.5 -26.5t44 -13q18 0 32 10t27 43h19q-16 -51 -31.5 -77t-32 -35t-37.5 -9
q-28 0 -51.5 13t-45.5 26t-44 13q-18 0 -32 -9.5t-27 -42.5h-19z" />
    <glyph glyph-name="uni0145" unicode="&#x145;" horiz-adv-x="809" 
d="M49 0v16l83 41v545l-82 42v16h172l386 -456v401l-108 39v16h260v-16l-82 -40v-609h-52l-424 498v-437l109 -40v-16h-262zM381 -239q-8 0 -17.5 0.5t-16.5 2.5v18q7 -2 14.5 -3t12.5 -1q25 0 39 9t14 27q0 23 -19.5 31t-61.5 8v49q0 9 8.5 15t32.5 6q52 0 78.5 -20.5
t26.5 -58.5q0 -40 -31 -61.5t-80 -21.5z" />
    <glyph glyph-name="uni1E44" unicode="&#x1e44;" horiz-adv-x="809" 
d="M49 0v16l83 41v545l-82 42v16h172l386 -456v401l-108 39v16h260v-16l-82 -40v-609h-52l-424 498v-437l109 -40v-16h-262zM412 723q-28 0 -48 19.5t-20 48.5t20 48t48 19t48 -19t20 -48t-20 -48.5t-48 -19.5z" />
    <glyph glyph-name="uni1E46" unicode="&#x1e46;" horiz-adv-x="809" 
d="M49 0v16l83 41v545l-82 42v16h172l386 -456v401l-108 39v16h260v-16l-82 -40v-609h-52l-424 498v-437l109 -40v-16h-262zM418 -220q-28 0 -48 20t-20 48t20 48t48 20t48 -20t20 -48t-20 -48t-48 -20z" />
    <glyph glyph-name="uni1E48" unicode="&#x1e48;" horiz-adv-x="809" 
d="M49 0v16l83 41v545l-82 42v16h172l386 -456v401l-108 39v16h260v-16l-82 -40v-609h-52l-424 498v-437l109 -40v-16h-262zM278 -177v56h280v-56h-280z" />
    <glyph glyph-name="uni00D2" unicode="&#xd2;" horiz-adv-x="796" 
d="M398 -10q-73 0 -135 25.5t-108 71t-71.5 107.5t-25.5 136t25.5 136t71.5 107.5t108 71t135 25.5q74 0 136 -25.5t108 -71t71.5 -107.5t25.5 -136t-25.5 -136t-71.5 -107.5t-108 -71t-136 -25.5zM416 41q56 0 98.5 32t66.5 90t24 137q0 97 -29.5 169t-80 111.5
t-112.5 39.5q-55 0 -98.5 -31.5t-68.5 -89.5t-25 -137q0 -97 30 -169t81.5 -112t113.5 -40zM381 710l-129 85q-23 16 -30 33t-7 34h99l84 -152h-17z" />
    <glyph glyph-name="uni00D3" unicode="&#xd3;" horiz-adv-x="796" 
d="M398 -10q-73 0 -135 25.5t-108 71t-71.5 107.5t-25.5 136t25.5 136t71.5 107.5t108 71t135 25.5q74 0 136 -25.5t108 -71t71.5 -107.5t25.5 -136t-25.5 -136t-71.5 -107.5t-108 -71t-136 -25.5zM416 41q56 0 98.5 32t66.5 90t24 137q0 97 -29.5 169t-80 111.5
t-112.5 39.5q-55 0 -98.5 -31.5t-68.5 -89.5t-25 -137q0 -97 30 -169t81.5 -112t113.5 -40zM382 710l85 152h98q0 -17 -7 -34t-30 -33l-128 -85h-18z" />
    <glyph glyph-name="uni00D4" unicode="&#xd4;" horiz-adv-x="796" 
d="M398 -10q-73 0 -135 25.5t-108 71t-71.5 107.5t-25.5 136t25.5 136t71.5 107.5t108 71t135 25.5q74 0 136 -25.5t108 -71t71.5 -107.5t25.5 -136t-25.5 -136t-71.5 -107.5t-108 -71t-136 -25.5zM416 41q56 0 98.5 32t66.5 90t24 137q0 97 -29.5 169t-80 111.5
t-112.5 39.5q-55 0 -98.5 -31.5t-68.5 -89.5t-25 -137q0 -97 30 -169t81.5 -112t113.5 -40zM236 710l134 152h40l134 -152h-17l-137 68l-137 -68h-17z" />
    <glyph glyph-name="uni00D5" unicode="&#xd5;" horiz-adv-x="796" 
d="M398 -10q-73 0 -135 25.5t-108 71t-71.5 107.5t-25.5 136t25.5 136t71.5 107.5t108 71t135 25.5q74 0 136 -25.5t108 -71t71.5 -107.5t25.5 -136t-25.5 -136t-71.5 -107.5t-108 -71t-136 -25.5zM416 41q56 0 98.5 32t66.5 90t24 137q0 97 -29.5 169t-80 111.5
t-112.5 39.5q-55 0 -98.5 -31.5t-68.5 -89.5t-25 -137q0 -97 30 -169t81.5 -112t113.5 -40zM230 724q16 50 31.5 76t32 35.5t37.5 9.5q28 0 51.5 -13.5t45.5 -26.5t44 -13q18 0 32 10t27 43h19q-16 -51 -31.5 -77t-32 -35t-37.5 -9q-28 0 -51.5 13t-45.5 26t-44 13
q-18 0 -32 -9.5t-27 -42.5h-19z" />
    <glyph glyph-name="uni00D6" unicode="&#xd6;" horiz-adv-x="796" 
d="M398 -10q-73 0 -135 25.5t-108 71t-71.5 107.5t-25.5 136t25.5 136t71.5 107.5t108 71t135 25.5q74 0 136 -25.5t108 -71t71.5 -107.5t25.5 -136t-25.5 -136t-71.5 -107.5t-108 -71t-136 -25.5zM416 41q56 0 98.5 32t66.5 90t24 137q0 97 -29.5 169t-80 111.5
t-112.5 39.5q-55 0 -98.5 -31.5t-68.5 -89.5t-25 -137q0 -97 30 -169t81.5 -112t113.5 -40zM295 731q-24 0 -39.5 16t-15.5 39q0 22 15.5 38t39.5 16q23 0 38.5 -16t15.5 -38q0 -23 -15.5 -39t-38.5 -16zM487 731q-24 0 -39 16t-15 39q0 22 15 38t39 16t39 -16t15 -38
q0 -23 -15 -39t-39 -16z" />
    <glyph glyph-name="uni014C" unicode="&#x14c;" horiz-adv-x="796" 
d="M398 -10q-73 0 -135 25.5t-108 71t-71.5 107.5t-25.5 136t25.5 136t71.5 107.5t108 71t135 25.5q74 0 136 -25.5t108 -71t71.5 -107.5t25.5 -136t-25.5 -136t-71.5 -107.5t-108 -71t-136 -25.5zM416 41q56 0 98.5 32t66.5 90t24 137q0 97 -29.5 169t-80 111.5
t-112.5 39.5q-55 0 -98.5 -31.5t-68.5 -89.5t-25 -137q0 -97 30 -169t81.5 -112t113.5 -40zM250 760v55h280v-55h-280z" />
    <glyph glyph-name="uni014E" unicode="&#x14e;" horiz-adv-x="796" 
d="M398 -10q-73 0 -135 25.5t-108 71t-71.5 107.5t-25.5 136t25.5 136t71.5 107.5t108 71t135 25.5q74 0 136 -25.5t108 -71t71.5 -107.5t25.5 -136t-25.5 -136t-71.5 -107.5t-108 -71t-136 -25.5zM416 41q56 0 98.5 32t66.5 90t24 137q0 97 -29.5 169t-80 111.5
t-112.5 39.5q-55 0 -98.5 -31.5t-68.5 -89.5t-25 -137q0 -97 30 -169t81.5 -112t113.5 -40zM390 710q-69 0 -103 39.5t-51 112.5h17q25 -50 56 -64.5t81 -14.5t80.5 14.5t56.5 64.5h17q-18 -73 -53.5 -112.5t-100.5 -39.5z" />
    <glyph glyph-name="uni0150" unicode="&#x150;" horiz-adv-x="796" 
d="M398 -10q-73 0 -135 25.5t-108 71t-71.5 107.5t-25.5 136t25.5 136t71.5 107.5t108 71t135 25.5q74 0 136 -25.5t108 -71t71.5 -107.5t25.5 -136t-25.5 -136t-71.5 -107.5t-108 -71t-136 -25.5zM416 41q56 0 98.5 32t66.5 90t24 137q0 97 -29.5 169t-80 111.5
t-112.5 39.5q-55 0 -98.5 -31.5t-68.5 -89.5t-25 -137q0 -97 30 -169t81.5 -112t113.5 -40zM317 710l45 152h74q5 -15 4.5 -31t-16.5 -32l-90 -89h-17zM444 710l59 152h75q4 -15 4.5 -31.5t-16.5 -31.5l-104 -89h-18z" />
    <glyph glyph-name="uni1ECC" unicode="&#x1ecc;" horiz-adv-x="796" 
d="M398 -10q-73 0 -135 25.5t-108 71t-71.5 107.5t-25.5 136t25.5 136t71.5 107.5t108 71t135 25.5q74 0 136 -25.5t108 -71t71.5 -107.5t25.5 -136t-25.5 -136t-71.5 -107.5t-108 -71t-136 -25.5zM416 41q56 0 98.5 32t66.5 90t24 137q0 97 -29.5 169t-80 111.5
t-112.5 39.5q-55 0 -98.5 -31.5t-68.5 -89.5t-25 -137q0 -97 30 -169t81.5 -112t113.5 -40zM407 -220q-28 0 -48 20t-20 48t20 48t48 20t48 -20t20 -48t-20 -48t-48 -20z" />
    <glyph glyph-name="uni01EA" unicode="&#x1ea;" horiz-adv-x="796" 
d="M414 -240q-45 0 -72.5 24t-27.5 65q0 34 21 68t56 73q-96 2 -171 46.5t-118.5 120.5t-43.5 173q0 74 25.5 136t71.5 107.5t108 71t135 25.5q74 0 136 -25.5t108 -71t71.5 -107.5t25.5 -136q0 -93 -40.5 -167.5t-111 -119.5t-161.5 -52q-37 -64 -37 -119q0 -63 61 -63
q11 0 24 3.5t24 10.5h4v-15q-14 -22 -36 -35t-52 -13zM416 41q56 0 98.5 32t66.5 90t24 137q0 97 -29.5 169t-80 111.5t-112.5 39.5q-55 0 -98.5 -31.5t-68.5 -89.5t-25 -137q0 -97 30 -169t81.5 -112t113.5 -40z" />
    <glyph glyph-name="uni020C" unicode="&#x20c;" horiz-adv-x="796" 
d="M398 -10q-73 0 -135 25.5t-108 71t-71.5 107.5t-25.5 136t25.5 136t71.5 107.5t108 71t135 25.5q74 0 136 -25.5t108 -71t71.5 -107.5t25.5 -136t-25.5 -136t-71.5 -107.5t-108 -71t-136 -25.5zM416 41q56 0 98.5 32t66.5 90t24 137q0 97 -29.5 169t-80 111.5
t-112.5 39.5q-55 0 -98.5 -31.5t-68.5 -89.5t-25 -137q0 -97 30 -169t81.5 -112t113.5 -40zM317 710l-108 89q-18 14 -17.5 31t5.5 32h74l63 -152h-17zM445 710l-95 89q-17 16 -17 32t5 31h74l51 -152h-18z" />
    <glyph glyph-name="uni020E" unicode="&#x20e;" horiz-adv-x="796" 
d="M398 -10q-73 0 -135 25.5t-108 71t-71.5 107.5t-25.5 136t25.5 136t71.5 107.5t108 71t135 25.5q74 0 136 -25.5t108 -71t71.5 -107.5t25.5 -136t-25.5 -136t-71.5 -107.5t-108 -71t-136 -25.5zM416 41q56 0 98.5 32t66.5 90t24 137q0 97 -29.5 169t-80 111.5
t-112.5 39.5q-55 0 -98.5 -31.5t-68.5 -89.5t-25 -137q0 -97 30 -169t81.5 -112t113.5 -40zM236 710q18 73 53.5 112.5t100.5 39.5q69 0 103 -39.5t51 -112.5h-17q-25 50 -56 64.5t-81 14.5t-80.5 -14.5t-56.5 -64.5h-17z" />
    <glyph glyph-name="uni022A" unicode="&#x22a;" horiz-adv-x="796" 
d="M398 -10q-73 0 -135 25.5t-108 71t-71.5 107.5t-25.5 136t25.5 136t71.5 107.5t108 71t135 25.5q74 0 136 -25.5t108 -71t71.5 -107.5t25.5 -136t-25.5 -136t-71.5 -107.5t-108 -71t-136 -25.5zM416 41q56 0 98.5 32t66.5 90t24 137q0 97 -29.5 169t-80 111.5
t-112.5 39.5q-55 0 -98.5 -31.5t-68.5 -89.5t-25 -137q0 -97 30 -169t81.5 -112t113.5 -40zM250 925v56h280v-56h-280zM294 731q-24 0 -39.5 16t-15.5 39q0 22 15.5 38t39.5 16q23 0 38.5 -16t15.5 -38q0 -23 -15.5 -39t-38.5 -16zM486 731q-24 0 -39 16t-15 39q0 22 15 38
t39 16t39 -16t15 -38q0 -23 -15 -39t-39 -16z" />
    <glyph glyph-name="uni022C" unicode="&#x22c;" horiz-adv-x="796" 
d="M398 -10q-73 0 -135 25.5t-108 71t-71.5 107.5t-25.5 136t25.5 136t71.5 107.5t108 71t135 25.5q74 0 136 -25.5t108 -71t71.5 -107.5t25.5 -136t-25.5 -136t-71.5 -107.5t-108 -71t-136 -25.5zM416 41q56 0 98.5 32t66.5 90t24 137q0 97 -29.5 169t-80 111.5
t-112.5 39.5q-55 0 -98.5 -31.5t-68.5 -89.5t-25 -137q0 -97 30 -169t81.5 -112t113.5 -40zM230 724q16 50 31.5 76t32 35.5t37.5 9.5q28 0 51.5 -13.5t45.5 -26.5t44 -13q18 0 32 10t27 43h19q-16 -51 -31.5 -77t-32 -35t-37.5 -9q-28 0 -51.5 13t-45.5 26t-44 13
q-18 0 -32 -9.5t-27 -42.5h-19zM250 925v55h280v-55h-280z" />
    <glyph glyph-name="uni0230" unicode="&#x230;" horiz-adv-x="796" 
d="M398 -10q-73 0 -135 25.5t-108 71t-71.5 107.5t-25.5 136t25.5 136t71.5 107.5t108 71t135 25.5q74 0 136 -25.5t108 -71t71.5 -107.5t25.5 -136t-25.5 -136t-71.5 -107.5t-108 -71t-136 -25.5zM416 41q56 0 98.5 32t66.5 90t24 137q0 97 -29.5 169t-80 111.5
t-112.5 39.5q-55 0 -98.5 -31.5t-68.5 -89.5t-25 -137q0 -97 30 -169t81.5 -112t113.5 -40zM390 723q-28 0 -48 19.5t-20 48.5t20 48t48 19t48 -19t20 -48t-20 -48.5t-48 -19.5zM250 925v55h280v-55h-280z" />
    <glyph glyph-name="uni1ED0" unicode="&#x1ed0;" horiz-adv-x="796" 
d="M398 -10q-73 0 -135 25.5t-108 71t-71.5 107.5t-25.5 136t25.5 136t71.5 107.5t108 71t135 25.5q74 0 136 -25.5t108 -71t71.5 -107.5t25.5 -136t-25.5 -136t-71.5 -107.5t-108 -71t-136 -25.5zM416 41q56 0 98.5 32t66.5 90t24 137q0 97 -29.5 169t-80 111.5
t-112.5 39.5q-55 0 -98.5 -31.5t-68.5 -89.5t-25 -137q0 -97 30 -169t81.5 -112t113.5 -40zM502 805l41 143h91q0 -27 -30 -56l-87 -87h-15zM236 710l134 152h40l134 -152h-17l-137 68l-137 -68h-17z" />
    <glyph glyph-name="uni1ED8" unicode="&#x1ed8;" horiz-adv-x="796" 
d="M398 -10q-73 0 -135 25.5t-108 71t-71.5 107.5t-25.5 136t25.5 136t71.5 107.5t108 71t135 25.5q74 0 136 -25.5t108 -71t71.5 -107.5t25.5 -136t-25.5 -136t-71.5 -107.5t-108 -71t-136 -25.5zM416 41q56 0 98.5 32t66.5 90t24 137q0 97 -29.5 169t-80 111.5
t-112.5 39.5q-55 0 -98.5 -31.5t-68.5 -89.5t-25 -137q0 -97 30 -169t81.5 -112t113.5 -40zM236 710l134 152h40l134 -152h-17l-137 68l-137 -68h-17zM407 -220q-28 0 -48 20t-20 48t20 48t48 20t48 -20t20 -48t-20 -48t-48 -20z" />
    <glyph glyph-name="uni1ED2" unicode="&#x1ed2;" horiz-adv-x="796" 
d="M398 -10q-73 0 -135 25.5t-108 71t-71.5 107.5t-25.5 136t25.5 136t71.5 107.5t108 71t135 25.5q74 0 136 -25.5t108 -71t71.5 -107.5t25.5 -136t-25.5 -136t-71.5 -107.5t-108 -71t-136 -25.5zM416 41q56 0 98.5 32t66.5 90t24 137q0 97 -29.5 169t-80 111.5
t-112.5 39.5q-55 0 -98.5 -31.5t-68.5 -89.5t-25 -137q0 -97 30 -169t81.5 -112t113.5 -40zM263 805l-87 87q-16 15 -23 28t-7 28h91l41 -143h-15zM236 710l134 152h40l134 -152h-17l-137 68l-137 -68h-17z" />
    <glyph glyph-name="uni1ED4" unicode="&#x1ed4;" horiz-adv-x="796" 
d="M398 -10q-73 0 -135 25.5t-108 71t-71.5 107.5t-25.5 136t25.5 136t71.5 107.5t108 71t135 25.5q74 0 136 -25.5t108 -71t71.5 -107.5t25.5 -136t-25.5 -136t-71.5 -107.5t-108 -71t-136 -25.5zM416 41q56 0 98.5 32t66.5 90t24 137q0 97 -29.5 169t-80 111.5
t-112.5 39.5q-55 0 -98.5 -31.5t-68.5 -89.5t-25 -137q0 -97 30 -169t81.5 -112t113.5 -40zM236 710l134 152h40l134 -152h-17l-137 68l-137 -68h-17zM332 886v1q32 12 48.5 23t16.5 32q0 16 -16.5 27t-58.5 18l13 64q68 -6 95 -30.5t27 -50.5q0 -40 -29.5 -62t-87.5 -30z
" />
    <glyph glyph-name="uni1ED6" unicode="&#x1ed6;" horiz-adv-x="796" 
d="M398 -10q-73 0 -135 25.5t-108 71t-71.5 107.5t-25.5 136t25.5 136t71.5 107.5t108 71t135 25.5q74 0 136 -25.5t108 -71t71.5 -107.5t25.5 -136t-25.5 -136t-71.5 -107.5t-108 -71t-136 -25.5zM416 41q56 0 98.5 32t66.5 90t24 137q0 97 -29.5 169t-80 111.5
t-112.5 39.5q-55 0 -98.5 -31.5t-68.5 -89.5t-25 -137q0 -97 30 -169t81.5 -112t113.5 -40zM236 710l134 152h40l134 -152h-17l-137 68l-137 -68h-17zM230 889q19 58 34.5 86t31.5 37t36 9t38.5 -9.5t35.5 -22.5t33 -22.5t32 -9.5q18 0 31 12.5t29 51.5h19
q-19 -58 -34.5 -86t-31.5 -37t-36 -9t-38.5 9.5t-35.5 22.5t-33 22.5t-32 9.5q-18 0 -31 -12.5t-29 -51.5h-19z" />
    <glyph glyph-name="uni1ECE" unicode="&#x1ece;" horiz-adv-x="796" 
d="M398 -10q-73 0 -135 25.5t-108 71t-71.5 107.5t-25.5 136t25.5 136t71.5 107.5t108 71t135 25.5q74 0 136 -25.5t108 -71t71.5 -107.5t25.5 -136t-25.5 -136t-71.5 -107.5t-108 -71t-136 -25.5zM416 41q56 0 98.5 32t66.5 90t24 137q0 97 -29.5 169t-80 111.5
t-112.5 39.5q-55 0 -98.5 -31.5t-68.5 -89.5t-25 -137q0 -97 30 -169t81.5 -112t113.5 -40zM342 710v1q32 12 48.5 23t16.5 32q0 16 -16.5 27t-58.5 18l13 64q68 -6 95 -30.5t27 -50.5q0 -40 -29.5 -62t-87.5 -30z" />
    <glyph glyph-name="uni1E4C" unicode="&#x1e4c;" horiz-adv-x="796" 
d="M398 -10q-73 0 -135 25.5t-108 71t-71.5 107.5t-25.5 136t25.5 136t71.5 107.5t108 71t135 25.5q74 0 136 -25.5t108 -71t71.5 -107.5t25.5 -136t-25.5 -136t-71.5 -107.5t-108 -71t-136 -25.5zM416 41q56 0 98.5 32t66.5 90t24 137q0 97 -29.5 169t-80 111.5
t-112.5 39.5q-55 0 -98.5 -31.5t-68.5 -89.5t-25 -137q0 -97 30 -169t81.5 -112t113.5 -40zM230 724q16 50 31.5 76t32 35.5t37.5 9.5q28 0 51.5 -13.5t45.5 -26.5t44 -13q18 0 32 10t27 43h19q-16 -51 -31.5 -77t-32 -35t-37.5 -9q-28 0 -51.5 13t-45.5 26t-44 13
q-18 0 -32 -9.5t-27 -42.5h-19zM380 862l85 152h98q0 -17 -7 -34t-30 -33l-128 -85h-18z" />
    <glyph glyph-name="uni1E4E" unicode="&#x1e4e;" horiz-adv-x="796" 
d="M398 -10q-73 0 -135 25.5t-108 71t-71.5 107.5t-25.5 136t25.5 136t71.5 107.5t108 71t135 25.5q74 0 136 -25.5t108 -71t71.5 -107.5t25.5 -136t-25.5 -136t-71.5 -107.5t-108 -71t-136 -25.5zM416 41q56 0 98.5 32t66.5 90t24 137q0 97 -29.5 169t-80 111.5
t-112.5 39.5q-55 0 -98.5 -31.5t-68.5 -89.5t-25 -137q0 -97 30 -169t81.5 -112t113.5 -40zM230 724q16 50 31.5 76t32 35.5t37.5 9.5q28 0 51.5 -13.5t45.5 -26.5t44 -13q18 0 32 10t27 43h19q-16 -51 -31.5 -77t-32 -35t-37.5 -9q-28 0 -51.5 13t-45.5 26t-44 13
q-18 0 -32 -9.5t-27 -42.5h-19zM294 896q-24 0 -39.5 16t-15.5 39q0 22 15.5 38t39.5 16q23 0 38.5 -16t15.5 -38q0 -23 -15.5 -39t-38.5 -16zM486 896q-24 0 -39 16t-15 39q0 22 15 38t39 16t39 -16t15 -38q0 -23 -15 -39t-39 -16z" />
    <glyph glyph-name="uni1E50" unicode="&#x1e50;" horiz-adv-x="796" 
d="M398 -10q-73 0 -135 25.5t-108 71t-71.5 107.5t-25.5 136t25.5 136t71.5 107.5t108 71t135 25.5q74 0 136 -25.5t108 -71t71.5 -107.5t25.5 -136t-25.5 -136t-71.5 -107.5t-108 -71t-136 -25.5zM416 41q56 0 98.5 32t66.5 90t24 137q0 97 -29.5 169t-80 111.5
t-112.5 39.5q-55 0 -98.5 -31.5t-68.5 -89.5t-25 -137q0 -97 30 -169t81.5 -112t113.5 -40zM250 760v55h280v-55h-280zM382 862l-129 85q-23 16 -30 33t-7 34h99l84 -152h-17z" />
    <glyph glyph-name="uni1E52" unicode="&#x1e52;" horiz-adv-x="796" 
d="M398 -10q-73 0 -135 25.5t-108 71t-71.5 107.5t-25.5 136t25.5 136t71.5 107.5t108 71t135 25.5q74 0 136 -25.5t108 -71t71.5 -107.5t25.5 -136t-25.5 -136t-71.5 -107.5t-108 -71t-136 -25.5zM416 41q56 0 98.5 32t66.5 90t24 137q0 97 -29.5 169t-80 111.5
t-112.5 39.5q-55 0 -98.5 -31.5t-68.5 -89.5t-25 -137q0 -97 30 -169t81.5 -112t113.5 -40zM250 760v55h280v-55h-280zM380 862l85 152h98q0 -17 -7 -34t-30 -33l-128 -85h-18z" />
    <glyph glyph-name="uni00D8" unicode="&#xd8;" horiz-adv-x="796" 
d="M58 -10l91 102q-43 45 -67 106t-24 132q0 74 25.5 136t71.5 107.5t108 71t135 25.5q60 0 113 -17.5t96 -48.5l59 66h73l-91 -102q43 -45 67 -106t24 -132q0 -74 -25.5 -136t-71.5 -107.5t-108 -71t-136 -25.5q-60 0 -113 17.5t-95 49.5l-60 -67h-72zM191 362
q0 -53 9.5 -99t26.5 -84l315 352q-30 43 -71 66t-88 23q-55 0 -98.5 -31.5t-68.5 -89.5t-25 -137zM416 41q56 0 98.5 32t66.5 90t24 137q0 53 -9 98.5t-26 82.5l-314 -351q30 -42 71.5 -65.5t88.5 -23.5z" />
    <glyph glyph-name="uni01FE" unicode="&#x1fe;" horiz-adv-x="796" 
d="M58 -10l91 102q-43 45 -67 106t-24 132q0 74 25.5 136t71.5 107.5t108 71t135 25.5q60 0 113 -17.5t96 -48.5l59 66h73l-91 -102q43 -45 67 -106t24 -132q0 -74 -25.5 -136t-71.5 -107.5t-108 -71t-136 -25.5q-60 0 -113 17.5t-95 49.5l-60 -67h-72zM191 362
q0 -53 9.5 -99t26.5 -84l315 352q-30 43 -71 66t-88 23q-55 0 -98.5 -31.5t-68.5 -89.5t-25 -137zM416 41q56 0 98.5 32t66.5 90t24 137q0 53 -9 98.5t-26 82.5l-314 -351q30 -42 71.5 -65.5t88.5 -23.5zM382 710l85 152h98q0 -17 -7 -34t-30 -33l-128 -85h-18z" />
    <glyph glyph-name="uni01A0" unicode="&#x1a0;" horiz-adv-x="796" 
d="M398 -10q-73 0 -135 25.5t-108 71t-71.5 107.5t-25.5 136t25.5 136t71.5 107.5t108 71t135 25.5q45 0 87 -10v0v0q25 -6 48 -15q15 -3 29 -3q34 0 48 15t14 41v49l6 6h49q16 0 21.5 -5.5t5.5 -25.5q0 -48 -33 -75.5t-85 -27.5h-4q71 -44 113 -119.5t42 -169.5
q0 -74 -25.5 -136t-71.5 -107.5t-108 -71t-136 -25.5zM416 41q56 0 98.5 32t66.5 90t24 137q0 97 -29.5 169t-80 111.5t-112.5 39.5q-55 0 -98.5 -31.5t-68.5 -89.5t-25 -137q0 -97 30 -169t81.5 -112t113.5 -40z" />
    <glyph glyph-name="uni1EDA" unicode="&#x1eda;" horiz-adv-x="796" 
d="M398 -10q-73 0 -135 25.5t-108 71t-71.5 107.5t-25.5 136t25.5 136t71.5 107.5t108 71t135 25.5q45 0 87 -10v0v0q25 -6 48 -15q15 -3 29 -3q34 0 48 15t14 41v49l6 6h49q16 0 21.5 -5.5t5.5 -25.5q0 -48 -33 -75.5t-85 -27.5h-4q71 -44 113 -119.5t42 -169.5
q0 -74 -25.5 -136t-71.5 -107.5t-108 -71t-136 -25.5zM416 41q56 0 98.5 32t66.5 90t24 137q0 97 -29.5 169t-80 111.5t-112.5 39.5q-55 0 -98.5 -31.5t-68.5 -89.5t-25 -137q0 -97 30 -169t81.5 -112t113.5 -40zM382 710l85 152h98q0 -17 -7 -34t-30 -33l-128 -85h-18z" />
    <glyph glyph-name="uni1EE2" unicode="&#x1ee2;" horiz-adv-x="796" 
d="M398 -10q-73 0 -135 25.5t-108 71t-71.5 107.5t-25.5 136t25.5 136t71.5 107.5t108 71t135 25.5q45 0 87 -10v0v0q25 -6 48 -15q15 -3 29 -3q34 0 48 15t14 41v49l6 6h49q16 0 21.5 -5.5t5.5 -25.5q0 -48 -33 -75.5t-85 -27.5h-4q71 -44 113 -119.5t42 -169.5
q0 -74 -25.5 -136t-71.5 -107.5t-108 -71t-136 -25.5zM416 41q56 0 98.5 32t66.5 90t24 137q0 97 -29.5 169t-80 111.5t-112.5 39.5q-55 0 -98.5 -31.5t-68.5 -89.5t-25 -137q0 -97 30 -169t81.5 -112t113.5 -40zM407 -220q-28 0 -48 20t-20 48t20 48t48 20t48 -20t20 -48
t-20 -48t-48 -20z" />
    <glyph glyph-name="uni1EDC" unicode="&#x1edc;" horiz-adv-x="796" 
d="M398 -10q-73 0 -135 25.5t-108 71t-71.5 107.5t-25.5 136t25.5 136t71.5 107.5t108 71t135 25.5q45 0 87 -10v0v0q25 -6 48 -15q15 -3 29 -3q34 0 48 15t14 41v49l6 6h49q16 0 21.5 -5.5t5.5 -25.5q0 -48 -33 -75.5t-85 -27.5h-4q71 -44 113 -119.5t42 -169.5
q0 -74 -25.5 -136t-71.5 -107.5t-108 -71t-136 -25.5zM416 41q56 0 98.5 32t66.5 90t24 137q0 97 -29.5 169t-80 111.5t-112.5 39.5q-55 0 -98.5 -31.5t-68.5 -89.5t-25 -137q0 -97 30 -169t81.5 -112t113.5 -40zM381 710l-129 85q-23 16 -30 33t-7 34h99l84 -152h-17z" />
    <glyph glyph-name="uni1EDE" unicode="&#x1ede;" horiz-adv-x="796" 
d="M398 -10q-73 0 -135 25.5t-108 71t-71.5 107.5t-25.5 136t25.5 136t71.5 107.5t108 71t135 25.5q45 0 87 -10v0v0q25 -6 48 -15q15 -3 29 -3q34 0 48 15t14 41v49l6 6h49q16 0 21.5 -5.5t5.5 -25.5q0 -48 -33 -75.5t-85 -27.5h-4q71 -44 113 -119.5t42 -169.5
q0 -74 -25.5 -136t-71.5 -107.5t-108 -71t-136 -25.5zM416 41q56 0 98.5 32t66.5 90t24 137q0 97 -29.5 169t-80 111.5t-112.5 39.5q-55 0 -98.5 -31.5t-68.5 -89.5t-25 -137q0 -97 30 -169t81.5 -112t113.5 -40zM342 710v1q32 12 48.5 23t16.5 32q0 16 -16.5 27t-58.5 18
l13 64q68 -6 95 -30.5t27 -50.5q0 -40 -29.5 -62t-87.5 -30z" />
    <glyph glyph-name="uni1EE0" unicode="&#x1ee0;" horiz-adv-x="796" 
d="M398 -10q-73 0 -135 25.5t-108 71t-71.5 107.5t-25.5 136t25.5 136t71.5 107.5t108 71t135 25.5q45 0 87 -10v0v0q25 -6 48 -15q15 -3 29 -3q34 0 48 15t14 41v49l6 6h49q16 0 21.5 -5.5t5.5 -25.5q0 -48 -33 -75.5t-85 -27.5h-4q71 -44 113 -119.5t42 -169.5
q0 -74 -25.5 -136t-71.5 -107.5t-108 -71t-136 -25.5zM416 41q56 0 98.5 32t66.5 90t24 137q0 97 -29.5 169t-80 111.5t-112.5 39.5q-55 0 -98.5 -31.5t-68.5 -89.5t-25 -137q0 -97 30 -169t81.5 -112t113.5 -40zM230 724q16 50 31.5 76t32 35.5t37.5 9.5q28 0 51.5 -13.5
t45.5 -26.5t44 -13q18 0 32 10t27 43h19q-16 -51 -31.5 -77t-32 -35t-37.5 -9q-28 0 -51.5 13t-45.5 26t-44 13q-18 0 -32 -9.5t-27 -42.5h-19z" />
    <glyph glyph-name="uni0152" unicode="&#x152;" horiz-adv-x="1029" 
d="M419 0q-114 0 -195 40t-123.5 112t-42.5 170q0 101 48 177t131 118.5t189 42.5h516v-173h-16l-69 118h-228v-237h161l53 85h16v-223h-16l-53 83h-161v-258h253l72 140h16v-195h-551zM448 55h55v550h-68q-116 0 -181 -73.5t-65 -197.5q0 -127 66 -203t193 -76z" />
    <glyph glyph-name="uni0154" unicode="&#x154;" horiz-adv-x="700" 
d="M52 0v16l84 41v546l-84 41v16h308q105 0 165.5 -43.5t60.5 -119.5q0 -56 -37.5 -97.5t-98.5 -64.5l187 -281l70 -38v-16h-187l-189 305h-70v-247l75 -42v-16h-284zM312 605h-51v-249h57q62 0 100.5 35t38.5 91q0 58 -38 90.5t-107 32.5zM322 710l85 152h98q0 -17 -7 -34
t-30 -33l-128 -85h-18z" />
    <glyph glyph-name="uni0158" unicode="&#x158;" horiz-adv-x="700" 
d="M52 0v16l84 41v546l-84 41v16h308q105 0 165.5 -43.5t60.5 -119.5q0 -56 -37.5 -97.5t-98.5 -64.5l187 -281l70 -38v-16h-187l-189 305h-70v-247l75 -42v-16h-284zM312 605h-51v-249h57q62 0 100.5 35t38.5 91q0 58 -38 90.5t-107 32.5zM311 710l-134 152h17l137 -68
l137 68h17l-134 -152h-40z" />
    <glyph glyph-name="uni0156" unicode="&#x156;" horiz-adv-x="700" 
d="M52 0v16l84 41v546l-84 41v16h308q105 0 165.5 -43.5t60.5 -119.5q0 -56 -37.5 -97.5t-98.5 -64.5l187 -281l70 -38v-16h-187l-189 305h-70v-247l75 -42v-16h-284zM312 605h-51v-249h57q62 0 100.5 35t38.5 91q0 58 -38 90.5t-107 32.5zM352 -239q-8 0 -17.5 0.5
t-16.5 2.5v18q7 -2 14.5 -3t12.5 -1q25 0 39 9t14 27q0 23 -19.5 31t-61.5 8v49q0 9 8.5 15t32.5 6q52 0 78.5 -20.5t26.5 -58.5q0 -40 -31 -61.5t-80 -21.5z" />
    <glyph glyph-name="uni0210" unicode="&#x210;" horiz-adv-x="700" 
d="M52 0v16l84 41v546l-84 41v16h308q105 0 165.5 -43.5t60.5 -119.5q0 -56 -37.5 -97.5t-98.5 -64.5l187 -281l70 -38v-16h-187l-189 305h-70v-247l75 -42v-16h-284zM312 605h-51v-249h57q62 0 100.5 35t38.5 91q0 58 -38 90.5t-107 32.5zM258 710l-108 89q-18 14 -17.5 31
t5.5 32h74l63 -152h-17zM386 710l-95 89q-17 16 -17 32t5 31h74l51 -152h-18z" />
    <glyph glyph-name="uni0212" unicode="&#x212;" horiz-adv-x="700" 
d="M52 0v16l84 41v546l-84 41v16h308q105 0 165.5 -43.5t60.5 -119.5q0 -56 -37.5 -97.5t-98.5 -64.5l187 -281l70 -38v-16h-187l-189 305h-70v-247l75 -42v-16h-284zM312 605h-51v-249h57q62 0 100.5 35t38.5 91q0 58 -38 90.5t-107 32.5zM177 710q18 73 53.5 112.5
t100.5 39.5q69 0 103 -39.5t51 -112.5h-17q-25 50 -56 64.5t-81 14.5t-80.5 -14.5t-56.5 -64.5h-17z" />
    <glyph glyph-name="uni1E5A" unicode="&#x1e5a;" horiz-adv-x="700" 
d="M52 0v16l84 41v546l-84 41v16h308q105 0 165.5 -43.5t60.5 -119.5q0 -56 -37.5 -97.5t-98.5 -64.5l187 -281l70 -38v-16h-187l-189 305h-70v-247l75 -42v-16h-284zM312 605h-51v-249h57q62 0 100.5 35t38.5 91q0 58 -38 90.5t-107 32.5zM389 -220q-28 0 -48 20t-20 48
t20 48t48 20t48 -20t20 -48t-20 -48t-48 -20z" />
    <glyph glyph-name="uni1E5E" unicode="&#x1e5e;" horiz-adv-x="700" 
d="M52 0v16l84 41v546l-84 41v16h308q105 0 165.5 -43.5t60.5 -119.5q0 -56 -37.5 -97.5t-98.5 -64.5l187 -281l70 -38v-16h-187l-189 305h-70v-247l75 -42v-16h-284zM312 605h-51v-249h57q62 0 100.5 35t38.5 91q0 58 -38 90.5t-107 32.5zM249 -177v56h280v-56h-280z" />
    <glyph glyph-name="uni1E9E" unicode="&#x1e9e;" horiz-adv-x="1111" 
d="M268 -10q-64 0 -111.5 12.5t-94.5 36.5l-10 167h18l61 -115q62 -51 130 -51q56 0 90 27.5t34 78.5q0 38 -17.5 61.5t-53.5 43t-94 45.5q-70 34 -108 73.5t-38 106.5q0 38 19 73t50.5 62t71 43t81.5 16q50 0 93.5 -11.5t83.5 -32.5l10 -160h-17l-61 110q-29 22 -54 33
t-57 11q-42 0 -69.5 -28t-27.5 -71q0 -45 30 -72.5t100 -60.5q61 -28 100 -55t58 -61t19 -84q0 -48 -20.5 -84.5t-55 -62t-76.5 -38.5t-84 -13zM823 -10q-64 0 -111.5 12.5t-94.5 36.5l-10 167h18l61 -115q62 -51 130 -51q56 0 90 27.5t34 78.5q0 38 -17.5 61.5t-53.5 43
t-94 45.5q-70 34 -108 73.5t-38 106.5q0 38 19 73t50.5 62t71 43t81.5 16q50 0 93.5 -11.5t83.5 -32.5l10 -160h-17l-61 110q-29 22 -54 33t-57 11q-42 0 -69.5 -28t-27.5 -71q0 -45 30 -72.5t100 -60.5q61 -28 100 -55t58 -61t19 -84q0 -48 -20.5 -84.5t-55 -62
t-76.5 -38.5t-84 -13z" />
    <glyph glyph-name="uni015A" unicode="&#x15a;" horiz-adv-x="555" 
d="M268 -10q-64 0 -111.5 12.5t-94.5 36.5l-10 167h18l61 -115q62 -51 130 -51q56 0 90 27.5t34 78.5q0 38 -17.5 61.5t-53.5 43t-94 45.5q-70 34 -108 73.5t-38 106.5q0 38 19 73t50.5 62t71 43t81.5 16q50 0 93.5 -11.5t83.5 -32.5l10 -160h-17l-61 110q-29 22 -54 33
t-57 11q-42 0 -69.5 -28t-27.5 -71q0 -45 30 -72.5t100 -60.5q61 -28 100 -55t58 -61t19 -84q0 -48 -20.5 -84.5t-55 -62t-76.5 -38.5t-84 -13zM280 710l85 152h98q0 -17 -7 -34t-30 -33l-128 -85h-18z" />
    <glyph glyph-name="uni015C" unicode="&#x15c;" horiz-adv-x="555" 
d="M268 -10q-64 0 -111.5 12.5t-94.5 36.5l-10 167h18l61 -115q62 -51 130 -51q56 0 90 27.5t34 78.5q0 38 -17.5 61.5t-53.5 43t-94 45.5q-70 34 -108 73.5t-38 106.5q0 38 19 73t50.5 62t71 43t81.5 16q50 0 93.5 -11.5t83.5 -32.5l10 -160h-17l-61 110q-29 22 -54 33
t-57 11q-42 0 -69.5 -28t-27.5 -71q0 -45 30 -72.5t100 -60.5q61 -28 100 -55t58 -61t19 -84q0 -48 -20.5 -84.5t-55 -62t-76.5 -38.5t-84 -13zM134 710l134 152h40l134 -152h-17l-137 68l-137 -68h-17z" />
    <glyph glyph-name="uni0160" unicode="&#x160;" horiz-adv-x="555" 
d="M268 -10q-64 0 -111.5 12.5t-94.5 36.5l-10 167h18l61 -115q62 -51 130 -51q56 0 90 27.5t34 78.5q0 38 -17.5 61.5t-53.5 43t-94 45.5q-70 34 -108 73.5t-38 106.5q0 38 19 73t50.5 62t71 43t81.5 16q50 0 93.5 -11.5t83.5 -32.5l10 -160h-17l-61 110q-29 22 -54 33
t-57 11q-42 0 -69.5 -28t-27.5 -71q0 -45 30 -72.5t100 -60.5q61 -28 100 -55t58 -61t19 -84q0 -48 -20.5 -84.5t-55 -62t-76.5 -38.5t-84 -13zM268 710l-134 152h17l137 -68l137 68h17l-134 -152h-40z" />
    <glyph glyph-name="uni015E" unicode="&#x15e;" horiz-adv-x="555" 
d="M280 -240q-55 0 -82 26v16h3q13 -6 28 -8.5t32 -2.5q29 0 41.5 10.5t12.5 27.5q0 22 -20 36.5t-79 31.5l43 93q-60 1 -105.5 13.5t-91.5 35.5l-10 167h18l61 -115q62 -51 130 -51q56 0 90 27.5t34 78.5q0 38 -17.5 61.5t-53.5 43t-94 45.5q-70 34 -108 73.5t-38 106.5
q0 38 19 73t50.5 62t71 43t81.5 16q50 0 93.5 -11.5t83.5 -32.5l10 -160h-17l-58 108q-30 23 -55.5 34.5t-58.5 11.5q-42 0 -69.5 -28t-27.5 -71q0 -45 30 -72.5t100 -60.5q61 -28 100 -55t58 -61t19 -84q0 -58 -30 -100t-78 -66.5t-100 -30.5l-18 -39q58 -17 81 -40t23 -63
q0 -38 -27 -63.5t-75 -25.5z" />
    <glyph glyph-name="uni0218" unicode="&#x218;" horiz-adv-x="555" 
d="M268 -10q-64 0 -111.5 12.5t-94.5 36.5l-10 167h18l61 -115q62 -51 130 -51q56 0 90 27.5t34 78.5q0 38 -17.5 61.5t-53.5 43t-94 45.5q-70 34 -108 73.5t-38 106.5q0 38 19 73t50.5 62t71 43t81.5 16q50 0 93.5 -11.5t83.5 -32.5l10 -160h-17l-61 110q-29 22 -54 33
t-57 11q-42 0 -69.5 -28t-27.5 -71q0 -45 30 -72.5t100 -60.5q61 -28 100 -55t58 -61t19 -84q0 -48 -20.5 -84.5t-55 -62t-76.5 -38.5t-84 -13zM244 -239q-8 0 -17.5 0.5t-16.5 2.5v18q7 -2 14.5 -3t12.5 -1q25 0 39 9t14 27q0 23 -19.5 31t-61.5 8v49q0 9 8.5 15t32.5 6
q52 0 78.5 -20.5t26.5 -58.5q0 -40 -31 -61.5t-80 -21.5z" />
    <glyph glyph-name="uni1E60" unicode="&#x1e60;" horiz-adv-x="555" 
d="M268 -10q-64 0 -111.5 12.5t-94.5 36.5l-10 167h18l61 -115q62 -51 130 -51q56 0 90 27.5t34 78.5q0 38 -17.5 61.5t-53.5 43t-94 45.5q-70 34 -108 73.5t-38 106.5q0 38 19 73t50.5 62t71 43t81.5 16q50 0 93.5 -11.5t83.5 -32.5l10 -160h-17l-61 110q-29 22 -54 33
t-57 11q-42 0 -69.5 -28t-27.5 -71q0 -45 30 -72.5t100 -60.5q61 -28 100 -55t58 -61t19 -84q0 -48 -20.5 -84.5t-55 -62t-76.5 -38.5t-84 -13zM288 723q-28 0 -48 19.5t-20 48.5t20 48t48 19t48 -19t20 -48t-20 -48.5t-48 -19.5z" />
    <glyph glyph-name="uni1E62" unicode="&#x1e62;" horiz-adv-x="555" 
d="M268 -10q-64 0 -111.5 12.5t-94.5 36.5l-10 167h18l61 -115q62 -51 130 -51q56 0 90 27.5t34 78.5q0 38 -17.5 61.5t-53.5 43t-94 45.5q-70 34 -108 73.5t-38 106.5q0 38 19 73t50.5 62t71 43t81.5 16q50 0 93.5 -11.5t83.5 -32.5l10 -160h-17l-61 110q-29 22 -54 33
t-57 11q-42 0 -69.5 -28t-27.5 -71q0 -45 30 -72.5t100 -60.5q61 -28 100 -55t58 -61t19 -84q0 -48 -20.5 -84.5t-55 -62t-76.5 -38.5t-84 -13zM281 -220q-28 0 -48 20t-20 48t20 48t48 20t48 -20t20 -48t-20 -48t-48 -20z" />
    <glyph glyph-name="uni1E64" unicode="&#x1e64;" horiz-adv-x="555" 
d="M268 -10q-64 0 -111.5 12.5t-94.5 36.5l-10 167h18l61 -115q62 -51 130 -51q56 0 90 27.5t34 78.5q0 38 -17.5 61.5t-53.5 43t-94 45.5q-70 34 -108 73.5t-38 106.5q0 38 19 73t50.5 62t71 43t81.5 16q50 0 93.5 -11.5t83.5 -32.5l10 -160h-17l-61 110q-29 22 -54 33
t-57 11q-42 0 -69.5 -28t-27.5 -71q0 -45 30 -72.5t100 -60.5q61 -28 100 -55t58 -61t19 -84q0 -48 -20.5 -84.5t-55 -62t-76.5 -38.5t-84 -13zM282 710l85 152h98q0 -17 -7 -34t-30 -33l-128 -85h-18zM242 794q-28 0 -48 19.5t-20 48.5t20 48t48 19t48 -19t20 -48
t-20 -48.5t-48 -19.5z" />
    <glyph glyph-name="uni1E66" unicode="&#x1e66;" horiz-adv-x="555" 
d="M268 -10q-64 0 -111.5 12.5t-94.5 36.5l-10 167h18l61 -115q62 -51 130 -51q56 0 90 27.5t34 78.5q0 38 -17.5 61.5t-53.5 43t-94 45.5q-70 34 -108 73.5t-38 106.5q0 38 19 73t50.5 62t71 43t81.5 16q50 0 93.5 -11.5t83.5 -32.5l10 -160h-17l-61 110q-29 22 -54 33
t-57 11q-42 0 -69.5 -28t-27.5 -71q0 -45 30 -72.5t100 -60.5q61 -28 100 -55t58 -61t19 -84q0 -48 -20.5 -84.5t-55 -62t-76.5 -38.5t-84 -13zM288 889q-28 0 -48 19.5t-20 48.5t20 48t48 19t48 -19t20 -48t-20 -48.5t-48 -19.5zM268 710l-134 152h17l137 -68l137 68h17
l-134 -152h-40z" />
    <glyph glyph-name="uni1E68" unicode="&#x1e68;" horiz-adv-x="555" 
d="M268 -10q-64 0 -111.5 12.5t-94.5 36.5l-10 167h18l61 -115q62 -51 130 -51q56 0 90 27.5t34 78.5q0 38 -17.5 61.5t-53.5 43t-94 45.5q-70 34 -108 73.5t-38 106.5q0 38 19 73t50.5 62t71 43t81.5 16q50 0 93.5 -11.5t83.5 -32.5l10 -160h-17l-61 110q-29 22 -54 33
t-57 11q-42 0 -69.5 -28t-27.5 -71q0 -45 30 -72.5t100 -60.5q61 -28 100 -55t58 -61t19 -84q0 -48 -20.5 -84.5t-55 -62t-76.5 -38.5t-84 -13zM288 723q-28 0 -48 19.5t-20 48.5t20 48t48 19t48 -19t20 -48t-20 -48.5t-48 -19.5zM281 -220q-28 0 -48 20t-20 48t20 48t48 20
t48 -20t20 -48t-20 -48t-48 -20z" />
    <glyph glyph-name="uni0164" unicode="&#x164;" horiz-adv-x="690" 
d="M178 0v16l104 41v548h-151l-75 -157h-16v212h610v-212h-16l-75 157h-151v-548l103 -41v-16h-333zM325 710l-134 152h17l137 -68l137 68h17l-134 -152h-40z" />
    <glyph glyph-name="uni021A" unicode="&#x21a;" horiz-adv-x="690" 
d="M178 0v16l104 41v548h-151l-75 -157h-16v212h610v-212h-16l-75 157h-151v-548l103 -41v-16h-333zM308 -239q-8 0 -17.5 0.5t-16.5 2.5v18q7 -2 14.5 -3t12.5 -1q25 0 39 9t14 27q0 23 -19.5 31t-61.5 8v49q0 9 8.5 15t32.5 6q52 0 78.5 -20.5t26.5 -58.5q0 -40 -31 -61.5
t-80 -21.5z" />
    <glyph glyph-name="uni0166" unicode="&#x166;" horiz-adv-x="690" 
d="M178 0v16l104 41v259h-125v52h125v237h-151l-75 -157h-16v212h610v-212h-16l-75 157h-151v-237h124v-52h-124v-259l103 -41v-16h-333z" />
    <glyph glyph-name="uni0162" unicode="&#x162;" horiz-adv-x="690" 
d="M178 0v16l104 41v548h-151l-75 -157h-16v212h610v-212h-16l-75 157h-151v-548l103 -41v-16h-147l-22 -48q57 -17 80 -40t23 -63q0 -38 -26.5 -63.5t-74.5 -25.5q-55 0 -82 26v16h3q13 -6 28 -8.5t32 -2.5q28 0 41 10.5t13 27.5q0 22 -20 36.5t-79 31.5l48 103h-150z" />
    <glyph glyph-name="uni1E6C" unicode="&#x1e6c;" horiz-adv-x="690" 
d="M178 0v16l104 41v548h-151l-75 -157h-16v212h610v-212h-16l-75 157h-151v-548l103 -41v-16h-333zM345 -220q-28 0 -48 20t-20 48t20 48t48 20t48 -20t20 -48t-20 -48t-48 -20z" />
    <glyph glyph-name="uni1E6E" unicode="&#x1e6e;" horiz-adv-x="690" 
d="M178 0v16l104 41v548h-151l-75 -157h-16v212h610v-212h-16l-75 157h-151v-548l103 -41v-16h-333zM205 -177v56h280v-56h-280z" />
    <glyph glyph-name="uni00D9" unicode="&#xd9;" horiz-adv-x="826" 
d="M416 -10q-82 0 -145 28t-99 90t-36 164v331l-84 41v16h293v-16l-83 -41v-325q0 -82 26 -130.5t69.5 -69t97.5 -20.5q44 0 81.5 18.5t60.5 59t23 107.5v362l-96 39v16h249v-16l-83 -40v-332q0 -102 -35 -164t-97 -90t-142 -28zM430 710l-129 85q-23 16 -30 33t-7 34h99
l84 -152h-17z" />
    <glyph glyph-name="uni00DA" unicode="&#xda;" horiz-adv-x="826" 
d="M416 -10q-82 0 -145 28t-99 90t-36 164v331l-84 41v16h293v-16l-83 -41v-325q0 -82 26 -130.5t69.5 -69t97.5 -20.5q44 0 81.5 18.5t60.5 59t23 107.5v362l-96 39v16h249v-16l-83 -40v-332q0 -102 -35 -164t-97 -90t-142 -28zM430 710l85 152h98q0 -17 -7 -34t-30 -33
l-128 -85h-18z" />
    <glyph glyph-name="uni00DB" unicode="&#xdb;" horiz-adv-x="826" 
d="M416 -10q-82 0 -145 28t-99 90t-36 164v331l-84 41v16h293v-16l-83 -41v-325q0 -82 26 -130.5t69.5 -69t97.5 -20.5q44 0 81.5 18.5t60.5 59t23 107.5v362l-96 39v16h249v-16l-83 -40v-332q0 -102 -35 -164t-97 -90t-142 -28zM285 710l134 152h40l134 -152h-17l-137 68
l-137 -68h-17z" />
    <glyph glyph-name="uni0168" unicode="&#x168;" horiz-adv-x="826" 
d="M416 -10q-82 0 -145 28t-99 90t-36 164v331l-84 41v16h293v-16l-83 -41v-325q0 -82 26 -130.5t69.5 -69t97.5 -20.5q44 0 81.5 18.5t60.5 59t23 107.5v362l-96 39v16h249v-16l-83 -40v-332q0 -102 -35 -164t-97 -90t-142 -28zM279 724q16 50 31.5 76t32 35.5t37.5 9.5
q28 0 51.5 -13.5t45.5 -26.5t44 -13q18 0 32 10t27 43h19q-16 -51 -31.5 -77t-32 -35t-37.5 -9q-28 0 -51.5 13t-45.5 26t-44 13q-18 0 -32 -9.5t-27 -42.5h-19z" />
    <glyph glyph-name="uni00DC" unicode="&#xdc;" horiz-adv-x="826" 
d="M416 -10q-82 0 -145 28t-99 90t-36 164v331l-84 41v16h293v-16l-83 -41v-325q0 -82 26 -130.5t69.5 -69t97.5 -20.5q44 0 81.5 18.5t60.5 59t23 107.5v362l-96 39v16h249v-16l-83 -40v-332q0 -102 -35 -164t-97 -90t-142 -28zM344 731q-24 0 -39.5 16t-15.5 39
q0 22 15.5 38t39.5 16q23 0 38.5 -16t15.5 -38q0 -23 -15.5 -39t-38.5 -16zM536 731q-24 0 -39 16t-15 39q0 22 15 38t39 16t39 -16t15 -38q0 -23 -15 -39t-39 -16z" />
    <glyph glyph-name="uni016A" unicode="&#x16a;" horiz-adv-x="826" 
d="M416 -10q-82 0 -145 28t-99 90t-36 164v331l-84 41v16h293v-16l-83 -41v-325q0 -82 26 -130.5t69.5 -69t97.5 -20.5q44 0 81.5 18.5t60.5 59t23 107.5v362l-96 39v16h249v-16l-83 -40v-332q0 -102 -35 -164t-97 -90t-142 -28zM299 760v55h280v-55h-280z" />
    <glyph glyph-name="uni016C" unicode="&#x16c;" horiz-adv-x="826" 
d="M416 -10q-82 0 -145 28t-99 90t-36 164v331l-84 41v16h293v-16l-83 -41v-325q0 -82 26 -130.5t69.5 -69t97.5 -20.5q44 0 81.5 18.5t60.5 59t23 107.5v362l-96 39v16h249v-16l-83 -40v-332q0 -102 -35 -164t-97 -90t-142 -28zM439 710q-69 0 -103 39.5t-51 112.5h17
q25 -50 56 -64.5t81 -14.5t80.5 14.5t56.5 64.5h17q-18 -73 -53.5 -112.5t-100.5 -39.5z" />
    <glyph glyph-name="uni016E" unicode="&#x16e;" horiz-adv-x="826" 
d="M416 -10q-82 0 -145 28t-99 90t-36 164v331l-84 41v16h293v-16l-83 -41v-325q0 -82 26 -130.5t69.5 -69t97.5 -20.5q44 0 81.5 18.5t60.5 59t23 107.5v362l-96 39v16h249v-16l-83 -40v-332q0 -102 -35 -164t-97 -90t-142 -28zM439 710q-39 0 -63.5 23.5t-24.5 60.5
q0 36 24.5 60t63.5 24t63.5 -24t24.5 -60t-24 -60t-64 -24zM444 734q31 0 31 53q0 67 -40 67q-31 0 -31 -53q0 -67 40 -67z" />
    <glyph glyph-name="uni0170" unicode="&#x170;" horiz-adv-x="826" 
d="M416 -10q-82 0 -145 28t-99 90t-36 164v331l-84 41v16h293v-16l-83 -41v-325q0 -82 26 -130.5t69.5 -69t97.5 -20.5q44 0 81.5 18.5t60.5 59t23 107.5v362l-96 39v16h249v-16l-83 -40v-332q0 -102 -35 -164t-97 -90t-142 -28zM367 710l45 152h74q5 -15 4.5 -31t-16.5 -32
l-90 -89h-17zM494 710l59 152h75q4 -15 4.5 -31.5t-16.5 -31.5l-104 -89h-18z" />
    <glyph glyph-name="uni0172" unicode="&#x172;" horiz-adv-x="826" 
d="M434 -240q-45 0 -72.5 24t-27.5 65q0 34 21 68t56 73q-81 1 -143 29.5t-97 90t-35 162.5v331l-84 41v16h293v-16l-83 -41v-325q0 -82 26 -130.5t69.5 -69t97.5 -20.5q44 0 81.5 18.5t60.5 59t23 107.5v362l-96 39v16h249v-16l-83 -40v-332q0 -95 -31 -155.5t-85.5 -90.5
t-127.5 -35q-37 -64 -37 -119q0 -63 61 -63q11 0 24 3.5t24 10.5h4v-15q-14 -22 -36 -35t-52 -13z" />
    <glyph glyph-name="uni1EE4" unicode="&#x1ee4;" horiz-adv-x="826" 
d="M416 -10q-82 0 -145 28t-99 90t-36 164v331l-84 41v16h293v-16l-83 -41v-325q0 -82 26 -130.5t69.5 -69t97.5 -20.5q44 0 81.5 18.5t60.5 59t23 107.5v362l-96 39v16h249v-16l-83 -40v-332q0 -102 -35 -164t-97 -90t-142 -28zM426 -220q-28 0 -48 20t-20 48t20 48t48 20
t48 -20t20 -48t-20 -48t-48 -20z" />
    <glyph glyph-name="uni0214" unicode="&#x214;" horiz-adv-x="826" 
d="M416 -10q-82 0 -145 28t-99 90t-36 164v331l-84 41v16h293v-16l-83 -41v-325q0 -82 26 -130.5t69.5 -69t97.5 -20.5q44 0 81.5 18.5t60.5 59t23 107.5v362l-96 39v16h249v-16l-83 -40v-332q0 -102 -35 -164t-97 -90t-142 -28zM366 710l-108 89q-18 14 -17.5 31t5.5 32h74
l63 -152h-17zM494 710l-95 89q-17 16 -17 32t5 31h74l51 -152h-18z" />
    <glyph glyph-name="uni0216" unicode="&#x216;" horiz-adv-x="826" 
d="M416 -10q-82 0 -145 28t-99 90t-36 164v331l-84 41v16h293v-16l-83 -41v-325q0 -82 26 -130.5t69.5 -69t97.5 -20.5q44 0 81.5 18.5t60.5 59t23 107.5v362l-96 39v16h249v-16l-83 -40v-332q0 -102 -35 -164t-97 -90t-142 -28zM285 710q18 73 53.5 112.5t100.5 39.5
q69 0 103 -39.5t51 -112.5h-17q-25 50 -56 64.5t-81 14.5t-80.5 -14.5t-56.5 -64.5h-17z" />
    <glyph glyph-name="uni1EE6" unicode="&#x1ee6;" horiz-adv-x="826" 
d="M416 -10q-82 0 -145 28t-99 90t-36 164v331l-84 41v16h293v-16l-83 -41v-325q0 -82 26 -130.5t69.5 -69t97.5 -20.5q44 0 81.5 18.5t60.5 59t23 107.5v362l-96 39v16h249v-16l-83 -40v-332q0 -102 -35 -164t-97 -90t-142 -28zM391 710v1q32 12 48.5 23t16.5 32
q0 16 -16.5 27t-58.5 18l13 64q68 -6 95 -30.5t27 -50.5q0 -40 -29.5 -62t-87.5 -30z" />
    <glyph glyph-name="uni1E78" unicode="&#x1e78;" horiz-adv-x="826" 
d="M416 -10q-82 0 -145 28t-99 90t-36 164v331l-84 41v16h293v-16l-83 -41v-325q0 -82 26 -130.5t69.5 -69t97.5 -20.5q44 0 81.5 18.5t60.5 59t23 107.5v362l-96 39v16h249v-16l-83 -40v-332q0 -102 -35 -164t-97 -90t-142 -28zM279 724q16 50 31.5 76t32 35.5t37.5 9.5
q28 0 51.5 -13.5t45.5 -26.5t44 -13q18 0 32 10t27 43h19q-16 -51 -31.5 -77t-32 -35t-37.5 -9q-28 0 -51.5 13t-45.5 26t-44 13q-18 0 -32 -9.5t-27 -42.5h-19zM429 862l85 152h98q0 -17 -7 -34t-30 -33l-128 -85h-18z" />
    <glyph glyph-name="uni1E7A" unicode="&#x1e7a;" horiz-adv-x="826" 
d="M416 -10q-82 0 -145 28t-99 90t-36 164v331l-84 41v16h293v-16l-83 -41v-325q0 -82 26 -130.5t69.5 -69t97.5 -20.5q44 0 81.5 18.5t60.5 59t23 107.5v362l-96 39v16h249v-16l-83 -40v-332q0 -102 -35 -164t-97 -90t-142 -28zM299 760v55h280v-55h-280zM343 896
q-24 0 -39.5 16t-15.5 39q0 22 15.5 38t39.5 16q23 0 38.5 -16t15.5 -38q0 -23 -15.5 -39t-38.5 -16zM535 896q-24 0 -39 16t-15 39q0 22 15 38t39 16t39 -16t15 -38q0 -23 -15 -39t-39 -16z" />
    <glyph glyph-name="uni01AF" unicode="&#x1af;" horiz-adv-x="826" 
d="M416 -10q-82 0 -145 28t-99 90t-36 164v331l-84 41v16h293v-16l-83 -41v-325q0 -82 26 -130.5t69.5 -69t97.5 -20.5q44 0 81.5 18.5t60.5 59t23 107.5v362l-96 39v16h249q34 0 47.5 12t13.5 37v38l6 6h49q16 0 21.5 -5.5t5.5 -25.5q0 -45 -32.5 -65t-85.5 -20h-40
l-68 -33v-332q0 -102 -35 -164t-97 -90t-142 -28z" />
    <glyph glyph-name="uni1EE8" unicode="&#x1ee8;" horiz-adv-x="826" 
d="M416 -10q-82 0 -145 28t-99 90t-36 164v331l-84 41v16h293v-16l-83 -41v-325q0 -82 26 -130.5t69.5 -69t97.5 -20.5q44 0 81.5 18.5t60.5 59t23 107.5v362l-96 39v16h249q34 0 47.5 12t13.5 37v38l6 6h49q16 0 21.5 -5.5t5.5 -25.5q0 -45 -32.5 -65t-85.5 -20h-40
l-68 -33v-332q0 -102 -35 -164t-97 -90t-142 -28zM430 710l85 152h98q0 -17 -7 -34t-30 -33l-128 -85h-18z" />
    <glyph glyph-name="uni1EF0" unicode="&#x1ef0;" horiz-adv-x="826" 
d="M416 -10q-82 0 -145 28t-99 90t-36 164v331l-84 41v16h293v-16l-83 -41v-325q0 -82 26 -130.5t69.5 -69t97.5 -20.5q44 0 81.5 18.5t60.5 59t23 107.5v362l-96 39v16h249q34 0 47.5 12t13.5 37v38l6 6h49q16 0 21.5 -5.5t5.5 -25.5q0 -45 -32.5 -65t-85.5 -20h-40
l-68 -33v-332q0 -102 -35 -164t-97 -90t-142 -28zM426 -220q-28 0 -48 20t-20 48t20 48t48 20t48 -20t20 -48t-20 -48t-48 -20z" />
    <glyph glyph-name="uni1EEA" unicode="&#x1eea;" horiz-adv-x="826" 
d="M416 -10q-82 0 -145 28t-99 90t-36 164v331l-84 41v16h293v-16l-83 -41v-325q0 -82 26 -130.5t69.5 -69t97.5 -20.5q44 0 81.5 18.5t60.5 59t23 107.5v362l-96 39v16h249q34 0 47.5 12t13.5 37v38l6 6h49q16 0 21.5 -5.5t5.5 -25.5q0 -45 -32.5 -65t-85.5 -20h-40
l-68 -33v-332q0 -102 -35 -164t-97 -90t-142 -28zM430 710l-129 85q-23 16 -30 33t-7 34h99l84 -152h-17z" />
    <glyph glyph-name="uni1EEC" unicode="&#x1eec;" horiz-adv-x="826" 
d="M416 -10q-82 0 -145 28t-99 90t-36 164v331l-84 41v16h293v-16l-83 -41v-325q0 -82 26 -130.5t69.5 -69t97.5 -20.5q44 0 81.5 18.5t60.5 59t23 107.5v362l-96 39v16h249q34 0 47.5 12t13.5 37v38l6 6h49q16 0 21.5 -5.5t5.5 -25.5q0 -45 -32.5 -65t-85.5 -20h-40
l-68 -33v-332q0 -102 -35 -164t-97 -90t-142 -28zM391 710v1q32 12 48.5 23t16.5 32q0 16 -16.5 27t-58.5 18l13 64q68 -6 95 -30.5t27 -50.5q0 -40 -29.5 -62t-87.5 -30z" />
    <glyph glyph-name="uni1EEE" unicode="&#x1eee;" horiz-adv-x="826" 
d="M416 -10q-82 0 -145 28t-99 90t-36 164v331l-84 41v16h293v-16l-83 -41v-325q0 -82 26 -130.5t69.5 -69t97.5 -20.5q44 0 81.5 18.5t60.5 59t23 107.5v362l-96 39v16h249q34 0 47.5 12t13.5 37v38l6 6h49q16 0 21.5 -5.5t5.5 -25.5q0 -45 -32.5 -65t-85.5 -20h-40
l-68 -33v-332q0 -102 -35 -164t-97 -90t-142 -28zM279 724q16 50 31.5 76t32 35.5t37.5 9.5q28 0 51.5 -13.5t45.5 -26.5t44 -13q18 0 32 10t27 43h19q-16 -51 -31.5 -77t-32 -35t-37.5 -9q-28 0 -51.5 13t-45.5 26t-44 13q-18 0 -32 -9.5t-27 -42.5h-19z" />
    <glyph glyph-name="uni1E80" unicode="&#x1e80;" horiz-adv-x="1017" 
d="M278 -5l-189 611l-76 38v16h290v-16l-84 -38l119 -404h4l174 463h50l175 -463h5l119 404l-85 38v16h224v-16l-67 -35l-192 -614h-49l-180 463h-6l-184 -463h-48zM533 710l-129 85q-23 16 -30 33t-7 34h99l84 -152h-17z" />
    <glyph glyph-name="uni1E82" unicode="&#x1e82;" horiz-adv-x="1017" 
d="M278 -5l-189 611l-76 38v16h290v-16l-84 -38l119 -404h4l174 463h50l175 -463h5l119 404l-85 38v16h224v-16l-67 -35l-192 -614h-49l-180 463h-6l-184 -463h-48zM533 710l85 152h98q0 -17 -7 -34t-30 -33l-128 -85h-18z" />
    <glyph glyph-name="uni0174" unicode="&#x174;" horiz-adv-x="1017" 
d="M278 -5l-189 611l-76 38v16h290v-16l-84 -38l119 -404h4l174 463h50l175 -463h5l119 404l-85 38v16h224v-16l-67 -35l-192 -614h-49l-180 463h-6l-184 -463h-48zM388 710l134 152h40l134 -152h-17l-137 68l-137 -68h-17z" />
    <glyph glyph-name="uni1E84" unicode="&#x1e84;" horiz-adv-x="1017" 
d="M278 -5l-189 611l-76 38v16h290v-16l-84 -38l119 -404h4l174 463h50l175 -463h5l119 404l-85 38v16h224v-16l-67 -35l-192 -614h-49l-180 463h-6l-184 -463h-48zM446 731q-24 0 -39.5 16t-15.5 39q0 22 15.5 38t39.5 16q23 0 38.5 -16t15.5 -38q0 -23 -15.5 -39
t-38.5 -16zM638 731q-24 0 -39 16t-15 39q0 22 15 38t39 16t39 -16t15 -38q0 -23 -15 -39t-39 -16z" />
    <glyph glyph-name="uni1EF2" unicode="&#x1ef2;" horiz-adv-x="739" 
d="M221 0v16l90 41v251l-220 300l-65 36v16h282v-16l-75 -36v-4l176 -239l159 237v4l-76 38v16h221v-16l-64 -33l-212 -302v-252l89 -41v-16h-305zM389 710l-129 85q-23 16 -30 33t-7 34h99l84 -152h-17z" />
    <glyph glyph-name="uni00DD" unicode="&#xdd;" horiz-adv-x="739" 
d="M221 0v16l90 41v251l-220 300l-65 36v16h282v-16l-75 -36v-4l176 -239l159 237v4l-76 38v16h221v-16l-64 -33l-212 -302v-252l89 -41v-16h-305zM390 710l85 152h98q0 -17 -7 -34t-30 -33l-128 -85h-18z" />
    <glyph glyph-name="uni0176" unicode="&#x176;" horiz-adv-x="739" 
d="M221 0v16l90 41v251l-220 300l-65 36v16h282v-16l-75 -36v-4l176 -239l159 237v4l-76 38v16h221v-16l-64 -33l-212 -302v-252l89 -41v-16h-305zM244 710l134 152h40l134 -152h-17l-137 68l-137 -68h-17z" />
    <glyph glyph-name="uni0178" unicode="&#x178;" horiz-adv-x="739" 
d="M221 0v16l90 41v251l-220 300l-65 36v16h282v-16l-75 -36v-4l176 -239l159 237v4l-76 38v16h221v-16l-64 -33l-212 -302v-252l89 -41v-16h-305zM303 731q-24 0 -39.5 16t-15.5 39q0 22 15.5 38t39.5 16q23 0 38.5 -16t15.5 -38q0 -23 -15.5 -39t-38.5 -16zM495 731
q-24 0 -39 16t-15 39q0 22 15 38t39 16t39 -16t15 -38q0 -23 -15 -39t-39 -16z" />
    <glyph glyph-name="uni1EF8" unicode="&#x1ef8;" horiz-adv-x="739" 
d="M221 0v16l90 41v251l-220 300l-65 36v16h282v-16l-75 -36v-4l176 -239l159 237v4l-76 38v16h221v-16l-64 -33l-212 -302v-252l89 -41v-16h-305zM238 724q16 50 31.5 76t32 35.5t37.5 9.5q28 0 51.5 -13.5t45.5 -26.5t44 -13q18 0 32 10t27 43h19q-16 -51 -31.5 -77
t-32 -35t-37.5 -9q-28 0 -51.5 13t-45.5 26t-44 13q-18 0 -32 -9.5t-27 -42.5h-19z" />
    <glyph glyph-name="uni0232" unicode="&#x232;" horiz-adv-x="739" 
d="M221 0v16l90 41v251l-220 300l-65 36v16h282v-16l-75 -36v-4l176 -239l159 237v4l-76 38v16h221v-16l-64 -33l-212 -302v-252l89 -41v-16h-305zM258 760v55h280v-55h-280z" />
    <glyph glyph-name="uni1EF4" unicode="&#x1ef4;" horiz-adv-x="739" 
d="M221 0v16l90 41v251l-220 300l-65 36v16h282v-16l-75 -36v-4l176 -239l159 237v4l-76 38v16h221v-16l-64 -33l-212 -302v-252l89 -41v-16h-305zM374 -220q-28 0 -48 20t-20 48t20 48t48 20t48 -20t20 -48t-20 -48t-48 -20z" />
    <glyph glyph-name="uni1EF6" unicode="&#x1ef6;" horiz-adv-x="739" 
d="M221 0v16l90 41v251l-220 300l-65 36v16h282v-16l-75 -36v-4l176 -239l159 237v4l-76 38v16h221v-16l-64 -33l-212 -302v-252l89 -41v-16h-305zM350 710v1q32 12 48.5 23t16.5 32q0 16 -16.5 27t-58.5 18l13 64q68 -6 95 -30.5t27 -50.5q0 -40 -29.5 -62t-87.5 -30z" />
    <glyph glyph-name="uni1E8E" unicode="&#x1e8e;" horiz-adv-x="739" 
d="M221 0v16l90 41v251l-220 300l-65 36v16h282v-16l-75 -36v-4l176 -239l159 237v4l-76 38v16h221v-16l-64 -33l-212 -302v-252l89 -41v-16h-305zM398 723q-28 0 -48 19.5t-20 48.5t20 48t48 19t48 -19t20 -48t-20 -48.5t-48 -19.5z" />
    <glyph glyph-name="uni0179" unicode="&#x179;" horiz-adv-x="678" 
d="M86 0v29l341 576h-243l-70 -140h-16v195h483v-29l-342 -576h265l72 150h16v-205h-506zM337 710l85 152h98q0 -17 -7 -34t-30 -33l-128 -85h-18z" />
    <glyph glyph-name="uni017D" unicode="&#x17d;" horiz-adv-x="678" 
d="M86 0v29l341 576h-243l-70 -140h-16v195h483v-29l-342 -576h265l72 150h16v-205h-506zM326 710l-134 152h17l137 -68l137 68h17l-134 -152h-40z" />
    <glyph glyph-name="uni017B" unicode="&#x17b;" horiz-adv-x="678" 
d="M86 0v29l341 576h-243l-70 -140h-16v195h483v-29l-342 -576h265l72 150h16v-205h-506zM346 723q-28 0 -48 19.5t-20 48.5t20 48t48 19t48 -19t20 -48t-20 -48.5t-48 -19.5z" />
    <glyph glyph-name="uni1E92" unicode="&#x1e92;" horiz-adv-x="678" 
d="M86 0v29l341 576h-243l-70 -140h-16v195h483v-29l-342 -576h265l72 150h16v-205h-506zM346 -220q-28 0 -48 20t-20 48t20 48t48 20t48 -20t20 -48t-20 -48t-48 -20z" />
    <glyph glyph-name="uni018F" unicode="&#x18f;" horiz-adv-x="689" 
d="M312 -10q-118 0 -185.5 79.5t-68.5 222.5l7 7h438v10q0 119 -53.5 186.5t-172.5 67.5q-58 0 -111 -18.5t-104 -52.5h-4v27q34 65 104.5 108t164.5 43q95 0 163 -38.5t105 -108.5t37 -164q0 -108 -41.5 -191.5t-114 -130.5t-164.5 -47zM332 48q75 0 117 51t51 149h-322
q9 -95 48.5 -147.5t105.5 -52.5z" />
    <glyph glyph-name="uni014A" unicode="&#x14a;" horiz-adv-x="809" 
d="M49 0v16l83 41v545l-82 42v16h172l386 -456v401l-108 39v16h260v-16l-82 -40v-616q0 -76 -18.5 -119t-48.5 -68q-24 -20 -58 -30.5t-71 -10.5q-28 0 -37.5 6t-9.5 23v61l5 4h55q65 0 89 25t24 89v49l-406 473v-434l109 -40v-16h-262z" />
    <glyph glyph-name="uni00D0" unicode="&#xd0;" horiz-adv-x="791" 
d="M52 0v16l84 41v259h-84v52h84v235l-84 41v16h322q115 0 195.5 -39t123 -107t42.5 -154q0 -78 -27.5 -144t-77 -114t-117 -75t-146.5 -27h-315zM422 316h-161v-261h94q79 0 134.5 33.5t85 95t29.5 145.5q0 126 -67.5 201t-196.5 75h-79v-237h161v-52z" />
    <glyph glyph-name="uni00DE" unicode="&#xde;" horiz-adv-x="665" 
d="M52 0v16l84 41v546l-84 41v16h293v-16l-84 -41v-68h102q118 0 189.5 -42.5t71.5 -135.5q0 -55 -37.5 -98t-102 -67t-145.5 -24h-78v-111l84 -41v-16h-293zM318 480h-57v-261h64q79 0 124 36.5t45 92.5q0 70 -45.5 101t-130.5 31z" />
    <glyph glyph-name="uni01C4" unicode="&#x1c4;" horiz-adv-x="1456" 
d="M52 0v16l84 41v546l-84 41v16h322q115 0 195.5 -39t123 -107t42.5 -154q0 -78 -27.5 -144t-77 -114t-117 -75t-146.5 -27h-315zM340 605h-79v-550h94q79 0 134.5 33.5t85 95t29.5 145.5q0 126 -67.5 201t-196.5 75zM864 0v29l341 576h-243l-70 -140h-16v195h483v-29
l-342 -576h265l72 150h16v-205h-506zM1104 710l-134 152h17l137 -68l137 68h17l-134 -152h-40z" />
    <glyph glyph-name="uni01C7" unicode="&#x1c7;" horiz-adv-x="1053" 
d="M52 0v16l84 41v546l-84 41v16h303v-16l-94 -41v-548h230l76 180h16v-235h-531zM691 -173q-13 0 -22.5 6.5t-9.5 21.5q0 7 2.5 20.5t9.5 46.5h7q16 -4 25 -6.5t21 -2.5q20 0 34.5 9t22 38.5t7.5 89.5v553l-83 41v16h292v-16l-83 -41v-360q0 -76 -14 -141t-37 -115t-50 -80
q-39 -43 -65 -61.5t-57 -18.5z" />
    <glyph glyph-name="uni01CA" unicode="&#x1ca;" horiz-adv-x="1216" 
d="M49 0v16l83 41v545l-82 42v16h172l386 -456v401l-108 39v16h260v-16l-82 -40v-609h-52l-424 498v-437l109 -40v-16h-262zM855 -173q-13 0 -22.5 6.5t-9.5 21.5q0 7 2.5 20.5t9.5 46.5h7q16 -4 25 -6.5t21 -2.5q20 0 34.5 9t22 38.5t7.5 89.5v553l-83 41v16h292v-16
l-83 -41v-360q0 -76 -14 -141t-37 -115t-50 -80q-39 -43 -65 -61.5t-57 -18.5z" />
    <glyph glyph-name="uni0402" unicode="&#x402;" horiz-adv-x="806" 
d="M158 0v16l104 41v548h-135l-75 -147h-16v202h604v-188h-16l-75 133h-161v-277q32 30 79.5 49.5t105.5 19.5q81 0 127.5 -45t46.5 -151q0 -61 -14 -118t-36.5 -103t-46.5 -74q-39 -44 -66 -61.5t-60 -17.5q-14 0 -23 6.5t-9 21.5q0 7 2 20.5t10 46.5h7q16 -4 25 -6.5
t21 -2.5q19 0 33.5 9t22.5 38.5t8 89.5v123q0 73 -27.5 106t-94.5 33q-65 0 -111 -34v-221l95 -41v-16h-325z" />
    <glyph glyph-name="uni0404" unicode="&#x404;" horiz-adv-x="717" 
d="M399 -10q-104 0 -180.5 42t-118.5 115.5t-42 166.5q0 73 29 137.5t79 113.5t114 77t135 28q51 0 86.5 -6.5t63 -17t55.5 -24.5l9 -182h-18l-80 140q-31 21 -56 30.5t-58 9.5q-61 0 -110 -31.5t-80 -88t-38 -132.5h206l53 85h16v-223h-16l-53 83h-207q4 -85 33.5 -145.5
t77.5 -93t107 -32.5q45 0 77.5 12t60.5 29l77 123h17l-13 -165q-42 -23 -95.5 -37t-130.5 -14z" />
    <glyph glyph-name="uni0405" unicode="&#x405;" horiz-adv-x="555" 
d="M268 -10q-64 0 -111.5 12.5t-94.5 36.5l-10 167h18l61 -115q62 -51 130 -51q56 0 90 27.5t34 78.5q0 38 -17.5 61.5t-53.5 43t-94 45.5q-70 34 -108 73.5t-38 106.5q0 38 19 73t50.5 62t71 43t81.5 16q50 0 93.5 -11.5t83.5 -32.5l10 -160h-17l-61 110q-29 22 -54 33
t-57 11q-42 0 -69.5 -28t-27.5 -71q0 -45 30 -72.5t100 -60.5q61 -28 100 -55t58 -61t19 -84q0 -48 -20.5 -84.5t-55 -62t-76.5 -38.5t-84 -13z" />
    <glyph glyph-name="uni0406" unicode="&#x406;" horiz-adv-x="404" 
d="M56 0v16l83 41v546l-83 41v16h292v-16l-83 -41v-546l83 -41v-16h-292z" />
    <glyph glyph-name="uni0407" unicode="&#x407;" horiz-adv-x="404" 
d="M56 0v16l83 41v546l-83 41v16h292v-16l-83 -41v-546l83 -41v-16h-292zM106 731q-24 0 -39.5 16t-15.5 39q0 22 15.5 38t39.5 16q23 0 38.5 -16t15.5 -38q0 -23 -15.5 -39t-38.5 -16zM298 731q-24 0 -39 16t-15 39q0 22 15 38t39 16t39 -16t15 -38q0 -23 -15 -39t-39 -16z
" />
    <glyph glyph-name="uni0408" unicode="&#x408;" horiz-adv-x="415" 
d="M53 -173q-13 0 -22.5 6.5t-9.5 21.5q0 7 2.5 20.5t9.5 46.5h7q16 -4 25 -6.5t21 -2.5q20 0 34.5 9t22 38.5t7.5 89.5v553l-83 41v16h292v-16l-83 -41v-360q0 -76 -14 -141t-37 -115t-50 -80q-39 -43 -65 -61.5t-57 -18.5z" />
    <glyph glyph-name="uni0409" unicode="&#x409;" horiz-adv-x="977" 
d="M245 544q0 -120 -6 -206t-17.5 -145t-28.5 -98q-19 -45 -42.5 -67.5t-47 -30t-43.5 -7.5q-22 0 -28 6t-6 23v68l4 5h10q77 0 109 113t32 338v60l-82 41v16h570v-16l-104 -41v-212h101q84 0 148 -23t99.5 -65t35.5 -100q0 -60 -35.5 -105.5t-99.5 -71.5t-149 -26h-309v16
l84 41v548h-195v-61zM643 336h-78v-281h85q83 0 125.5 39.5t42.5 101.5q0 72 -43 106t-132 34z" />
    <glyph glyph-name="uni040A" unicode="&#x40a;" horiz-adv-x="1076" 
d="M52 0v16l84 41v546l-84 41v16h288v-16l-79 -41v-225h278v225l-84 41v16h313v-16l-104 -41v-225h101q85 0 148.5 -22t99 -63t35.5 -98q0 -59 -35.5 -103t-99.5 -68t-149 -24h-309v16l84 41v266h-278v-266l79 -41v-16h-288zM742 323h-78v-268h85q83 0 125.5 36.5t42.5 97.5
q0 71 -43 102.5t-132 31.5z" />
    <glyph glyph-name="uni040B" unicode="&#x40b;" horiz-adv-x="849" 
d="M158 0v16l104 41v548h-135l-75 -147h-16v202h604v-192h-16l-75 137h-161v-277q32 30 79 49.5t103 19.5q86 0 131.5 -47.5t45.5 -144.5v-148l82 -41v-16h-208v173q0 71 -27.5 105t-94.5 34q-65 0 -111 -34v-221l95 -41v-16h-325z" />
    <glyph glyph-name="uni040F" unicode="&#x40f;" horiz-adv-x="799" 
d="M340 0h-288v16l83 41v546l-83 41v16h287v-16l-78 -41v-548h276v548l-77 41v16h286v-16l-83 -41v-546l83 -41v-16h-287l-52 -170h-16z" />
    <glyph glyph-name="uni0410" unicode="&#x410;" horiz-adv-x="764" 
d="M25 0v16l62 34l259 615h70l256 -613l68 -36v-16h-288v16l87 35l-71 174h-240l-70 -174l83 -35v-16h-216zM251 280h194l-97 239z" />
    <glyph glyph-name="uni0411" unicode="&#x411;" horiz-adv-x="686" 
d="M361 0h-309v16l84 41v546l-84 41v16h529v-192h-16l-73 137h-231v-221h101q84 0 148 -21.5t99.5 -62.5t35.5 -99q0 -60 -35.5 -105.5t-99.5 -70.5t-149 -25zM339 333h-78v-278h85q83 0 125.5 39t42.5 101q0 72 -43 105t-132 33z" />
    <glyph glyph-name="uni0412" unicode="&#x412;" horiz-adv-x="686" 
d="M52 0v16l84 41v546l-84 41v16h293q69 0 124 -16.5t86.5 -49t31.5 -82.5q0 -51 -36.5 -93.5t-104.5 -60.5q93 -13 146.5 -56t53.5 -110q0 -55 -36 -98.5t-99 -68.5t-143 -25h-316zM306 605h-45v-239h51q68 0 106.5 31t38.5 86q0 122 -151 122zM343 315h-82v-260h89
q75 0 118.5 36.5t43.5 94.5q0 66 -44 97.5t-125 31.5z" />
    <glyph glyph-name="uni0413" unicode="&#x413;" horiz-adv-x="608" 
d="M52 0v16l84 41v546l-84 41v16h513v-173h-16l-69 118h-219v-548l98 -41v-16h-307z" />
    <glyph glyph-name="uni0403" unicode="&#x403;" horiz-adv-x="608" 
d="M52 0v16l84 41v546l-84 41v16h513v-173h-16l-69 118h-219v-548l98 -41v-16h-307zM318 710l85 152h98q0 -17 -7 -34t-30 -33l-128 -85h-18z" />
    <glyph glyph-name="uni0492" unicode="&#x492;" horiz-adv-x="608" 
d="M52 0v16l84 41v259h-84v52h84v235l-84 41v16h513v-173h-16l-69 118h-219v-237h171v-52h-171v-259l98 -41v-16h-307z" />
    <glyph glyph-name="uni0414" unicode="&#x414;" horiz-adv-x="731" 
d="M92 644v16h578v-16l-82 -41v-548h97v-225h-16l-89 170h-456l-88 -170h-16v225h79q30 76 46.5 154.5t23 166.5t6.5 192v35zM462 55v550h-224v-36q0 -107 -6 -195t-21.5 -165.5t-42.5 -153.5h294z" />
    <glyph glyph-name="uni0415" unicode="&#x415;" horiz-adv-x="669" 
d="M52 0v16l84 41v546l-84 41v16h523v-173h-16l-69 118h-229v-237h161l54 85h16v-223h-16l-54 83h-161v-258h254l72 140h16v-195h-551z" />
    <glyph glyph-name="uni0401" unicode="&#x401;" horiz-adv-x="669" 
d="M52 0v16l84 41v546l-84 41v16h523v-173h-16l-69 118h-229v-237h161l54 85h16v-223h-16l-54 83h-161v-258h254l72 140h16v-195h-551zM250 731q-24 0 -39.5 16t-15.5 39q0 22 15.5 38t39.5 16q23 0 38.5 -16t15.5 -38q0 -23 -15.5 -39t-38.5 -16zM442 731q-24 0 -39 16
t-15 39q0 22 15 38t39 16t39 -16t15 -38q0 -23 -15 -39t-39 -16z" />
    <glyph glyph-name="uni0416" unicode="&#x416;" horiz-adv-x="1059" 
d="M384 0v16l80 41v546l-80 41v16h285v-16l-80 -41v-546l80 -41v-16h-285zM590 335l262 273l-73 36v16h231v-16l-78 -30l-226 -233l277 -337l65 -28v-16h-188zM463 335l-270 -335h-182v16l71 30l266 327l-237 242l-74 29v16h237v-16l-73 -36z" />
    <glyph glyph-name="uni0417" unicode="&#x417;" horiz-adv-x="649" 
d="M319 670q65 0 119 -17.5t85.5 -51t31.5 -83.5q0 -54 -38 -99.5t-110 -63.5q88 -14 138 -57t50 -106q0 -58 -35.5 -103.5t-99 -72t-146.5 -26.5q-74 0 -128 14t-95 37l-13 165h17l84 -127q24 -15 53 -24.5t74 -9.5q75 0 115 38t40 100q0 130 -170 130h-81v55h67
q70 0 108.5 33.5t38.5 90.5q0 59 -29 93.5t-92 34.5q-32 0 -56 -7t-48 -25l-83 -146h-18l9 182q42 21 88.5 33.5t123.5 12.5z" />
    <glyph glyph-name="uni0418" unicode="&#x418;" horiz-adv-x="835" 
d="M52 0v16l84 41v546l-84 41v16h288v-16l-79 -41v-432l313 389v43l-79 41v16h287v-16l-82 -41v-546l82 -41v-16h-287v16l79 41v426l-313 -389v-37l79 -41v-16h-288z" />
    <glyph glyph-name="uni0419" unicode="&#x419;" horiz-adv-x="835" 
d="M52 0v16l84 41v546l-84 41v16h288v-16l-79 -41v-432l313 389v43l-79 41v16h287v-16l-82 -41v-546l82 -41v-16h-287v16l79 41v426l-313 -389v-37l79 -41v-16h-288zM420 711q-86 0 -130.5 43.5t-44.5 107.5h93q0 -49 19 -80.5t63 -31.5t63 31.5t19 80.5h93
q0 -64 -44.5 -107.5t-130.5 -43.5z" />
    <glyph glyph-name="uni04E2" unicode="&#x4e2;" horiz-adv-x="835" 
d="M52 0v16l84 41v546l-84 41v16h288v-16l-79 -41v-432l313 389v43l-79 41v16h287v-16l-82 -41v-546l82 -41v-16h-287v16l79 41v426l-313 -389v-37l79 -41v-16h-288zM280 760v55h280v-55h-280z" />
    <glyph glyph-name="uni041A" unicode="&#x41a;" horiz-adv-x="752" 
d="M52 0v16l84 41v546l-84 41v16h293v-16l-84 -41v-546l84 -41v-16h-293zM262 335l276 274l-74 35v16h226v-16l-66 -27l-244 -237l293 -336l67 -28v-16h-190z" />
    <glyph glyph-name="uni040C" unicode="&#x40c;" horiz-adv-x="752" 
d="M52 0v16l84 41v546l-84 41v16h293v-16l-84 -41v-546l84 -41v-16h-293zM262 335l276 274l-74 35v16h226v-16l-66 -27l-244 -237l293 -336l67 -28v-16h-190zM400 710l85 152h98q0 -17 -7 -34t-30 -33l-128 -85h-18z" />
    <glyph glyph-name="uni041B" unicode="&#x41b;" horiz-adv-x="723" 
d="M380 0v16l82 41v548h-217v-61q0 -120 -6 -206t-17.5 -145t-28.5 -98q-19 -45 -42.5 -67.5t-47 -30t-43.5 -7.5q-22 0 -28 6t-6 23v68l4 5h10q77 0 109 113t32 338v60l-82 41v16h572v-16l-83 -41v-546l83 -41v-16h-291z" />
    <glyph glyph-name="uni041C" unicode="&#x41c;" horiz-adv-x="980" 
d="M49 0v16l83 41l21 546l-87 41v16h222l213 -494l212 494h213v-16l-85 -34l17 -553l73 -41v-16h-273v16l78 40l-10 482l-232 -543h-52l-232 538l-13 -477l85 -40v-16h-233z" />
    <glyph glyph-name="uni041D" unicode="&#x41d;" horiz-adv-x="825" 
d="M52 0v16l84 41v546l-84 41v16h288v-16l-79 -41v-235h303v235l-79 41v16h287v-16l-82 -41v-546l82 -41v-16h-287v16l79 41v256h-303v-256l79 -41v-16h-288z" />
    <glyph glyph-name="uni041E" unicode="&#x41e;" horiz-adv-x="796" 
d="M398 -10q-73 0 -135 25.5t-108 71t-71.5 107.5t-25.5 136t25.5 136t71.5 107.5t108 71t135 25.5q74 0 136 -25.5t108 -71t71.5 -107.5t25.5 -136t-25.5 -136t-71.5 -107.5t-108 -71t-136 -25.5zM416 41q56 0 98.5 32t66.5 90t24 137q0 97 -29.5 169t-80 111.5
t-112.5 39.5q-55 0 -98.5 -31.5t-68.5 -89.5t-25 -137q0 -97 30 -169t81.5 -112t113.5 -40z" />
    <glyph glyph-name="uni041F" unicode="&#x41f;" horiz-adv-x="799" 
d="M52 0v16l84 41v546l-84 41v16h694v-16l-82 -41v-546l82 -41v-16h-285v16l77 41v548h-277v-548l78 -41v-16h-287z" />
    <glyph glyph-name="uni0420" unicode="&#x420;" horiz-adv-x="665" 
d="M52 0v16l84 41v546l-84 41v16h311q118 0 189.5 -42.5t71.5 -135.5q0 -56 -37.5 -98.5t-102 -66.5t-145.5 -24h-78v-236l98 -41v-16h-307zM261 605v-261h64q79 0 124 36.5t45 92.5q0 70 -45.5 101t-130.5 31h-57z" />
    <glyph glyph-name="uni0421" unicode="&#x421;" horiz-adv-x="717" 
d="M399 -10q-104 0 -180.5 42t-118.5 115.5t-42 166.5q0 73 29 137.5t79 113.5t114 77t135 28q51 0 86.5 -6.5t63 -17t55.5 -24.5l9 -182h-18l-80 140q-31 21 -56 30.5t-58 9.5q-65 0 -117 -36t-82 -101t-30 -150q0 -91 29 -156t78.5 -100t110.5 -35q45 0 77.5 12t60.5 29
l77 123h17l-13 -165q-42 -23 -95.5 -37t-130.5 -14z" />
    <glyph glyph-name="uni0422" unicode="&#x422;" horiz-adv-x="690" 
d="M178 0v16l104 41v548h-151l-75 -157h-16v212h610v-212h-16l-75 157h-151v-548l103 -41v-16h-333z" />
    <glyph glyph-name="uni0423" unicode="&#x423;" horiz-adv-x="726" 
d="M343 55q-35 -43 -66.5 -54t-60.5 -11q-22 0 -28 6t-6 23v68l5 5h16q50 0 80.5 14.5t56.5 49.5l-240 449l-74 39v16h286v-16l-83 -38l172 -323h14l169 325l-82 36v16h213v-16l-61 -33l-212 -400q-22 -43 -49 -86.5t-50 -69.5z" />
    <glyph glyph-name="uni040E" unicode="&#x40e;" horiz-adv-x="726" 
d="M343 55q-35 -43 -66.5 -54t-60.5 -11q-22 0 -28 6t-6 23v68l5 5h16q50 0 80.5 14.5t56.5 49.5l-240 449l-74 39v16h286v-16l-83 -38l172 -323h14l169 325l-82 36v16h213v-16l-61 -33l-212 -400q-22 -43 -49 -86.5t-50 -69.5zM406 711q-86 0 -130.5 43.5t-44.5 107.5h93
q0 -49 19 -80.5t63 -31.5t63 31.5t19 80.5h93q0 -64 -44.5 -107.5t-130.5 -43.5z" />
    <glyph glyph-name="uni04EE" unicode="&#x4ee;" horiz-adv-x="726" 
d="M343 55q-35 -43 -66.5 -54t-60.5 -11q-22 0 -28 6t-6 23v68l5 5h16q50 0 80.5 14.5t56.5 49.5l-240 449l-74 39v16h286v-16l-83 -38l172 -323h14l169 325l-82 36v16h213v-16l-61 -33l-212 -400q-22 -43 -49 -86.5t-50 -69.5zM260 760v55h280v-55h-280z" />
    <glyph glyph-name="uni0424" unicode="&#x424;" horiz-adv-x="872" 
d="M291 -20v16l84 41v43q-110 2 -188 33.5t-119.5 84.5t-41.5 122q0 71 41.5 129t119.5 93.5t188 37.5v43l-84 41v16h293v-16l-84 -41v-43q112 -3 189 -34.5t116.5 -84.5t39.5 -121q0 -71 -39.5 -128.5t-116.5 -93t-189 -38.5v-43l84 -41v-16h-293zM375 530
q-104 0 -159.5 -49.5t-55.5 -128.5q0 -95 57.5 -153t157.5 -67v398zM712 310q0 95 -54.5 152.5t-157.5 66.5v-398q111 0 161.5 50t50.5 129z" />
    <glyph glyph-name="uni0425" unicode="&#x425;" horiz-adv-x="764" 
d="M30 0v16l77 39l209 263l-208 290l-65 36v16h297v-16l-79 -38v-5l145 -197l157 197v4l-77 39v16h224v-16l-64 -35l-204 -253l221 -300l71 -40v-16h-302v16l72 37v4l-154 213l-166 -212l-1 -4l81 -38v-16h-234z" />
    <glyph glyph-name="uni0426" unicode="&#x426;" horiz-adv-x="806" 
d="M655 0h-603v16l83 41v546l-83 41v16h286v-16l-77 -41v-548h276v548l-77 41v16h286v-16l-83 -41v-548h97v-225h-16z" />
    <glyph glyph-name="uni0427" unicode="&#x427;" horiz-adv-x="759" 
d="M404 0v16l95 41v246q-34 -13 -78 -22.5t-97 -9.5q-69 0 -119.5 19t-78 67.5t-27.5 135.5v109l-85 42v16h290v-16l-79 -42v-115q0 -88 34 -121t115 -33q31 0 63.5 4.5t61.5 18.5v246l-80 42v16h288v-16l-83 -42v-545l83 -41v-16h-303z" />
    <glyph glyph-name="uni0428" unicode="&#x428;" horiz-adv-x="1084" 
d="M334 660v-16l-73 -41v-548h218v548l-74 41v16h273v-16l-74 -41v-548h218v548l-71 41v16h280v-16l-83 -41v-546l83 -41v-16h-979v16l83 41v546l-83 41v16h282z" />
    <glyph glyph-name="uni0429" unicode="&#x429;" horiz-adv-x="1091" 
d="M334 660v-16l-73 -41v-548h218v548l-74 41v16h273v-16l-74 -41v-548h218v548l-71 41v16h280v-16l-83 -41v-548h97v-225h-16l-89 170h-888v16l83 41v546l-83 41v16h282z" />
    <glyph glyph-name="uni042A" unicode="&#x42a;" horiz-adv-x="760" 
d="M448 0h-308v16l83 41v548h-105l-75 -157h-16v212h425v-16l-103 -41v-212h100q85 0 148.5 -23t99 -65t35.5 -100q0 -60 -35.5 -105.5t-99.5 -71.5t-149 -26zM426 336h-77v-281h84q83 0 126 39.5t43 101.5q0 72 -43.5 106t-132.5 34z" />
    <glyph glyph-name="uni042B" unicode="&#x42b;" horiz-adv-x="1076" 
d="M361 0h-309v16l84 41v546l-84 41v16h313v-16l-104 -41v-212h101q84 0 148 -23t99.5 -65t35.5 -100q0 -60 -35.5 -105.5t-99.5 -71.5t-149 -26zM339 336h-78v-281h85q83 0 125.5 39.5t42.5 101.5q0 72 -43 106t-132 34zM729 0v16l83 41v546l-83 41v16h292v-16l-83 -41
v-546l83 -41v-16h-292z" />
    <glyph glyph-name="uni042C" unicode="&#x42c;" horiz-adv-x="673" 
d="M361 0h-309v16l84 41v546l-84 41v16h313v-16l-104 -41v-212h101q84 0 148 -23t99.5 -65t35.5 -100q0 -60 -35.5 -105.5t-99.5 -71.5t-149 -26zM339 336h-78v-281h85q83 0 125.5 39.5t42.5 101.5q0 72 -43 106t-132 34z" />
    <glyph glyph-name="uni042D" unicode="&#x42d;" horiz-adv-x="724" 
d="M323 42q63 0 110 31.5t73 89.5t26 137v14h-218l-53 -84h-16v223h16l53 -84h214q-11 77 -42 133t-78 86.5t-103 30.5q-33 0 -58.5 -6.5t-51.5 -24.5l-83 -146h-18l8 182q42 20 94 33t129 13q73 0 135.5 -25.5t108.5 -71t71.5 -107.5t25.5 -136q0 -98 -43 -175t-120 -121
t-178 -44q-77 0 -134.5 14t-99.5 37l-13 165h17l77 -123q28 -17 64 -29t87 -12z" />
    <glyph glyph-name="uni042E" unicode="&#x42e;" horiz-adv-x="1081" 
d="M52 0v16l84 41v546l-84 41v16h288v-16l-79 -41v-235h103q8 88 53 156t116.5 107t159.5 39q71 0 131.5 -25.5t105 -71t69.5 -107.5t25 -136t-25 -136t-69.5 -107.5t-105 -71t-131.5 -25.5q-92 0 -165 41.5t-117.5 114.5t-48.5 167h-101v-256l79 -41v-16h-288zM711 41
q53 0 93.5 32t63 90t22.5 137q0 97 -28.5 169t-76.5 111.5t-107 39.5q-52 0 -93.5 -31.5t-65 -89.5t-23.5 -137q0 -97 29 -169t78 -112t108 -40z" />
    <glyph glyph-name="uni042F" unicode="&#x42f;" horiz-adv-x="731" 
d="M208 0h-180v16l69 38l180 253q-83 19 -123 64t-40 101q0 91 70 139.5t209 48.5h286v-16l-83 -41v-546l83 -41v-16h-287v16l78 42v229h-72zM411 339h59v266h-54q-86 0 -129.5 -34.5t-43.5 -96.5q0 -59 42.5 -97t125.5 -38z" />
    <glyph glyph-name="uni0490" unicode="&#x490;" horiz-adv-x="578" 
d="M52 0v16l84 41v546l-84 41v16h408l89 170h16v-225h-304v-548l98 -41v-16h-307z" />
    <glyph glyph-name="uni049A" unicode="&#x49a;" horiz-adv-x="758" 
d="M52 0v16l84 41v546l-84 41v16h293v-16l-84 -41v-546l84 -41v-16h-293zM262 335l276 274l-74 35v16h226v-16l-66 -27l-244 -237l284 -325h89v-225h-16l-88 170h-99z" />
    <glyph glyph-name="uni0496" unicode="&#x496;" horiz-adv-x="1066" 
d="M384 0v16l80 41v546l-80 41v16h285v-16l-80 -41v-546l80 -41v-16h-285zM590 335l262 273l-73 36v16h231v-16l-78 -30l-226 -233l268 -326h88v-225h-16l-89 170h-97zM463 335l-270 -335h-182v16l71 30l266 327l-237 242l-74 29v16h237v-16l-73 -36z" />
    <glyph glyph-name="uni04B2" unicode="&#x4b2;" horiz-adv-x="759" 
d="M30 0v16l77 39l209 263l-208 290l-65 36v16h297v-16l-79 -38v-5l145 -197l157 197v4l-77 39v16h224v-16l-64 -35l-204 -253l222 -301h85v-225h-16l-89 170h-212v16l72 37v4l-154 213l-166 -212l-1 -4l81 -38v-16h-234z" />
    <glyph glyph-name="uni04A2" unicode="&#x4a2;" horiz-adv-x="833" 
d="M52 0v16l84 41v546l-84 41v16h288v-16l-79 -41v-235h303v235l-79 41v16h287v-16l-82 -41v-548h97v-225h-16l-89 170h-197v16l79 41v256h-303v-256l79 -41v-16h-288z" />
    <glyph glyph-name="uni04B6" unicode="&#x4b6;" horiz-adv-x="767" 
d="M99 493v109l-85 42v16h290v-16l-79 -42v-115q0 -88 34 -121t115 -33q31 0 63.5 4.5t61.5 18.5v246l-80 42v16h288v-16l-83 -42v-547h97v-225h-16l-89 170h-212v16l95 41v246q-34 -13 -78 -22.5t-97 -9.5q-69 0 -119.5 19t-78 67.5t-27.5 135.5z" />
    <glyph glyph-name="uni04AE" unicode="&#x4ae;" horiz-adv-x="739" 
d="M221 0v16l90 41v251l-220 300l-65 36v16h282v-16l-75 -36v-4l176 -239l159 237v4l-76 38v16h221v-16l-64 -33l-212 -302v-252l89 -41v-16h-305z" />
    <glyph glyph-name="uni04B0" unicode="&#x4b0;" horiz-adv-x="739" 
d="M221 0v16l90 41v200h-145v52h144l-219 299l-65 36v16h282v-16l-75 -36v-4l176 -239l159 237v4l-76 38v16h221v-16l-64 -33l-212 -302v0h144v-52h-144v-200l89 -41v-16h-305z" />
    <glyph glyph-name="uni04BA" unicode="&#x4ba;" horiz-adv-x="759" 
d="M355 660v-16l-95 -41v-246q34 13 78 22.5t97 9.5q69 0 119.5 -19t78 -67.5t27.5 -135.5v-109l85 -42v-16h-290v16l79 42v115q0 88 -34 121t-115 33q-31 0 -63.5 -4.5t-61.5 -18.5v-246l80 -42v-16h-288v16l83 42v545l-83 41v16h303z" />
    <glyph glyph-name="uni04C0" unicode="&#x4c0;" horiz-adv-x="404" 
d="M56 0v16l83 41v546l-83 41v16h292v-16l-83 -41v-546l83 -41v-16h-292z" />
    <glyph glyph-name="uni04D8" unicode="&#x4d8;" horiz-adv-x="689" 
d="M312 -10q-118 0 -185.5 79.5t-68.5 222.5l7 7h438v10q0 119 -53.5 186.5t-172.5 67.5q-58 0 -111 -18.5t-104 -52.5h-4v27q34 65 104.5 108t164.5 43q95 0 163 -38.5t105 -108.5t37 -164q0 -108 -41.5 -191.5t-114 -130.5t-164.5 -47zM332 48q75 0 117 51t51 149h-322
q9 -95 48.5 -147.5t105.5 -52.5z" />
    <glyph glyph-name="uni04E8" unicode="&#x4e8;" horiz-adv-x="796" 
d="M398 -10q-73 0 -135 25.5t-108 71t-71.5 107.5t-25.5 136t25.5 136t71.5 107.5t108 71t135 25.5q74 0 136 -25.5t108 -71t71.5 -107.5t25.5 -136t-25.5 -136t-71.5 -107.5t-108 -71t-136 -25.5zM383 620q-55 0 -98.5 -31.5t-68.5 -88t-25 -133.5h410q-10 78 -41 134.5
t-76.5 87.5t-100.5 31zM416 41q56 0 98.5 32t66.5 90t24 137v15h-412q7 -84 38.5 -145.5t79.5 -95t105 -33.5z" />
    <glyph glyph-name="uni0462" unicode="&#x462;" horiz-adv-x="749" 
d="M441 0h-309v16l84 41v434h-102l-75 -114h-16v169h193v57l-84 41v16h300v-16l-91 -41v-57h223v-169h-16l-76 114h-131v-147h101q84 0 146.5 -20t97.5 -57t35 -88q0 -53 -35 -93.5t-98.5 -63t-146.5 -22.5zM419 289h-78v-234h85q81 0 123 33t42 85q0 60 -42.5 88t-129.5 28
z" />
    <glyph glyph-name="uni0472" unicode="&#x472;" horiz-adv-x="796" 
d="M398 -10q-73 0 -135 25.5t-108 71t-71.5 107.5t-25.5 136t25.5 136t71.5 107.5t108 71t135 25.5q74 0 136 -25.5t108 -71t71.5 -107.5t25.5 -136t-25.5 -136t-71.5 -107.5t-108 -71t-136 -25.5zM191 362v-15q55 33 104 39.5t93 -1t82.5 -19t71 -16t60.5 9.5
q-9 80 -40 138t-77.5 90t-101.5 32t-98.5 -31.5t-68.5 -89.5t-25 -137zM416 41q56 0 98.5 32t66.5 90t24 137v17q-50 -34 -95 -40.5t-87 2t-80.5 20.5t-75.5 16.5t-73 -10.5q9 -81 40.5 -140t78.5 -91.5t103 -32.5z" />
    <glyph glyph-name="uni0474" unicode="&#x474;" horiz-adv-x="748" 
d="M523 450q19 46 40 91t45 74q31 35 57.5 45t49.5 10t28.5 -6t5.5 -23v-68l-4 -5h-16q-39 0 -62.5 -11t-41 -37.5t-35.5 -71.5l-185 -453h-49l-260 612l-70 37v16h286v-16l-84 -39l181 -427h6z" />
    <glyph glyph-name="uni0414.bgr" horiz-adv-x="709" 
d="M3 55h71l256 610h48l254 -610h74v-225h-16l-89 170h-493l-89 -170h-16v225zM144 55h355l-174 428h-7z" />
    <glyph glyph-name="uni0416.bgr" horiz-adv-x="1059" 
d="M384 0v16l80 41v546l-80 41v16h285v-16l-80 -41v-546l80 -41v-16h-285zM590 335l262 273l-73 36v16h231v-16l-78 -30l-226 -233l277 -337l65 -28v-16h-188zM463 335l-270 -335h-182v16l71 30l266 327l-237 242l-74 29v16h237v-16l-73 -36z" />
    <glyph glyph-name="uni041A.bgr" horiz-adv-x="752" 
d="M52 0v16l84 41v546l-84 41v16h293v-16l-84 -41v-546l84 -41v-16h-293zM262 335l276 274l-74 35v16h226v-16l-66 -27l-244 -237l293 -336l67 -28v-16h-190z" />
    <glyph glyph-name="uni041B.bgr" horiz-adv-x="754" 
d="M398 665l260 -612l70 -37v-16h-286v16l84 39l-183 431h-5l-182 -433l83 -37v-16h-213v16l57 31l266 618h49z" />
    <glyph glyph-name="uni006A" horiz-adv-x="324" 
d="M161 571q-29 0 -48 19.5t-19 48.5t19 48t48 19t48.5 -19t19.5 -48t-19.5 -48.5t-48.5 -19.5zM43 -230v17q25 22 38.5 44.5t19 53.5t5.5 78v387l-62 48v11l168 55h10v-450q0 -56 -15.5 -99t-54.5 -78t-109 -67z" />
    <glyph glyph-name="uni0074" horiz-adv-x="373" 
d="M216 -10q-54 0 -90.5 26t-36.5 73v319h-76v10l90 36l88 110h14v-110h136v-46h-136v-297q0 -25 22 -37.5t53 -12.5q19 0 34.5 2t28.5 5l3 -1v-14q-14 -23 -49 -43t-81 -20z" />
    <glyph glyph-name="uni007A" horiz-adv-x="494" 
d="M60 0v19l219 389h-152l-51 -106h-17l11 162h5q13 -4 32.5 -7t35.5 -3h280v-20l-219 -388h167l43 112h17v-158h-371z" />
    <glyph glyph-name="uni0237" unicode="&#x237;" horiz-adv-x="324" 
d="M222 14q0 -56 -15.5 -99t-54.5 -78t-109 -67v17q25 22 38.5 44.5t19 53.5t5.5 78v387l-62 48v11l168 55h10v-450z" />
    <glyph glyph-name="uni0138" unicode="&#x138;" horiz-adv-x="584" 
d="M38 0v16l65 32v302l-62 48v11l168 55h10v-205l154 137v6l-49 36v16h203v-16l-64 -35l-148 -116l191 -237l64 -34v-16h-169l-34 52l-148 187v-193l67 -30v-16h-248z" />
    <glyph glyph-name="uni1E97" unicode="&#x1e97;" horiz-adv-x="373" 
d="M216 -10q-54 0 -90.5 26t-36.5 73v319h-76v10l90 36l88 110h14v-110h136v-46h-136v-297q0 -25 22 -37.5t53 -12.5q19 0 34.5 2t28.5 5l3 -1v-14q-14 -23 -49 -43t-81 -20zM86 663q-24 0 -39.5 15.5t-15.5 38.5t15.5 38.5t39.5 15.5q23 0 38.5 -15.5t15.5 -38.5
t-15.5 -38.5t-38.5 -15.5zM278 663q-24 0 -39 15.5t-15 38.5t15 38.5t39 15.5t39 -15.5t15 -38.5t-15 -38.5t-39 -15.5z" />
    <glyph glyph-name="uni017E" horiz-adv-x="494" 
d="M60 0v19l219 389h-152l-51 -106h-17l11 162h5q13 -4 32.5 -7t35.5 -3h280v-20l-219 -388h167l43 112h17v-158h-371zM232 530l-134 177h17l137 -88l137 88h17l-134 -177h-40z" />
    <glyph glyph-name="uni0061.sc" unicode="a" horiz-adv-x="670" 
d="M25 0v16l50 27l223 522h68l219 -518l61 -31v-16h-255v16l70 30l-59 142h-204l-59 -143l72 -29v-16h-186zM219 239h162l-81 195z" />
    <glyph glyph-name="uni0062.sc" unicode="b" horiz-adv-x="612" 
d="M52 0v16l73 33v462l-73 33v16h251q101 0 158.5 -32t57.5 -96q0 -46 -31.5 -81.5t-86.5 -49.5q79 -11 124.5 -47.5t45.5 -91.5q0 -46 -30.5 -83t-85.5 -58t-126 -21h-277zM265 509h-19v-195h22q58 0 93.5 24t35.5 74q0 97 -132 97zM297 266h-51v-215h57q64 0 102.5 27
t38.5 80q0 59 -39 83.5t-108 24.5z" />
    <glyph glyph-name="uni0063.sc" unicode="c" horiz-adv-x="652" 
d="M366 -10q-90 0 -159.5 36t-109 98.5t-39.5 142.5q0 67 26 123t71.5 96.5t103.5 62.5t121 22q44 0 75 -5.5t55 -15t48 -21.5l7 -148h-17l-69 111q-22 16 -44.5 22t-51.5 6q-58 0 -103.5 -31t-72 -85t-26.5 -125q0 -113 55.5 -175.5t146.5 -62.5q28 0 51.5 4.5t44.5 15.5
l78 111h16l-10 -138q-35 -20 -84 -32t-113 -12z" />
    <glyph glyph-name="uni0064.sc" unicode="d" horiz-adv-x="703" 
d="M52 0v16l74 33v462l-74 33v16h277q101 0 172.5 -32.5t108.5 -90t37 -132.5q0 -91 -40 -159.5t-112.5 -107t-171.5 -38.5h-271zM296 509h-49v-458h57q106 0 162 62.5t56 168.5q0 110 -57.5 168.5t-168.5 58.5z" />
    <glyph glyph-name="uni0065.sc" unicode="e" horiz-adv-x="596" 
d="M52 0v16l73 33v462l-73 33v16h460v-147h-16l-58 96h-192v-195h138l40 70h15v-188h-15l-40 70h-138v-215h214l61 120h16v-171h-485z" />
    <glyph glyph-name="uni0066.sc" unicode="f" horiz-adv-x="568" 
d="M52 0v16l74 33v462l-73 33v16h455v-147h-14l-54 96h-193v-195h135l39 70h16v-188h-16l-39 70h-135v-217l87 -33v-16h-282z" />
    <glyph glyph-name="uni0067.sc" unicode="g" horiz-adv-x="679" 
d="M356 -10q-84 0 -151.5 35.5t-107 98t-39.5 143.5q0 67 25.5 122.5t69.5 96t102.5 62.5t124.5 22q67 0 108 -11.5t78 -29.5l7 -146h-15l-66 105q-31 20 -54.5 28t-53.5 8q-63 0 -109.5 -29.5t-72.5 -82t-26 -119.5q0 -77 26 -134t72.5 -87.5t108.5 -30.5q20 0 40 2.5
t40 8.5v149l-76 37v14h254v-14l-62 -39v-137q-25 -22 -62 -38t-79 -25t-82 -9z" />
    <glyph glyph-name="uni0068.sc" unicode="h" horiz-adv-x="746" 
d="M52 0v16l73 33v462l-73 33v16h265v-16l-71 -33v-196h255v196l-71 33v16h264v-16l-72 -33v-462l72 -33v-16h-264v16l71 33v215h-255v-215l71 -33v-16h-265z" />
    <glyph glyph-name="uni0069.sc" unicode="i" horiz-adv-x="369" 
d="M56 0v16l66 33v462l-66 33v16h257v-16l-70 -33v-462l70 -33v-16h-257z" />
    <glyph glyph-name="uni0069.sc" unicode="&#x131;" horiz-adv-x="369" 
d="M56 0v16l66 33v462l-66 33v16h257v-16l-70 -33v-462l70 -33v-16h-257z" />
    <glyph glyph-name="uni006A.sc" unicode="j" horiz-adv-x="377" 
d="M51 -147q-14 0 -25.5 6t-11.5 23q0 2 3 17t7 39h7q12 -4 20.5 -6t18.5 -2q20 0 33 9.5t19.5 37.5t6.5 84v450l-71 34v15h263v-15l-71 -34v-314q0 -68 -14.5 -122t-35 -92.5t-39.5 -60.5q-30 -34 -55.5 -51.5t-54.5 -17.5z" />
    <glyph glyph-name="uni006B.sc" unicode="k" horiz-adv-x="702" 
d="M53 0v16l74 33v462l-74 33v16h267v-16l-73 -33v-462l73 -33v-16h-267zM496 0l-249 284l231 231l-62 29v16h204v-16l-59 -24l-201 -193l251 -285l67 -26v-16h-182z" />
    <glyph glyph-name="uni006C.sc" unicode="l" horiz-adv-x="588" 
d="M52 0v16l73 33v462l-73 33v16h276v-16l-82 -33v-460h198l68 154h16v-205h-476z" />
    <glyph glyph-name="uni006D.sc" unicode="m" horiz-adv-x="884" 
d="M49 0v16l73 33l18 462l-76 33v16h213l173 -389l176 389h204v-16l-74 -26l14 -469l65 -33v-16h-255v16l67 32l-8 409l-208 -461h-36l-203 460l-10 -408l74 -32v-16h-207z" />
    <glyph glyph-name="uni006E.sc" unicode="n" horiz-adv-x="728" 
d="M49 0v16l73 33v463l-73 32v16h165l335 -386v338l-92 32v16h222v-16l-71 -32v-516h-58l-369 422v-367l92 -35v-16h-224z" />
    <glyph glyph-name="uni006F.sc" unicode="o" horiz-adv-x="706" 
d="M352 -10q-85 0 -151.5 37.5t-104.5 103t-38 149.5t38 150t104.5 103.5t151.5 37.5q86 0 152.5 -37.5t105 -103.5t38.5 -150t-38.5 -149.5t-105 -103t-152.5 -37.5zM367 41q73 0 115 59.5t42 154.5q0 79 -23.5 138.5t-65 93.5t-94.5 34q-73 0 -116 -59.5t-43 -153.5
q0 -78 23.5 -138.5t65 -94.5t96.5 -34z" />
    <glyph glyph-name="uni0070.sc" unicode="p" horiz-adv-x="589" 
d="M52 0v16l74 33v462l-74 33v16h270q109 0 168 -38t59 -117q0 -51 -31.5 -87.5t-86.5 -56.5t-125 -20h-59v-192l86 -33v-16h-281zM247 509v-219h39q66 0 102.5 29t36.5 82q0 58 -37.5 83t-107.5 25h-33z" />
    <glyph glyph-name="uni0071.sc" unicode="q" horiz-adv-x="718" 
d="M627 -153q-44 0 -90.5 11.5t-103 43.5t-132.5 92q-71 11 -126 50.5t-86 100t-31 135.5q0 84 38 150t104.5 103.5t151.5 37.5q86 0 152.5 -37.5t105 -103.5t38.5 -150q0 -67 -25 -122.5t-69.5 -95t-104.5 -58.5q56 -45 98 -71t75.5 -37t64.5 -11q23 0 39 3t27 7v-21
q-23 -11 -54 -19t-72 -8zM367 41q73 0 115 59.5t42 154.5q0 79 -23.5 138.5t-65 93.5t-94.5 34q-73 0 -116 -59.5t-43 -153.5q0 -78 23.5 -138.5t65 -94.5t96.5 -34z" />
    <glyph glyph-name="uni0072.sc" unicode="r" horiz-adv-x="622" 
d="M52 0v16l74 33v462l-74 33v16h272q92 0 145 -37t53 -101q0 -94 -114 -135l155 -240l65 -31v-16h-180l-152 255h-50v-205l65 -34v-16h-259zM284 512h-38v-209h42q54 0 82 28.5t28 77.5q0 103 -114 103z" />
    <glyph glyph-name="uni0073.sc" unicode="s" horiz-adv-x="502" 
d="M239 -10q-55 0 -96 12t-81 31l-10 139h16l60 -100q25 -17 53.5 -25t58.5 -8q52 0 81 21t29 62q0 31 -16.5 49t-51 34.5t-89.5 42.5q-62 29 -91.5 63.5t-29.5 90.5q0 46 27 84t72 61.5t98 23.5q44 0 81.5 -10.5t71.5 -27.5l8 -134h-16l-59 98q-36 25 -83 25q-44 0 -70 -22
t-26 -60q0 -24 12 -40.5t39 -32t70 -36.5q55 -27 89 -50.5t49.5 -53t15.5 -71.5q0 -50 -28 -87.5t-75.5 -58t-108.5 -20.5z" />
    <glyph glyph-name="uni0074.sc" unicode="t" horiz-adv-x="624" 
d="M161 0v16l91 33v460h-137l-59 -129h-16v180h545v-180h-16l-61 129h-136v-460l92 -33v-16h-303z" />
    <glyph glyph-name="uni0075.sc" unicode="u" horiz-adv-x="746" 
d="M376 -10q-72 0 -128.5 23t-89 75t-32.5 140v283l-74 33v16h269v-16l-74 -33v-281q0 -68 20 -107t55.5 -56t83.5 -17q42 0 77 16t56 50.5t21 88.5v308l-83 31v16h216v-16l-73 -32v-290q0 -122 -66 -177t-178 -55z" />
    <glyph glyph-name="uni0076.sc" unicode="v" horiz-adv-x="665" 
d="M308 -5l-223 519l-59 30v16h258v-16l-69 -30l152 -362h6l152 362l-72 30v16h186v-16l-51 -28l-226 -521h-54z" />
    <glyph glyph-name="uni0077.sc" unicode="w" horiz-adv-x="916" 
d="M243 -4l-163 515l-67 33v16h267v-16l-74 -30l102 -340h6l156 389h57l150 -389h5l98 339l-74 31v16h197v-16l-59 -29l-162 -519h-61l-156 394h-6l-156 -394h-60z" />
    <glyph glyph-name="uni0078.sc" unicode="x" horiz-adv-x="698" 
d="M26 0v16l73 32l187 227l-180 239l-65 30v16h277v-16l-68 -32v-4l125 -164l132 164v3l-66 33v16h205v-16l-63 -29l-177 -212l193 -253l73 -34v-16h-280v16l63 30v4l-137 182l-146 -181v-3l69 -32v-16h-215z" />
    <glyph glyph-name="uni0079.sc" unicode="y" horiz-adv-x="660" 
d="M196 0v16l77 33v216l-181 245l-66 34v16h260v-16l-61 -30v-4l145 -194l131 193v3l-65 32v16h198v-16l-63 -30l-177 -251v-214l77 -33v-16h-275z" />
    <glyph glyph-name="uni007A.sc" unicode="z" horiz-adv-x="630" 
d="M86 0v24l298 485h-213l-59 -120h-16v171h438v-24l-297 -485h229l62 129h16v-180h-458z" />
    <glyph glyph-name="uni00E0.sc" unicode="&#xe0;" horiz-adv-x="670" 
d="M25 0v16l50 27l223 522h68l219 -518l61 -31v-16h-255v16l70 30l-59 142h-204l-59 -143l72 -29v-16h-186zM219 239h162l-81 195zM324 635l-129 110q-22 19 -29.5 34.5t-7.5 32.5h99l84 -177h-17z" />
    <glyph glyph-name="uni00E1.sc" unicode="&#xe1;" horiz-adv-x="670" 
d="M25 0v16l50 27l223 522h68l219 -518l61 -31v-16h-255v16l70 30l-59 142h-204l-59 -143l72 -29v-16h-186zM219 239h162l-81 195zM326 635l85 177h98q0 -17 -7.5 -32.5t-29.5 -34.5l-128 -110h-18z" />
    <glyph glyph-name="uni00E2.sc" unicode="&#xe2;" horiz-adv-x="670" 
d="M25 0v16l50 27l223 522h68l219 -518l61 -31v-16h-255v16l70 30l-59 142h-204l-59 -143l72 -29v-16h-186zM219 239h162l-81 195zM178 635l134 177h40l134 -177h-17l-137 88l-137 -88h-17z" />
    <glyph glyph-name="uni00E3.sc" unicode="&#xe3;" horiz-adv-x="670" 
d="M25 0v16l50 27l223 522h68l219 -518l61 -31v-16h-255v16l70 30l-59 142h-204l-59 -143l72 -29v-16h-186zM219 239h162l-81 195zM172 657q19 58 34.5 86t31.5 37t36 9t38.5 -9.5t35.5 -22.5t33 -22.5t32 -9.5q18 0 31 12.5t29 51.5h19q-19 -58 -34.5 -86t-31.5 -37t-36 -9
t-38.5 9.5t-35.5 22.5t-33 22.5t-32 9.5q-18 0 -31 -12.5t-29 -51.5h-19z" />
    <glyph glyph-name="uni00E4.sc" unicode="&#xe4;" horiz-adv-x="670" 
d="M25 0v16l50 27l223 522h68l219 -518l61 -31v-16h-255v16l70 30l-59 142h-204l-59 -143l72 -29v-16h-186zM219 239h162l-81 195zM236 668q-24 0 -39.5 15.5t-15.5 38.5t15.5 38.5t39.5 15.5q23 0 38.5 -15.5t15.5 -38.5t-15.5 -38.5t-38.5 -15.5zM428 668q-24 0 -39 15.5
t-15 38.5t15 38.5t39 15.5t39 -15.5t15 -38.5t-15 -38.5t-39 -15.5z" />
    <glyph glyph-name="uni0101.sc" unicode="&#x101;" horiz-adv-x="670" 
d="M25 0v16l50 27l223 522h68l219 -518l61 -31v-16h-255v16l70 30l-59 142h-204l-59 -143l72 -29v-16h-186zM219 239h162l-81 195zM192 694v56h280v-56h-280z" />
    <glyph glyph-name="uni0103.sc" unicode="&#x103;" horiz-adv-x="670" 
d="M25 0v16l50 27l223 522h68l219 -518l61 -31v-16h-255v16l70 30l-59 142h-204l-59 -143l72 -29v-16h-186zM219 239h162l-81 195zM332 645q-69 0 -102 41.5t-52 125.5h17q19 -42 39.5 -62t44 -26t53.5 -6t53.5 6t43.5 26t40 62h17q-20 -84 -54.5 -125.5t-99.5 -41.5z" />
    <glyph glyph-name="uni00E5.sc" unicode="&#xe5;" horiz-adv-x="670" 
d="M25 0v16l50 27l223 522h68l219 -518l61 -31v-16h-255v16l70 30l-59 142h-204l-59 -143l72 -29v-16h-186zM219 239h162l-81 195zM332 807q39 0 63.5 -24t24.5 -60t-24 -60t-64 -24q-39 0 -63.5 23.5t-24.5 60.5q0 36 24.5 60t63.5 24zM328 783q-31 0 -31 -53q0 -67 40 -67
q31 0 31 53q0 67 -40 67z" />
    <glyph glyph-name="uni01FB.sc" unicode="&#x1fb;" horiz-adv-x="670" 
d="M25 0v16l50 27l223 522h68l219 -518l61 -31v-16h-255v16l70 30l-59 142h-204l-59 -143l72 -29v-16h-186zM219 239h162l-81 195zM332 807q39 0 63.5 -24t24.5 -60t-24 -60t-64 -24q-39 0 -63.5 23.5t-24.5 60.5q0 36 24.5 60t63.5 24zM328 783q-31 0 -31 -53q0 -67 40 -67
q31 0 31 53q0 67 -40 67zM326 858l85 177h98q0 -17 -7.5 -32.5t-29.5 -34.5l-128 -110h-18z" />
    <glyph glyph-name="uni1EA1.sc" unicode="&#x1ea1;" horiz-adv-x="670" 
d="M25 0v16l50 27l223 522h68l219 -518l61 -31v-16h-255v16l70 30l-59 142h-204l-59 -143l72 -29v-16h-186zM219 239h162l-81 195zM312 -220q-28 0 -48 20t-20 48t20 48t48 20t48 -20t20 -48t-20 -48t-48 -20z" />
    <glyph glyph-name="uni0105.sc" unicode="&#x105;" horiz-adv-x="670" 
d="M25 0v16l50 27l223 522h68l219 -518l61 -31v-16h-89q-42 -70 -42 -128q0 -63 60 -63q12 0 24.5 3.5t24.5 10.5h3v-15q-13 -22 -35 -35t-53 -13q-44 0 -71.5 24t-27.5 65q0 36 23.5 72.5t62.5 78.5h-135v16l71 30l-59 142h-205l-60 -144l73 -28v-16h-186zM219 239h162
l-81 196z" />
    <glyph glyph-name="uni0201.sc" unicode="&#x201;" horiz-adv-x="670" 
d="M25 0v16l50 27l223 522h68l219 -518l61 -31v-16h-255v16l70 30l-59 142h-204l-59 -143l72 -29v-16h-186zM219 239h162l-81 195zM259 635l-108 114q-16 16 -17 32t5 31h74l63 -177h-17zM386 635l-95 114q-14 18 -15.5 33t3.5 30h74l51 -177h-18z" />
    <glyph glyph-name="uni0203.sc" unicode="&#x203;" horiz-adv-x="670" 
d="M25 0v16l50 27l223 522h68l219 -518l61 -31v-16h-255v16l70 30l-59 142h-204l-59 -143l72 -29v-16h-186zM219 239h162l-81 195zM178 645q20 84 54.5 125.5t99.5 41.5q69 0 102 -41.5t52 -125.5h-17q-19 42 -39.5 62t-44 26t-53.5 6t-53.5 -6t-43.5 -26t-40 -62h-17z" />
    <glyph glyph-name="uni1EAF.sc" unicode="&#x1eaf;" horiz-adv-x="670" 
d="M25 0v16l50 27l223 522h68l219 -518l61 -31v-16h-255v16l70 30l-59 142h-204l-59 -143l72 -29v-16h-186zM219 239h162l-81 195zM298 775l85 152h98q0 -17 -7 -34t-30 -33l-128 -85h-18zM332 645q-69 0 -102 41.5t-52 125.5h17q19 -42 39.5 -62t44 -26t53.5 -6t53.5 6
t43.5 26t40 62h17q-20 -84 -54.5 -125.5t-99.5 -41.5z" />
    <glyph glyph-name="uni1EB7.sc" unicode="&#x1eb7;" horiz-adv-x="670" 
d="M25 0v16l50 27l223 522h68l219 -518l61 -31v-16h-255v16l70 30l-59 142h-204l-59 -143l72 -29v-16h-186zM219 239h162l-81 195zM332 645q-69 0 -102 41.5t-52 125.5h17q19 -42 39.5 -62t44 -26t53.5 -6t53.5 6t43.5 26t40 62h17q-20 -84 -54.5 -125.5t-99.5 -41.5z
M312 -220q-28 0 -48 20t-20 48t20 48t48 20t48 -20t20 -48t-20 -48t-48 -20z" />
    <glyph glyph-name="uni1EB1.sc" unicode="&#x1eb1;" horiz-adv-x="670" 
d="M25 0v16l50 27l223 522h68l219 -518l61 -31v-16h-255v16l70 30l-59 142h-204l-59 -143l72 -29v-16h-186zM219 239h162l-81 195zM332 645q-69 0 -102 41.5t-52 125.5h17q19 -42 39.5 -62t44 -26t53.5 -6t53.5 6t43.5 26t40 62h17q-20 -84 -54.5 -125.5t-99.5 -41.5z
M348 775l-129 85q-23 16 -30 33t-7 34h99l84 -152h-17z" />
    <glyph glyph-name="uni1EB3.sc" unicode="&#x1eb3;" horiz-adv-x="670" 
d="M25 0v16l50 27l223 522h68l219 -518l61 -31v-16h-255v16l70 30l-59 142h-204l-59 -143l72 -29v-16h-186zM219 239h162l-81 195zM282 775v1q32 12 48.5 23t16.5 32q0 16 -16.5 27t-58.5 18l13 64q68 -6 95 -30.5t27 -50.5q0 -40 -29.5 -62t-87.5 -30zM332 645
q-69 0 -102 41.5t-52 125.5h17q19 -42 39.5 -62t44 -26t53.5 -6t53.5 6t43.5 26t40 62h17q-20 -84 -54.5 -125.5t-99.5 -41.5z" />
    <glyph glyph-name="uni1EB5.sc" unicode="&#x1eb5;" horiz-adv-x="670" 
d="M25 0v16l50 27l223 522h68l219 -518l61 -31v-16h-255v16l70 30l-59 142h-204l-59 -143l72 -29v-16h-186zM219 239h162l-81 195zM332 645q-69 0 -102 41.5t-52 125.5h17q19 -42 39.5 -62t44 -26t53.5 -6t53.5 6t43.5 26t40 62h17q-20 -84 -54.5 -125.5t-99.5 -41.5z
M172 829q16 50 31.5 76t32 35.5t37.5 9.5q28 0 51.5 -13.5t45.5 -26.5t44 -13q18 0 32 10t27 43h19q-16 -51 -31.5 -77t-32 -35t-37.5 -9q-28 0 -51.5 13t-45.5 26t-44 13q-18 0 -32 -9.5t-27 -42.5h-19z" />
    <glyph glyph-name="uni1EA5.sc" unicode="&#x1ea5;" horiz-adv-x="670" 
d="M25 0v16l50 27l223 522h68l219 -518l61 -31v-16h-255v16l70 30l-59 142h-204l-59 -143l72 -29v-16h-186zM219 239h162l-81 195zM444 742l41 143h91q0 -15 -7 -28t-23 -28l-87 -87h-15zM178 635l134 177h40l134 -177h-17l-137 88l-137 -88h-17z" />
    <glyph glyph-name="uni1EAD.sc" unicode="&#x1ead;" horiz-adv-x="670" 
d="M25 0v16l50 27l223 522h68l219 -518l61 -31v-16h-255v16l70 30l-59 142h-204l-59 -143l72 -29v-16h-186zM219 239h162l-81 195zM178 635l134 177h40l134 -177h-17l-137 88l-137 -88h-17zM312 -220q-28 0 -48 20t-20 48t20 48t48 20t48 -20t20 -48t-20 -48t-48 -20z" />
    <glyph glyph-name="uni1EA7.sc" unicode="&#x1ea7;" horiz-adv-x="670" 
d="M25 0v16l50 27l223 522h68l219 -518l61 -31v-16h-255v16l70 30l-59 142h-204l-59 -143l72 -29v-16h-186zM219 239h162l-81 195zM205 742l-87 87q-16 15 -23 28t-7 28h91l41 -143h-15zM178 635l134 177h40l134 -177h-17l-137 88l-137 -88h-17z" />
    <glyph glyph-name="uni1EA9.sc" unicode="&#x1ea9;" horiz-adv-x="670" 
d="M25 0v16l50 27l223 522h68l219 -518l61 -31v-16h-255v16l70 30l-59 142h-204l-59 -143l72 -29v-16h-186zM219 239h162l-81 195zM178 635l134 177h40l134 -177h-17l-137 88l-137 -88h-17zM274 841v1q32 12 48.5 23t16.5 32q0 16 -16.5 27t-58.5 18l13 64q68 -6 95 -30.5
t27 -50.5q0 -40 -29.5 -62t-87.5 -30z" />
    <glyph glyph-name="uni1EAB.sc" unicode="&#x1eab;" horiz-adv-x="670" 
d="M25 0v16l50 27l223 522h68l219 -518l61 -31v-16h-255v16l70 30l-59 142h-204l-59 -143l72 -29v-16h-186zM219 239h162l-81 195zM178 635l134 177h40l134 -177h-17l-137 88l-137 -88h-17zM172 829q16 50 31.5 76t32 35.5t37.5 9.5q28 0 51.5 -13.5t45.5 -26.5t44 -13
q18 0 32 10t27 43h19q-16 -51 -31.5 -77t-32 -35t-37.5 -9q-28 0 -51.5 13t-45.5 26t-44 13q-18 0 -32 -9.5t-27 -42.5h-19z" />
    <glyph glyph-name="uni1EA3.sc" unicode="&#x1ea3;" horiz-adv-x="670" 
d="M25 0v16l50 27l223 522h68l219 -518l61 -31v-16h-255v16l70 30l-59 142h-204l-59 -143l72 -29v-16h-186zM219 239h162l-81 195zM280 647v1q32 12 48.5 23t16.5 32q0 16 -16.5 27t-58.5 18l13 64q68 -6 95 -30.5t27 -50.5q0 -40 -29.5 -62t-87.5 -30z" />
    <glyph glyph-name="uni00E6.sc" unicode="&#xe6;" horiz-adv-x="883" 
d="M25 0v16l53 27l327 517h394v-147h-16l-58 96h-192v-195h138l40 70h15v-188h-15l-40 70h-138v-215h213l62 120h16v-171h-485v16l73 33v139h-178l-91 -145l67 -27v-16h-185zM266 239h146v234z" />
    <glyph glyph-name="uni01FD.sc" unicode="&#x1fd;" horiz-adv-x="883" 
d="M25 0v16l53 27l327 517h394v-147h-16l-58 96h-192v-195h138l40 70h15v-188h-15l-40 70h-138v-215h213l62 120h16v-171h-485v16l73 33v139h-178l-91 -145l67 -27v-16h-185zM266 239h146v234zM480 635l85 177h98q0 -17 -7.5 -32.5t-29.5 -34.5l-128 -110h-18z" />
    <glyph glyph-name="uni0107.sc" unicode="&#x107;" horiz-adv-x="652" 
d="M366 -10q-90 0 -159.5 36t-109 98.5t-39.5 142.5q0 67 26 123t71.5 96.5t103.5 62.5t121 22q44 0 75 -5.5t55 -15t48 -21.5l7 -148h-17l-69 111q-22 16 -44.5 22t-51.5 6q-58 0 -103.5 -31t-72 -85t-26.5 -125q0 -113 55.5 -175.5t146.5 -62.5q28 0 51.5 4.5t44.5 15.5
l78 111h16l-10 -138q-35 -20 -84 -32t-113 -12zM352 635l85 177h98q0 -17 -7.5 -32.5t-29.5 -34.5l-128 -110h-18z" />
    <glyph glyph-name="uni0109.sc" unicode="&#x109;" horiz-adv-x="652" 
d="M366 -10q-90 0 -159.5 36t-109 98.5t-39.5 142.5q0 67 26 123t71.5 96.5t103.5 62.5t121 22q44 0 75 -5.5t55 -15t48 -21.5l7 -148h-17l-69 111q-22 16 -44.5 22t-51.5 6q-58 0 -103.5 -31t-72 -85t-26.5 -125q0 -113 55.5 -175.5t146.5 -62.5q28 0 51.5 4.5t44.5 15.5
l78 111h16l-10 -138q-35 -20 -84 -32t-113 -12zM203 635l134 177h40l134 -177h-17l-137 88l-137 -88h-17z" />
    <glyph glyph-name="uni010D.sc" unicode="&#x10d;" horiz-adv-x="652" 
d="M366 -10q-90 0 -159.5 36t-109 98.5t-39.5 142.5q0 67 26 123t71.5 96.5t103.5 62.5t121 22q44 0 75 -5.5t55 -15t48 -21.5l7 -148h-17l-69 111q-22 16 -44.5 22t-51.5 6q-58 0 -103.5 -31t-72 -85t-26.5 -125q0 -113 55.5 -175.5t146.5 -62.5q28 0 51.5 4.5t44.5 15.5
l78 111h16l-10 -138q-35 -20 -84 -32t-113 -12zM337 635l-134 177h17l137 -88l137 88h17l-134 -177h-40z" />
    <glyph glyph-name="uni010B.sc" unicode="&#x10b;" horiz-adv-x="652" 
d="M366 -10q-90 0 -159.5 36t-109 98.5t-39.5 142.5q0 67 26 123t71.5 96.5t103.5 62.5t121 22q44 0 75 -5.5t55 -15t48 -21.5l7 -148h-17l-69 111q-22 16 -44.5 22t-51.5 6q-58 0 -103.5 -31t-72 -85t-26.5 -125q0 -113 55.5 -175.5t146.5 -62.5q28 0 51.5 4.5t44.5 15.5
l78 111h16l-10 -138q-35 -20 -84 -32t-113 -12zM357 655q-28 0 -48 20t-20 48t20 48t48 20t48 -20t20 -48t-20 -48t-48 -20z" />
    <glyph glyph-name="uni00E7.sc" unicode="&#xe7;" horiz-adv-x="652" 
d="M360 -240q-55 0 -82 26v16h3q23 -11 59 -11q28 0 41.5 10.5t13.5 27.5q0 22 -20.5 36.5t-78.5 31.5l43 94q-83 6 -146 42.5t-99 97t-36 136.5q0 67 26 123t71.5 96.5t103.5 62.5t121 22q44 0 75 -5.5t55 -15t48 -21.5l7 -148h-17l-69 111q-22 16 -44.5 22t-51.5 6
q-58 0 -103.5 -31t-72 -85t-26.5 -125q0 -113 55.5 -175.5t146.5 -62.5q28 0 51.5 4.5t44.5 15.5l78 111h16l-10 -138q-34 -20 -80.5 -31.5t-107.5 -12.5l-17 -37q57 -18 80 -41t23 -63q0 -38 -27 -63.5t-74 -25.5z" />
    <glyph glyph-name="uni1E09.sc" unicode="&#x1e09;" horiz-adv-x="652" 
d="M352 635l84 177h99q0 -17 -7.5 -32.5t-29.5 -34.5l-129 -110h-17zM363 -240q-55 0 -82 26v16h3q23 -11 60 -11q28 0 41 10.5t13 27.5q0 22 -20 36.5t-79 31.5l43 94q-83 5 -147 41.5t-100.5 97.5t-36.5 137q0 67 26 123t71.5 96.5t103.5 62.5t121 22q44 0 75 -5.5t55 -15
t48 -21.5l7 -148h-17l-69 111q-22 16 -44.5 22t-51.5 6q-58 0 -103.5 -31t-72 -85t-26.5 -125q0 -113 55.5 -175.5t146.5 -62.5q28 0 51.5 4.5t44.5 15.5l78 111h16l-10 -138q-34 -19 -79.5 -31t-104.5 -13l-18 -38q57 -17 80 -40t23 -63q0 -38 -27 -63.5t-74 -25.5z" />
    <glyph glyph-name="uni010F.sc" unicode="&#x10f;" horiz-adv-x="703" 
d="M52 0v16l74 33v462l-74 33v16h277q101 0 172.5 -32.5t108.5 -90t37 -132.5q0 -91 -40 -159.5t-112.5 -107t-171.5 -38.5h-271zM296 509h-49v-458h57q106 0 162 62.5t56 168.5q0 110 -57.5 168.5t-168.5 58.5zM327 635l-134 177h17l137 -88l137 88h17l-134 -177h-40z" />
    <glyph glyph-name="uni0111.sc" unicode="&#x111;" horiz-adv-x="703" 
d="M52 0v16l74 33v218h-71v46h71v198l-74 33v16h277q101 0 172.5 -32.5t108.5 -90t37 -132.5q0 -91 -40 -159.5t-112.5 -107t-171.5 -38.5h-271zM377 267h-130v-216h57q106 0 162 62.5t56 168.5q0 110 -57.5 168.5t-168.5 58.5h-49v-196h130v-46z" />
    <glyph glyph-name="uni1E0D.sc" unicode="&#x1e0d;" horiz-adv-x="703" 
d="M52 0v16l74 33v462l-74 33v16h277q101 0 172.5 -32.5t108.5 -90t37 -132.5q0 -91 -40 -159.5t-112.5 -107t-171.5 -38.5h-271zM296 509h-49v-458h57q106 0 162 62.5t56 168.5q0 110 -57.5 168.5t-168.5 58.5zM353 -220q-28 0 -48 20t-20 48t20 48t48 20t48 -20t20 -48
t-20 -48t-48 -20z" />
    <glyph glyph-name="uni1E0F.sc" unicode="&#x1e0f;" horiz-adv-x="703" 
d="M52 0v16l74 33v462l-74 33v16h277q101 0 172.5 -32.5t108.5 -90t37 -132.5q0 -91 -40 -159.5t-112.5 -107t-171.5 -38.5h-271zM296 509h-49v-458h57q106 0 162 62.5t56 168.5q0 110 -57.5 168.5t-168.5 58.5zM213 -177v56h280v-56h-280z" />
    <glyph glyph-name="uni00E8.sc" unicode="&#xe8;" horiz-adv-x="596" 
d="M52 0v16l73 33v462l-73 33v16h460v-147h-16l-58 96h-192v-195h138l40 70h15v-188h-15l-40 70h-138v-215h214l61 120h16v-171h-485zM302 635l-129 110q-22 19 -29.5 34.5t-7.5 32.5h99l84 -177h-17z" />
    <glyph glyph-name="uni00E9.sc" unicode="&#xe9;" horiz-adv-x="596" 
d="M52 0v16l73 33v462l-73 33v16h460v-147h-16l-58 96h-192v-195h138l40 70h15v-188h-15l-40 70h-138v-215h214l61 120h16v-171h-485zM305 635l85 177h98q0 -17 -7.5 -32.5t-29.5 -34.5l-128 -110h-18z" />
    <glyph glyph-name="uni00EA.sc" unicode="&#xea;" horiz-adv-x="596" 
d="M52 0v16l73 33v462l-73 33v16h460v-147h-16l-58 96h-192v-195h138l40 70h15v-188h-15l-40 70h-138v-215h214l61 120h16v-171h-485zM157 635l134 177h40l134 -177h-17l-137 88l-137 -88h-17z" />
    <glyph glyph-name="uni011B.sc" unicode="&#x11b;" horiz-adv-x="596" 
d="M52 0v16l73 33v462l-73 33v16h460v-147h-16l-58 96h-192v-195h138l40 70h15v-188h-15l-40 70h-138v-215h214l61 120h16v-171h-485zM291 635l-134 177h17l137 -88l137 88h17l-134 -177h-40z" />
    <glyph glyph-name="uni1EBD.sc" unicode="&#x1ebd;" horiz-adv-x="596" 
d="M52 0v16l73 33v462l-73 33v16h460v-147h-16l-58 96h-192v-195h138l40 70h15v-188h-15l-40 70h-138v-215h214l61 120h16v-171h-485zM151 657q19 58 34.5 86t31.5 37t36 9t38.5 -9.5t35.5 -22.5t33 -22.5t32 -9.5q18 0 31 12.5t29 51.5h19q-19 -58 -34.5 -86t-31.5 -37
t-36 -9t-38.5 9.5t-35.5 22.5t-33 22.5t-32 9.5q-18 0 -31 -12.5t-29 -51.5h-19z" />
    <glyph glyph-name="uni00EB.sc" unicode="&#xeb;" horiz-adv-x="596" 
d="M52 0v16l73 33v462l-73 33v16h460v-147h-16l-58 96h-192v-195h138l40 70h15v-188h-15l-40 70h-138v-215h214l61 120h16v-171h-485zM215 668q-24 0 -39.5 15.5t-15.5 38.5t15.5 38.5t39.5 15.5q23 0 38.5 -15.5t15.5 -38.5t-15.5 -38.5t-38.5 -15.5zM407 668
q-24 0 -39 15.5t-15 38.5t15 38.5t39 15.5t39 -15.5t15 -38.5t-15 -38.5t-39 -15.5z" />
    <glyph glyph-name="uni0113.sc" unicode="&#x113;" horiz-adv-x="596" 
d="M52 0v16l73 33v462l-73 33v16h460v-147h-16l-58 96h-192v-195h138l40 70h15v-188h-15l-40 70h-138v-215h214l61 120h16v-171h-485zM171 694v56h280v-56h-280z" />
    <glyph glyph-name="uni0115.sc" unicode="&#x115;" horiz-adv-x="596" 
d="M52 0v16l73 33v462l-73 33v16h460v-147h-16l-58 96h-192v-195h138l40 70h15v-188h-15l-40 70h-138v-215h214l61 120h16v-171h-485zM311 645q-69 0 -102 41.5t-52 125.5h17q19 -42 39.5 -62t44 -26t53.5 -6t53.5 6t43.5 26t40 62h17q-20 -84 -54.5 -125.5t-99.5 -41.5z
" />
    <glyph glyph-name="uni0117.sc" unicode="&#x117;" horiz-adv-x="596" 
d="M52 0v16l73 33v462l-73 33v16h460v-147h-16l-58 96h-192v-195h138l40 70h15v-188h-15l-40 70h-138v-215h214l61 120h16v-171h-485zM310 655q-28 0 -48 20t-20 48t20 48t48 20t48 -20t20 -48t-20 -48t-48 -20z" />
    <glyph glyph-name="uni0119.sc" unicode="&#x119;" horiz-adv-x="596" 
d="M52 0v16l73 33v462l-73 33v16h460v-147h-16l-58 96h-192v-195h138l40 70h15v-188h-15l-40 70h-138v-215h214l61 120h16v-171h-71q-42 -70 -42 -128q0 -63 60 -63q12 0 25 3.5t24 10.5h3v-15q-13 -22 -35 -35t-53 -13q-44 0 -71.5 24t-27.5 65q0 36 23.5 72.5t62.5 78.5
h-383z" />
    <glyph glyph-name="uni1EB9.sc" unicode="&#x1eb9;" horiz-adv-x="596" 
d="M52 0v16l73 33v462l-73 33v16h460v-147h-16l-58 96h-192v-195h138l40 70h15v-188h-15l-40 70h-138v-215h214l61 120h16v-171h-485zM319 -220q-28 0 -48 20t-20 48t20 48t48 20t48 -20t20 -48t-20 -48t-48 -20z" />
    <glyph glyph-name="uni0205.sc" unicode="&#x205;" horiz-adv-x="596" 
d="M52 0v16l73 33v462l-73 33v16h460v-147h-16l-58 96h-192v-195h138l40 70h15v-188h-15l-40 70h-138v-215h214l61 120h16v-171h-485zM238 635l-108 114q-16 16 -17 32t5 31h74l63 -177h-17zM365 635l-95 114q-14 18 -15.5 33t3.5 30h74l51 -177h-18z" />
    <glyph glyph-name="uni0207.sc" unicode="&#x207;" horiz-adv-x="596" 
d="M52 0v16l73 33v462l-73 33v16h460v-147h-16l-58 96h-192v-195h138l40 70h15v-188h-15l-40 70h-138v-215h214l61 120h16v-171h-485zM157 645q20 84 54.5 125.5t99.5 41.5q69 0 102 -41.5t52 -125.5h-17q-19 42 -39.5 62t-44 26t-53.5 6t-53.5 -6t-43.5 -26t-40 -62h-17z
" />
    <glyph glyph-name="uni1EBF.sc" unicode="&#x1ebf;" horiz-adv-x="596" 
d="M52 0v16l73 33v462l-73 33v16h460v-147h-16l-58 96h-192v-195h138l40 70h15v-188h-15l-40 70h-138v-215h214l61 120h16v-171h-485zM423 742l41 143h91q0 -15 -7 -28t-23 -28l-87 -87h-15zM157 635l134 177h40l134 -177h-17l-137 88l-137 -88h-17z" />
    <glyph glyph-name="uni1EC7.sc" unicode="&#x1ec7;" horiz-adv-x="596" 
d="M52 0v16l73 33v462l-73 33v16h460v-147h-16l-58 96h-192v-195h138l40 70h15v-188h-15l-40 70h-138v-215h214l61 120h16v-171h-485zM157 635l134 177h40l134 -177h-17l-137 88l-137 -88h-17zM319 -220q-28 0 -48 20t-20 48t20 48t48 20t48 -20t20 -48t-20 -48t-48 -20z
" />
    <glyph glyph-name="uni1EC1.sc" unicode="&#x1ec1;" horiz-adv-x="596" 
d="M52 0v16l73 33v462l-73 33v16h460v-147h-16l-58 96h-192v-195h138l40 70h15v-188h-15l-40 70h-138v-215h214l61 120h16v-171h-485zM184 742l-87 87q-16 15 -23 28t-7 28h91l41 -143h-15zM157 635l134 177h40l134 -177h-17l-137 88l-137 -88h-17z" />
    <glyph glyph-name="uni1EC3.sc" unicode="&#x1ec3;" horiz-adv-x="596" 
d="M52 0v16l73 33v462l-73 33v16h460v-147h-16l-58 96h-192v-195h138l40 70h15v-188h-15l-40 70h-138v-215h214l61 120h16v-171h-485zM157 635l134 177h40l134 -177h-17l-137 88l-137 -88h-17zM253 841v1q32 12 48.5 23t16.5 32q0 16 -16.5 27t-58.5 18l13 64
q68 -6 95 -30.5t27 -50.5q0 -40 -29.5 -62t-87.5 -30z" />
    <glyph glyph-name="uni1EC5.sc" unicode="&#x1ec5;" horiz-adv-x="596" 
d="M52 0v16l73 33v462l-73 33v16h460v-147h-16l-58 96h-192v-195h138l40 70h15v-188h-15l-40 70h-138v-215h214l61 120h16v-171h-485zM157 635l134 177h40l134 -177h-17l-137 88l-137 -88h-17zM151 829q16 50 31.5 76t32 35.5t37.5 9.5q28 0 51.5 -13.5t45.5 -26.5t44 -13
q18 0 32 10t27 43h19q-16 -51 -31.5 -77t-32 -35t-37.5 -9q-28 0 -51.5 13t-45.5 26t-44 13q-18 0 -32 -9.5t-27 -42.5h-19z" />
    <glyph glyph-name="uni1EBB.sc" unicode="&#x1ebb;" horiz-adv-x="596" 
d="M52 0v16l73 33v462l-73 33v16h460v-147h-16l-58 96h-192v-195h138l40 70h15v-188h-15l-40 70h-138v-215h214l61 120h16v-171h-485zM258 647v1q32 12 48.5 23t16.5 32q0 16 -16.5 27t-58.5 18l13 64q68 -6 95 -30.5t27 -50.5q0 -40 -29.5 -62t-87.5 -30z" />
    <glyph glyph-name="uni1E15.sc" unicode="&#x1e15;" horiz-adv-x="596" 
d="M52 0v16l73 33v462l-73 33v16h460v-147h-16l-58 96h-192v-195h138l40 70h15v-188h-15l-40 70h-138v-215h214l61 120h16v-171h-485zM171 694v56h280v-56h-280zM303 815l-129 85q-23 16 -30 33t-7 34h99l84 -152h-17z" />
    <glyph glyph-name="uni1E17.sc" unicode="&#x1e17;" horiz-adv-x="596" 
d="M52 0v16l73 33v462l-73 33v16h460v-147h-16l-58 96h-192v-195h138l40 70h15v-188h-15l-40 70h-138v-215h214l61 120h16v-171h-485zM171 694v56h280v-56h-280zM301 815l85 152h98q0 -17 -7 -34t-30 -33l-128 -85h-18z" />
    <glyph glyph-name="uni1E1D.sc" unicode="&#x1e1d;" horiz-adv-x="596" 
d="M311 645q-69 0 -102 41.5t-52 125.5h17q19 -42 39 -62t44 -26t54 -6q29 0 52.5 6t44 26t39.5 62h17q-20 -84 -54 -125.5t-99 -41.5zM52 0v16l73 33v462l-73 33v16h460v-147h-16l-58 96h-192v-195h138l40 70h15v-188h-15l-40 70h-138v-215h214l61 120h16v-171h-199
l-22 -48q58 -17 81 -40t23 -63q0 -38 -27 -63.5t-75 -25.5q-55 0 -82 26v16h3q13 -6 28 -8.5t32 -2.5q29 0 42 10.5t13 27.5q0 22 -20.5 36.5t-79.5 31.5l48 103h-250z" />
    <glyph glyph-name="uni011D.sc" unicode="&#x11d;" horiz-adv-x="679" 
d="M356 -10q-84 0 -151.5 35.5t-107 98t-39.5 143.5q0 67 25.5 122.5t69.5 96t102.5 62.5t124.5 22q67 0 108 -11.5t78 -29.5l7 -146h-15l-66 105q-31 20 -54.5 28t-53.5 8q-63 0 -109.5 -29.5t-72.5 -82t-26 -119.5q0 -77 26 -134t72.5 -87.5t108.5 -30.5q20 0 40 2.5
t40 8.5v149l-76 37v14h254v-14l-62 -39v-137q-25 -22 -62 -38t-79 -25t-82 -9zM204 635l134 177h40l134 -177h-17l-137 88l-137 -88h-17z" />
    <glyph glyph-name="uni011F.sc" unicode="&#x11f;" horiz-adv-x="679" 
d="M356 -10q-84 0 -151.5 35.5t-107 98t-39.5 143.5q0 67 25.5 122.5t69.5 96t102.5 62.5t124.5 22q67 0 108 -11.5t78 -29.5l7 -146h-15l-66 105q-31 20 -54.5 28t-53.5 8q-63 0 -109.5 -29.5t-72.5 -82t-26 -119.5q0 -77 26 -134t72.5 -87.5t108.5 -30.5q20 0 40 2.5
t40 8.5v149l-76 37v14h254v-14l-62 -39v-137q-25 -22 -62 -38t-79 -25t-82 -9zM358 645q-69 0 -102 41.5t-52 125.5h17q19 -42 39.5 -62t44 -26t53.5 -6t53.5 6t43.5 26t40 62h17q-20 -84 -54.5 -125.5t-99.5 -41.5z" />
    <glyph glyph-name="uni0121.sc" unicode="&#x121;" horiz-adv-x="679" 
d="M356 -10q-84 0 -151.5 35.5t-107 98t-39.5 143.5q0 67 25.5 122.5t69.5 96t102.5 62.5t124.5 22q67 0 108 -11.5t78 -29.5l7 -146h-15l-66 105q-31 20 -54.5 28t-53.5 8q-63 0 -109.5 -29.5t-72.5 -82t-26 -119.5q0 -77 26 -134t72.5 -87.5t108.5 -30.5q20 0 40 2.5
t40 8.5v149l-76 37v14h254v-14l-62 -39v-137q-25 -22 -62 -38t-79 -25t-82 -9zM358 655q-28 0 -48 20t-20 48t20 48t48 20t48 -20t20 -48t-20 -48t-48 -20z" />
    <glyph glyph-name="uni0123.sc" unicode="&#x123;" horiz-adv-x="679" 
d="M356 -10q-84 0 -151.5 35.5t-107 98t-39.5 143.5q0 67 25.5 122.5t69.5 96t102.5 62.5t124.5 22q67 0 108 -11.5t78 -29.5l7 -146h-15l-66 105q-31 20 -54.5 28t-53.5 8q-63 0 -109.5 -29.5t-72.5 -82t-26 -119.5q0 -77 26 -134t72.5 -87.5t108.5 -30.5q20 0 40 2.5
t40 8.5v149l-76 37v14h254v-14l-62 -39v-137q-25 -22 -62 -38t-79 -25t-82 -9zM382 642q-52 0 -78.5 21t-26.5 59q0 40 31 61.5t80 21.5q8 0 17 -1t17 -3v-17q-7 1 -14.5 2t-12.5 1q-25 0 -39 -9t-14 -27q0 -22 19.5 -30.5t60.5 -8.5v-49q0 -9 -8.5 -15t-31.5 -6z" />
    <glyph glyph-name="uni01E7.sc" unicode="&#x1e7;" horiz-adv-x="679" 
d="M356 -10q-84 0 -151.5 35.5t-107 98t-39.5 143.5q0 67 25.5 122.5t69.5 96t102.5 62.5t124.5 22q67 0 108 -11.5t78 -29.5l7 -146h-15l-66 105q-31 20 -54.5 28t-53.5 8q-63 0 -109.5 -29.5t-72.5 -82t-26 -119.5q0 -77 26 -134t72.5 -87.5t108.5 -30.5q20 0 40 2.5
t40 8.5v149l-76 37v14h254v-14l-62 -39v-137q-25 -22 -62 -38t-79 -25t-82 -9zM338 635l-134 177h17l137 -88l137 88h17l-134 -177h-40z" />
    <glyph glyph-name="uni1E21.sc" unicode="&#x1e21;" horiz-adv-x="679" 
d="M356 -10q-84 0 -151.5 35.5t-107 98t-39.5 143.5q0 67 25.5 122.5t69.5 96t102.5 62.5t124.5 22q67 0 108 -11.5t78 -29.5l7 -146h-15l-66 105q-31 20 -54.5 28t-53.5 8q-63 0 -109.5 -29.5t-72.5 -82t-26 -119.5q0 -77 26 -134t72.5 -87.5t108.5 -30.5q20 0 40 2.5
t40 8.5v149l-76 37v14h254v-14l-62 -39v-137q-25 -22 -62 -38t-79 -25t-82 -9zM218 694v56h280v-56h-280z" />
    <glyph glyph-name="uni0125.sc" unicode="&#x125;" horiz-adv-x="746" 
d="M52 0v16l73 33v462l-73 33v16h265v-16l-71 -33v-196h255v196l-71 33v16h264v-16l-72 -33v-462l72 -33v-16h-264v16l71 33v215h-255v-215l71 -33v-16h-265zM220 635l134 177h40l134 -177h-17l-137 88l-137 -88h-17z" />
    <glyph glyph-name="uni0127.sc" unicode="&#x127;" horiz-adv-x="746" 
d="M52 0v16l73 33v350h-73v47h73v65l-73 33v16h265v-16l-71 -33v-65h255v65l-71 33v16h264v-16l-72 -33v-65h72v-47h-72v-350l72 -33v-16h-264v16l71 33v215h-255v-215l71 -33v-16h-265zM246 315h255v84h-255v-84z" />
    <glyph glyph-name="uni1E25.sc" unicode="&#x1e25;" horiz-adv-x="746" 
d="M52 0v16l73 33v462l-73 33v16h265v-16l-71 -33v-196h255v196l-71 33v16h264v-16l-72 -33v-462l72 -33v-16h-264v16l71 33v215h-255v-215l71 -33v-16h-265zM374 -220q-28 0 -48 20t-20 48t20 48t48 20t48 -20t20 -48t-20 -48t-48 -20z" />
    <glyph glyph-name="uni1E2B.sc" unicode="&#x1e2b;" horiz-adv-x="746" 
d="M52 0v16l73 33v462l-73 33v16h265v-16l-71 -33v-196h255v196l-71 33v16h264v-16l-72 -33v-462l72 -33v-16h-264v16l71 33v215h-255v-215l71 -33v-16h-265zM374 -240q-69 0 -102 41.5t-52 125.5h17q19 -42 39.5 -62t44 -26t53.5 -6t53.5 6t43.5 26t40 62h17
q-20 -84 -54.5 -125.5t-99.5 -41.5z" />
    <glyph glyph-name="uni00EC.sc" unicode="&#xec;" horiz-adv-x="369" 
d="M56 0v16l66 33v462l-66 33v16h257v-16l-70 -33v-462l70 -33v-16h-257zM175 635l-129 110q-22 19 -29.5 34.5t-7.5 32.5h99l84 -177h-17z" />
    <glyph glyph-name="uni00ED.sc" unicode="&#xed;" horiz-adv-x="369" 
d="M56 0v16l66 33v462l-66 33v16h257v-16l-70 -33v-462l70 -33v-16h-257zM178 635l85 177h98q0 -17 -7.5 -32.5t-29.5 -34.5l-128 -110h-18z" />
    <glyph glyph-name="uni00EE.sc" unicode="&#xee;" horiz-adv-x="369" 
d="M56 0v16l66 33v462l-66 33v16h257v-16l-70 -33v-462l70 -33v-16h-257zM29 635l134 177h40l134 -177h-17l-137 88l-137 -88h-17z" />
    <glyph glyph-name="uni0129.sc" unicode="&#x129;" horiz-adv-x="369" 
d="M56 0v16l66 33v462l-66 33v16h257v-16l-70 -33v-462l70 -33v-16h-257zM23 657q19 58 34.5 86t31.5 37t36 9t38.5 -9.5t35.5 -22.5t33 -22.5t32 -9.5q18 0 31 12.5t29 51.5h19q-19 -58 -34.5 -86t-31.5 -37t-36 -9t-38.5 9.5t-35.5 22.5t-33 22.5t-32 9.5q-18 0 -31 -12.5
t-29 -51.5h-19z" />
    <glyph glyph-name="uni00EF.sc" unicode="&#xef;" horiz-adv-x="369" 
d="M56 0v16l66 33v462l-66 33v16h257v-16l-70 -33v-462l70 -33v-16h-257zM87 668q-24 0 -39.5 15.5t-15.5 38.5t15.5 38.5t39.5 15.5q23 0 38.5 -15.5t15.5 -38.5t-15.5 -38.5t-38.5 -15.5zM279 668q-24 0 -39 15.5t-15 38.5t15 38.5t39 15.5t39 -15.5t15 -38.5t-15 -38.5
t-39 -15.5z" />
    <glyph glyph-name="uni012B.sc" unicode="&#x12b;" horiz-adv-x="369" 
d="M56 0v16l66 33v462l-66 33v16h257v-16l-70 -33v-462l70 -33v-16h-257zM43 694v56h280v-56h-280z" />
    <glyph glyph-name="uni012D.sc" unicode="&#x12d;" horiz-adv-x="369" 
d="M56 0v16l66 33v462l-66 33v16h257v-16l-70 -33v-462l70 -33v-16h-257zM183 645q-69 0 -102 41.5t-52 125.5h17q19 -42 39.5 -62t44 -26t53.5 -6t53.5 6t43.5 26t40 62h17q-20 -84 -54.5 -125.5t-99.5 -41.5z" />
    <glyph glyph-name="uni012F.sc" unicode="&#x12f;" horiz-adv-x="369" 
d="M56 0v16l66 33v462l-66 33v16h257v-16l-70 -33v-462l70 -33v-16h-104q-43 -70 -43 -128q0 -63 61 -63q11 0 24 3.5t25 10.5h3v-15q-27 -48 -88 -48q-44 0 -72 24t-28 65q0 36 24 72.5t62 78.5h-121z" />
    <glyph glyph-name="uni1ECB.sc" unicode="&#x1ecb;" horiz-adv-x="369" 
d="M56 0v16l66 33v462l-66 33v16h257v-16l-70 -33v-462l70 -33v-16h-257zM183 -220q-28 0 -48 20t-20 48t20 48t48 20t48 -20t20 -48t-20 -48t-48 -20z" />
    <glyph glyph-name="uni0209.sc" unicode="&#x209;" horiz-adv-x="369" 
d="M56 0v16l66 33v462l-66 33v16h257v-16l-70 -33v-462l70 -33v-16h-257zM110 635l-108 114q-16 16 -17 32t5 31h74l63 -177h-17zM237 635l-95 114q-14 18 -15.5 33t3.5 30h74l51 -177h-18z" />
    <glyph glyph-name="uni020B.sc" unicode="&#x20b;" horiz-adv-x="369" 
d="M56 0v16l66 33v462l-66 33v16h257v-16l-70 -33v-462l70 -33v-16h-257zM29 645q20 84 54.5 125.5t99.5 41.5q69 0 102 -41.5t52 -125.5h-17q-19 42 -39.5 62t-44 26t-53.5 6t-53.5 -6t-43.5 -26t-40 -62h-17z" />
    <glyph glyph-name="uni1EC9.sc" unicode="&#x1ec9;" horiz-adv-x="369" 
d="M56 0v16l66 33v462l-66 33v16h257v-16l-70 -33v-462l70 -33v-16h-257zM131 647v1q32 12 48.5 23t16.5 32q0 16 -16.5 27t-58.5 18l13 64q68 -6 95 -30.5t27 -50.5q0 -40 -29.5 -62t-87.5 -30z" />
    <glyph glyph-name="uni1E2F.sc" unicode="&#x1e2f;" horiz-adv-x="369" 
d="M56 0v16l66 33v462l-66 33v16h257v-16l-70 -33v-462l70 -33v-16h-257zM87 668q-24 0 -39.5 15.5t-15.5 38.5t15.5 38.5t39.5 15.5q23 0 38.5 -15.5t15.5 -38.5t-15.5 -38.5t-38.5 -15.5zM279 668q-24 0 -39 15.5t-15 38.5t15 38.5t39 15.5t39 -15.5t15 -38.5t-15 -38.5
t-39 -15.5zM173 815l85 152h98q0 -17 -7 -34t-30 -33l-128 -85h-18z" />
    <glyph glyph-name="uni0133.sc" unicode="&#x133;" horiz-adv-x="746" 
d="M56 0v16l66 33v462l-66 33v16h257v-16l-70 -33v-462l70 -33v-16h-257zM420 -147q-14 0 -25.5 6t-11.5 23q0 2 3 17t7 39h7q12 -4 20.5 -6t18.5 -2q20 0 33 9.5t19.5 37.5t6.5 84v450l-71 34v15h263v-15l-71 -34v-314q0 -68 -14.5 -122t-35 -92.5t-39.5 -60.5
q-30 -34 -55.5 -51.5t-54.5 -17.5z" />
    <glyph glyph-name="jacute.sc" horiz-adv-x="377" 
d="M51 -147q-14 0 -25.5 6t-11.5 23q0 2 3 17t7 39h7q12 -4 20.5 -6t18.5 -2q20 0 33 9.5t19.5 37.5t6.5 84v450l-71 34v15h263v-15l-71 -34v-314q0 -68 -14.5 -122t-35 -92.5t-39.5 -60.5q-30 -34 -55.5 -51.5t-54.5 -17.5zM177 635l85 177h98q0 -17 -7.5 -32.5
t-29.5 -34.5l-128 -110h-18z" />
    <glyph glyph-name="uni0135.sc" unicode="&#x135;" horiz-adv-x="377" 
d="M51 -147q-14 0 -25.5 6t-11.5 23q0 2 3 17t7 39h7q12 -4 20.5 -6t18.5 -2q20 0 33 9.5t19.5 37.5t6.5 84v450l-71 34v15h263v-15l-71 -34v-314q0 -68 -14.5 -122t-35 -92.5t-39.5 -60.5q-30 -34 -55.5 -51.5t-54.5 -17.5zM29 635l134 177h40l134 -177h-17l-137 88
l-137 -88h-17z" />
    <glyph glyph-name="uni0137.sc" unicode="&#x137;" horiz-adv-x="702" 
d="M53 0v16l74 33v462l-74 33v16h267v-16l-73 -33v-462l73 -33v-16h-267zM496 0l-249 284l231 231l-62 29v16h204v-16l-59 -24l-201 -193l251 -285l67 -26v-16h-182zM335 -239q-8 0 -17.5 0.5t-16.5 2.5v18q7 -2 14.5 -3t12.5 -1q25 0 39 9t14 27q0 23 -19.5 31t-61.5 8v49
q0 9 8.5 15t32.5 6q52 0 78.5 -20.5t26.5 -58.5q0 -40 -31 -61.5t-80 -21.5z" />
    <glyph glyph-name="uni013A.sc" unicode="&#x13a;" horiz-adv-x="588" 
d="M52 0v16l73 33v462l-73 33v16h276v-16l-82 -33v-460h198l68 154h16v-205h-476zM181 635l85 177h98q0 -17 -7.5 -32.5t-29.5 -34.5l-128 -110h-18z" />
    <glyph glyph-name="uni013E.sc" unicode="&#x13e;" horiz-adv-x="588" 
d="M52 0v16l73 33v462l-73 33v16h276v-16l-82 -33v-460h198l68 154h16v-205h-476zM388 373l18 187h89q3 -14 2.5 -29.5t-13.5 -35.5l-79 -122h-17z" />
    <glyph glyph-name="uni013C.sc" unicode="&#x13c;" horiz-adv-x="588" 
d="M52 0v16l73 33v462l-73 33v16h276v-16l-82 -33v-460h198l68 154h16v-205h-476zM288 -239q-8 0 -17.5 0.5t-16.5 2.5v18q7 -2 14.5 -3t12.5 -1q25 0 39 9t14 27q0 23 -19.5 31t-61.5 8v49q0 9 8.5 15t32.5 6q52 0 78.5 -20.5t26.5 -58.5q0 -40 -31 -61.5t-80 -21.5z" />
    <glyph glyph-name="uni0142.sc" unicode="&#x142;" horiz-adv-x="588" 
d="M52 0v16l73 33v142l-73 -47v55l73 48v264l-73 33v16h276v-16l-82 -33v-199l123 79v-55l-123 -80v-205h198l68 154h16v-205h-476z" />
    <glyph glyph-name="uni0140.sc" unicode="&#x140;" horiz-adv-x="588" 
d="M52 0v16l73 33v462l-73 33v16h276v-16l-82 -33v-460h198l68 154h16v-205h-476zM472 232q-28 0 -48 20t-20 48t20 48t48 20t48 -20t20 -48t-20 -48t-48 -20z" />
    <glyph glyph-name="uni1E37.sc" unicode="&#x1e37;" horiz-adv-x="588" 
d="M52 0v16l73 33v462l-73 33v16h276v-16l-82 -33v-460h198l68 154h16v-205h-476zM325 -220q-28 0 -48 20t-20 48t20 48t48 20t48 -20t20 -48t-20 -48t-48 -20z" />
    <glyph glyph-name="uni1E3B.sc" unicode="&#x1e3b;" horiz-adv-x="588" 
d="M52 0v16l73 33v462l-73 33v16h276v-16l-82 -33v-460h198l68 154h16v-205h-476zM185 -177v56h280v-56h-280z" />
    <glyph glyph-name="uni1E43.sc" unicode="&#x1e43;" horiz-adv-x="884" 
d="M49 0v16l73 33l18 462l-76 33v16h213l173 -389l176 389h204v-16l-74 -26l14 -469l65 -33v-16h-255v16l67 32l-8 409l-208 -461h-36l-203 460l-10 -408l74 -32v-16h-207zM413 -220q-28 0 -48 20t-20 48t20 48t48 20t48 -20t20 -48t-20 -48t-48 -20z" />
    <glyph glyph-name="uni0144.sc" unicode="&#x144;" horiz-adv-x="728" 
d="M49 0v16l73 33v463l-73 32v16h165l335 -386v338l-92 32v16h222v-16l-71 -32v-516h-58l-369 422v-367l92 -35v-16h-224zM365 635l85 177h98q0 -17 -7.5 -32.5t-29.5 -34.5l-128 -110h-18z" />
    <glyph glyph-name="uni0148.sc" unicode="&#x148;" horiz-adv-x="728" 
d="M49 0v16l73 33v463l-73 32v16h165l335 -386v338l-92 32v16h222v-16l-71 -32v-516h-58l-369 422v-367l92 -35v-16h-224zM351 635l-134 177h17l137 -88l137 88h17l-134 -177h-40z" />
    <glyph glyph-name="uni00F1.sc" unicode="&#xf1;" horiz-adv-x="728" 
d="M49 0v16l73 33v463l-73 32v16h165l335 -386v338l-92 32v16h222v-16l-71 -32v-516h-58l-369 422v-367l92 -35v-16h-224zM211 657q19 58 34.5 86t31.5 37t36 9t38.5 -9.5t35.5 -22.5t33 -22.5t32 -9.5q18 0 31 12.5t29 51.5h19q-19 -58 -34.5 -86t-31.5 -37t-36 -9
t-38.5 9.5t-35.5 22.5t-33 22.5t-32 9.5q-18 0 -31 -12.5t-29 -51.5h-19z" />
    <glyph glyph-name="uni0146.sc" unicode="&#x146;" horiz-adv-x="728" 
d="M49 0v16l73 33v463l-73 32v16h165l335 -386v338l-92 32v16h222v-16l-71 -32v-516h-58l-369 422v-367l92 -35v-16h-224zM339 -239q-8 0 -17.5 0.5t-16.5 2.5v18q7 -2 14.5 -3t12.5 -1q25 0 39 9t14 27q0 23 -19.5 31t-61.5 8v49q0 9 8.5 15t32.5 6q52 0 78.5 -20.5
t26.5 -58.5q0 -40 -31 -61.5t-80 -21.5z" />
    <glyph glyph-name="uni1E45.sc" unicode="&#x1e45;" horiz-adv-x="728" 
d="M49 0v16l73 33v463l-73 32v16h165l335 -386v338l-92 32v16h222v-16l-71 -32v-516h-58l-369 422v-367l92 -35v-16h-224zM371 655q-28 0 -48 20t-20 48t20 48t48 20t48 -20t20 -48t-20 -48t-48 -20z" />
    <glyph glyph-name="uni1E47.sc" unicode="&#x1e47;" horiz-adv-x="728" 
d="M49 0v16l73 33v463l-73 32v16h165l335 -386v338l-92 32v16h222v-16l-71 -32v-516h-58l-369 422v-367l92 -35v-16h-224zM376 -220q-28 0 -48 20t-20 48t20 48t48 20t48 -20t20 -48t-20 -48t-48 -20z" />
    <glyph glyph-name="uni1E49.sc" unicode="&#x1e49;" horiz-adv-x="728" 
d="M49 0v16l73 33v463l-73 32v16h165l335 -386v338l-92 32v16h222v-16l-71 -32v-516h-58l-369 422v-367l92 -35v-16h-224zM236 -177v56h280v-56h-280z" />
    <glyph glyph-name="uni00F2.sc" unicode="&#xf2;" horiz-adv-x="706" 
d="M352 -10q-85 0 -151.5 37.5t-104.5 103t-38 149.5t38 150t104.5 103.5t151.5 37.5q86 0 152.5 -37.5t105 -103.5t38.5 -150t-38.5 -149.5t-105 -103t-152.5 -37.5zM367 41q73 0 115 59.5t42 154.5q0 79 -23.5 138.5t-65 93.5t-94.5 34q-73 0 -116 -59.5t-43 -153.5
q0 -78 23.5 -138.5t65 -94.5t96.5 -34zM338 635l-129 110q-22 19 -29.5 34.5t-7.5 32.5h99l84 -177h-17z" />
    <glyph glyph-name="uni00F3.sc" unicode="&#xf3;" horiz-adv-x="706" 
d="M352 -10q-85 0 -151.5 37.5t-104.5 103t-38 149.5t38 150t104.5 103.5t151.5 37.5q86 0 152.5 -37.5t105 -103.5t38.5 -150t-38.5 -149.5t-105 -103t-152.5 -37.5zM367 41q73 0 115 59.5t42 154.5q0 79 -23.5 138.5t-65 93.5t-94.5 34q-73 0 -116 -59.5t-43 -153.5
q0 -78 23.5 -138.5t65 -94.5t96.5 -34zM341 635l85 177h98q0 -17 -7.5 -32.5t-29.5 -34.5l-128 -110h-18z" />
    <glyph glyph-name="uni00F4.sc" unicode="&#xf4;" horiz-adv-x="706" 
d="M352 -10q-85 0 -151.5 37.5t-104.5 103t-38 149.5t38 150t104.5 103.5t151.5 37.5q86 0 152.5 -37.5t105 -103.5t38.5 -150t-38.5 -149.5t-105 -103t-152.5 -37.5zM367 41q73 0 115 59.5t42 154.5q0 79 -23.5 138.5t-65 93.5t-94.5 34q-73 0 -116 -59.5t-43 -153.5
q0 -78 23.5 -138.5t65 -94.5t96.5 -34zM192 635l134 177h40l134 -177h-17l-137 88l-137 -88h-17z" />
    <glyph glyph-name="uni00F5.sc" unicode="&#xf5;" horiz-adv-x="706" 
d="M352 -10q-85 0 -151.5 37.5t-104.5 103t-38 149.5t38 150t104.5 103.5t151.5 37.5q86 0 152.5 -37.5t105 -103.5t38.5 -150t-38.5 -149.5t-105 -103t-152.5 -37.5zM367 41q73 0 115 59.5t42 154.5q0 79 -23.5 138.5t-65 93.5t-94.5 34q-73 0 -116 -59.5t-43 -153.5
q0 -78 23.5 -138.5t65 -94.5t96.5 -34zM186 657q19 58 34.5 86t31.5 37t36 9t38.5 -9.5t35.5 -22.5t33 -22.5t32 -9.5q18 0 31 12.5t29 51.5h19q-19 -58 -34.5 -86t-31.5 -37t-36 -9t-38.5 9.5t-35.5 22.5t-33 22.5t-32 9.5q-18 0 -31 -12.5t-29 -51.5h-19z" />
    <glyph glyph-name="uni00F6.sc" unicode="&#xf6;" horiz-adv-x="706" 
d="M352 -10q-85 0 -151.5 37.5t-104.5 103t-38 149.5t38 150t104.5 103.5t151.5 37.5q86 0 152.5 -37.5t105 -103.5t38.5 -150t-38.5 -149.5t-105 -103t-152.5 -37.5zM367 41q73 0 115 59.5t42 154.5q0 79 -23.5 138.5t-65 93.5t-94.5 34q-73 0 -116 -59.5t-43 -153.5
q0 -78 23.5 -138.5t65 -94.5t96.5 -34zM250 668q-24 0 -39.5 15.5t-15.5 38.5t15.5 38.5t39.5 15.5q23 0 38.5 -15.5t15.5 -38.5t-15.5 -38.5t-38.5 -15.5zM442 668q-24 0 -39 15.5t-15 38.5t15 38.5t39 15.5t39 -15.5t15 -38.5t-15 -38.5t-39 -15.5z" />
    <glyph glyph-name="uni014D.sc" unicode="&#x14d;" horiz-adv-x="706" 
d="M352 -10q-85 0 -151.5 37.5t-104.5 103t-38 149.5t38 150t104.5 103.5t151.5 37.5q86 0 152.5 -37.5t105 -103.5t38.5 -150t-38.5 -149.5t-105 -103t-152.5 -37.5zM367 41q73 0 115 59.5t42 154.5q0 79 -23.5 138.5t-65 93.5t-94.5 34q-73 0 -116 -59.5t-43 -153.5
q0 -78 23.5 -138.5t65 -94.5t96.5 -34zM206 694v56h280v-56h-280z" />
    <glyph glyph-name="uni014F.sc" unicode="&#x14f;" horiz-adv-x="706" 
d="M352 -10q-85 0 -151.5 37.5t-104.5 103t-38 149.5t38 150t104.5 103.5t151.5 37.5q86 0 152.5 -37.5t105 -103.5t38.5 -150t-38.5 -149.5t-105 -103t-152.5 -37.5zM367 41q73 0 115 59.5t42 154.5q0 79 -23.5 138.5t-65 93.5t-94.5 34q-73 0 -116 -59.5t-43 -153.5
q0 -78 23.5 -138.5t65 -94.5t96.5 -34zM346 645q-69 0 -102 41.5t-52 125.5h17q19 -42 39.5 -62t44 -26t53.5 -6t53.5 6t43.5 26t40 62h17q-20 -84 -54.5 -125.5t-99.5 -41.5z" />
    <glyph glyph-name="uni0151.sc" unicode="&#x151;" horiz-adv-x="706" 
d="M352 -10q-85 0 -151.5 37.5t-104.5 103t-38 149.5t38 150t104.5 103.5t151.5 37.5q86 0 152.5 -37.5t105 -103.5t38.5 -150t-38.5 -149.5t-105 -103t-152.5 -37.5zM367 41q73 0 115 59.5t42 154.5q0 79 -23.5 138.5t-65 93.5t-94.5 34q-73 0 -116 -59.5t-43 -153.5
q0 -78 23.5 -138.5t65 -94.5t96.5 -34zM267 635l46 177h74q5 -15 3 -30t-15 -33l-90 -114h-18zM395 635l59 177h74q5 -15 4.5 -30.5t-16.5 -32.5l-104 -114h-17z" />
    <glyph glyph-name="uni1ECD.sc" unicode="&#x1ecd;" horiz-adv-x="706" 
d="M352 -10q-85 0 -151.5 37.5t-104.5 103t-38 149.5t38 150t104.5 103.5t151.5 37.5q86 0 152.5 -37.5t105 -103.5t38.5 -150t-38.5 -149.5t-105 -103t-152.5 -37.5zM367 41q73 0 115 59.5t42 154.5q0 79 -23.5 138.5t-65 93.5t-94.5 34q-73 0 -116 -59.5t-43 -153.5
q0 -78 23.5 -138.5t65 -94.5t96.5 -34zM360 -220q-28 0 -48 20t-20 48t20 48t48 20t48 -20t20 -48t-20 -48t-48 -20z" />
    <glyph glyph-name="uni01EB.sc" unicode="&#x1eb;" horiz-adv-x="706" 
d="M365 -240q-45 0 -72.5 24t-27.5 65q0 34 21 68t56 73q-82 2 -146.5 40.5t-101 103t-36.5 146.5q0 84 38 150t104.5 103.5t151.5 37.5q86 0 152.5 -37.5t105 -103.5t38.5 -150q0 -79 -35 -142.5t-96 -102t-140 -44.5q-37 -64 -37 -119q0 -63 61 -63q11 0 24 3.5t24 10.5h3
v-15q-13 -22 -35 -35t-52 -13zM367 41q73 0 115 59.5t42 154.5q0 79 -23.5 138.5t-65 93.5t-94.5 34q-73 0 -116 -59.5t-43 -153.5q0 -78 23.5 -138.5t65 -94.5t96.5 -34z" />
    <glyph glyph-name="uni020D.sc" unicode="&#x20d;" horiz-adv-x="706" 
d="M352 -10q-85 0 -151.5 37.5t-104.5 103t-38 149.5t38 150t104.5 103.5t151.5 37.5q86 0 152.5 -37.5t105 -103.5t38.5 -150t-38.5 -149.5t-105 -103t-152.5 -37.5zM367 41q73 0 115 59.5t42 154.5q0 79 -23.5 138.5t-65 93.5t-94.5 34q-73 0 -116 -59.5t-43 -153.5
q0 -78 23.5 -138.5t65 -94.5t96.5 -34zM274 635l-108 114q-16 16 -17 32t5 31h74l63 -177h-17zM401 635l-95 114q-14 18 -15.5 33t3.5 30h74l51 -177h-18z" />
    <glyph glyph-name="uni020F.sc" unicode="&#x20f;" horiz-adv-x="706" 
d="M352 -10q-85 0 -151.5 37.5t-104.5 103t-38 149.5t38 150t104.5 103.5t151.5 37.5q86 0 152.5 -37.5t105 -103.5t38.5 -150t-38.5 -149.5t-105 -103t-152.5 -37.5zM367 41q73 0 115 59.5t42 154.5q0 79 -23.5 138.5t-65 93.5t-94.5 34q-73 0 -116 -59.5t-43 -153.5
q0 -78 23.5 -138.5t65 -94.5t96.5 -34zM192 645q20 84 54.5 125.5t99.5 41.5q69 0 102 -41.5t52 -125.5h-17q-19 42 -39.5 62t-44 26t-53.5 6t-53.5 -6t-43.5 -26t-40 -62h-17z" />
    <glyph glyph-name="uni022B.sc" unicode="&#x22b;" horiz-adv-x="706" 
d="M352 -10q-85 0 -151.5 37.5t-104.5 103t-38 149.5t38 150t104.5 103.5t151.5 37.5q86 0 152.5 -37.5t105 -103.5t38.5 -150t-38.5 -149.5t-105 -103t-152.5 -37.5zM367 41q73 0 115 59.5t42 154.5q0 79 -23.5 138.5t-65 93.5t-94.5 34q-73 0 -116 -59.5t-43 -153.5
q0 -78 23.5 -138.5t65 -94.5t96.5 -34zM250 668q-24 0 -39.5 15.5t-15.5 38.5t15.5 38.5t39.5 15.5q23 0 38.5 -15.5t15.5 -38.5t-15.5 -38.5t-38.5 -15.5zM442 668q-24 0 -39 15.5t-15 38.5t15 38.5t39 15.5t39 -15.5t15 -38.5t-15 -38.5t-39 -15.5zM206 865v55h280v-55
h-280z" />
    <glyph glyph-name="uni022D.sc" unicode="&#x22d;" horiz-adv-x="706" 
d="M352 -10q-85 0 -151.5 37.5t-104.5 103t-38 149.5t38 150t104.5 103.5t151.5 37.5q86 0 152.5 -37.5t105 -103.5t38.5 -150t-38.5 -149.5t-105 -103t-152.5 -37.5zM367 41q73 0 115 59.5t42 154.5q0 79 -23.5 138.5t-65 93.5t-94.5 34q-73 0 -116 -59.5t-43 -153.5
q0 -78 23.5 -138.5t65 -94.5t96.5 -34zM186 657q19 58 34.5 86t31.5 37t36 9t38.5 -9.5t35.5 -22.5t33 -22.5t32 -9.5q18 0 31 12.5t29 51.5h19q-19 -58 -34.5 -86t-31.5 -37t-36 -9t-38.5 9.5t-35.5 22.5t-33 22.5t-32 9.5q-18 0 -31 -12.5t-29 -51.5h-19zM206 865v55h280
v-55h-280z" />
    <glyph glyph-name="uni0231.sc" unicode="&#x231;" horiz-adv-x="706" 
d="M352 -10q-85 0 -151.5 37.5t-104.5 103t-38 149.5t38 150t104.5 103.5t151.5 37.5q86 0 152.5 -37.5t105 -103.5t38.5 -150t-38.5 -149.5t-105 -103t-152.5 -37.5zM367 41q73 0 115 59.5t42 154.5q0 79 -23.5 138.5t-65 93.5t-94.5 34q-73 0 -116 -59.5t-43 -153.5
q0 -78 23.5 -138.5t65 -94.5t96.5 -34zM346 655q-28 0 -48 20t-20 48t20 48t48 20t48 -20t20 -48t-20 -48t-48 -20zM206 865v55h280v-55h-280z" />
    <glyph glyph-name="uni1ED1.sc" unicode="&#x1ed1;" horiz-adv-x="706" 
d="M352 -10q-85 0 -151.5 37.5t-104.5 103t-38 149.5t38 150t104.5 103.5t151.5 37.5q86 0 152.5 -37.5t105 -103.5t38.5 -150t-38.5 -149.5t-105 -103t-152.5 -37.5zM367 41q73 0 115 59.5t42 154.5q0 79 -23.5 138.5t-65 93.5t-94.5 34q-73 0 -116 -59.5t-43 -153.5
q0 -78 23.5 -138.5t65 -94.5t96.5 -34zM458 742l41 143h91q0 -15 -7 -28t-23 -28l-87 -87h-15zM192 635l134 177h40l134 -177h-17l-137 88l-137 -88h-17z" />
    <glyph glyph-name="uni1ED9.sc" unicode="&#x1ed9;" horiz-adv-x="706" 
d="M352 -10q-85 0 -151.5 37.5t-104.5 103t-38 149.5t38 150t104.5 103.5t151.5 37.5q86 0 152.5 -37.5t105 -103.5t38.5 -150t-38.5 -149.5t-105 -103t-152.5 -37.5zM367 41q73 0 115 59.5t42 154.5q0 79 -23.5 138.5t-65 93.5t-94.5 34q-73 0 -116 -59.5t-43 -153.5
q0 -78 23.5 -138.5t65 -94.5t96.5 -34zM192 635l134 177h40l134 -177h-17l-137 88l-137 -88h-17zM360 -220q-28 0 -48 20t-20 48t20 48t48 20t48 -20t20 -48t-20 -48t-48 -20z" />
    <glyph glyph-name="uni1ED3.sc" unicode="&#x1ed3;" horiz-adv-x="706" 
d="M352 -10q-85 0 -151.5 37.5t-104.5 103t-38 149.5t38 150t104.5 103.5t151.5 37.5q86 0 152.5 -37.5t105 -103.5t38.5 -150t-38.5 -149.5t-105 -103t-152.5 -37.5zM367 41q73 0 115 59.5t42 154.5q0 79 -23.5 138.5t-65 93.5t-94.5 34q-73 0 -116 -59.5t-43 -153.5
q0 -78 23.5 -138.5t65 -94.5t96.5 -34zM219 742l-87 87q-16 15 -23 28t-7 28h91l41 -143h-15zM192 635l134 177h40l134 -177h-17l-137 88l-137 -88h-17z" />
    <glyph glyph-name="uni1ED5.sc" unicode="&#x1ed5;" horiz-adv-x="706" 
d="M352 -10q-85 0 -151.5 37.5t-104.5 103t-38 149.5t38 150t104.5 103.5t151.5 37.5q86 0 152.5 -37.5t105 -103.5t38.5 -150t-38.5 -149.5t-105 -103t-152.5 -37.5zM367 41q73 0 115 59.5t42 154.5q0 79 -23.5 138.5t-65 93.5t-94.5 34q-73 0 -116 -59.5t-43 -153.5
q0 -78 23.5 -138.5t65 -94.5t96.5 -34zM192 635l134 177h40l134 -177h-17l-137 88l-137 -88h-17zM288 841v1q32 12 48.5 23t16.5 32q0 16 -16.5 27t-58.5 18l13 64q68 -6 95 -30.5t27 -50.5q0 -40 -29.5 -62t-87.5 -30z" />
    <glyph glyph-name="uni1ED7.sc" unicode="&#x1ed7;" horiz-adv-x="706" 
d="M352 -10q-85 0 -151.5 37.5t-104.5 103t-38 149.5t38 150t104.5 103.5t151.5 37.5q86 0 152.5 -37.5t105 -103.5t38.5 -150t-38.5 -149.5t-105 -103t-152.5 -37.5zM367 41q73 0 115 59.5t42 154.5q0 79 -23.5 138.5t-65 93.5t-94.5 34q-73 0 -116 -59.5t-43 -153.5
q0 -78 23.5 -138.5t65 -94.5t96.5 -34zM192 635l134 177h40l134 -177h-17l-137 88l-137 -88h-17zM186 829q16 50 31.5 76t32 35.5t37.5 9.5q28 0 51.5 -13.5t45.5 -26.5t44 -13q18 0 32 10t27 43h19q-16 -51 -31.5 -77t-32 -35t-37.5 -9q-28 0 -51.5 13t-45.5 26t-44 13
q-18 0 -32 -9.5t-27 -42.5h-19z" />
    <glyph glyph-name="uni1ECF.sc" unicode="&#x1ecf;" horiz-adv-x="706" 
d="M352 -10q-85 0 -151.5 37.5t-104.5 103t-38 149.5t38 150t104.5 103.5t151.5 37.5q86 0 152.5 -37.5t105 -103.5t38.5 -150t-38.5 -149.5t-105 -103t-152.5 -37.5zM367 41q73 0 115 59.5t42 154.5q0 79 -23.5 138.5t-65 93.5t-94.5 34q-73 0 -116 -59.5t-43 -153.5
q0 -78 23.5 -138.5t65 -94.5t96.5 -34zM294 647v1q32 12 48.5 23t16.5 32q0 16 -16.5 27t-58.5 18l13 64q68 -6 95 -30.5t27 -50.5q0 -40 -29.5 -62t-87.5 -30z" />
    <glyph glyph-name="uni1E4D.sc" unicode="&#x1e4d;" horiz-adv-x="706" 
d="M352 -10q-85 0 -151.5 37.5t-104.5 103t-38 149.5t38 150t104.5 103.5t151.5 37.5q86 0 152.5 -37.5t105 -103.5t38.5 -150t-38.5 -149.5t-105 -103t-152.5 -37.5zM367 41q73 0 115 59.5t42 154.5q0 79 -23.5 138.5t-65 93.5t-94.5 34q-73 0 -116 -59.5t-43 -153.5
q0 -78 23.5 -138.5t65 -94.5t96.5 -34zM186 657q19 58 34.5 86t31.5 37t36 9t38.5 -9.5t35.5 -22.5t33 -22.5t32 -9.5q18 0 31 12.5t29 51.5h19q-19 -58 -34.5 -86t-31.5 -37t-36 -9t-38.5 9.5t-35.5 22.5t-33 22.5t-32 9.5q-18 0 -31 -12.5t-29 -51.5h-19zM336 815l85 152
h98q0 -17 -7 -34t-30 -33l-128 -85h-18z" />
    <glyph glyph-name="uni1E4F.sc" unicode="&#x1e4f;" horiz-adv-x="706" 
d="M352 -10q-85 0 -151.5 37.5t-104.5 103t-38 149.5t38 150t104.5 103.5t151.5 37.5q86 0 152.5 -37.5t105 -103.5t38.5 -150t-38.5 -149.5t-105 -103t-152.5 -37.5zM367 41q73 0 115 59.5t42 154.5q0 79 -23.5 138.5t-65 93.5t-94.5 34q-73 0 -116 -59.5t-43 -153.5
q0 -78 23.5 -138.5t65 -94.5t96.5 -34zM186 657q19 58 34.5 86t31.5 37t36 9t38.5 -9.5t35.5 -22.5t33 -22.5t32 -9.5q18 0 31 12.5t29 51.5h19q-19 -58 -34.5 -86t-31.5 -37t-36 -9t-38.5 9.5t-35.5 22.5t-33 22.5t-32 9.5q-18 0 -31 -12.5t-29 -51.5h-19zM250 836
q-24 0 -39.5 16t-15.5 39q0 22 15.5 38t39.5 16q23 0 38.5 -16t15.5 -38q0 -23 -15.5 -39t-38.5 -16zM442 836q-24 0 -39 16t-15 39q0 22 15 38t39 16t39 -16t15 -38q0 -23 -15 -39t-39 -16z" />
    <glyph glyph-name="uni1E51.sc" unicode="&#x1e51;" horiz-adv-x="706" 
d="M352 -10q-85 0 -151.5 37.5t-104.5 103t-38 149.5t38 150t104.5 103.5t151.5 37.5q86 0 152.5 -37.5t105 -103.5t38.5 -150t-38.5 -149.5t-105 -103t-152.5 -37.5zM367 41q73 0 115 59.5t42 154.5q0 79 -23.5 138.5t-65 93.5t-94.5 34q-73 0 -116 -59.5t-43 -153.5
q0 -78 23.5 -138.5t65 -94.5t96.5 -34zM206 694v56h280v-56h-280zM338 815l-129 85q-23 16 -30 33t-7 34h99l84 -152h-17z" />
    <glyph glyph-name="uni1E53.sc" unicode="&#x1e53;" horiz-adv-x="706" 
d="M352 -10q-85 0 -151.5 37.5t-104.5 103t-38 149.5t38 150t104.5 103.5t151.5 37.5q86 0 152.5 -37.5t105 -103.5t38.5 -150t-38.5 -149.5t-105 -103t-152.5 -37.5zM367 41q73 0 115 59.5t42 154.5q0 79 -23.5 138.5t-65 93.5t-94.5 34q-73 0 -116 -59.5t-43 -153.5
q0 -78 23.5 -138.5t65 -94.5t96.5 -34zM206 694v56h280v-56h-280zM336 815l85 152h98q0 -17 -7 -34t-30 -33l-128 -85h-18z" />
    <glyph glyph-name="uni00F8.sc" unicode="&#xf8;" horiz-adv-x="706" 
d="M58 -10l79 87q-37 39 -58 90.5t-21 112.5q0 84 38 150t104.5 103.5t151.5 37.5q52 0 97.5 -14.5t82.5 -40.5l50 55h66l-79 -88q37 -38 58 -90t21 -113q0 -84 -38.5 -149.5t-105 -103t-152.5 -37.5q-52 0 -97 14.5t-81 40.5l-50 -55h-66zM182 308q0 -85 28 -149l261 289
q-24 35 -57 54t-73 19q-73 0 -116 -59.5t-43 -153.5zM367 41q73 0 115 59.5t42 154.5q0 84 -27 148l-262 -290q25 -34 58.5 -53t73.5 -19z" />
    <glyph glyph-name="uni01FF.sc" unicode="&#x1ff;" horiz-adv-x="706" 
d="M58 -10l79 87q-37 39 -58 90.5t-21 112.5q0 84 38 150t104.5 103.5t151.5 37.5q52 0 97.5 -14.5t82.5 -40.5l50 55h66l-79 -88q37 -38 58 -90t21 -113q0 -84 -38.5 -149.5t-105 -103t-152.5 -37.5q-52 0 -97 14.5t-81 40.5l-50 -55h-66zM182 308q0 -85 28 -149l261 289
q-24 35 -57 54t-73 19q-73 0 -116 -59.5t-43 -153.5zM367 41q73 0 115 59.5t42 154.5q0 84 -27 148l-262 -290q25 -34 58.5 -53t73.5 -19zM341 635l85 177h98q0 -17 -7.5 -32.5t-29.5 -34.5l-128 -110h-18z" />
    <glyph glyph-name="uni01A1.sc" unicode="&#x1a1;" horiz-adv-x="706" 
d="M352 -10q-85 0 -151.5 37.5t-104.5 103t-38 149.5t38 150t104.5 103.5t151.5 37.5q40 0 78 -9v0h1l28 -8q22 -6 37 -6q29 0 41 12.5t12 34.5v43l5 5h43q13 0 18 -5t5 -22q0 -41 -28 -65t-74 -24h-3q61 -38 97 -102t36 -145q0 -84 -38.5 -149.5t-105 -103t-152.5 -37.5z
M367 41q73 0 115 59.5t42 154.5q0 79 -23.5 138.5t-65 93.5t-94.5 34q-73 0 -116 -59.5t-43 -153.5q0 -78 23.5 -138.5t65 -94.5t96.5 -34z" />
    <glyph glyph-name="uni1EDB.sc" unicode="&#x1edb;" horiz-adv-x="706" 
d="M352 -10q-85 0 -151.5 37.5t-104.5 103t-38 149.5t38 150t104.5 103.5t151.5 37.5q40 0 78 -9v0h1l28 -8q22 -6 37 -6q29 0 41 12.5t12 34.5v43l5 5h43q13 0 18 -5t5 -22q0 -41 -28 -65t-74 -24h-3q61 -38 97 -102t36 -145q0 -84 -38.5 -149.5t-105 -103t-152.5 -37.5z
M367 41q73 0 115 59.5t42 154.5q0 79 -23.5 138.5t-65 93.5t-94.5 34q-73 0 -116 -59.5t-43 -153.5q0 -78 23.5 -138.5t65 -94.5t96.5 -34zM341 635l85 177h98q0 -17 -7.5 -32.5t-29.5 -34.5l-128 -110h-18z" />
    <glyph glyph-name="uni1EE3.sc" unicode="&#x1ee3;" horiz-adv-x="706" 
d="M352 -10q-85 0 -151.5 37.5t-104.5 103t-38 149.5t38 150t104.5 103.5t151.5 37.5q40 0 78 -9v0h1l28 -8q22 -6 37 -6q29 0 41 12.5t12 34.5v43l5 5h43q13 0 18 -5t5 -22q0 -41 -28 -65t-74 -24h-3q61 -38 97 -102t36 -145q0 -84 -38.5 -149.5t-105 -103t-152.5 -37.5z
M367 41q73 0 115 59.5t42 154.5q0 79 -23.5 138.5t-65 93.5t-94.5 34q-73 0 -116 -59.5t-43 -153.5q0 -78 23.5 -138.5t65 -94.5t96.5 -34zM360 -220q-28 0 -48 20t-20 48t20 48t48 20t48 -20t20 -48t-20 -48t-48 -20z" />
    <glyph glyph-name="uni1EDD.sc" unicode="&#x1edd;" horiz-adv-x="706" 
d="M352 -10q-85 0 -151.5 37.5t-104.5 103t-38 149.5t38 150t104.5 103.5t151.5 37.5q40 0 78 -9v0h1l28 -8q22 -6 37 -6q29 0 41 12.5t12 34.5v43l5 5h43q13 0 18 -5t5 -22q0 -41 -28 -65t-74 -24h-3q61 -38 97 -102t36 -145q0 -84 -38.5 -149.5t-105 -103t-152.5 -37.5z
M367 41q73 0 115 59.5t42 154.5q0 79 -23.5 138.5t-65 93.5t-94.5 34q-73 0 -116 -59.5t-43 -153.5q0 -78 23.5 -138.5t65 -94.5t96.5 -34zM338 635l-129 110q-22 19 -29.5 34.5t-7.5 32.5h99l84 -177h-17z" />
    <glyph glyph-name="uni1EDF.sc" unicode="&#x1edf;" horiz-adv-x="706" 
d="M352 -10q-85 0 -151.5 37.5t-104.5 103t-38 149.5t38 150t104.5 103.5t151.5 37.5q40 0 78 -9v0h1l28 -8q22 -6 37 -6q29 0 41 12.5t12 34.5v43l5 5h43q13 0 18 -5t5 -22q0 -41 -28 -65t-74 -24h-3q61 -38 97 -102t36 -145q0 -84 -38.5 -149.5t-105 -103t-152.5 -37.5z
M367 41q73 0 115 59.5t42 154.5q0 79 -23.5 138.5t-65 93.5t-94.5 34q-73 0 -116 -59.5t-43 -153.5q0 -78 23.5 -138.5t65 -94.5t96.5 -34zM294 647v1q32 12 48.5 23t16.5 32q0 16 -16.5 27t-58.5 18l13 64q68 -6 95 -30.5t27 -50.5q0 -40 -29.5 -62t-87.5 -30z" />
    <glyph glyph-name="uni1EE1.sc" unicode="&#x1ee1;" horiz-adv-x="706" 
d="M352 -10q-85 0 -151.5 37.5t-104.5 103t-38 149.5t38 150t104.5 103.5t151.5 37.5q40 0 78 -9v0h1l28 -8q22 -6 37 -6q29 0 41 12.5t12 34.5v43l5 5h43q13 0 18 -5t5 -22q0 -41 -28 -65t-74 -24h-3q61 -38 97 -102t36 -145q0 -84 -38.5 -149.5t-105 -103t-152.5 -37.5z
M367 41q73 0 115 59.5t42 154.5q0 79 -23.5 138.5t-65 93.5t-94.5 34q-73 0 -116 -59.5t-43 -153.5q0 -78 23.5 -138.5t65 -94.5t96.5 -34zM186 657q19 58 34.5 86t31.5 37t36 9t38.5 -9.5t35.5 -22.5t33 -22.5t32 -9.5q18 0 31 12.5t29 51.5h19q-19 -58 -34.5 -86
t-31.5 -37t-36 -9t-38.5 9.5t-35.5 22.5t-33 22.5t-32 9.5q-18 0 -31 -12.5t-29 -51.5h-19z" />
    <glyph glyph-name="uni0153.sc" unicode="&#x153;" horiz-adv-x="920" 
d="M380 0q-101 0 -173 33t-110.5 93t-38.5 141q0 85 39 151.5t110.5 104t170.5 37.5h458v-147h-16l-58 96h-192v-195h138l40 70h15v-188h-15l-40 70h-138v-215h213l62 120h16v-171h-481zM400 51h49v458h-48q-109 0 -164.5 -60t-55.5 -170q0 -103 56 -165.5t163 -62.5z" />
    <glyph glyph-name="uni0155.sc" unicode="&#x155;" horiz-adv-x="622" 
d="M52 0v16l74 33v462l-74 33v16h272q92 0 145 -37t53 -101q0 -94 -114 -135l155 -240l65 -31v-16h-180l-152 255h-50v-205l65 -34v-16h-259zM284 512h-38v-209h42q54 0 82 28.5t28 77.5q0 103 -114 103zM293 635l85 177h98q0 -17 -7.5 -32.5t-29.5 -34.5l-128 -110h-18z
" />
    <glyph glyph-name="uni0159.sc" unicode="&#x159;" horiz-adv-x="622" 
d="M52 0v16l74 33v462l-74 33v16h272q92 0 145 -37t53 -101q0 -94 -114 -135l155 -240l65 -31v-16h-180l-152 255h-50v-205l65 -34v-16h-259zM284 512h-38v-209h42q54 0 82 28.5t28 77.5q0 103 -114 103zM279 635l-134 177h17l137 -88l137 88h17l-134 -177h-40z" />
    <glyph glyph-name="uni0157.sc" unicode="&#x157;" horiz-adv-x="622" 
d="M52 0v16l74 33v462l-74 33v16h272q92 0 145 -37t53 -101q0 -94 -114 -135l155 -240l65 -31v-16h-180l-152 255h-50v-205l65 -34v-16h-259zM284 512h-38v-209h42q54 0 82 28.5t28 77.5q0 103 -114 103zM311 -239q-8 0 -17.5 0.5t-16.5 2.5v18q7 -2 14.5 -3t12.5 -1
q25 0 39 9t14 27q0 23 -19.5 31t-61.5 8v49q0 9 8.5 15t32.5 6q52 0 78.5 -20.5t26.5 -58.5q0 -40 -31 -61.5t-80 -21.5z" />
    <glyph glyph-name="uni0211.sc" unicode="&#x211;" horiz-adv-x="622" 
d="M52 0v16l74 33v462l-74 33v16h272q92 0 145 -37t53 -101q0 -94 -114 -135l155 -240l65 -31v-16h-180l-152 255h-50v-205l65 -34v-16h-259zM284 512h-38v-209h42q54 0 82 28.5t28 77.5q0 103 -114 103zM226 635l-108 114q-16 16 -17 32t5 31h74l63 -177h-17zM353 635
l-95 114q-14 18 -15.5 33t3.5 30h74l51 -177h-18z" />
    <glyph glyph-name="uni0213.sc" unicode="&#x213;" horiz-adv-x="622" 
d="M52 0v16l74 33v462l-74 33v16h272q92 0 145 -37t53 -101q0 -94 -114 -135l155 -240l65 -31v-16h-180l-152 255h-50v-205l65 -34v-16h-259zM284 512h-38v-209h42q54 0 82 28.5t28 77.5q0 103 -114 103zM145 645q20 84 54.5 125.5t99.5 41.5q69 0 102 -41.5t52 -125.5h-17
q-19 42 -39.5 62t-44 26t-53.5 6t-53.5 -6t-43.5 -26t-40 -62h-17z" />
    <glyph glyph-name="uni1E5B.sc" unicode="&#x1e5b;" horiz-adv-x="622" 
d="M52 0v16l74 33v462l-74 33v16h272q92 0 145 -37t53 -101q0 -94 -114 -135l155 -240l65 -31v-16h-180l-152 255h-50v-205l65 -34v-16h-259zM284 512h-38v-209h42q54 0 82 28.5t28 77.5q0 103 -114 103zM348 -220q-28 0 -48 20t-20 48t20 48t48 20t48 -20t20 -48t-20 -48
t-48 -20z" />
    <glyph glyph-name="uni1E5F.sc" unicode="&#x1e5f;" horiz-adv-x="622" 
d="M52 0v16l74 33v462l-74 33v16h272q92 0 145 -37t53 -101q0 -94 -114 -135l155 -240l65 -31v-16h-180l-152 255h-50v-205l65 -34v-16h-259zM284 512h-38v-209h42q54 0 82 28.5t28 77.5q0 103 -114 103zM208 -177v56h280v-56h-280z" />
    <glyph glyph-name="uni00DF.sc" unicode="&#xdf;" horiz-adv-x="1004" 
d="M239 -10q-55 0 -96 12t-81 31l-10 139h16l60 -100q25 -17 53.5 -25t58.5 -8q52 0 81 21t29 62q0 31 -16.5 49t-51 34.5t-89.5 42.5q-62 29 -91.5 63.5t-29.5 90.5q0 46 27 84t72 61.5t98 23.5q44 0 81.5 -10.5t71.5 -27.5l8 -134h-16l-59 98q-36 25 -83 25q-44 0 -70 -22
t-26 -60q0 -24 12 -40.5t39 -32t70 -36.5q55 -27 89 -50.5t49.5 -53t15.5 -71.5q0 -50 -28 -87.5t-75.5 -58t-108.5 -20.5zM741 -10q-55 0 -96 12t-81 31l-10 139h16l60 -100q25 -17 53.5 -25t58.5 -8q52 0 81 21t29 62q0 31 -16.5 49t-51 34.5t-89.5 42.5
q-62 29 -91.5 63.5t-29.5 90.5q0 46 27 84t72 61.5t98 23.5q44 0 81.5 -10.5t71.5 -27.5l8 -134h-16l-59 98q-36 25 -83 25q-44 0 -70 -22t-26 -60q0 -24 12 -40.5t39 -32t70 -36.5q55 -27 89 -50.5t49.5 -53t15.5 -71.5q0 -50 -28 -87.5t-75.5 -58t-108.5 -20.5z" />
    <glyph glyph-name="uni015B.sc" unicode="&#x15b;" horiz-adv-x="502" 
d="M239 -10q-55 0 -96 12t-81 31l-10 139h16l60 -100q25 -17 53.5 -25t58.5 -8q52 0 81 21t29 62q0 31 -16.5 49t-51 34.5t-89.5 42.5q-62 29 -91.5 63.5t-29.5 90.5q0 46 27 84t72 61.5t98 23.5q44 0 81.5 -10.5t71.5 -27.5l8 -134h-16l-59 98q-36 25 -83 25q-44 0 -70 -22
t-26 -60q0 -24 12 -40.5t39 -32t70 -36.5q55 -27 89 -50.5t49.5 -53t15.5 -71.5q0 -50 -28 -87.5t-75.5 -58t-108.5 -20.5zM256 635l85 177h98q0 -17 -7.5 -32.5t-29.5 -34.5l-128 -110h-18z" />
    <glyph glyph-name="uni015D.sc" unicode="&#x15d;" horiz-adv-x="502" 
d="M239 -10q-55 0 -96 12t-81 31l-10 139h16l60 -100q25 -17 53.5 -25t58.5 -8q52 0 81 21t29 62q0 31 -16.5 49t-51 34.5t-89.5 42.5q-62 29 -91.5 63.5t-29.5 90.5q0 46 27 84t72 61.5t98 23.5q44 0 81.5 -10.5t71.5 -27.5l8 -134h-16l-59 98q-36 25 -83 25q-44 0 -70 -22
t-26 -60q0 -24 12 -40.5t39 -32t70 -36.5q55 -27 89 -50.5t49.5 -53t15.5 -71.5q0 -50 -28 -87.5t-75.5 -58t-108.5 -20.5zM107 635l134 177h40l134 -177h-17l-137 88l-137 -88h-17z" />
    <glyph glyph-name="uni0161.sc" unicode="&#x161;" horiz-adv-x="502" 
d="M239 -10q-55 0 -96 12t-81 31l-10 139h16l60 -100q25 -17 53.5 -25t58.5 -8q52 0 81 21t29 62q0 31 -16.5 49t-51 34.5t-89.5 42.5q-62 29 -91.5 63.5t-29.5 90.5q0 46 27 84t72 61.5t98 23.5q44 0 81.5 -10.5t71.5 -27.5l8 -134h-16l-59 98q-36 25 -83 25q-44 0 -70 -22
t-26 -60q0 -24 12 -40.5t39 -32t70 -36.5q55 -27 89 -50.5t49.5 -53t15.5 -71.5q0 -50 -28 -87.5t-75.5 -58t-108.5 -20.5zM241 635l-134 177h17l137 -88l137 88h17l-134 -177h-40z" />
    <glyph glyph-name="uni015F.sc" unicode="&#x15f;" horiz-adv-x="502" 
d="M254 -240q-55 0 -82 26v16h3q13 -6 28 -8.5t32 -2.5q28 0 41 10.5t13 27.5q0 22 -20 36.5t-79 31.5l42 93q-52 1 -91.5 12.5t-78.5 30.5l-10 139h16l60 -100q25 -17 53.5 -25t58.5 -8q52 0 81 21t29 62q0 31 -16.5 49t-51 34.5t-89.5 42.5q-62 29 -91.5 63.5t-29.5 90.5
q0 46 27 84t72 61.5t98 23.5q44 0 81.5 -10.5t71.5 -27.5l8 -134h-16l-59 98q-36 25 -83 25q-44 0 -70 -22t-26 -60q0 -24 12 -40.5t39 -32t70 -36.5q55 -27 89 -50.5t49.5 -53t15.5 -71.5q0 -68 -51 -112.5t-130 -51.5l-18 -40q57 -17 80 -40t23 -63q0 -38 -27 -63.5
t-74 -25.5z" />
    <glyph glyph-name="uni0219.sc" unicode="&#x219;" horiz-adv-x="502" 
d="M239 -10q-55 0 -96 12t-81 31l-10 139h16l60 -100q25 -17 53.5 -25t58.5 -8q52 0 81 21t29 62q0 31 -16.5 49t-51 34.5t-89.5 42.5q-62 29 -91.5 63.5t-29.5 90.5q0 46 27 84t72 61.5t98 23.5q44 0 81.5 -10.5t71.5 -27.5l8 -134h-16l-59 98q-36 25 -83 25q-44 0 -70 -22
t-26 -60q0 -24 12 -40.5t39 -32t70 -36.5q55 -27 89 -50.5t49.5 -53t15.5 -71.5q0 -50 -28 -87.5t-75.5 -58t-108.5 -20.5zM218 -239q-8 0 -17.5 0.5t-16.5 2.5v18q7 -2 14.5 -3t12.5 -1q25 0 39 9t14 27q0 23 -19.5 31t-61.5 8v49q0 9 8.5 15t32.5 6q52 0 78.5 -20.5
t26.5 -58.5q0 -40 -31 -61.5t-80 -21.5z" />
    <glyph glyph-name="uni1E61.sc" unicode="&#x1e61;" horiz-adv-x="502" 
d="M239 -10q-55 0 -96 12t-81 31l-10 139h16l60 -100q25 -17 53.5 -25t58.5 -8q52 0 81 21t29 62q0 31 -16.5 49t-51 34.5t-89.5 42.5q-62 29 -91.5 63.5t-29.5 90.5q0 46 27 84t72 61.5t98 23.5q44 0 81.5 -10.5t71.5 -27.5l8 -134h-16l-59 98q-36 25 -83 25q-44 0 -70 -22
t-26 -60q0 -24 12 -40.5t39 -32t70 -36.5q55 -27 89 -50.5t49.5 -53t15.5 -71.5q0 -50 -28 -87.5t-75.5 -58t-108.5 -20.5zM261 655q-28 0 -48 20t-20 48t20 48t48 20t48 -20t20 -48t-20 -48t-48 -20z" />
    <glyph glyph-name="uni1E63.sc" unicode="&#x1e63;" horiz-adv-x="502" 
d="M239 -10q-55 0 -96 12t-81 31l-10 139h16l60 -100q25 -17 53.5 -25t58.5 -8q52 0 81 21t29 62q0 31 -16.5 49t-51 34.5t-89.5 42.5q-62 29 -91.5 63.5t-29.5 90.5q0 46 27 84t72 61.5t98 23.5q44 0 81.5 -10.5t71.5 -27.5l8 -134h-16l-59 98q-36 25 -83 25q-44 0 -70 -22
t-26 -60q0 -24 12 -40.5t39 -32t70 -36.5q55 -27 89 -50.5t49.5 -53t15.5 -71.5q0 -50 -28 -87.5t-75.5 -58t-108.5 -20.5zM255 -220q-28 0 -48 20t-20 48t20 48t48 20t48 -20t20 -48t-20 -48t-48 -20z" />
    <glyph glyph-name="uni1E65.sc" unicode="&#x1e65;" horiz-adv-x="502" 
d="M239 -10q-55 0 -96 12t-81 31l-10 139h16l60 -100q25 -17 53.5 -25t58.5 -8q52 0 81 21t29 62q0 31 -16.5 49t-51 34.5t-89.5 42.5q-62 29 -91.5 63.5t-29.5 90.5q0 46 27 84t72 61.5t98 23.5q44 0 81.5 -10.5t71.5 -27.5l8 -134h-16l-59 98q-36 25 -83 25q-44 0 -70 -22
t-26 -60q0 -24 12 -40.5t39 -32t70 -36.5q55 -27 89 -50.5t49.5 -53t15.5 -71.5q0 -50 -28 -87.5t-75.5 -58t-108.5 -20.5zM252 635l85 152h98q0 -17 -7 -34t-30 -33l-128 -85h-18zM216 719q-28 0 -48 19.5t-20 48.5t20 48t48 19t48 -19t20 -48t-20 -48.5t-48 -19.5z" />
    <glyph glyph-name="uni1E67.sc" unicode="&#x1e67;" horiz-adv-x="502" 
d="M239 -10q-55 0 -96 12t-81 31l-10 139h16l60 -100q25 -17 53.5 -25t58.5 -8q52 0 81 21t29 62q0 31 -16.5 49t-51 34.5t-89.5 42.5q-62 29 -91.5 63.5t-29.5 90.5q0 46 27 84t72 61.5t98 23.5q44 0 81.5 -10.5t71.5 -27.5l8 -134h-16l-59 98q-36 25 -83 25q-44 0 -70 -22
t-26 -60q0 -24 12 -40.5t39 -32t70 -36.5q55 -27 89 -50.5t49.5 -53t15.5 -71.5q0 -50 -28 -87.5t-75.5 -58t-108.5 -20.5zM241 635l-134 177h17l137 -88l137 88h17l-134 -177h-40zM261 824q-28 0 -48 19.5t-20 48.5t20 48t48 19t48 -19t20 -48t-20 -48.5t-48 -19.5z" />
    <glyph glyph-name="uni1E69.sc" unicode="&#x1e69;" horiz-adv-x="502" 
d="M239 -10q-55 0 -96 12t-81 31l-10 139h16l60 -100q25 -17 53.5 -25t58.5 -8q52 0 81 21t29 62q0 31 -16.5 49t-51 34.5t-89.5 42.5q-62 29 -91.5 63.5t-29.5 90.5q0 46 27 84t72 61.5t98 23.5q44 0 81.5 -10.5t71.5 -27.5l8 -134h-16l-59 98q-36 25 -83 25q-44 0 -70 -22
t-26 -60q0 -24 12 -40.5t39 -32t70 -36.5q55 -27 89 -50.5t49.5 -53t15.5 -71.5q0 -50 -28 -87.5t-75.5 -58t-108.5 -20.5zM261 655q-28 0 -48 20t-20 48t20 48t48 20t48 -20t20 -48t-20 -48t-48 -20zM255 -220q-28 0 -48 20t-20 48t20 48t48 20t48 -20t20 -48t-20 -48
t-48 -20z" />
    <glyph glyph-name="uni0165.sc" unicode="&#x165;" horiz-adv-x="624" 
d="M161 0v16l91 33v460h-137l-59 -129h-16v180h545v-180h-16l-61 129h-136v-460l92 -33v-16h-303zM292 635l-134 177h17l137 -88l137 88h17l-134 -177h-40z" />
    <glyph glyph-name="uni021B.sc" unicode="&#x21b;" horiz-adv-x="624" 
d="M161 0v16l91 33v460h-137l-59 -129h-16v180h545v-180h-16l-61 129h-136v-460l92 -33v-16h-303zM275 -239q-8 0 -17.5 0.5t-16.5 2.5v18q7 -2 14.5 -3t12.5 -1q25 0 39 9t14 27q0 23 -19.5 31t-61.5 8v49q0 9 8.5 15t32.5 6q52 0 78.5 -20.5t26.5 -58.5q0 -40 -31 -61.5
t-80 -21.5z" />
    <glyph glyph-name="uni0167.sc" unicode="&#x167;" horiz-adv-x="624" 
d="M161 0v16l91 33v219h-107v46h107v195h-137l-59 -129h-16v180h545v-180h-16l-61 129h-136v-195h106v-46h-106v-219l92 -33v-16h-303z" />
    <glyph glyph-name="uni0163.sc" unicode="&#x163;" horiz-adv-x="624" 
d="M161 0v16l91 33v460h-137l-59 -129h-16v180h545v-180h-16l-61 129h-136v-460l92 -33v-16h-132l-22 -47q57 -18 80 -41t23 -63q0 -38 -27 -63.5t-75 -25.5q-55 0 -82 26v16h4q23 -11 59 -11q28 0 41.5 10.5t13.5 27.5q0 22 -20.5 36.5t-79.5 31.5l48 103h-134z" />
    <glyph glyph-name="uni1E6D.sc" unicode="&#x1e6d;" horiz-adv-x="624" 
d="M161 0v16l91 33v460h-137l-59 -129h-16v180h545v-180h-16l-61 129h-136v-460l92 -33v-16h-303zM312 -220q-28 0 -48 20t-20 48t20 48t48 20t48 -20t20 -48t-20 -48t-48 -20z" />
    <glyph glyph-name="uni1E6F.sc" unicode="&#x1e6f;" horiz-adv-x="624" 
d="M161 0v16l91 33v460h-137l-59 -129h-16v180h545v-180h-16l-61 129h-136v-460l92 -33v-16h-303zM172 -177v56h280v-56h-280z" />
    <glyph glyph-name="uni00F9.sc" unicode="&#xf9;" horiz-adv-x="746" 
d="M376 -10q-72 0 -128.5 23t-89 75t-32.5 140v283l-74 33v16h269v-16l-74 -33v-281q0 -68 20 -107t55.5 -56t83.5 -17q42 0 77 16t56 50.5t21 88.5v308l-83 31v16h216v-16l-73 -32v-290q0 -122 -66 -177t-178 -55zM388 635l-129 110q-22 19 -29.5 34.5t-7.5 32.5h99
l84 -177h-17z" />
    <glyph glyph-name="uni00FA.sc" unicode="&#xfa;" horiz-adv-x="746" 
d="M376 -10q-72 0 -128.5 23t-89 75t-32.5 140v283l-74 33v16h269v-16l-74 -33v-281q0 -68 20 -107t55.5 -56t83.5 -17q42 0 77 16t56 50.5t21 88.5v308l-83 31v16h216v-16l-73 -32v-290q0 -122 -66 -177t-178 -55zM391 635l85 177h98q0 -17 -7.5 -32.5t-29.5 -34.5
l-128 -110h-18z" />
    <glyph glyph-name="uni00FB.sc" unicode="&#xfb;" horiz-adv-x="746" 
d="M376 -10q-72 0 -128.5 23t-89 75t-32.5 140v283l-74 33v16h269v-16l-74 -33v-281q0 -68 20 -107t55.5 -56t83.5 -17q42 0 77 16t56 50.5t21 88.5v308l-83 31v16h216v-16l-73 -32v-290q0 -122 -66 -177t-178 -55zM242 635l134 177h40l134 -177h-17l-137 88l-137 -88h-17z
" />
    <glyph glyph-name="uni0169.sc" unicode="&#x169;" horiz-adv-x="746" 
d="M376 -10q-72 0 -128.5 23t-89 75t-32.5 140v283l-74 33v16h269v-16l-74 -33v-281q0 -68 20 -107t55.5 -56t83.5 -17q42 0 77 16t56 50.5t21 88.5v308l-83 31v16h216v-16l-73 -32v-290q0 -122 -66 -177t-178 -55zM236 657q19 58 34.5 86t31.5 37t36 9t38.5 -9.5
t35.5 -22.5t33 -22.5t32 -9.5q18 0 31 12.5t29 51.5h19q-19 -58 -34.5 -86t-31.5 -37t-36 -9t-38.5 9.5t-35.5 22.5t-33 22.5t-32 9.5q-18 0 -31 -12.5t-29 -51.5h-19z" />
    <glyph glyph-name="uni00FC.sc" unicode="&#xfc;" horiz-adv-x="746" 
d="M376 -10q-72 0 -128.5 23t-89 75t-32.5 140v283l-74 33v16h269v-16l-74 -33v-281q0 -68 20 -107t55.5 -56t83.5 -17q42 0 77 16t56 50.5t21 88.5v308l-83 31v16h216v-16l-73 -32v-290q0 -122 -66 -177t-178 -55zM300 668q-24 0 -39.5 15.5t-15.5 38.5t15.5 38.5
t39.5 15.5q23 0 38.5 -15.5t15.5 -38.5t-15.5 -38.5t-38.5 -15.5zM492 668q-24 0 -39 15.5t-15 38.5t15 38.5t39 15.5t39 -15.5t15 -38.5t-15 -38.5t-39 -15.5z" />
    <glyph glyph-name="uni016B.sc" unicode="&#x16b;" horiz-adv-x="746" 
d="M376 -10q-72 0 -128.5 23t-89 75t-32.5 140v283l-74 33v16h269v-16l-74 -33v-281q0 -68 20 -107t55.5 -56t83.5 -17q42 0 77 16t56 50.5t21 88.5v308l-83 31v16h216v-16l-73 -32v-290q0 -122 -66 -177t-178 -55zM256 694v56h280v-56h-280z" />
    <glyph glyph-name="uni016D.sc" unicode="&#x16d;" horiz-adv-x="746" 
d="M376 -10q-72 0 -128.5 23t-89 75t-32.5 140v283l-74 33v16h269v-16l-74 -33v-281q0 -68 20 -107t55.5 -56t83.5 -17q42 0 77 16t56 50.5t21 88.5v308l-83 31v16h216v-16l-73 -32v-290q0 -122 -66 -177t-178 -55zM396 645q-69 0 -102 41.5t-52 125.5h17q19 -42 39.5 -62
t44 -26t53.5 -6t53.5 6t43.5 26t40 62h17q-20 -84 -54.5 -125.5t-99.5 -41.5z" />
    <glyph glyph-name="uni016F.sc" unicode="&#x16f;" horiz-adv-x="746" 
d="M376 -10q-72 0 -128.5 23t-89 75t-32.5 140v283l-74 33v16h269v-16l-74 -33v-281q0 -68 20 -107t55.5 -56t83.5 -17q42 0 77 16t56 50.5t21 88.5v308l-83 31v16h216v-16l-73 -32v-290q0 -122 -66 -177t-178 -55zM396 807q39 0 63.5 -24t24.5 -60t-24 -60t-64 -24
q-39 0 -63.5 23.5t-24.5 60.5q0 36 24.5 60t63.5 24zM392 783q-31 0 -31 -53q0 -67 40 -67q31 0 31 53q0 67 -40 67z" />
    <glyph glyph-name="uni0171.sc" unicode="&#x171;" horiz-adv-x="746" 
d="M376 -10q-72 0 -128.5 23t-89 75t-32.5 140v283l-74 33v16h269v-16l-74 -33v-281q0 -68 20 -107t55.5 -56t83.5 -17q42 0 77 16t56 50.5t21 88.5v308l-83 31v16h216v-16l-73 -32v-290q0 -122 -66 -177t-178 -55zM317 635l46 177h74q5 -15 3 -30t-15 -33l-90 -114h-18z
M445 635l59 177h74q5 -15 4.5 -30.5t-16.5 -32.5l-104 -114h-17z" />
    <glyph glyph-name="uni0173.sc" unicode="&#x173;" horiz-adv-x="746" 
d="M390 -240q-45 0 -72.5 24t-27.5 65q0 34 21 68t56 73q-70 1 -124.5 25t-85.5 75.5t-31 137.5v283l-74 33v16h269v-16l-74 -33v-281q0 -68 20 -107t55.5 -56t83.5 -17q42 0 77 16t56 50.5t21 88.5v308l-83 31v16h216v-16l-73 -32v-290q0 -115 -58.5 -170t-159.5 -61
q-37 -64 -37 -119q0 -63 61 -63q11 0 24 3.5t24 10.5h4v-15q-14 -22 -36 -35t-52 -13z" />
    <glyph glyph-name="uni1EE5.sc" unicode="&#x1ee5;" horiz-adv-x="746" 
d="M376 -10q-72 0 -128.5 23t-89 75t-32.5 140v283l-74 33v16h269v-16l-74 -33v-281q0 -68 20 -107t55.5 -56t83.5 -17q42 0 77 16t56 50.5t21 88.5v308l-83 31v16h216v-16l-73 -32v-290q0 -122 -66 -177t-178 -55zM384 -220q-28 0 -48 20t-20 48t20 48t48 20t48 -20t20 -48
t-20 -48t-48 -20z" />
    <glyph glyph-name="uni0215.sc" unicode="&#x215;" horiz-adv-x="746" 
d="M376 -10q-72 0 -128.5 23t-89 75t-32.5 140v283l-74 33v16h269v-16l-74 -33v-281q0 -68 20 -107t55.5 -56t83.5 -17q42 0 77 16t56 50.5t21 88.5v308l-83 31v16h216v-16l-73 -32v-290q0 -122 -66 -177t-178 -55zM323 635l-108 114q-16 16 -17 32t5 31h74l63 -177h-17z
M450 635l-95 114q-14 18 -15.5 33t3.5 30h74l51 -177h-18z" />
    <glyph glyph-name="uni0217.sc" unicode="&#x217;" horiz-adv-x="746" 
d="M376 -10q-72 0 -128.5 23t-89 75t-32.5 140v283l-74 33v16h269v-16l-74 -33v-281q0 -68 20 -107t55.5 -56t83.5 -17q42 0 77 16t56 50.5t21 88.5v308l-83 31v16h216v-16l-73 -32v-290q0 -122 -66 -177t-178 -55zM242 645q20 84 54.5 125.5t99.5 41.5q69 0 102 -41.5
t52 -125.5h-17q-19 42 -39.5 62t-44 26t-53.5 6t-53.5 -6t-43.5 -26t-40 -62h-17z" />
    <glyph glyph-name="uni1EE7.sc" unicode="&#x1ee7;" horiz-adv-x="746" 
d="M376 -10q-72 0 -128.5 23t-89 75t-32.5 140v283l-74 33v16h269v-16l-74 -33v-281q0 -68 20 -107t55.5 -56t83.5 -17q42 0 77 16t56 50.5t21 88.5v308l-83 31v16h216v-16l-73 -32v-290q0 -122 -66 -177t-178 -55zM344 647v1q32 12 48.5 23t16.5 32q0 16 -16.5 27t-58.5 18
l13 64q68 -6 95 -30.5t27 -50.5q0 -40 -29.5 -62t-87.5 -30z" />
    <glyph glyph-name="uni1E79.sc" unicode="&#x1e79;" horiz-adv-x="746" 
d="M376 -10q-72 0 -128.5 23t-89 75t-32.5 140v283l-74 33v16h269v-16l-74 -33v-281q0 -68 20 -107t55.5 -56t83.5 -17q42 0 77 16t56 50.5t21 88.5v308l-83 31v16h216v-16l-73 -32v-290q0 -122 -66 -177t-178 -55zM236 657q19 58 34.5 86t31.5 37t36 9t38.5 -9.5
t35.5 -22.5t33 -22.5t32 -9.5q18 0 31 12.5t29 51.5h19q-19 -58 -34.5 -86t-31.5 -37t-36 -9t-38.5 9.5t-35.5 22.5t-33 22.5t-32 9.5q-18 0 -31 -12.5t-29 -51.5h-19zM386 815l85 152h98q0 -17 -7 -34t-30 -33l-128 -85h-18z" />
    <glyph glyph-name="uni1E7B.sc" unicode="&#x1e7b;" horiz-adv-x="746" 
d="M376 -10q-72 0 -128.5 23t-89 75t-32.5 140v283l-74 33v16h269v-16l-74 -33v-281q0 -68 20 -107t55.5 -56t83.5 -17q42 0 77 16t56 50.5t21 88.5v308l-83 31v16h216v-16l-73 -32v-290q0 -122 -66 -177t-178 -55zM256 694v56h280v-56h-280zM300 836q-24 0 -39.5 16
t-15.5 39q0 22 15.5 38t39.5 16q23 0 38.5 -16t15.5 -38q0 -23 -15.5 -39t-38.5 -16zM492 836q-24 0 -39 16t-15 39q0 22 15 38t39 16t39 -16t15 -38q0 -23 -15 -39t-39 -16z" />
    <glyph glyph-name="uni01B0.sc" unicode="&#x1b0;" horiz-adv-x="746" 
d="M376 -10q-72 0 -128.5 23t-89 75t-32.5 140v283l-74 33v16h269v-16l-74 -33v-281q0 -68 20 -107t55.5 -56t83.5 -17q42 0 77 16t56 50.5t21 88.5v308l-83 31v16h215q30 0 42.5 10.5t12.5 32.5v35l4 5h44q13 0 18 -4.5t5 -22.5q0 -40 -28.5 -58t-74.5 -18h-31l-64 -28
v-290q0 -122 -66 -177t-178 -55z" />
    <glyph glyph-name="uni1EE9.sc" unicode="&#x1ee9;" horiz-adv-x="746" 
d="M376 -10q-72 0 -128.5 23t-89 75t-32.5 140v283l-74 33v16h269v-16l-74 -33v-281q0 -68 20 -107t55.5 -56t83.5 -17q42 0 77 16t56 50.5t21 88.5v308l-83 31v16h215q30 0 42.5 10.5t12.5 32.5v35l4 5h44q13 0 18 -4.5t5 -22.5q0 -40 -28.5 -58t-74.5 -18h-31l-64 -28
v-290q0 -122 -66 -177t-178 -55zM391 640l85 177h98q0 -17 -7.5 -32.5t-29.5 -34.5l-128 -110h-18z" />
    <glyph glyph-name="uni1EF1.sc" unicode="&#x1ef1;" horiz-adv-x="746" 
d="M376 -10q-72 0 -128.5 23t-89 75t-32.5 140v283l-74 33v16h269v-16l-74 -33v-281q0 -68 20 -107t55.5 -56t83.5 -17q42 0 77 16t56 50.5t21 88.5v308l-83 31v16h215q30 0 42.5 10.5t12.5 32.5v35l4 5h44q13 0 18 -4.5t5 -22.5q0 -40 -28.5 -58t-74.5 -18h-31l-64 -28
v-290q0 -122 -66 -177t-178 -55zM384 -220q-28 0 -48 20t-20 48t20 48t48 20t48 -20t20 -48t-20 -48t-48 -20z" />
    <glyph glyph-name="uni1EEB.sc" unicode="&#x1eeb;" horiz-adv-x="746" 
d="M376 -10q-72 0 -128.5 23t-89 75t-32.5 140v283l-74 33v16h269v-16l-74 -33v-281q0 -68 20 -107t55.5 -56t83.5 -17q42 0 77 16t56 50.5t21 88.5v308l-83 31v16h215q30 0 42.5 10.5t12.5 32.5v35l4 5h44q13 0 18 -4.5t5 -22.5q0 -40 -28.5 -58t-74.5 -18h-31l-64 -28
v-290q0 -122 -66 -177t-178 -55zM388 640l-129 110q-22 19 -29.5 34.5t-7.5 32.5h99l84 -177h-17z" />
    <glyph glyph-name="uni1EED.sc" unicode="&#x1eed;" horiz-adv-x="746" 
d="M376 -10q-72 0 -128.5 23t-89 75t-32.5 140v283l-74 33v16h269v-16l-74 -33v-281q0 -68 20 -107t55.5 -56t83.5 -17q42 0 77 16t56 50.5t21 88.5v308l-83 31v16h215q30 0 42.5 10.5t12.5 32.5v35l4 5h44q13 0 18 -4.5t5 -22.5q0 -40 -28.5 -58t-74.5 -18h-31l-64 -28
v-290q0 -122 -66 -177t-178 -55zM344 652v1q32 12 48.5 23t16.5 32q0 16 -16.5 27t-58.5 18l13 64q68 -6 95 -30.5t27 -50.5q0 -40 -29.5 -62t-87.5 -30z" />
    <glyph glyph-name="uni1EEF.sc" unicode="&#x1eef;" horiz-adv-x="746" 
d="M376 -10q-72 0 -128.5 23t-89 75t-32.5 140v283l-74 33v16h269v-16l-74 -33v-281q0 -68 20 -107t55.5 -56t83.5 -17q42 0 77 16t56 50.5t21 88.5v308l-83 31v16h215q30 0 42.5 10.5t12.5 32.5v35l4 5h44q13 0 18 -4.5t5 -22.5q0 -40 -28.5 -58t-74.5 -18h-31l-64 -28
v-290q0 -122 -66 -177t-178 -55zM236 662q19 58 34.5 86t31.5 37t36 9t38.5 -9.5t35.5 -22.5t33 -22.5t32 -9.5q18 0 31 12.5t29 51.5h19q-19 -58 -34.5 -86t-31.5 -37t-36 -9t-38.5 9.5t-35.5 22.5t-33 22.5t-32 9.5q-18 0 -31 -12.5t-29 -51.5h-19z" />
    <glyph glyph-name="uni1E81.sc" unicode="&#x1e81;" horiz-adv-x="916" 
d="M243 -4l-163 515l-67 33v16h267v-16l-74 -30l102 -340h6l156 389h57l150 -389h5l98 339l-74 31v16h197v-16l-59 -29l-162 -519h-61l-156 394h-6l-156 -394h-60zM490 635l-129 110q-22 19 -29.5 34.5t-7.5 32.5h99l84 -177h-17z" />
    <glyph glyph-name="uni1E83.sc" unicode="&#x1e83;" horiz-adv-x="916" 
d="M243 -4l-163 515l-67 33v16h267v-16l-74 -30l102 -340h6l156 389h57l150 -389h5l98 339l-74 31v16h197v-16l-59 -29l-162 -519h-61l-156 394h-6l-156 -394h-60zM493 635l85 177h98q0 -17 -7.5 -32.5t-29.5 -34.5l-128 -110h-18z" />
    <glyph glyph-name="uni0175.sc" unicode="&#x175;" horiz-adv-x="916" 
d="M243 -4l-163 515l-67 33v16h267v-16l-74 -30l102 -340h6l156 389h57l150 -389h5l98 339l-74 31v16h197v-16l-59 -29l-162 -519h-61l-156 394h-6l-156 -394h-60zM345 635l134 177h40l134 -177h-17l-137 88l-137 -88h-17z" />
    <glyph glyph-name="uni1E85.sc" unicode="&#x1e85;" horiz-adv-x="916" 
d="M243 -4l-163 515l-67 33v16h267v-16l-74 -30l102 -340h6l156 389h57l150 -389h5l98 339l-74 31v16h197v-16l-59 -29l-162 -519h-61l-156 394h-6l-156 -394h-60zM403 668q-24 0 -39.5 15.5t-15.5 38.5t15.5 38.5t39.5 15.5q23 0 38.5 -15.5t15.5 -38.5t-15.5 -38.5
t-38.5 -15.5zM595 668q-24 0 -39 15.5t-15 38.5t15 38.5t39 15.5t39 -15.5t15 -38.5t-15 -38.5t-39 -15.5z" />
    <glyph glyph-name="uni1EF3.sc" unicode="&#x1ef3;" horiz-adv-x="660" 
d="M196 0v16l77 33v216l-181 245l-66 34v16h260v-16l-61 -30v-4l145 -194l131 193v3l-65 32v16h198v-16l-63 -30l-177 -251v-214l77 -33v-16h-275zM345 635l-129 110q-22 19 -29.5 34.5t-7.5 32.5h99l84 -177h-17z" />
    <glyph glyph-name="uni00FD.sc" unicode="&#xfd;" horiz-adv-x="660" 
d="M196 0v16l77 33v216l-181 245l-66 34v16h260v-16l-61 -30v-4l145 -194l131 193v3l-65 32v16h198v-16l-63 -30l-177 -251v-214l77 -33v-16h-275zM348 635l85 177h98q0 -17 -7.5 -32.5t-29.5 -34.5l-128 -110h-18z" />
    <glyph glyph-name="uni0177.sc" unicode="&#x177;" horiz-adv-x="660" 
d="M196 0v16l77 33v216l-181 245l-66 34v16h260v-16l-61 -30v-4l145 -194l131 193v3l-65 32v16h198v-16l-63 -30l-177 -251v-214l77 -33v-16h-275zM199 635l134 177h40l134 -177h-17l-137 88l-137 -88h-17z" />
    <glyph glyph-name="uni00FF.sc" unicode="&#xff;" horiz-adv-x="660" 
d="M196 0v16l77 33v216l-181 245l-66 34v16h260v-16l-61 -30v-4l145 -194l131 193v3l-65 32v16h198v-16l-63 -30l-177 -251v-214l77 -33v-16h-275zM257 668q-24 0 -39.5 15.5t-15.5 38.5t15.5 38.5t39.5 15.5q23 0 38.5 -15.5t15.5 -38.5t-15.5 -38.5t-38.5 -15.5zM449 668
q-24 0 -39 15.5t-15 38.5t15 38.5t39 15.5t39 -15.5t15 -38.5t-15 -38.5t-39 -15.5z" />
    <glyph glyph-name="uni1EF9.sc" unicode="&#x1ef9;" horiz-adv-x="660" 
d="M196 0v16l77 33v216l-181 245l-66 34v16h260v-16l-61 -30v-4l145 -194l131 193v3l-65 32v16h198v-16l-63 -30l-177 -251v-214l77 -33v-16h-275zM193 657q19 58 34.5 86t31.5 37t36 9t38.5 -9.5t35.5 -22.5t33 -22.5t32 -9.5q18 0 31 12.5t29 51.5h19q-19 -58 -34.5 -86
t-31.5 -37t-36 -9t-38.5 9.5t-35.5 22.5t-33 22.5t-32 9.5q-18 0 -31 -12.5t-29 -51.5h-19z" />
    <glyph glyph-name="uni0233.sc" unicode="&#x233;" horiz-adv-x="660" 
d="M196 0v16l77 33v216l-181 245l-66 34v16h260v-16l-61 -30v-4l145 -194l131 193v3l-65 32v16h198v-16l-63 -30l-177 -251v-214l77 -33v-16h-275zM213 694v56h280v-56h-280z" />
    <glyph glyph-name="uni1EF5.sc" unicode="&#x1ef5;" horiz-adv-x="660" 
d="M196 0v16l77 33v216l-181 245l-66 34v16h260v-16l-61 -30v-4l145 -194l131 193v3l-65 32v16h198v-16l-63 -30l-177 -251v-214l77 -33v-16h-275zM334 -220q-28 0 -48 20t-20 48t20 48t48 20t48 -20t20 -48t-20 -48t-48 -20z" />
    <glyph glyph-name="uni1EF7.sc" unicode="&#x1ef7;" horiz-adv-x="660" 
d="M196 0v16l77 33v216l-181 245l-66 34v16h260v-16l-61 -30v-4l145 -194l131 193v3l-65 32v16h198v-16l-63 -30l-177 -251v-214l77 -33v-16h-275zM301 647v1q32 12 48.5 23t16.5 32q0 16 -16.5 27t-58.5 18l13 64q68 -6 95 -30.5t27 -50.5q0 -40 -29.5 -62t-87.5 -30z" />
    <glyph glyph-name="uni1E8F.sc" unicode="&#x1e8f;" horiz-adv-x="660" 
d="M196 0v16l77 33v216l-181 245l-66 34v16h260v-16l-61 -30v-4l145 -194l131 193v3l-65 32v16h198v-16l-63 -30l-177 -251v-214l77 -33v-16h-275zM353 655q-28 0 -48 20t-20 48t20 48t48 20t48 -20t20 -48t-20 -48t-48 -20z" />
    <glyph glyph-name="uni017A.sc" unicode="&#x17a;" horiz-adv-x="630" 
d="M86 0v24l298 485h-213l-59 -120h-16v171h438v-24l-297 -485h229l62 129h16v-180h-458zM315 635l85 177h98q0 -17 -7.5 -32.5t-29.5 -34.5l-128 -110h-18z" />
    <glyph glyph-name="uni017E.sc" unicode="&#x17e;" horiz-adv-x="630" 
d="M86 0v24l298 485h-213l-59 -120h-16v171h438v-24l-297 -485h229l62 129h16v-180h-458zM301 635l-134 177h17l137 -88l137 88h17l-134 -177h-40z" />
    <glyph glyph-name="uni017C.sc" unicode="&#x17c;" horiz-adv-x="630" 
d="M86 0v24l298 485h-213l-59 -120h-16v171h438v-24l-297 -485h229l62 129h16v-180h-458zM321 655q-28 0 -48 20t-20 48t20 48t48 20t48 -20t20 -48t-20 -48t-48 -20z" />
    <glyph glyph-name="uni1E93.sc" unicode="&#x1e93;" horiz-adv-x="630" 
d="M86 0v24l298 485h-213l-59 -120h-16v171h438v-24l-297 -485h229l62 129h16v-180h-458zM321 -220q-28 0 -48 20t-20 48t20 48t48 20t48 -20t20 -48t-20 -48t-48 -20z" />
    <glyph glyph-name="uni0259.sc" unicode="&#x259;" horiz-adv-x="586" 
d="M256 -10q-98 0 -153.5 67t-56.5 188l5 6h372v14q0 57 -19 104t-63 75.5t-119 28.5q-39 0 -82 -12.5t-91 -41.5h-4v17q28 58 88.5 96.5t141.5 38.5q83 0 142.5 -33t91.5 -92.5t32 -139.5q0 -69 -22.5 -127t-62 -100.5t-91 -65.5t-109.5 -23zM280 43q57 0 92.5 41.5
t46.5 117.5h-263q12 -86 43 -122.5t81 -36.5z" />
    <glyph glyph-name="uni014B.sc" unicode="&#x14b;" horiz-adv-x="728" 
d="M49 0v16l73 33v463l-73 32v16h165l335 -386v338l-92 32v16h222v-16l-71 -32v-531q0 -73 -18 -114t-46 -64q-24 -20 -55 -31.5t-66 -11.5q-29 0 -37.5 6t-8.5 23v51l4 5h57q64 0 87.5 24.5t23.5 92.5v37l-368 420v-368l92 -35v-16h-224z" />
    <glyph glyph-name="uni00F0.sc" unicode="&#xf0;" horiz-adv-x="703" 
d="M52 0v16l74 33v218h-71v46h71v198l-74 33v16h277q101 0 172.5 -32.5t108.5 -90t37 -132.5q0 -91 -40 -159.5t-112.5 -107t-171.5 -38.5h-271zM377 267h-130v-216h57q106 0 162 62.5t56 168.5q0 110 -57.5 168.5t-168.5 58.5h-49v-196h130v-46z" />
    <glyph glyph-name="uni00FE.sc" unicode="&#xfe;" horiz-adv-x="588" 
d="M52 0v16l67 33v462l-67 33v16h258v-16l-70 -33v-64h86q100 0 161 -36t61 -115q0 -48 -32 -84.5t-87 -57t-124 -20.5h-65v-85l70 -33v-16h-258zM283 396h-43v-213h49q65 0 100 28.5t35 76.5q0 58 -35.5 83t-105.5 25z" />
    <glyph glyph-name="dzcaron.sc" unicode="&#x1c6;" horiz-adv-x="1320" 
d="M52 0v16l74 33v462l-74 33v16h277q101 0 172.5 -32.5t108.5 -90t37 -132.5q0 -91 -40 -159.5t-112.5 -107t-171.5 -38.5h-271zM296 509h-49v-458h57q106 0 162 62.5t56 168.5q0 110 -57.5 168.5t-168.5 58.5zM776 0v24l298 485h-213l-59 -120h-16v171h438v-24l-297 -485
h229l62 129h16v-180h-458zM991 635l-134 177h17l137 -88l137 88h17l-134 -177h-40z" />
    <glyph glyph-name="lj.sc" unicode="&#x1c9;" horiz-adv-x="961" 
d="M52 0v16l73 33v462l-73 33v16h276v-16l-82 -33v-460h198l68 154h16v-205h-476zM635 -147q-14 0 -25.5 6t-11.5 23q0 2 3 17t7 39h7q12 -4 20.5 -6t18.5 -2q20 0 33 9.5t19.5 37.5t6.5 84v450l-71 34v15h263v-15l-71 -34v-314q0 -68 -14.5 -122t-35 -92.5t-39.5 -60.5
q-30 -34 -55.5 -51.5t-54.5 -17.5z" />
    <glyph glyph-name="nj.sc" unicode="&#x1cc;" horiz-adv-x="1098" 
d="M49 0v16l73 33v463l-73 32v16h165l335 -386v338l-92 32v16h222v-16l-71 -32v-516h-58l-369 422v-367l92 -35v-16h-224zM772 -147q-14 0 -25.5 6t-11.5 23q0 2 3 17t7 39h7q12 -4 20.5 -6t18.5 -2q20 0 33 9.5t19.5 37.5t6.5 84v450l-71 34v15h263v-15l-71 -34v-314
q0 -68 -14.5 -122t-35 -92.5t-39.5 -60.5q-30 -34 -55.5 -51.5t-54.5 -17.5z" />
    <glyph glyph-name="uni0452.sc" unicode="&#x452;" horiz-adv-x="726" 
d="M143 0v16l90 33v460h-120l-56 -111h-15v162h536v-159h-16l-56 108h-152v-230q27 23 70 42t94 19q73 0 112.5 -39t39.5 -124q0 -54 -14 -104t-35.5 -90.5t-43.5 -64.5q-31 -35 -56.5 -50t-48.5 -15q-16 0 -27 6t-11 23q0 2 3 17t7 39h7q13 -3 21 -5.5t18 -2.5q20 0 33 8.5
t19.5 35t6.5 81.5v96q0 56 -23 85.5t-79 29.5q-55 0 -93 -28v-189l83 -33v-16h-294z" />
    <glyph glyph-name="uni0454.sc" unicode="&#x454;" horiz-adv-x="652" 
d="M366 -10q-90 0 -159.5 36t-109 98.5t-39.5 142.5q0 67 26 123t71.5 96.5t103.5 62.5t121 22q44 0 75 -5.5t55 -15t48 -21.5l7 -148h-17l-69 111q-22 16 -44.5 22t-51.5 6q-53 0 -96 -26t-70.5 -72.5t-33.5 -107.5h187l40 70h15v-188h-15l-40 70h-189q4 -107 59 -166
t143 -59q28 0 51.5 4.5t44.5 15.5l78 111h16l-10 -138q-35 -20 -84 -32t-113 -12z" />
    <glyph glyph-name="uni0455.sc" unicode="&#x455;" horiz-adv-x="502" 
d="M239 -10q-55 0 -96 12t-81 31l-10 139h16l60 -100q25 -17 53.5 -25t58.5 -8q52 0 81 21t29 62q0 31 -16.5 49t-51 34.5t-89.5 42.5q-62 29 -91.5 63.5t-29.5 90.5q0 46 27 84t72 61.5t98 23.5q44 0 81.5 -10.5t71.5 -27.5l8 -134h-16l-59 98q-36 25 -83 25q-44 0 -70 -22
t-26 -60q0 -24 12 -40.5t39 -32t70 -36.5q55 -27 89 -50.5t49.5 -53t15.5 -71.5q0 -50 -28 -87.5t-75.5 -58t-108.5 -20.5z" />
    <glyph glyph-name="uni0456.sc" unicode="&#x456;" horiz-adv-x="369" 
d="M56 0v16l66 33v462l-66 33v16h257v-16l-70 -33v-462l70 -33v-16h-257z" />
    <glyph glyph-name="uni0457.sc" unicode="&#x457;" horiz-adv-x="369" 
d="M56 0v16l66 33v462l-66 33v16h257v-16l-70 -33v-462l70 -33v-16h-257zM87 668q-24 0 -39.5 15.5t-15.5 38.5t15.5 38.5t39.5 15.5q23 0 38.5 -15.5t15.5 -38.5t-15.5 -38.5t-38.5 -15.5zM279 668q-24 0 -39 15.5t-15 38.5t15 38.5t39 15.5t39 -15.5t15 -38.5t-15 -38.5
t-39 -15.5z" />
    <glyph glyph-name="uni0458.sc" unicode="&#x458;" horiz-adv-x="377" 
d="M51 -147q-14 0 -25.5 6t-11.5 23q0 2 3 17t7 39h7q12 -4 20.5 -6t18.5 -2q20 0 33 9.5t19.5 37.5t6.5 84v450l-71 34v15h263v-15l-71 -34v-314q0 -68 -14.5 -122t-35 -92.5t-39.5 -60.5q-30 -34 -55.5 -51.5t-54.5 -17.5z" />
    <glyph glyph-name="uni0459.sc" unicode="&#x459;" horiz-adv-x="878" 
d="M225 474q0 -109 -5 -182.5t-16 -123.5t-28 -87q-26 -55 -58 -72t-59 -17q-17 0 -23.5 5t-6.5 19v66l5 5h8q64 0 95 89.5t31 289.5v45l-72 32v17h505v-16l-91 -33v-177h86q74 0 132.5 -19.5t91.5 -56t33 -86.5q0 -52 -33 -90.5t-91.5 -60t-132.5 -21.5h-280v16l73 33v460
h-164v-35zM572 284h-62v-234h67q71 0 109.5 31.5t38.5 86.5q0 60 -38.5 88t-114.5 28z" />
    <glyph glyph-name="uni045A.sc" unicode="&#x45a;" horiz-adv-x="964" 
d="M52 0v16l73 33v462l-73 33v16h265v-16l-71 -33v-188h230v188l-70 33v16h282v-16l-92 -33v-188h87q75 0 133 -18t91 -53t33 -85q0 -52 -33.5 -89t-91.5 -57.5t-132 -20.5h-277v16l70 33v223h-230v-223l71 -33v-16h-265zM659 273h-63v-223h67q71 0 109.5 29t38.5 83
q0 61 -38 86t-114 25z" />
    <glyph glyph-name="uni045B.sc" unicode="&#x45b;" horiz-adv-x="766" 
d="M143 0v16l90 33v460h-120l-56 -111h-15v162h536v-159h-16l-56 108h-152v-229q27 25 69.5 42.5t90.5 17.5q78 0 117 -42t39 -121v-128l74 -33v-16h-195v151q0 57 -23 86t-79 29q-55 0 -93 -28v-189l84 -33v-16h-295z" />
    <glyph glyph-name="uni045F.sc" unicode="&#x45f;" horiz-adv-x="730" 
d="M312 0h-260v16l73 33v462l-73 33v16h263v-16l-70 -33v-460h239v460l-69 33v16h262v-16l-72 -33v-462l72 -33v-16h-259l-45 -146h-16z" />
    <glyph glyph-name="uni0430.sc" unicode="&#x430;" horiz-adv-x="670" 
d="M25 0v16l50 27l223 522h68l219 -518l61 -31v-16h-255v16l70 30l-59 142h-204l-59 -143l72 -29v-16h-186zM219 239h162l-81 195z" />
    <glyph glyph-name="uni0431.sc" unicode="&#x431;" horiz-adv-x="625" 
d="M332 0h-280v16l74 33v462l-73 33v16h472v-180h-16l-60 129h-202v-180h85q74 0 132.5 -19t91.5 -54.5t33 -85.5q0 -52 -33 -90t-91.5 -59t-132.5 -21zM308 279h-61v-229h66q72 0 110.5 31.5t38.5 84.5q0 60 -39 86.5t-115 26.5z" />
    <glyph glyph-name="uni0432.sc" unicode="&#x432;" horiz-adv-x="612" 
d="M52 0v16l73 33v462l-73 33v16h251q101 0 158.5 -32t57.5 -96q0 -46 -31.5 -81.5t-86.5 -49.5q79 -11 124.5 -47.5t45.5 -91.5q0 -46 -30.5 -83t-85.5 -58t-126 -21h-277zM265 509h-19v-195h22q58 0 93.5 24t35.5 74q0 97 -132 97zM297 266h-51v-215h57q64 0 102.5 27
t38.5 80q0 59 -39 83.5t-108 24.5z" />
    <glyph glyph-name="uni0433.sc" unicode="&#x433;" horiz-adv-x="530" 
d="M52 0v16l73 33v462l-73 33v16h452v-180h-16l-60 129h-182v-460l71 -33v-16h-265z" />
    <glyph glyph-name="uni0453.sc" unicode="&#x453;" horiz-adv-x="530" 
d="M52 0v16l73 33v462l-73 33v16h452v-180h-16l-60 129h-182v-460l71 -33v-16h-265zM246 635l85 177h98q0 -17 -7.5 -32.5t-29.5 -34.5l-128 -110h-18z" />
    <glyph glyph-name="uni0493.sc" unicode="&#x493;" horiz-adv-x="530" 
d="M52 0v16l73 33v218h-70v46h70v198l-73 33v16h452v-180h-16l-60 129h-182v-196h138v-46h-138v-218l71 -33v-16h-265z" />
    <glyph glyph-name="uni0434.sc" unicode="&#x434;" horiz-adv-x="654" 
d="M86 544v16h508v-16l-72 -33v-460h86v-197h-16l-73 146h-411l-72 -146h-16v197h73q40 99 52.5 208.5t12.5 226.5v25zM402 51v459h-187v-23q0 -121 -12 -229t-48 -207h247z" />
    <glyph glyph-name="uni0435.sc" unicode="&#x435;" horiz-adv-x="596" 
d="M52 0v16l73 33v462l-73 33v16h460v-147h-16l-58 96h-192v-195h138l40 70h15v-188h-15l-40 70h-138v-215h214l61 120h16v-171h-485z" />
    <glyph glyph-name="uni0451.sc" unicode="&#x451;" horiz-adv-x="596" 
d="M52 0v16l73 33v462l-73 33v16h460v-147h-16l-58 96h-192v-195h138l40 70h15v-188h-15l-40 70h-138v-215h214l61 120h16v-171h-485zM215 668q-24 0 -39.5 15.5t-15.5 38.5t15.5 38.5t39.5 15.5q23 0 38.5 -15.5t15.5 -38.5t-15.5 -38.5t-38.5 -15.5zM407 668
q-24 0 -39 15.5t-15 38.5t15 38.5t39 15.5t39 -15.5t15 -38.5t-15 -38.5t-39 -15.5z" />
    <glyph glyph-name="uni0436.sc" unicode="&#x436;" horiz-adv-x="988" 
d="M360 0v16l69 33v462l-72 33v16h266v-16l-73 -33v-462l69 -33v-16h-259zM551 284l227 232l-64 28v16h203v-16l-63 -22l-195 -193l242 -290l59 -23v-16h-177zM429 284l-232 -284h-169v16l59 23l233 281l-204 202l-64 22v16h213v-16l-64 -28z" />
    <glyph glyph-name="uni0437.sc" unicode="&#x437;" horiz-adv-x="592" 
d="M292 571q58 0 106 -15.5t76.5 -45.5t28.5 -72q0 -45 -31.5 -83.5t-97.5 -53.5q79 -12 121.5 -50t42.5 -91q0 -50 -32 -88t-88.5 -60t-130.5 -22q-65 0 -111.5 12t-87.5 32l-10 137h16l72 -104q22 -12 48.5 -19t62.5 -7q65 0 99 30t34 82q0 58 -37 84.5t-111 26.5h-68v50
h57q61 0 94.5 27.5t33.5 76.5q0 102 -105 102q-25 0 -47 -5t-42 -17l-69 -108h-16l5 139q37 19 78 30.5t109 11.5z" />
    <glyph glyph-name="uni0438.sc" unicode="&#x438;" horiz-adv-x="755" 
d="M52 0v16l73 33v462l-73 33v16h265v-16l-71 -33v-359l265 323v36l-72 33v16h264v-16l-71 -33v-462l71 -33v-16h-264v16l72 33v359l-265 -322v-37l71 -33v-16h-265z" />
    <glyph glyph-name="uni0439.sc" unicode="&#x439;" horiz-adv-x="755" 
d="M52 0v16l73 33v462l-73 33v16h265v-16l-71 -33v-359l265 323v36l-72 33v16h264v-16l-71 -33v-462l71 -33v-16h-264v16l72 33v359l-265 -322v-37l71 -33v-16h-265zM206 812h93q0 -61 19 -95t61 -34t61.5 34t19.5 95h93q0 -75 -44.5 -121t-129.5 -46q-84 0 -128.5 46
t-44.5 121z" />
    <glyph glyph-name="uni04E3.sc" unicode="&#x4e3;" horiz-adv-x="755" 
d="M52 0v16l73 33v462l-73 33v16h265v-16l-71 -33v-359l265 323v36l-72 33v16h264v-16l-71 -33v-462l71 -33v-16h-264v16l72 33v359l-265 -322v-37l71 -33v-16h-265zM242 694v56h280v-56h-280z" />
    <glyph glyph-name="uni043A.sc" unicode="&#x43a;" horiz-adv-x="702" 
d="M53 0v16l74 33v462l-74 33v16h267v-16l-73 -33v-462l73 -33v-16h-267zM496 0l-249 284l231 231l-62 29v16h204v-16l-59 -24l-201 -193l251 -285l67 -26v-16h-182z" />
    <glyph glyph-name="uni045C.sc" unicode="&#x45c;" horiz-adv-x="702" 
d="M53 0v16l74 33v462l-74 33v16h267v-16l-73 -33v-462l73 -33v-16h-267zM496 0l-249 284l231 231l-62 29v16h204v-16l-59 -24l-201 -193l251 -285l67 -26v-16h-182zM353 635l85 177h98q0 -17 -7.5 -32.5t-29.5 -34.5l-128 -110h-18z" />
    <glyph glyph-name="uni043B.sc" unicode="&#x43b;" horiz-adv-x="654" 
d="M334 0v16l75 33v460h-184v-35q0 -109 -5 -182.5t-16 -123.5t-28 -87q-26 -55 -58 -72t-59 -17q-17 0 -23.5 5t-6.5 19v66l5 5h8q64 0 95 89.5t31 289.5v45l-72 32v17h505v-16l-72 -33v-462l72 -33v-16h-267z" />
    <glyph glyph-name="uni043C.sc" unicode="&#x43c;" horiz-adv-x="884" 
d="M49 0v16l73 33l18 462l-76 33v16h213l173 -389l176 389h204v-16l-74 -26l14 -469l65 -33v-16h-255v16l67 32l-8 409l-208 -461h-36l-203 460l-10 -408l74 -32v-16h-207z" />
    <glyph glyph-name="uni043D.sc" unicode="&#x43d;" horiz-adv-x="746" 
d="M52 0v16l73 33v462l-73 33v16h265v-16l-71 -33v-196h255v196l-71 33v16h264v-16l-72 -33v-462l72 -33v-16h-264v16l71 33v215h-255v-215l71 -33v-16h-265z" />
    </font>
</defs>
</svg>
